<svg width="293" height="81" viewBox="0 0 293 81" fill="none" xmlns="http://www.w3.org/2000/svg">
<g clip-path="url(#clip0)">
<rect x="0.301758" y="0.30188" width="292.642" height="79.8113" rx="39.9057" fill="#9DC130"/>
<path d="M137.464 28.3221H146.275C147.126 28.3221 147.967 28.4285 148.797 28.6414C149.627 28.8329 150.361 29.1628 151 29.631C151.66 30.078 152.192 30.6632 152.596 31.3869C153 32.1105 153.203 32.9831 153.203 34.0047C153.203 35.2817 152.841 36.3352 152.117 37.1652C151.394 37.9952 150.447 38.5912 149.276 38.953V39.0168C149.978 39.102 150.627 39.3042 151.223 39.6234C151.841 39.9214 152.362 40.3151 152.788 40.8046C153.213 41.2728 153.543 41.8262 153.777 42.4647C154.033 43.0819 154.16 43.7523 154.16 44.4759C154.16 45.7103 153.916 46.7426 153.426 47.5726C152.937 48.3814 152.288 49.0411 151.479 49.5519C150.691 50.0414 149.776 50.3926 148.733 50.6054C147.712 50.8183 146.669 50.9247 145.605 50.9247H137.464V28.3221ZM141.486 37.5164H145.158C146.499 37.5164 147.499 37.261 148.159 36.7502C148.84 36.2181 149.18 35.5264 149.18 34.6751C149.18 33.6961 148.829 32.9725 148.127 32.5042C147.446 32.0147 146.339 31.77 144.807 31.77H141.486V37.5164ZM141.486 47.4768H145.19C145.7 47.4768 146.243 47.4449 146.818 47.3811C147.414 47.3172 147.956 47.1682 148.446 46.9341C148.935 46.7 149.34 46.3701 149.659 45.9445C149.978 45.4975 150.138 44.9016 150.138 44.1567C150.138 42.9648 149.744 42.1348 148.957 41.6666C148.191 41.1983 146.988 40.9642 145.349 40.9642H141.486V47.4768ZM176.266 42.6243C176.266 43.9864 176.032 45.2208 175.564 46.3276C175.096 47.413 174.457 48.3388 173.648 49.105C172.84 49.8712 171.882 50.4671 170.775 50.8928C169.668 51.2971 168.466 51.4993 167.168 51.4993C165.869 51.4993 164.667 51.2971 163.56 50.8928C162.453 50.4671 161.485 49.8712 160.655 49.105C159.846 48.3388 159.208 47.413 158.74 46.3276C158.293 45.2208 158.069 43.9864 158.069 42.6243V28.3221H162.092V42.4966C162.092 43.05 162.177 43.6352 162.347 44.2525C162.517 44.8484 162.794 45.4017 163.177 45.9125C163.581 46.4233 164.103 46.849 164.741 47.1895C165.401 47.5088 166.21 47.6684 167.168 47.6684C168.125 47.6684 168.924 47.5088 169.562 47.1895C170.222 46.849 170.743 46.4233 171.126 45.9125C171.531 45.4017 171.818 44.8484 171.988 44.2525C172.159 43.6352 172.244 43.05 172.244 42.4966V28.3221H176.266V42.6243ZM201.285 49.2646C198.497 50.7544 195.379 51.4993 191.931 51.4993C190.186 51.4993 188.579 51.2226 187.11 50.6693C185.663 50.0946 184.407 49.2965 183.343 48.2749C182.3 47.2321 181.481 45.987 180.885 44.5398C180.289 43.0925 179.991 41.4857 179.991 39.7192C179.991 37.9101 180.289 36.2713 180.885 34.8028C181.481 33.313 182.3 32.0466 183.343 31.0038C184.407 29.9609 185.663 29.1628 187.11 28.6094C188.579 28.0348 190.186 27.7475 191.931 27.7475C193.655 27.7475 195.272 27.9603 196.783 28.386C198.294 28.7903 199.646 29.5246 200.838 30.5888L197.869 33.5897C197.145 32.8873 196.262 32.3446 195.219 31.9615C194.198 31.5784 193.112 31.3869 191.963 31.3869C190.792 31.3869 189.728 31.5997 188.77 32.0254C187.834 32.4297 187.025 33.0044 186.344 33.7493C185.663 34.4729 185.131 35.3242 184.748 36.3032C184.386 37.2823 184.205 38.3358 184.205 39.4638C184.205 40.6769 184.386 41.7943 184.748 42.8159C185.131 43.8374 185.663 44.7207 186.344 45.4656C187.025 46.2105 187.834 46.7958 188.77 47.2214C189.728 47.6471 190.792 47.8599 191.963 47.8599C192.984 47.8599 193.942 47.7642 194.836 47.5726C195.751 47.3811 196.56 47.0831 197.262 46.6787V41.3473H192.633V37.7079H201.285V49.2646Z" fill="white"/>
<path fill-rule="evenodd" clip-rule="evenodd" d="M62.4342 19.7785C63.0662 18.8759 64.3102 18.6565 65.2128 19.2885C66.1154 19.9205 66.3347 21.1645 65.7027 22.0671L62.4691 26.6852C64.5693 27.3562 66.0003 28.08 66.0003 28.08C66.0003 28.08 62.5026 34.0964 56.5701 34.0964C50.6376 34.0964 46.4222 28.4889 46.4222 28.4889C46.4222 28.4889 47.9169 27.535 50.1328 26.7168L46.6118 22.5208C45.9036 21.6767 46.0137 20.4183 46.8578 19.7101C47.7018 19.0018 48.9602 19.1119 49.6685 19.956L54.1722 25.3233C54.2616 25.4299 54.338 25.5431 54.4015 25.6609C54.931 25.5993 55.4709 25.5647 56.0159 25.5647C56.7806 25.5647 57.5443 25.6233 58.2896 25.7225C58.3269 25.6527 58.3689 25.5844 58.4154 25.5179L62.4342 19.7785ZM47.6448 34.3814C46.0617 33.2507 43.6662 30.2996 43.6662 30.2996C43.6662 30.2996 37.5471 35.1486 37.5471 45.4303C37.5471 55.712 48.1259 61.9 48.1259 61.9C48.1259 61.9 53.1803 56.7956 54.4211 50.3251C55.6619 43.8546 52.5857 36.6698 52.5857 36.6698C52.5857 36.6698 49.228 35.512 47.6448 34.3814ZM64.6946 34.3814C66.2777 33.2507 68.6733 30.2996 68.6733 30.2996C68.6733 30.2996 74.7923 35.1486 74.7923 45.4303C74.7923 55.712 64.2135 61.9001 64.2135 61.9001C64.2135 61.9001 59.1591 56.7957 57.9183 50.3251C56.6775 43.8546 59.7538 36.6698 59.7538 36.6698C59.7538 36.6698 63.1114 35.512 64.6946 34.3814Z" fill="white"/>
</g>
<defs>
<clipPath id="clip0">
<rect width="292.642" height="79.8113" fill="white" transform="translate(0.301758 0.30188)"/>
</clipPath>
</defs>
</svg>
