<svg width="293" height="81" viewBox="0 0 293 81" fill="none" xmlns="http://www.w3.org/2000/svg">
<g clip-path="url(#clip0)">
<rect x="0.301758" y="0.30188" width="292.642" height="79.8113" rx="39.9057" fill="#9DC130"/>
<text fill="white" xml:space="preserve" style="white-space: pre" font-family="Avenir" font-size="31.9245" font-weight="800" letter-spacing="0px"><tspan x="134.942" y="51.0448">BUG</tspan></text>
<path fill-rule="evenodd" clip-rule="evenodd" d="M62.4342 19.7785C63.0662 18.8759 64.3102 18.6565 65.2128 19.2885C66.1154 19.9205 66.3347 21.1645 65.7027 22.0671L62.4691 26.6852C64.5693 27.3562 66.0003 28.08 66.0003 28.08C66.0003 28.08 62.5026 34.0964 56.5701 34.0964C50.6376 34.0964 46.4222 28.4889 46.4222 28.4889C46.4222 28.4889 47.9169 27.535 50.1328 26.7168L46.6118 22.5208C45.9036 21.6767 46.0137 20.4183 46.8578 19.7101C47.7018 19.0018 48.9602 19.1119 49.6685 19.956L54.1722 25.3233C54.2616 25.4299 54.338 25.5431 54.4015 25.6609C54.931 25.5993 55.4709 25.5647 56.0159 25.5647C56.7806 25.5647 57.5443 25.6233 58.2896 25.7225C58.3269 25.6527 58.3689 25.5844 58.4154 25.5179L62.4342 19.7785ZM47.6448 34.3814C46.0617 33.2507 43.6662 30.2996 43.6662 30.2996C43.6662 30.2996 37.5471 35.1486 37.5471 45.4303C37.5471 55.712 48.1259 61.9 48.1259 61.9C48.1259 61.9 53.1803 56.7956 54.4211 50.3251C55.6619 43.8546 52.5857 36.6698 52.5857 36.6698C52.5857 36.6698 49.228 35.512 47.6448 34.3814ZM64.6946 34.3814C66.2777 33.2507 68.6733 30.2996 68.6733 30.2996C68.6733 30.2996 74.7923 35.1486 74.7923 45.4303C74.7923 55.712 64.2135 61.9001 64.2135 61.9001C64.2135 61.9001 59.1591 56.7957 57.9183 50.3251C56.6775 43.8546 59.7538 36.6698 59.7538 36.6698C59.7538 36.6698 63.1114 35.512 64.6946 34.3814Z" fill="white"/>
</g>
<defs>
<clipPath id="clip0">
<rect width="292.642" height="79.8113" fill="white" transform="translate(0.301758 0.30188)"/>
</clipPath>
</defs>
</svg>
