<svg width="294" height="81" viewBox="0 0 294 81" fill="none" xmlns="http://www.w3.org/2000/svg">
<g clip-path="url(#clip0)">
<rect x="0.830322" y="0.30188" width="292.642" height="79.8113" rx="39.9057" fill="#5F606D"/>
<text fill="white" xml:space="preserve" style="white-space: pre" font-family="Avenir" font-size="31.9245" font-weight="800" letter-spacing="0px"><tspan x="125.151" y="51.0448">DARK</tspan></text>
<path fill-rule="evenodd" clip-rule="evenodd" d="M44.6389 54.1595C45.3418 54.2671 46.0617 54.3229 46.7948 54.3229C54.5996 54.3229 60.9267 47.9958 60.9267 40.191C60.9267 32.3861 54.5996 26.059 46.7948 26.059C46.2712 26.059 45.7541 26.0875 45.2453 26.143C49.1169 29.0762 51.6767 34.1573 51.6767 39.934C51.6767 46.0072 48.8474 51.3115 44.6389 54.1595ZM46.5378 58.434C56.7551 58.434 65.0378 50.1513 65.0378 39.934C65.0378 29.7167 56.7551 21.434 46.5378 21.434C36.3206 21.434 28.0378 29.7167 28.0378 39.934C28.0378 50.1513 36.3206 58.434 46.5378 58.434Z" fill="white"/>
</g>
<defs>
<clipPath id="clip0">
<rect width="292.642" height="79.8113" fill="white" transform="translate(0.830322 0.30188)"/>
</clipPath>
</defs>
</svg>
