<svg width="294" height="81" viewBox="0 0 294 81" fill="none" xmlns="http://www.w3.org/2000/svg">
<g clip-path="url(#clip0)">
<rect x="0.830322" y="0.30188" width="292.642" height="79.8113" rx="39.9057" fill="#5F606D"/>
<path d="M127.673 28.3221H136.58C138.07 28.3221 139.506 28.5562 140.89 29.0245C142.273 29.4714 143.497 30.1631 144.561 31.0996C145.625 32.036 146.476 33.2172 147.115 34.6432C147.753 36.0479 148.073 37.7079 148.073 39.6234C148.073 41.5602 147.7 43.2415 146.955 44.6675C146.232 46.0722 145.285 47.2427 144.114 48.1792C142.965 49.0943 141.677 49.786 140.251 50.2543C138.846 50.7012 137.463 50.9247 136.101 50.9247H127.673V28.3221ZM134.696 47.2853C135.952 47.2853 137.133 47.1469 138.24 46.8703C139.368 46.5723 140.347 46.1254 141.177 45.5294C142.007 44.9122 142.656 44.1248 143.124 43.167C143.614 42.188 143.859 41.0068 143.859 39.6234C143.859 38.2613 143.646 37.0907 143.22 36.1117C142.794 35.1327 142.199 34.3452 141.432 33.7493C140.687 33.1321 139.794 32.6851 138.751 32.4085C137.729 32.1105 136.601 31.9615 135.367 31.9615H131.695V47.2853H134.696ZM159.208 28.3221H162.687L172.424 50.9247H167.827L165.72 45.7529H155.919L153.876 50.9247H149.375L159.208 28.3221ZM164.315 42.3051L160.836 33.1108L157.292 42.3051H164.315ZM174.936 28.3221H182.79C183.875 28.3221 184.918 28.4285 185.918 28.6414C186.94 28.8329 187.844 29.1734 188.632 29.6629C189.419 30.1525 190.047 30.8122 190.515 31.6423C190.984 32.4723 191.218 33.5258 191.218 34.8028C191.218 36.4416 190.76 37.8143 189.845 38.9211C188.951 40.0278 187.663 40.6982 185.982 40.9323L191.984 50.9247H187.131L181.896 41.3473H178.959V50.9247H174.936V28.3221ZM182.087 37.8995C182.662 37.8995 183.236 37.8782 183.811 37.8356C184.386 37.7718 184.907 37.6441 185.375 37.4525C185.865 37.2397 186.259 36.9311 186.557 36.5267C186.855 36.1011 187.004 35.5158 187.004 34.7709C187.004 34.1111 186.865 33.579 186.589 33.1746C186.312 32.7703 185.95 32.4723 185.503 32.2808C185.056 32.0679 184.556 31.9296 184.003 31.8657C183.471 31.8019 182.949 31.77 182.438 31.77H178.959V37.8995H182.087ZM195.045 28.3221H199.067V37.8995H199.259L208.613 28.3221H214.04L203.473 38.7614L214.742 50.9247H209.092L199.291 39.8149H199.067V50.9247H195.045V28.3221Z" fill="white"/>
<path fill-rule="evenodd" clip-rule="evenodd" d="M44.6389 54.1595C45.3418 54.2671 46.0617 54.3229 46.7948 54.3229C54.5996 54.3229 60.9267 47.9958 60.9267 40.191C60.9267 32.3861 54.5996 26.059 46.7948 26.059C46.2712 26.059 45.7541 26.0875 45.2453 26.143C49.1169 29.0762 51.6767 34.1573 51.6767 39.934C51.6767 46.0072 48.8474 51.3115 44.6389 54.1595ZM46.5378 58.434C56.7551 58.434 65.0378 50.1513 65.0378 39.934C65.0378 29.7167 56.7551 21.434 46.5378 21.434C36.3206 21.434 28.0378 29.7167 28.0378 39.934C28.0378 50.1513 36.3206 58.434 46.5378 58.434Z" fill="white"/>
</g>
<defs>
<clipPath id="clip0">
<rect width="292.642" height="79.8113" fill="white" transform="translate(0.830322 0.30188)"/>
</clipPath>
</defs>
</svg>
