<svg width="293" height="81" viewBox="0 0 293 81" fill="none" xmlns="http://www.w3.org/2000/svg">
<g clip-path="url(#clip0)">
<rect x="0.301758" y="0.679382" width="292.642" height="79.8113" rx="39.9057" fill="#0773C7"/>
<path d="M99.647 28.6994H108.554C110.044 28.6994 111.48 28.9335 112.864 29.4018C114.247 29.8487 115.471 30.5404 116.535 31.4769C117.599 32.4133 118.451 33.5945 119.089 35.0205C119.728 36.4252 120.047 38.0852 120.047 40.0007C120.047 41.9375 119.674 43.6188 118.929 45.0448C118.206 46.4495 117.259 47.62 116.088 48.5565C114.939 49.4717 113.651 50.1634 112.225 50.6316C110.821 51.0785 109.437 51.302 108.075 51.302H99.647V28.6994ZM106.67 47.6626C107.926 47.6626 109.107 47.5243 110.214 47.2476C111.342 46.9496 112.321 46.5027 113.151 45.9068C113.981 45.2895 114.63 44.5021 115.099 43.5443C115.588 42.5653 115.833 41.3841 115.833 40.0007C115.833 38.6386 115.62 37.468 115.194 36.489C114.769 35.51 114.173 34.7225 113.407 34.1266C112.662 33.5094 111.768 33.0625 110.725 32.7858C109.703 32.4878 108.575 32.3388 107.341 32.3388H103.67V47.6626H106.67ZM123.871 28.6994H131.724C132.81 28.6994 133.853 28.8059 134.853 29.0187C135.875 29.2102 136.779 29.5508 137.567 30.0403C138.354 30.5298 138.982 31.1895 139.45 32.0196C139.918 32.8496 140.153 33.9031 140.153 35.1801C140.153 36.8189 139.695 38.1917 138.78 39.2984C137.886 40.4051 136.598 41.0755 134.917 41.3096L140.919 51.302H136.066L130.831 41.7246H127.894V51.302H123.871V28.6994ZM131.022 38.2768C131.597 38.2768 132.171 38.2555 132.746 38.2129C133.321 38.1491 133.842 38.0214 134.31 37.8299C134.8 37.617 135.194 37.3084 135.492 36.904C135.79 36.4784 135.939 35.8931 135.939 35.1482C135.939 34.4884 135.8 33.9563 135.523 33.552C135.247 33.1476 134.885 32.8496 134.438 32.6581C133.991 32.4452 133.491 32.3069 132.938 32.2431C132.406 32.1792 131.884 32.1473 131.373 32.1473H127.894V38.2768H131.022ZM151.29 28.6994H154.77L164.507 51.302H159.91L157.803 46.1302H148.002L145.959 51.302H141.458L151.29 28.6994ZM156.398 42.6824L152.919 33.4881L149.375 42.6824H156.398ZM187.1 49.6419C184.311 51.1317 181.194 51.8766 177.746 51.8766C176 51.8766 174.394 51.6 172.925 51.0466C171.478 50.472 170.222 49.6739 169.158 48.6523C168.115 47.6094 167.296 46.3643 166.7 44.9171C166.104 43.4699 165.806 41.863 165.806 40.0965C165.806 38.2874 166.104 36.6486 166.7 35.1801C167.296 33.6903 168.115 32.424 169.158 31.3811C170.222 30.3382 171.478 29.5401 172.925 28.9868C174.394 28.4121 176 28.1248 177.746 28.1248C179.47 28.1248 181.087 28.3376 182.598 28.7633C184.109 29.1677 185.461 29.9019 186.653 30.9661L183.684 33.967C182.96 33.2646 182.077 32.7219 181.034 32.3388C180.012 31.9557 178.927 31.7642 177.778 31.7642C176.607 31.7642 175.543 31.977 174.585 32.4027C173.649 32.8071 172.84 33.3817 172.159 34.1266C171.478 34.8502 170.946 35.7015 170.563 36.6806C170.201 37.6596 170.02 38.7131 170.02 39.8411C170.02 41.0542 170.201 42.1716 170.563 43.1932C170.946 44.2148 171.478 45.098 172.159 45.8429C172.84 46.5878 173.649 47.1731 174.585 47.5988C175.543 48.0244 176.607 48.2372 177.778 48.2372C178.799 48.2372 179.757 48.1415 180.651 47.9499C181.566 47.7584 182.375 47.4604 183.077 47.056V41.7246H178.448V38.0852H187.1V49.6419ZM190.653 40.0965C190.653 38.2874 190.951 36.6486 191.547 35.1801C192.143 33.6903 192.963 32.424 194.005 31.3811C195.07 30.3382 196.325 29.5401 197.773 28.9868C199.241 28.4121 200.848 28.1248 202.593 28.1248C204.36 28.1035 205.977 28.3695 207.446 28.9229C208.914 29.455 210.181 30.2425 211.245 31.2853C212.309 32.3282 213.139 33.5839 213.735 35.0524C214.331 36.5209 214.629 38.1597 214.629 39.9688C214.629 41.7353 214.331 43.3422 213.735 44.7894C213.139 46.2366 212.309 47.4817 211.245 48.5246C210.181 49.5674 208.914 50.3868 207.446 50.9828C205.977 51.5574 204.36 51.8554 202.593 51.8766C200.848 51.8766 199.241 51.6 197.773 51.0466C196.325 50.472 195.07 49.6739 194.005 48.6523C192.963 47.6094 192.143 46.3643 191.547 44.9171C190.951 43.4699 190.653 41.863 190.653 40.0965ZM194.867 39.8411C194.867 41.0542 195.048 42.1716 195.41 43.1932C195.793 44.2148 196.325 45.098 197.006 45.8429C197.687 46.5878 198.496 47.1731 199.433 47.5988C200.39 48.0244 201.455 48.2372 202.625 48.2372C203.796 48.2372 204.86 48.0244 205.818 47.5988C206.775 47.1731 207.595 46.5878 208.276 45.8429C208.957 45.098 209.478 44.2148 209.84 43.1932C210.223 42.1716 210.415 41.0542 210.415 39.8411C210.415 38.7131 210.223 37.6596 209.84 36.6806C209.478 35.7015 208.957 34.8502 208.276 34.1266C207.595 33.3817 206.775 32.8071 205.818 32.4027C204.86 31.977 203.796 31.7642 202.625 31.7642C201.455 31.7642 200.39 31.977 199.433 32.4027C198.496 32.8071 197.687 33.3817 197.006 34.1266C196.325 34.8502 195.793 35.7015 195.41 36.6806C195.048 37.6596 194.867 38.7131 194.867 39.8411ZM218.46 28.6994H223.791L234.741 45.4917H234.805V28.6994H238.828V51.302H233.72L222.546 33.967H222.482V51.302H218.46V28.6994Z" fill="white"/>
<path fill-rule="evenodd" clip-rule="evenodd" d="M58.2461 37.8317C58.5345 37.6557 58.7793 37.2872 58.9767 36.8775C61.574 37.9394 63.399 40.4479 63.399 43.3733C63.399 47.26 60.1775 50.4108 56.2036 50.4108C54.5723 50.4108 53.0679 49.8799 51.8609 48.9851C51.4651 48.7977 51.1395 48.6176 50.873 48.4703L50.8729 48.4702L50.8728 48.4702C50.4594 48.2416 50.1883 48.0917 50.0185 48.1151C49.5222 48.1836 49.6663 48.6402 49.7972 49.0549C49.8862 49.3367 49.969 49.5992 49.8408 49.7074C49.7066 49.8208 49.2719 49.4064 48.764 48.9221C48.0727 48.263 47.2457 47.4744 46.8557 47.7113C46.5473 47.8986 46.8467 48.4066 47.2131 49.0285L47.2403 49.0746C47.3951 49.3375 47.5745 49.6051 47.7382 49.8493L47.7383 49.8495C48.071 50.3459 48.3391 50.7459 48.2049 50.8136C48.0428 50.8955 46.9134 50.1331 45.9615 49.0746C45.5941 48.6661 45.2382 48.2233 44.9076 47.8119C44.1837 46.9112 43.5806 46.1608 43.2421 46.2497C42.8349 46.3567 43.1429 47.1967 43.5956 48.005C43.8072 48.3831 44.0563 48.768 44.2719 49.1013L44.2719 49.1013C44.6072 49.6196 44.8616 50.013 44.7693 50.0613C44.6448 50.1264 43.5489 49.0578 42.8047 47.7113C42.3626 46.9114 41.9914 46.0275 41.6909 45.3119C41.365 44.5359 41.1222 43.9578 40.9623 43.8996C40.4069 43.6975 40.4069 44.8299 40.6297 46.4644C40.6586 46.6768 40.7017 46.8996 40.7547 47.1265C42.9142 54.1172 49.5509 59.2076 57.4031 59.2076C67.0068 59.2076 74.7921 51.5932 74.7921 42.2004C74.7921 33.2608 67.7399 25.9321 58.7797 25.2458C58.791 24.8246 59.0108 23.9895 59.0108 23.9895C59.0108 23.9895 60.5927 20.1623 60.6762 19.3444C60.6818 19.2902 60.6884 19.2314 60.6953 19.1687L60.6954 19.1683C60.794 18.2847 60.9772 16.6417 59.5638 16.6417C58.8089 16.6417 58.4578 17.2032 58.0564 17.8455C57.9022 18.092 57.7407 18.3505 57.546 18.5936C56.1436 20.3449 53.7855 22.5318 52.4484 23.6969C49.6222 26.1595 46.8494 28.1834 45.2323 29.3638L45.2323 29.3638C44.4967 29.9007 44.0003 30.263 43.8467 30.4128C42.6889 31.5414 38.5377 39.0293 38.5377 39.0293C38.5377 39.0293 37.1952 41.4316 37.6724 41.9188C38.1496 42.406 39.3002 42.2943 39.3002 42.2943C39.3002 42.2943 54.7587 38.748 56.1428 38.4683C56.5154 38.393 56.7784 38.3495 56.9804 38.3162C57.5286 38.2256 57.6271 38.2094 58.2461 37.8317ZM47.3162 33.2744C46.4865 34.0631 45.1103 35.9458 45.1103 35.9458C45.1103 35.9458 47.6679 36.1033 49.0765 34.7643C50.4852 33.4254 50.1624 31.1435 50.1624 31.1435C50.1624 31.1435 48.146 32.4856 47.3162 33.2744Z" fill="white"/>
</g>
<defs>
<clipPath id="clip0">
<rect width="292.642" height="79.8113" fill="white" transform="translate(0.301758 0.679382)"/>
</clipPath>
</defs>
</svg>
