<svg width="293" height="81" viewBox="0 0 293 81" fill="none" xmlns="http://www.w3.org/2000/svg">
<g clip-path="url(#clip0)">
<rect x="0.301758" y="0.679382" width="292.642" height="79.8113" rx="39.9057" fill="#0773C7"/>
<text fill="white" xml:space="preserve" style="white-space: pre" font-family="Avenir" font-size="31.9245" font-weight="800" letter-spacing="0px"><tspan x="97.125" y="51.4221">DRAGON</tspan></text>
<path fill-rule="evenodd" clip-rule="evenodd" d="M58.2461 37.8317C58.5345 37.6557 58.7793 37.2872 58.9767 36.8775C61.574 37.9394 63.399 40.4479 63.399 43.3733C63.399 47.26 60.1775 50.4108 56.2036 50.4108C54.5723 50.4108 53.0679 49.8799 51.8609 48.9851C51.4651 48.7977 51.1395 48.6176 50.873 48.4703L50.8729 48.4702L50.8728 48.4702C50.4594 48.2416 50.1883 48.0917 50.0185 48.1151C49.5222 48.1836 49.6663 48.6402 49.7972 49.0549C49.8862 49.3367 49.969 49.5992 49.8408 49.7074C49.7066 49.8208 49.2719 49.4064 48.764 48.9221C48.0727 48.263 47.2457 47.4744 46.8557 47.7113C46.5473 47.8986 46.8467 48.4066 47.2131 49.0285L47.2403 49.0746C47.3951 49.3375 47.5745 49.6051 47.7382 49.8493L47.7383 49.8495C48.071 50.3459 48.3391 50.7459 48.2049 50.8136C48.0428 50.8955 46.9134 50.1331 45.9615 49.0746C45.5941 48.6661 45.2382 48.2233 44.9076 47.8119C44.1837 46.9112 43.5806 46.1608 43.2421 46.2497C42.8349 46.3567 43.1429 47.1967 43.5956 48.005C43.8072 48.3831 44.0563 48.768 44.2719 49.1013L44.2719 49.1013C44.6072 49.6196 44.8616 50.013 44.7693 50.0613C44.6448 50.1264 43.5489 49.0578 42.8047 47.7113C42.3626 46.9114 41.9914 46.0275 41.6909 45.3119C41.365 44.5359 41.1222 43.9578 40.9623 43.8996C40.4069 43.6975 40.4069 44.8299 40.6297 46.4644C40.6586 46.6768 40.7017 46.8996 40.7547 47.1265C42.9142 54.1172 49.5509 59.2076 57.4031 59.2076C67.0068 59.2076 74.7921 51.5932 74.7921 42.2004C74.7921 33.2608 67.7399 25.9321 58.7797 25.2458C58.791 24.8246 59.0108 23.9895 59.0108 23.9895C59.0108 23.9895 60.5927 20.1623 60.6762 19.3444C60.6818 19.2902 60.6884 19.2314 60.6953 19.1687L60.6954 19.1683C60.794 18.2847 60.9772 16.6417 59.5638 16.6417C58.8089 16.6417 58.4578 17.2032 58.0564 17.8455C57.9022 18.092 57.7407 18.3505 57.546 18.5936C56.1436 20.3449 53.7855 22.5318 52.4484 23.6969C49.6222 26.1595 46.8494 28.1834 45.2323 29.3638L45.2323 29.3638C44.4967 29.9007 44.0003 30.263 43.8467 30.4128C42.6889 31.5414 38.5377 39.0293 38.5377 39.0293C38.5377 39.0293 37.1952 41.4316 37.6724 41.9188C38.1496 42.406 39.3002 42.2943 39.3002 42.2943C39.3002 42.2943 54.7587 38.748 56.1428 38.4683C56.5154 38.393 56.7784 38.3495 56.9804 38.3162C57.5286 38.2256 57.6271 38.2094 58.2461 37.8317ZM47.3162 33.2744C46.4865 34.0631 45.1103 35.9458 45.1103 35.9458C45.1103 35.9458 47.6679 36.1033 49.0765 34.7643C50.4852 33.4254 50.1624 31.1435 50.1624 31.1435C50.1624 31.1435 48.146 32.4856 47.3162 33.2744Z" fill="white"/>
</g>
<defs>
<clipPath id="clip0">
<rect width="292.642" height="79.8113" fill="white" transform="translate(0.301758 0.679382)"/>
</clipPath>
</defs>
</svg>
