<svg width="294" height="81" viewBox="0 0 294 81" fill="none" xmlns="http://www.w3.org/2000/svg">
<g clip-path="url(#clip0)">
<rect x="0.830322" y="0.679382" width="292.642" height="79.8113" rx="39.9057" fill="#EDD53F"/>
<text fill="white" xml:space="preserve" style="white-space: pre" font-family="Avenir" font-size="31.9245" font-weight="800" letter-spacing="0px"><tspan x="96.453" y="51.4221">ELECTRIC</tspan></text>
<path fill-rule="evenodd" clip-rule="evenodd" d="M39.2606 24.9868C38.9976 24.2267 39.5621 23.434 40.3664 23.434H52.8893C53.4023 23.434 53.8555 23.7681 54.0071 24.2582L60.1724 44.177C60.4054 44.9299 59.8426 45.6931 59.0546 45.6931H51.3891C51.0008 45.6931 50.7202 46.0645 50.8264 46.4381L54.6652 59.9516C55.0195 61.1988 53.3837 62.0109 52.6044 60.9746L35.4465 38.1572C34.8666 37.3861 35.4169 36.2839 36.3818 36.2839H42.3484C42.7505 36.2839 43.0328 35.8875 42.9013 35.5075L39.2606 24.9868Z" fill="white"/>
</g>
<defs>
<clipPath id="clip0">
<rect width="292.642" height="79.8113" fill="white" transform="translate(0.830322 0.679382)"/>
</clipPath>
</defs>
</svg>
