<svg width="294" height="81" viewBox="0 0 294 81" fill="none" xmlns="http://www.w3.org/2000/svg">
<g clip-path="url(#clip0)">
<rect x="0.830322" y="0.679382" width="292.642" height="79.8113" rx="39.9057" fill="#EDD53F"/>
<path d="M98.9751 28.6994H113.948V32.3388H102.998V37.8937H113.373V41.5331H102.998V47.6626H114.522V51.302H98.9751V28.6994ZM118.491 28.6994H122.514V47.6626H132.123V51.302H118.491V28.6994ZM135.046 28.6994H150.019V32.3388H139.069V37.8937H149.444V41.5331H139.069V47.6626H150.593V51.302H135.046V28.6994ZM170.078 33.9989C169.248 33.105 168.439 32.5091 167.651 32.2111C166.885 31.9132 166.108 31.7642 165.321 31.7642C164.15 31.7642 163.086 31.977 162.129 32.4027C161.192 32.8071 160.383 33.3817 159.702 34.1266C159.021 34.8502 158.489 35.7015 158.106 36.6806C157.744 37.6596 157.563 38.7131 157.563 39.8411C157.563 41.0542 157.744 42.1716 158.106 43.1932C158.489 44.2148 159.021 45.098 159.702 45.8429C160.383 46.5878 161.192 47.1731 162.129 47.5988C163.086 48.0244 164.15 48.2372 165.321 48.2372C166.236 48.2372 167.119 48.0244 167.971 47.5988C168.843 47.1518 169.652 46.4495 170.397 45.4917L173.717 47.8542C172.696 49.2588 171.45 50.2804 169.982 50.9189C168.513 51.5574 166.949 51.8766 165.289 51.8766C163.544 51.8766 161.937 51.6 160.468 51.0466C159.021 50.472 157.766 49.6739 156.701 48.6523C155.658 47.6094 154.839 46.3643 154.243 44.9171C153.647 43.4699 153.349 41.863 153.349 40.0965C153.349 38.2874 153.647 36.6486 154.243 35.1801C154.839 33.6903 155.658 32.424 156.701 31.3811C157.766 30.3382 159.021 29.5401 160.468 28.9868C161.937 28.4121 163.544 28.1248 165.289 28.1248C166.821 28.1248 168.237 28.4015 169.535 28.9548C170.855 29.4869 172.078 30.4021 173.206 31.7003L170.078 33.9989ZM181.046 32.3388H174.118V28.6994H191.996V32.3388H185.069V51.302H181.046V32.3388ZM194.749 28.6994H202.602C203.688 28.6994 204.73 28.8059 205.731 29.0187C206.752 29.2102 207.657 29.5508 208.444 30.0403C209.232 30.5298 209.86 31.1895 210.328 32.0196C210.796 32.8496 211.03 33.9031 211.03 35.1801C211.03 36.8189 210.573 38.1917 209.657 39.2984C208.764 40.4051 207.476 41.0755 205.795 41.3096L211.796 51.302H206.944L201.708 41.7246H198.771V51.302H194.749V28.6994ZM201.9 38.2768C202.474 38.2768 203.049 38.2555 203.624 38.2129C204.198 38.1491 204.72 38.0214 205.188 37.8299C205.677 37.617 206.071 37.3084 206.369 36.904C206.667 36.4784 206.816 35.8931 206.816 35.1482C206.816 34.4884 206.678 33.9563 206.401 33.552C206.124 33.1476 205.763 32.8496 205.316 32.6581C204.869 32.4452 204.369 32.3069 203.815 32.2431C203.283 32.1792 202.762 32.1473 202.251 32.1473H198.771V38.2768H201.9ZM214.762 28.6994H218.784V51.302H214.762V28.6994ZM239.258 33.9989C238.428 33.105 237.619 32.5091 236.832 32.2111C236.065 31.9132 235.289 31.7642 234.501 31.7642C233.331 31.7642 232.266 31.977 231.309 32.4027C230.372 32.8071 229.564 33.3817 228.882 34.1266C228.201 34.8502 227.669 35.7015 227.286 36.6806C226.924 37.6596 226.744 38.7131 226.744 39.8411C226.744 41.0542 226.924 42.1716 227.286 43.1932C227.669 44.2148 228.201 45.098 228.882 45.8429C229.564 46.5878 230.372 47.1731 231.309 47.5988C232.266 48.0244 233.331 48.2372 234.501 48.2372C235.416 48.2372 236.3 48.0244 237.151 47.5988C238.024 47.1518 238.832 46.4495 239.577 45.4917L242.897 47.8542C241.876 49.2588 240.631 50.2804 239.162 50.9189C237.694 51.5574 236.129 51.8766 234.469 51.8766C232.724 51.8766 231.117 51.6 229.649 51.0466C228.201 50.472 226.946 49.6739 225.882 48.6523C224.839 47.6094 224.019 46.3643 223.423 44.9171C222.827 43.4699 222.529 41.863 222.529 40.0965C222.529 38.2874 222.827 36.6486 223.423 35.1801C224.019 33.6903 224.839 32.424 225.882 31.3811C226.946 30.3382 228.201 29.5401 229.649 28.9868C231.117 28.4121 232.724 28.1248 234.469 28.1248C236.002 28.1248 237.417 28.4015 238.715 28.9548C240.035 29.4869 241.259 30.4021 242.387 31.7003L239.258 33.9989Z" fill="white"/>
<path fill-rule="evenodd" clip-rule="evenodd" d="M39.2606 24.9868C38.9976 24.2267 39.5621 23.434 40.3664 23.434H52.8893C53.4023 23.434 53.8555 23.7681 54.0071 24.2582L60.1724 44.177C60.4054 44.9299 59.8426 45.6931 59.0546 45.6931H51.3891C51.0008 45.6931 50.7202 46.0645 50.8264 46.4381L54.6652 59.9516C55.0195 61.1988 53.3837 62.0109 52.6044 60.9746L35.4465 38.1572C34.8666 37.3861 35.4169 36.2839 36.3818 36.2839H42.3484C42.7505 36.2839 43.0328 35.8875 42.9013 35.5075L39.2606 24.9868Z" fill="white"/>
</g>
<defs>
<clipPath id="clip0">
<rect width="292.642" height="79.8113" fill="white" transform="translate(0.830322 0.679382)"/>
</clipPath>
</defs>
</svg>
