<svg width="293" height="80" viewBox="0 0 293 80" fill="none" xmlns="http://www.w3.org/2000/svg">
<g clip-path="url(#clip0)">
<rect x="0.301758" y="0.0567017" width="292.642" height="79.8113" rx="39.9057" fill="#EF97E6"/>
<text fill="white" xml:space="preserve" style="white-space: pre" font-family="Avenir" font-size="31.9245" font-weight="800" letter-spacing="0px"><tspan x="125.464" y="50.7994">FAIRY</tspan></text>
<path fill-rule="evenodd" clip-rule="evenodd" d="M46.2469 50.4013L51.7662 48.8009L56.9336 58.249C57.1784 58.6966 57.8213 58.6966 58.0661 58.249L63.2334 48.8008L68.7531 50.4013C69.2431 50.5434 69.6964 50.0876 69.5517 49.5983L67.9569 44.208L77.1168 39.1983C77.5644 38.9535 77.5644 38.3106 77.1168 38.0658L67.8731 33.0103L69.5517 27.3369C69.6964 26.8477 69.2431 26.3918 68.7531 26.5339L63.0782 28.1794L58.0661 19.015C57.8213 18.5674 57.1784 18.5674 56.9336 19.015L51.9215 28.1793L46.2469 26.5339C45.7569 26.3918 45.3035 26.8477 45.4483 27.3369L47.1268 33.0101L37.8828 38.0658C37.4352 38.3106 37.4352 38.9535 37.8828 39.1983L47.043 44.2081L45.4483 49.5983C45.3035 50.0876 45.7569 50.5434 46.2469 50.4013ZM51.2877 39.2525L54.9726 41.2678L56.9879 44.9526C57.2327 45.4002 57.8756 45.4002 58.1204 44.9526L60.1357 41.2678L63.8205 39.2525C64.2681 39.0077 64.2681 38.3648 63.8205 38.12L60.1357 36.1047L58.1204 32.4199C57.8756 31.9723 57.2327 31.9723 56.9879 32.4199L54.9726 36.1047L51.2877 38.12C50.8401 38.3648 50.8401 39.0077 51.2877 39.2525Z" fill="white"/>
</g>
<defs>
<clipPath id="clip0">
<rect width="292.642" height="79.8113" fill="white" transform="translate(0.301758 0.0567017)"/>
</clipPath>
</defs>
</svg>
