<svg width="293" height="80" viewBox="0 0 293 80" fill="none" xmlns="http://www.w3.org/2000/svg">
<g clip-path="url(#clip0)">
<rect x="0.301758" y="0.0567017" width="292.642" height="79.8113" rx="39.9057" fill="#EF97E6"/>
<path d="M127.986 28.0768H142.576V31.7162H132.009V37.6541H141.969V41.2935H132.009V50.6793H127.986V28.0768ZM151.883 28.0768H155.363L165.1 50.6793H160.502L158.395 45.5075H148.595L146.551 50.6793H142.05L151.883 28.0768ZM156.991 42.0597L153.511 32.8654L149.967 42.0597H156.991ZM167.516 28.0768H171.538V50.6793H167.516V28.0768ZM176.497 28.0768H184.35C185.435 28.0768 186.478 28.1832 187.479 28.396C188.5 28.5875 189.405 28.9281 190.192 29.4176C190.98 29.9071 191.608 30.5669 192.076 31.3969C192.544 32.2269 192.778 33.2805 192.778 34.5574C192.778 36.1962 192.321 37.569 191.405 38.6757C190.511 39.7824 189.224 40.4528 187.543 40.6869L193.544 50.6793H188.692L183.456 41.102H180.519V50.6793H176.497V28.0768ZM183.648 37.6541C184.222 37.6541 184.797 37.6328 185.372 37.5903C185.946 37.5264 186.468 37.3987 186.936 37.2072C187.425 36.9943 187.819 36.6857 188.117 36.2814C188.415 35.8557 188.564 35.2704 188.564 34.5255C188.564 33.8657 188.426 33.3337 188.149 32.9293C187.872 32.5249 187.511 32.2269 187.064 32.0354C186.617 31.8226 186.117 31.6842 185.563 31.6204C185.031 31.5565 184.51 31.5246 183.999 31.5246H180.519V37.6541H183.648ZM200.944 41.0062L192.452 28.0768H197.496L203.051 37.0795L208.669 28.0768H213.458L204.966 41.0062V50.6793H200.944V41.0062Z" fill="white"/>
<path fill-rule="evenodd" clip-rule="evenodd" d="M46.2469 50.4013L51.7662 48.8009L56.9336 58.249C57.1784 58.6966 57.8213 58.6966 58.0661 58.249L63.2334 48.8008L68.7531 50.4013C69.2431 50.5434 69.6964 50.0876 69.5517 49.5983L67.9569 44.208L77.1168 39.1983C77.5644 38.9535 77.5644 38.3106 77.1168 38.0658L67.8731 33.0103L69.5517 27.3369C69.6964 26.8477 69.2431 26.3918 68.7531 26.5339L63.0782 28.1794L58.0661 19.015C57.8213 18.5674 57.1784 18.5674 56.9336 19.015L51.9215 28.1793L46.2469 26.5339C45.7569 26.3918 45.3035 26.8477 45.4483 27.3369L47.1268 33.0101L37.8828 38.0658C37.4352 38.3106 37.4352 38.9535 37.8828 39.1983L47.043 44.2081L45.4483 49.5983C45.3035 50.0876 45.7569 50.5434 46.2469 50.4013ZM51.2877 39.2525L54.9726 41.2678L56.9879 44.9526C57.2327 45.4002 57.8756 45.4002 58.1204 44.9526L60.1357 41.2678L63.8205 39.2525C64.2681 39.0077 64.2681 38.3648 63.8205 38.12L60.1357 36.1047L58.1204 32.4199C57.8756 31.9723 57.2327 31.9723 56.9879 32.4199L54.9726 36.1047L51.2877 38.12C50.8401 38.3648 50.8401 39.0077 51.2877 39.2525Z" fill="white"/>
</g>
<defs>
<clipPath id="clip0">
<rect width="292.642" height="79.8113" fill="white" transform="translate(0.301758 0.0567017)"/>
</clipPath>
</defs>
</svg>
