<svg width="294" height="80" viewBox="0 0 294 80" fill="none" xmlns="http://www.w3.org/2000/svg">
<g clip-path="url(#clip0)">
<rect x="0.830322" y="0.0567017" width="292.642" height="79.8113" rx="39.9057" fill="#D94256"/>
<text fill="white" xml:space="preserve" style="white-space: pre" font-family="Avenir" font-size="31.9245" font-weight="800" letter-spacing="0px"><tspan x="93.1639" y="50.7994">FIGHTING</tspan></text>
<path fill-rule="evenodd" clip-rule="evenodd" d="M40.6277 21.997C41.1105 20.0902 42.838 18.6793 44.8949 18.6793C46.4442 18.6793 47.8066 19.4797 48.591 20.6897C48.712 20.6797 48.8343 20.6746 48.9579 20.6746C49.2434 20.6746 49.5227 20.7018 49.7931 20.7537C50.597 19.8868 51.7458 19.3443 53.0213 19.3443C54.8338 19.3443 56.3904 20.4398 57.0651 22.0047L57.0843 22.0047C57.3973 22.0047 57.7026 22.0373 57.9971 22.0995C58.702 21.6199 59.5533 21.3396 60.4701 21.3396C62.3728 21.3396 63.9935 22.5469 64.6081 24.2372C64.9417 24.3517 65.2571 24.5051 65.5491 24.692C66.2333 24.254 67.0466 24 67.9193 24C70.3503 24 72.321 25.9707 72.321 28.4017V41.8395C72.321 41.9207 72.3188 42.0014 72.3143 42.0818C72.0485 51.2373 63.8156 58.5849 53.6983 58.5849C43.4133 58.5849 35.0757 50.9916 35.0757 41.625C35.0757 37.1037 37.0183 32.9956 40.185 29.9552C40.177 34.3662 40.2514 38.9278 40.5947 38.8495C41.5137 38.6399 40.7956 24.981 40.6277 21.997Z" fill="white"/>
</g>
<defs>
<clipPath id="clip0">
<rect width="292.642" height="79.8113" fill="white" transform="translate(0.830322 0.0567017)"/>
</clipPath>
</defs>
</svg>
