<svg width="294" height="80" viewBox="0 0 294 80" fill="none" xmlns="http://www.w3.org/2000/svg">
<g clip-path="url(#clip0)">
<rect x="0.830322" y="0.0567017" width="292.642" height="79.8113" rx="39.9057" fill="#D94256"/>
<path d="M95.686 28.0768H110.275V31.7162H99.7085V37.6541H109.669V41.2935H99.7085V50.6793H95.686V28.0768ZM113.922 28.0768H117.944V50.6793H113.922V28.0768ZM142.983 49.0192C140.195 50.5091 137.077 51.254 133.63 51.254C131.884 51.254 130.277 50.9773 128.809 50.4239C127.362 49.8493 126.106 49.0512 125.042 48.0296C123.999 46.9867 123.18 45.7417 122.584 44.2944C121.988 42.8472 121.69 41.2403 121.69 39.4738C121.69 37.6648 121.988 36.026 122.584 34.5574C123.18 33.0676 123.999 31.8013 125.042 30.7584C126.106 29.7155 127.362 28.9174 128.809 28.3641C130.277 27.7894 131.884 27.5021 133.63 27.5021C135.353 27.5021 136.971 27.7149 138.482 28.1406C139.993 28.545 141.345 29.2792 142.536 30.3434L139.567 33.3443C138.844 32.642 137.961 32.0992 136.918 31.7162C135.896 31.3331 134.811 31.1415 133.661 31.1415C132.491 31.1415 131.427 31.3543 130.469 31.78C129.533 32.1844 128.724 32.759 128.043 33.5039C127.362 34.2275 126.83 35.0789 126.447 36.0579C126.085 37.0369 125.904 38.0904 125.904 39.2184C125.904 40.4315 126.085 41.5489 126.447 42.5705C126.83 43.5921 127.362 44.4753 128.043 45.2202C128.724 45.9651 129.533 46.5504 130.469 46.9761C131.427 47.4017 132.491 47.6146 133.661 47.6146C134.683 47.6146 135.641 47.5188 136.535 47.3272C137.45 47.1357 138.259 46.8377 138.961 46.4334V41.102H134.332V37.4626H142.983V49.0192ZM147.75 28.0768H151.773V37.0795H162.34V28.0768H166.362V50.6793H162.34V40.7189H151.773V50.6793H147.75V28.0768ZM176.042 31.7162H169.115V28.0768H186.992V31.7162H180.065V50.6793H176.042V31.7162ZM189.649 28.0768H193.672V50.6793H189.649V28.0768ZM198.63 28.0768H203.961L214.912 44.8691H214.975V28.0768H218.998V50.6793H213.89L202.716 33.3443H202.653V50.6793H198.63V28.0768ZM244.119 49.0192C241.331 50.5091 238.213 51.254 234.765 51.254C233.02 51.254 231.413 50.9773 229.945 50.4239C228.498 49.8493 227.242 49.0512 226.178 48.0296C225.135 46.9867 224.315 45.7417 223.72 44.2944C223.124 42.8472 222.826 41.2403 222.826 39.4738C222.826 37.6648 223.124 36.026 223.72 34.5574C224.315 33.0676 225.135 31.8013 226.178 30.7584C227.242 29.7155 228.498 28.9174 229.945 28.3641C231.413 27.7894 233.02 27.5021 234.765 27.5021C236.489 27.5021 238.107 27.7149 239.618 28.1406C241.129 28.545 242.481 29.2792 243.672 30.3434L240.703 33.3443C239.98 32.642 239.097 32.0992 238.054 31.7162C237.032 31.3331 235.947 31.1415 234.797 31.1415C233.627 31.1415 232.563 31.3543 231.605 31.78C230.668 32.1844 229.86 32.759 229.179 33.5039C228.498 34.2275 227.966 35.0789 227.582 36.0579C227.221 37.0369 227.04 38.0904 227.04 39.2184C227.04 40.4315 227.221 41.5489 227.582 42.5705C227.966 43.5921 228.498 44.4753 229.179 45.2202C229.86 45.9651 230.668 46.5504 231.605 46.9761C232.563 47.4017 233.627 47.6146 234.797 47.6146C235.819 47.6146 236.777 47.5188 237.671 47.3272C238.586 47.1357 239.394 46.8377 240.097 46.4334V41.102H235.468V37.4626H244.119V49.0192Z" fill="white"/>
<path fill-rule="evenodd" clip-rule="evenodd" d="M40.6277 21.997C41.1105 20.0902 42.838 18.6793 44.8949 18.6793C46.4442 18.6793 47.8066 19.4797 48.591 20.6897C48.712 20.6797 48.8343 20.6746 48.9579 20.6746C49.2434 20.6746 49.5227 20.7018 49.7931 20.7537C50.597 19.8868 51.7458 19.3443 53.0213 19.3443C54.8338 19.3443 56.3904 20.4398 57.0651 22.0047L57.0843 22.0047C57.3973 22.0047 57.7026 22.0373 57.9971 22.0995C58.702 21.6199 59.5533 21.3396 60.4701 21.3396C62.3728 21.3396 63.9935 22.5469 64.6081 24.2372C64.9417 24.3517 65.2571 24.5051 65.5491 24.692C66.2333 24.254 67.0466 24 67.9193 24C70.3503 24 72.321 25.9707 72.321 28.4017V41.8395C72.321 41.9207 72.3188 42.0014 72.3143 42.0818C72.0485 51.2373 63.8156 58.5849 53.6983 58.5849C43.4133 58.5849 35.0757 50.9916 35.0757 41.625C35.0757 37.1037 37.0183 32.9956 40.185 29.9552C40.177 34.3662 40.2514 38.9278 40.5947 38.8495C41.5137 38.6399 40.7956 24.981 40.6277 21.997Z" fill="white"/>
</g>
<defs>
<clipPath id="clip0">
<rect width="292.642" height="79.8113" fill="white" transform="translate(0.830322 0.0567017)"/>
</clipPath>
</defs>
</svg>
