<svg width="293" height="81" viewBox="0 0 293 81" fill="none" xmlns="http://www.w3.org/2000/svg">
<g clip-path="url(#clip0)">
<rect x="0.301758" y="0.754761" width="292.642" height="79.8113" rx="39.9057" fill="#F8A54F"/>
<path d="M138.337 28.7748H152.926V32.4141H142.359V38.3521H152.32V41.9915H142.359V51.3773H138.337V28.7748ZM156.573 28.7748H160.595V51.3773H156.573V28.7748ZM165.554 28.7748H173.407C174.493 28.7748 175.535 28.8812 176.536 29.094C177.557 29.2855 178.462 29.6261 179.249 30.1156C180.037 30.6051 180.665 31.2649 181.133 32.0949C181.601 32.9249 181.835 33.9785 181.835 35.2554C181.835 36.8942 181.378 38.267 180.462 39.3737C179.569 40.4804 178.281 41.1508 176.6 41.3849L182.601 51.3773H177.749L172.513 41.8H169.576V51.3773H165.554V28.7748ZM172.705 38.3521C173.279 38.3521 173.854 38.3308 174.429 38.2883C175.003 38.2244 175.525 38.0967 175.993 37.9052C176.483 37.6923 176.876 37.3837 177.174 36.9794C177.472 36.5537 177.621 35.9684 177.621 35.2235C177.621 34.5637 177.483 34.0317 177.206 33.6273C176.93 33.2229 176.568 32.9249 176.121 32.7334C175.674 32.5206 175.174 32.3822 174.62 32.3184C174.088 32.2545 173.567 32.2226 173.056 32.2226H169.576V38.3521H172.705ZM185.662 28.7748H200.635V32.4141H189.685V37.969H200.06V41.6084H189.685V47.7379H201.21V51.3773H185.662V28.7748Z" fill="white"/>
<path fill-rule="evenodd" clip-rule="evenodd" d="M60.1227 49.8121C60.6097 48.0316 59.6645 44.3712 59.6645 44.3712C59.6645 44.3712 58.979 47.3532 57.9078 48.4552C56.9936 49.3957 55.8736 50.0478 54.2668 50.2189C55.5799 49.5814 56.4831 48.2517 56.4831 46.7146C56.4831 44.5573 54.7041 42.8086 52.5096 42.8086C50.315 42.8086 48.536 44.5573 48.536 46.7146C48.536 47.3032 48.6685 47.8615 48.9057 48.362C47.5349 47.2685 47.3192 45.517 47.3192 45.517C47.3192 45.517 45.7866 51.8803 50.0097 54.8736C54.2329 57.867 62.5058 55.2941 62.5058 55.2941C62.5058 55.2941 50.6667 63.6244 41.8938 54.5579C34.3366 46.7478 39.9213 36.4656 39.9213 36.4656C39.9213 36.4656 39.6801 37.4194 39.6801 38.5267C39.6801 39.634 40.2805 40.4764 40.2805 40.4764C40.2805 40.4764 42.0713 36.7017 43.465 35.1667C44.784 33.7139 46.4374 32.5355 47.8655 31.5178C48.9649 30.7344 49.9307 30.0461 50.5076 29.401C53.6848 25.8484 51.7367 19.3773 51.7367 19.3773C51.7367 19.3773 55.3183 22.5348 56.3182 26.6126C56.6993 28.1671 56.4541 29.9357 56.2349 31.5172C55.8789 34.0847 55.5913 36.1594 58.1626 36.0247C62.3177 35.8072 58.707 29.401 58.707 29.401C58.707 29.401 68.1326 34.355 67.4284 43.0192C66.7242 51.6835 57.1258 53.6532 57.1258 53.6532C57.1258 53.6532 59.6357 51.5925 60.1227 49.8121Z" fill="white"/>
</g>
<defs>
<clipPath id="clip0">
<rect width="292.642" height="79.8113" fill="white" transform="translate(0.301758 0.754761)"/>
</clipPath>
</defs>
</svg>
