<svg width="294" height="81" viewBox="0 0 294 81" fill="none" xmlns="http://www.w3.org/2000/svg">
<g clip-path="url(#clip0)">
<rect x="0.830322" y="0.754761" width="292.642" height="79.8113" rx="39.9057" fill="#9BB4E8"/>
<path d="M116.995 28.7748H131.584V32.4141H121.017V38.3521H130.978V41.9915H121.017V51.3773H116.995V28.7748ZM135.327 28.7748H139.349V47.7379H148.958V51.3773H135.327V28.7748ZM153.85 41.7042L145.358 28.7748H150.402L155.957 37.7775L161.576 28.7748H166.365L157.873 41.7042V51.3773H153.85V41.7042ZM168.34 28.7748H172.363V51.3773H168.34V28.7748ZM177.321 28.7748H182.653L193.603 45.5671H193.666V28.7748H197.689V51.3773H192.581L181.407 34.0423H181.344V51.3773H177.321V28.7748ZM222.81 49.7172C220.022 51.2071 216.904 51.952 213.456 51.952C211.711 51.952 210.104 51.6753 208.636 51.1219C207.189 50.5473 205.933 49.7492 204.869 48.7276C203.826 47.6847 203.006 46.4397 202.411 44.9924C201.815 43.5452 201.517 41.9383 201.517 40.1718C201.517 38.3628 201.815 36.724 202.411 35.2554C203.006 33.7656 203.826 32.4993 204.869 31.4564C205.933 30.4135 207.189 29.6154 208.636 29.0621C210.104 28.4874 211.711 28.2001 213.456 28.2001C215.18 28.2001 216.798 28.4129 218.309 28.8386C219.82 29.243 221.172 29.9772 222.363 31.0414L219.394 34.0423C218.671 33.34 217.788 32.7972 216.745 32.4141C215.723 32.0311 214.638 31.8395 213.488 31.8395C212.318 31.8395 211.254 32.0523 210.296 32.478C209.359 32.8824 208.551 33.457 207.87 34.2019C207.189 34.9255 206.657 35.7769 206.273 36.7559C205.912 37.7349 205.731 38.7884 205.731 39.9164C205.731 41.1295 205.912 42.2469 206.273 43.2685C206.657 44.2901 207.189 45.1733 207.87 45.9182C208.551 46.6631 209.359 47.2484 210.296 47.6741C211.254 48.0997 212.318 48.3126 213.488 48.3126C214.51 48.3126 215.468 48.2168 216.362 48.0252C217.277 47.8337 218.085 47.5357 218.788 47.1314V41.8H214.159V38.1606H222.81V49.7172Z" fill="white"/>
<path fill-rule="evenodd" clip-rule="evenodd" d="M57.4431 60.434C64.3281 60.434 70.2226 56.5824 72.6561 51.1224C72.6858 51.0558 62.8862 53.6858 63.1987 52.7561C63.3382 52.3409 69.3454 50.1321 73.722 47.5556C76.2375 46.0748 77.3959 42.94 77.3959 42.94C77.3959 42.94 73.1579 45.0111 71.0155 45.5365C66.6981 46.5953 62.8976 46.4813 62.8976 46.371C62.8976 46.1324 69.2082 44.9255 77.9792 39.5457C82.1048 37.0152 83.2254 32.6564 83.2254 32.6564C83.2254 32.6564 78.6896 35.3758 75.9476 36.2737C69.4451 38.4028 63.5111 39.0444 63.5111 38.7563C63.5111 38.1395 68.7332 36.6941 74.2698 33.9937C77.1486 32.5898 79.6417 30.7555 82.5308 28.7156C87.2582 25.3781 88.0378 19.434 88.0378 19.434C88.0378 19.434 83.3753 22.4609 81.0999 23.4661C71.711 27.614 63.4206 29.7898 57.4431 30.2609C48.4198 30.972 41.0378 37.3089 41.0378 45.5365C41.0378 53.7641 48.3827 60.434 57.4431 60.434Z" fill="white"/>
</g>
<defs>
<clipPath id="clip0">
<rect width="292.642" height="79.8113" fill="white" transform="translate(0.830322 0.754761)"/>
</clipPath>
</defs>
</svg>
