<svg width="294" height="81" viewBox="0 0 294 81" fill="none" xmlns="http://www.w3.org/2000/svg">
<g clip-path="url(#clip0)">
<rect x="0.830322" y="0.754761" width="292.642" height="79.8113" rx="39.9057" fill="#9BB4E8"/>
<text fill="white" xml:space="preserve" style="white-space: pre" font-family="Avenir" font-size="31.9245" font-weight="800" letter-spacing="0px"><tspan x="114.473" y="51.4974">FLYING</tspan></text>
<path fill-rule="evenodd" clip-rule="evenodd" d="M57.4431 60.434C64.3281 60.434 70.2226 56.5824 72.6561 51.1224C72.6858 51.0558 62.8862 53.6858 63.1987 52.7561C63.3382 52.3409 69.3454 50.1321 73.722 47.5556C76.2375 46.0748 77.3959 42.94 77.3959 42.94C77.3959 42.94 73.1579 45.0111 71.0155 45.5365C66.6981 46.5953 62.8976 46.4813 62.8976 46.371C62.8976 46.1324 69.2082 44.9255 77.9792 39.5457C82.1048 37.0152 83.2254 32.6564 83.2254 32.6564C83.2254 32.6564 78.6896 35.3758 75.9476 36.2737C69.4451 38.4028 63.5111 39.0444 63.5111 38.7563C63.5111 38.1395 68.7332 36.6941 74.2698 33.9937C77.1486 32.5898 79.6417 30.7555 82.5308 28.7156C87.2582 25.3781 88.0378 19.434 88.0378 19.434C88.0378 19.434 83.3753 22.4609 81.0999 23.4661C71.711 27.614 63.4206 29.7898 57.4431 30.2609C48.4198 30.972 41.0378 37.3089 41.0378 45.5365C41.0378 53.7641 48.3827 60.434 57.4431 60.434Z" fill="white"/>
</g>
<defs>
<clipPath id="clip0">
<rect width="292.642" height="79.8113" fill="white" transform="translate(0.830322 0.754761)"/>
</clipPath>
</defs>
</svg>
