<svg width="293" height="81" viewBox="0 0 293 81" fill="none" xmlns="http://www.w3.org/2000/svg">
<g clip-path="url(#clip0)">
<rect x="0.301758" y="0.471802" width="292.642" height="79.8113" rx="39.9057" fill="#6970C5"/>
<text fill="white" xml:space="preserve" style="white-space: pre" font-family="Avenir" font-size="31.9245" font-weight="800" letter-spacing="0px"><tspan x="113.352" y="51.2144">GHOST</tspan></text>
<path fill-rule="evenodd" clip-rule="evenodd" d="M63.7001 58.306C60.3627 58.4768 56.5418 58.4768 55.2433 58.306C45.1147 56.9734 37.0376 49.568 37.0376 39.5583C37.0376 29.5486 45.3203 21.4341 55.5376 21.4341C65.7549 21.4341 74.0376 29.5486 74.0376 39.5583C74.0376 44.2137 72.2459 48.4592 69.3013 51.6691C68.5017 52.5407 69.5988 53.152 70.7135 53.7732C71.8068 54.3825 72.9169 55.0012 72.2717 55.884C71.5608 56.8567 67.7066 58.1009 63.7001 58.306ZM52.936 37.2928C52.936 38.8567 51.6418 40.1246 50.0454 40.1246C48.449 40.1246 47.1548 38.8567 47.1548 37.2928C47.1548 36.2438 47.7369 35.3282 48.6018 34.8387C48.6516 36.2024 49.7729 37.2927 51.1488 37.2927H52.936V37.2928ZM61.8952 34.8387C61.8454 36.2024 60.7242 37.2927 59.3482 37.2927H57.561V37.2928C57.561 38.8567 58.8552 40.1246 60.4517 40.1246C62.0481 40.1246 63.3423 38.8567 63.3423 37.2928C63.3423 36.2438 62.7602 35.3282 61.8952 34.8387Z" fill="white"/>
</g>
<defs>
<clipPath id="clip0">
<rect width="292.642" height="79.8113" fill="white" transform="translate(0.301758 0.471802)"/>
</clipPath>
</defs>
</svg>
