<svg width="293" height="81" viewBox="0 0 293 81" fill="none" xmlns="http://www.w3.org/2000/svg">
<g clip-path="url(#clip0)">
<rect x="0.301758" y="0.471802" width="292.642" height="79.8113" rx="39.9057" fill="#6970C5"/>
<path d="M135.955 49.4343C133.167 50.9241 130.049 51.669 126.601 51.669C124.856 51.669 123.249 51.3923 121.78 50.839C120.333 50.2643 119.077 49.4662 118.013 48.4446C116.97 47.4018 116.151 46.1567 115.555 44.7095C114.959 43.2622 114.661 41.6553 114.661 39.8889C114.661 38.0798 114.959 36.441 115.555 34.9725C116.151 33.4827 116.97 32.2163 118.013 31.1735C119.077 30.1306 120.333 29.3325 121.78 28.7791C123.249 28.2045 124.856 27.9172 126.601 27.9172C128.325 27.9172 129.942 28.13 131.453 28.5556C132.965 28.96 134.316 29.6943 135.508 30.7584L132.539 33.7593C131.815 33.057 130.932 32.5143 129.889 32.1312C128.868 31.7481 127.782 31.5565 126.633 31.5565C125.462 31.5565 124.398 31.7694 123.44 32.195C122.504 32.5994 121.695 33.1741 121.014 33.919C120.333 34.6426 119.801 35.4939 119.418 36.4729C119.056 37.4519 118.875 38.5055 118.875 39.6335C118.875 40.8466 119.056 41.9639 119.418 42.9855C119.801 44.0071 120.333 44.8904 121.014 45.6353C121.695 46.3802 122.504 46.9655 123.44 47.3911C124.398 47.8168 125.462 48.0296 126.633 48.0296C127.654 48.0296 128.612 47.9338 129.506 47.7423C130.421 47.5507 131.23 47.2528 131.932 46.8484V41.517H127.303V37.8776H135.955V49.4343ZM140.722 28.4918H144.744V37.4945H155.311V28.4918H159.334V51.0944H155.311V41.1339H144.744V51.0944H140.722V28.4918ZM163.171 39.8889C163.171 38.0798 163.469 36.441 164.065 34.9725C164.661 33.4827 165.481 32.2163 166.524 31.1735C167.588 30.1306 168.843 29.3325 170.291 28.7791C171.759 28.2045 173.366 27.9172 175.111 27.9172C176.878 27.8959 178.495 28.1619 179.964 28.7153C181.432 29.2473 182.699 30.0348 183.763 31.0777C184.827 32.1205 185.657 33.3762 186.253 34.8448C186.849 36.3133 187.147 37.9521 187.147 39.7612C187.147 41.5276 186.849 43.1345 186.253 44.5818C185.657 46.029 184.827 47.2741 183.763 48.3169C182.699 49.3598 181.432 50.1792 179.964 50.7751C178.495 51.3498 176.878 51.6477 175.111 51.669C173.366 51.669 171.759 51.3923 170.291 50.839C168.843 50.2643 167.588 49.4662 166.524 48.4446C165.481 47.4018 164.661 46.1567 164.065 44.7095C163.469 43.2622 163.171 41.6553 163.171 39.8889ZM167.386 39.6335C167.386 40.8466 167.566 41.9639 167.928 42.9855C168.311 44.0071 168.843 44.8904 169.524 45.6353C170.206 46.3802 171.014 46.9655 171.951 47.3911C172.908 47.8168 173.973 48.0296 175.143 48.0296C176.314 48.0296 177.378 47.8168 178.336 47.3911C179.293 46.9655 180.113 46.3802 180.794 45.6353C181.475 44.8904 181.996 44.0071 182.358 42.9855C182.741 41.9639 182.933 40.8466 182.933 39.6335C182.933 38.5055 182.741 37.4519 182.358 36.4729C181.996 35.4939 181.475 34.6426 180.794 33.919C180.113 33.1741 179.293 32.5994 178.336 32.195C177.378 31.7694 176.314 31.5565 175.143 31.5565C173.973 31.5565 172.908 31.7694 171.951 32.195C171.014 32.5994 170.206 33.1741 169.524 33.919C168.843 34.6426 168.311 35.4939 167.928 36.4729C167.566 37.4519 167.386 38.5055 167.386 39.6335ZM202.056 33.3443C201.63 32.7271 201.056 32.2802 200.332 32.0035C199.63 31.7055 198.885 31.5565 198.097 31.5565C197.629 31.5565 197.171 31.6098 196.724 31.7162C196.299 31.8226 195.905 31.9929 195.543 32.227C195.203 32.4611 194.926 32.7697 194.713 33.1528C194.5 33.5146 194.394 33.9509 194.394 34.4617C194.394 35.2279 194.66 35.8132 195.192 36.2175C195.724 36.6219 196.384 36.9731 197.171 37.271C197.959 37.569 198.821 37.8563 199.757 38.133C200.694 38.4097 201.556 38.7928 202.343 39.2823C203.131 39.7718 203.79 40.4209 204.322 41.2297C204.855 42.0384 205.121 43.1132 205.121 44.4541C205.121 45.6672 204.897 46.7313 204.45 47.6465C204.003 48.5404 203.397 49.2853 202.63 49.8812C201.886 50.4772 201.013 50.9241 200.013 51.2221C199.012 51.52 197.959 51.669 196.852 51.669C195.447 51.669 194.096 51.4349 192.798 50.9667C191.499 50.4984 190.382 49.711 189.446 48.6042L192.478 45.6672C192.968 46.4121 193.606 46.9974 194.394 47.423C195.203 47.8274 196.054 48.0296 196.948 48.0296C197.416 48.0296 197.884 47.9658 198.353 47.8381C198.821 47.7104 199.246 47.5188 199.63 47.2634C200.013 47.008 200.321 46.6888 200.555 46.3057C200.789 45.9013 200.907 45.4437 200.907 44.9329C200.907 44.1029 200.64 43.4644 200.108 43.0175C199.576 42.5705 198.917 42.1981 198.129 41.9001C197.342 41.5809 196.48 41.2829 195.543 41.0062C194.607 40.7295 193.745 40.3571 192.957 39.8889C192.17 39.3993 191.51 38.7609 190.978 37.9734C190.446 37.1646 190.18 36.0898 190.18 34.749C190.18 33.5784 190.414 32.5675 190.882 31.7162C191.372 30.8649 192 30.1625 192.766 29.6092C193.553 29.0345 194.447 28.6089 195.447 28.3322C196.448 28.0555 197.469 27.9172 198.512 27.9172C199.704 27.9172 200.853 28.0981 201.96 28.4599C203.088 28.8217 204.099 29.4176 204.993 30.2476L202.056 33.3443ZM213.939 32.1312H207.011V28.4918H224.889V32.1312H217.961V51.0944H213.939V32.1312Z" fill="white"/>
<path fill-rule="evenodd" clip-rule="evenodd" d="M63.7001 58.306C60.3627 58.4768 56.5418 58.4768 55.2433 58.306C45.1147 56.9734 37.0376 49.568 37.0376 39.5583C37.0376 29.5486 45.3203 21.4341 55.5376 21.4341C65.7549 21.4341 74.0376 29.5486 74.0376 39.5583C74.0376 44.2137 72.2459 48.4592 69.3013 51.6691C68.5017 52.5407 69.5988 53.152 70.7135 53.7732C71.8068 54.3825 72.9169 55.0012 72.2717 55.884C71.5608 56.8567 67.7066 58.1009 63.7001 58.306ZM52.936 37.2928C52.936 38.8567 51.6418 40.1246 50.0454 40.1246C48.449 40.1246 47.1548 38.8567 47.1548 37.2928C47.1548 36.2438 47.7369 35.3282 48.6018 34.8387C48.6516 36.2024 49.7729 37.2927 51.1488 37.2927H52.936V37.2928ZM61.8952 34.8387C61.8454 36.2024 60.7242 37.2927 59.3482 37.2927H57.561V37.2928C57.561 38.8567 58.8552 40.1246 60.4517 40.1246C62.0481 40.1246 63.3423 38.8567 63.3423 37.2928C63.3423 36.2438 62.7602 35.3282 61.8952 34.8387Z" fill="white"/>
</g>
<defs>
<clipPath id="clip0">
<rect width="292.642" height="79.8113" fill="white" transform="translate(0.301758 0.471802)"/>
</clipPath>
</defs>
</svg>
