<svg width="294" height="81" viewBox="0 0 294 81" fill="none" xmlns="http://www.w3.org/2000/svg">
<g clip-path="url(#clip0)">
<rect x="0.830322" y="0.471802" width="292.642" height="79.8113" rx="39.9057" fill="#5DBE62"/>
<path d="M140.037 49.4343C137.249 50.9241 134.131 51.669 130.683 51.669C128.938 51.669 127.331 51.3923 125.863 50.839C124.416 50.2643 123.16 49.4662 122.096 48.4446C121.053 47.4018 120.233 46.1567 119.637 44.7095C119.042 43.2622 118.744 41.6553 118.744 39.8889C118.744 38.0798 119.042 36.441 119.637 34.9725C120.233 33.4827 121.053 32.2163 122.096 31.1735C123.16 30.1306 124.416 29.3325 125.863 28.7791C127.331 28.2045 128.938 27.9172 130.683 27.9172C132.407 27.9172 134.025 28.13 135.536 28.5556C137.047 28.96 138.398 29.6943 139.59 30.7584L136.621 33.7593C135.898 33.057 135.014 32.5143 133.972 32.1312C132.95 31.7481 131.865 31.5565 130.715 31.5565C129.545 31.5565 128.481 31.7694 127.523 32.195C126.586 32.5994 125.778 33.1741 125.097 33.919C124.416 34.6426 123.883 35.4939 123.5 36.4729C123.139 37.4519 122.958 38.5055 122.958 39.6335C122.958 40.8466 123.139 41.9639 123.5 42.9855C123.883 44.0071 124.416 44.8904 125.097 45.6353C125.778 46.3802 126.586 46.9655 127.523 47.3911C128.481 47.8168 129.545 48.0296 130.715 48.0296C131.737 48.0296 132.695 47.9338 133.589 47.7423C134.504 47.5507 135.312 47.2528 136.015 46.8484V41.517H131.386V37.8776H140.037V49.4343ZM144.804 28.4918H152.658C153.743 28.4918 154.786 28.5982 155.786 28.811C156.808 29.0026 157.712 29.3431 158.5 29.8326C159.287 30.3221 159.915 30.9819 160.383 31.8119C160.852 32.642 161.086 33.6955 161.086 34.9725C161.086 36.6113 160.628 37.984 159.713 39.0907C158.819 40.1975 157.531 40.8679 155.85 41.102L161.852 51.0944H156.999L151.764 41.517H148.827V51.0944H144.804V28.4918ZM151.955 38.0692C152.53 38.0692 153.105 38.0479 153.679 38.0053C154.254 37.9415 154.775 37.8138 155.244 37.6222C155.733 37.4094 156.127 37.1008 156.425 36.6964C156.723 36.2707 156.872 35.6855 156.872 34.9405C156.872 34.2808 156.733 33.7487 156.457 33.3443C156.18 32.9399 155.818 32.642 155.371 32.4504C154.924 32.2376 154.424 32.0993 153.871 32.0354C153.339 31.9716 152.817 31.9396 152.306 31.9396H148.827V38.0692H151.955ZM172.224 28.4918H175.703L185.44 51.0944H180.843L178.736 45.9226H168.935L166.892 51.0944H162.391L172.224 28.4918ZM177.332 42.4747L173.852 33.2805L170.308 42.4747H177.332ZM199.03 33.3443C198.604 32.7271 198.03 32.2802 197.306 32.0035C196.604 31.7055 195.859 31.5565 195.071 31.5565C194.603 31.5565 194.146 31.6098 193.699 31.7162C193.273 31.8226 192.879 31.9929 192.517 32.227C192.177 32.4611 191.9 32.7697 191.687 33.1528C191.475 33.5146 191.368 33.9509 191.368 34.4617C191.368 35.2279 191.634 35.8132 192.166 36.2175C192.698 36.6219 193.358 36.9731 194.146 37.271C194.933 37.569 195.795 37.8563 196.731 38.133C197.668 38.4097 198.53 38.7928 199.317 39.2823C200.105 39.7718 200.765 40.4209 201.297 41.2297C201.829 42.0384 202.095 43.1132 202.095 44.4541C202.095 45.6672 201.871 46.7313 201.424 47.6465C200.977 48.5404 200.371 49.2853 199.605 49.8812C198.86 50.4772 197.987 50.9241 196.987 51.2221C195.987 51.52 194.933 51.669 193.826 51.669C192.422 51.669 191.07 51.4349 189.772 50.9667C188.474 50.4984 187.356 49.711 186.42 48.6042L189.453 45.6672C189.942 46.4121 190.581 46.9974 191.368 47.423C192.177 47.8274 193.028 48.0296 193.922 48.0296C194.39 48.0296 194.859 47.9658 195.327 47.8381C195.795 47.7104 196.221 47.5188 196.604 47.2634C196.987 47.008 197.295 46.6888 197.53 46.3057C197.764 45.9013 197.881 45.4437 197.881 44.9329C197.881 44.1029 197.615 43.4644 197.083 43.0175C196.551 42.5705 195.891 42.1981 195.103 41.9001C194.316 41.5809 193.454 41.2829 192.517 41.0062C191.581 40.7295 190.719 40.3571 189.932 39.8889C189.144 39.3993 188.484 38.7609 187.952 37.9734C187.42 37.1646 187.154 36.0898 187.154 34.749C187.154 33.5784 187.388 32.5675 187.856 31.7162C188.346 30.8649 188.974 30.1625 189.74 29.6092C190.527 29.0345 191.421 28.6089 192.422 28.3322C193.422 28.0555 194.444 27.9172 195.486 27.9172C196.678 27.9172 197.828 28.0981 198.934 28.4599C200.062 28.8217 201.073 29.4176 201.967 30.2476L199.03 33.3443ZM217.362 33.3443C216.936 32.7271 216.361 32.2802 215.638 32.0035C214.935 31.7055 214.191 31.5565 213.403 31.5565C212.935 31.5565 212.477 31.6098 212.03 31.7162C211.605 31.8226 211.211 31.9929 210.849 32.227C210.509 32.4611 210.232 32.7697 210.019 33.1528C209.806 33.5146 209.7 33.9509 209.7 34.4617C209.7 35.2279 209.966 35.8132 210.498 36.2175C211.03 36.6219 211.69 36.9731 212.477 37.271C213.265 37.569 214.127 37.8563 215.063 38.133C216 38.4097 216.862 38.7928 217.649 39.2823C218.436 39.7718 219.096 40.4209 219.628 41.2297C220.16 42.0384 220.426 43.1132 220.426 44.4541C220.426 45.6672 220.203 46.7313 219.756 47.6465C219.309 48.5404 218.703 49.2853 217.936 49.8812C217.191 50.4772 216.319 50.9241 215.319 51.2221C214.318 51.52 213.265 51.669 212.158 51.669C210.753 51.669 209.402 51.4349 208.104 50.9667C206.805 50.4984 205.688 49.711 204.752 48.6042L207.784 45.6672C208.274 46.4121 208.912 46.9974 209.7 47.423C210.509 47.8274 211.36 48.0296 212.254 48.0296C212.722 48.0296 213.19 47.9658 213.658 47.8381C214.127 47.7104 214.552 47.5188 214.935 47.2634C215.319 47.008 215.627 46.6888 215.861 46.3057C216.095 45.9013 216.212 45.4437 216.212 44.9329C216.212 44.1029 215.946 43.4644 215.414 43.0175C214.882 42.5705 214.222 42.1981 213.435 41.9001C212.648 41.5809 211.786 41.2829 210.849 41.0062C209.913 40.7295 209.051 40.3571 208.263 39.8889C207.476 39.3993 206.816 38.7609 206.284 37.9734C205.752 37.1646 205.486 36.0898 205.486 34.749C205.486 33.5784 205.72 32.5675 206.188 31.7162C206.678 30.8649 207.305 30.1625 208.072 29.6092C208.859 29.0345 209.753 28.6089 210.753 28.3322C211.754 28.0555 212.775 27.9172 213.818 27.9172C215.01 27.9172 216.159 28.0981 217.266 28.4599C218.394 28.8217 219.405 29.4176 220.299 30.2476L217.362 33.3443Z" fill="white"/>
<path fill-rule="evenodd" clip-rule="evenodd" d="M43.1375 55.2C42.9911 55.0625 42.8464 54.9225 42.7033 54.7796C35.1494 47.2404 35.1494 35.0169 42.7033 27.4777C50.2571 19.9384 74.3268 19.4341 74.3268 19.4341C74.3268 19.4341 77.6123 47.2404 70.0584 54.7796C63.3495 61.4755 52.9387 62.2245 45.4016 57.0269L51.4747 49.5886L61.1832 47.4966L53.2582 46.7059L58.2946 41.5878L64.0276 40.3343L59.4943 38.9944L64.0276 30.8324L57.5794 38.051L55.0894 34.544L55.9659 40.3343L51.4747 45.3876L49.3928 38.9943V47.4966L43.1375 55.2Z" fill="white"/>
</g>
<defs>
<clipPath id="clip0">
<rect width="292.642" height="79.8113" fill="white" transform="translate(0.830322 0.471802)"/>
</clipPath>
</defs>
</svg>
