<svg width="294" height="81" viewBox="0 0 294 81" fill="none" xmlns="http://www.w3.org/2000/svg">
<g clip-path="url(#clip0)">
<rect x="0.830322" y="0.471802" width="292.642" height="79.8113" rx="39.9057" fill="#5DBE62"/>
<text fill="white" xml:space="preserve" style="white-space: pre" font-family="Avenir" font-size="31.9245" font-weight="800" letter-spacing="0px"><tspan x="117.435" y="51.2144">GRASS</tspan></text>
<path fill-rule="evenodd" clip-rule="evenodd" d="M43.1375 55.2C42.9911 55.0625 42.8464 54.9225 42.7033 54.7796C35.1494 47.2404 35.1494 35.0169 42.7033 27.4777C50.2571 19.9384 74.3268 19.4341 74.3268 19.4341C74.3268 19.4341 77.6123 47.2404 70.0584 54.7796C63.3495 61.4755 52.9387 62.2245 45.4016 57.0269L51.4747 49.5886L61.1832 47.4966L53.2582 46.7059L58.2946 41.5878L64.0276 40.3343L59.4943 38.9944L64.0276 30.8324L57.5794 38.051L55.0894 34.544L55.9659 40.3343L51.4747 45.3876L49.3928 38.9943V47.4966L43.1375 55.2Z" fill="white"/>
</g>
<defs>
<clipPath id="clip0">
<rect width="292.642" height="79.8113" fill="white" transform="translate(0.830322 0.471802)"/>
</clipPath>
</defs>
</svg>
