<svg width="293" height="80" viewBox="0 0 293 80" fill="none" xmlns="http://www.w3.org/2000/svg">
<g clip-path="url(#clip0)">
<rect x="0.301758" y="0.188599" width="292.642" height="79.8113" rx="39.9057" fill="#D78555"/>
<text fill="white" xml:space="preserve" style="white-space: pre" font-family="Avenir" font-size="31.9245" font-weight="800" letter-spacing="0px"><tspan x="97.125" y="50.9315">GROUND</tspan></text>
<path fill-rule="evenodd" clip-rule="evenodd" d="M46.508 53.2824C46.3459 53.2824 46.2326 53.1221 46.2867 52.9693L56.366 24.4888C56.4417 24.2751 56.6437 24.1322 56.8704 24.1322H67.1356C67.3632 24.1322 67.5659 24.2762 67.6408 24.4911L77.4311 52.5712C77.5523 52.919 77.2941 53.2824 76.9258 53.2824H46.508ZM38.0734 53.3963C37.6999 53.3963 37.4413 53.0233 37.5723 52.6735L44.8573 33.2245C44.9356 33.0156 45.1353 32.8771 45.3584 32.8771H50.9259C51.2969 32.8771 51.5554 33.2456 51.429 33.5944L44.3846 53.0434C44.3079 53.2552 44.1068 53.3963 43.8815 53.3963H38.0734Z" fill="white"/>
</g>
<defs>
<clipPath id="clip0">
<rect width="292.642" height="79.8113" fill="white" transform="translate(0.301758 0.188599)"/>
</clipPath>
</defs>
</svg>
