<svg width="293" height="80" viewBox="0 0 293 80" fill="none" xmlns="http://www.w3.org/2000/svg">
<g clip-path="url(#clip0)">
<rect x="0.301758" y="0.188599" width="292.642" height="79.8113" rx="39.9057" fill="#D78555"/>
<path d="M119.728 49.1513C116.939 50.6411 113.822 51.386 110.374 51.386C108.628 51.386 107.022 51.1094 105.553 50.556C104.106 49.9814 102.85 49.1833 101.786 48.1617C100.743 47.1188 99.9237 45.8737 99.3278 44.4265C98.7319 42.9793 98.4339 41.3724 98.4339 39.6059C98.4339 37.7968 98.7319 36.158 99.3278 34.6895C99.9237 33.1997 100.743 31.9334 101.786 30.8905C102.85 29.8476 104.106 29.0495 105.553 28.4962C107.022 27.9215 108.628 27.6342 110.374 27.6342C112.098 27.6342 113.715 27.847 115.226 28.2727C116.737 28.6771 118.089 29.4113 119.281 30.4755L116.312 33.4764C115.588 32.774 114.705 32.2313 113.662 31.8482C112.64 31.4651 111.555 31.2736 110.406 31.2736C109.235 31.2736 108.171 31.4864 107.213 31.9121C106.277 32.3165 105.468 32.8911 104.787 33.636C104.106 34.3596 103.574 35.2109 103.191 36.19C102.829 37.169 102.648 38.2225 102.648 39.3505C102.648 40.5636 102.829 41.681 103.191 42.7026C103.574 43.7242 104.106 44.6074 104.787 45.3523C105.468 46.0972 106.277 46.6825 107.213 47.1082C108.171 47.5338 109.235 47.7466 110.406 47.7466C111.427 47.7466 112.385 47.6509 113.279 47.4593C114.194 47.2678 115.003 46.9698 115.705 46.5654V41.234H111.076V37.5946H119.728V49.1513ZM124.495 28.2088H132.348C133.433 28.2088 134.476 28.3153 135.477 28.5281C136.498 28.7196 137.403 29.0602 138.19 29.5497C138.978 30.0392 139.605 30.6989 140.074 31.529C140.542 32.359 140.776 33.4125 140.776 34.6895C140.776 36.3283 140.318 37.7011 139.403 38.8078C138.509 39.9145 137.222 40.5849 135.54 40.819L141.542 50.8114H136.69L131.454 41.234H128.517V50.8114H124.495V28.2088ZM131.646 37.7862C132.22 37.7862 132.795 37.7649 133.37 37.7223C133.944 37.6585 134.466 37.5308 134.934 37.3393C135.423 37.1264 135.817 36.8178 136.115 36.4134C136.413 35.9878 136.562 35.4025 136.562 34.6576C136.562 33.9978 136.424 33.4657 136.147 33.0614C135.87 32.657 135.509 32.359 135.062 32.1675C134.615 31.9546 134.114 31.8163 133.561 31.7525C133.029 31.6886 132.508 31.6567 131.997 31.6567H128.517V37.7862H131.646ZM143.39 39.6059C143.39 37.7968 143.688 36.158 144.284 34.6895C144.88 33.1997 145.699 31.9334 146.742 30.8905C147.806 29.8476 149.062 29.0495 150.509 28.4962C151.978 27.9215 153.585 27.6342 155.33 27.6342C157.096 27.6129 158.714 27.8789 160.182 28.4323C161.651 28.9644 162.917 29.7519 163.981 30.7947C165.046 31.8376 165.876 33.0933 166.472 34.5618C167.067 36.0303 167.365 37.6691 167.365 39.4782C167.365 41.2447 167.067 42.8516 166.472 44.2988C165.876 45.746 165.046 46.9911 163.981 48.034C162.917 49.0768 161.651 49.8962 160.182 50.4922C158.714 51.0668 157.096 51.3648 155.33 51.386C153.585 51.386 151.978 51.1094 150.509 50.556C149.062 49.9814 147.806 49.1833 146.742 48.1617C145.699 47.1188 144.88 45.8737 144.284 44.4265C143.688 42.9793 143.39 41.3724 143.39 39.6059ZM147.604 39.3505C147.604 40.5636 147.785 41.681 148.147 42.7026C148.53 43.7242 149.062 44.6074 149.743 45.3523C150.424 46.0972 151.233 46.6825 152.169 47.1082C153.127 47.5338 154.191 47.7466 155.362 47.7466C156.532 47.7466 157.597 47.5338 158.554 47.1082C159.512 46.6825 160.331 46.0972 161.012 45.3523C161.694 44.6074 162.215 43.7242 162.577 42.7026C162.96 41.681 163.151 40.5636 163.151 39.3505C163.151 38.2225 162.96 37.169 162.577 36.19C162.215 35.2109 161.694 34.3596 161.012 33.636C160.331 32.8911 159.512 32.3165 158.554 31.9121C157.597 31.4864 156.532 31.2736 155.362 31.2736C154.191 31.2736 153.127 31.4864 152.169 31.9121C151.233 32.3165 150.424 32.8911 149.743 33.636C149.062 34.3596 148.53 35.2109 148.147 36.19C147.785 37.169 147.604 38.2225 147.604 39.3505ZM189.298 42.511C189.298 43.8731 189.064 45.1076 188.596 46.2143C188.127 47.2997 187.489 48.2255 186.68 48.9917C185.871 49.7579 184.914 50.3538 183.807 50.7795C182.7 51.1839 181.498 51.386 180.199 51.386C178.901 51.386 177.699 51.1839 176.592 50.7795C175.485 50.3538 174.517 49.7579 173.687 48.9917C172.878 48.2255 172.24 47.2997 171.771 46.2143C171.324 45.1076 171.101 43.8731 171.101 42.511V28.2088H175.123V42.3833C175.123 42.9367 175.208 43.522 175.379 44.1392C175.549 44.7351 175.826 45.2885 176.209 45.7993C176.613 46.31 177.135 46.7357 177.773 47.0762C178.433 47.3955 179.242 47.5551 180.199 47.5551C181.157 47.5551 181.955 47.3955 182.594 47.0762C183.253 46.7357 183.775 46.31 184.158 45.7993C184.562 45.2885 184.85 44.7351 185.02 44.1392C185.19 43.522 185.275 42.9367 185.275 42.3833V28.2088H189.298V42.511ZM194.236 28.2088H199.567L210.517 45.0011H210.581V28.2088H214.604V50.8114H209.496L198.322 33.4764H198.258V50.8114H194.236V28.2088ZM219.645 28.2088H228.552C230.041 28.2088 231.478 28.4429 232.861 28.9112C234.245 29.3581 235.469 30.0498 236.533 30.9863C237.597 31.9227 238.448 33.1039 239.087 34.5299C239.725 35.9346 240.044 37.5946 240.044 39.5101C240.044 41.4469 239.672 43.1282 238.927 44.5542C238.203 45.9589 237.256 47.1294 236.086 48.0659C234.936 48.9811 233.649 49.6728 232.223 50.141C230.818 50.5879 229.435 50.8114 228.073 50.8114H219.645V28.2088ZM226.668 47.172C227.924 47.172 229.105 47.0337 230.212 46.757C231.34 46.459 232.319 46.0121 233.149 45.4162C233.979 44.7989 234.628 44.0115 235.096 43.0537C235.586 42.0747 235.83 40.8935 235.83 39.5101C235.83 38.148 235.618 36.9774 235.192 35.9984C234.766 35.0194 234.17 34.2319 233.404 33.636C232.659 33.0188 231.765 32.5719 230.722 32.2952C229.701 31.9972 228.573 31.8482 227.338 31.8482H223.667V47.172H226.668Z" fill="white"/>
<path fill-rule="evenodd" clip-rule="evenodd" d="M46.508 53.2824C46.3459 53.2824 46.2326 53.1221 46.2867 52.9693L56.366 24.4888C56.4417 24.2751 56.6437 24.1322 56.8704 24.1322H67.1356C67.3632 24.1322 67.5659 24.2762 67.6408 24.4911L77.4311 52.5712C77.5523 52.919 77.2941 53.2824 76.9258 53.2824H46.508ZM38.0734 53.3963C37.6999 53.3963 37.4413 53.0233 37.5723 52.6735L44.8573 33.2245C44.9356 33.0156 45.1353 32.8771 45.3584 32.8771H50.9259C51.2969 32.8771 51.5554 33.2456 51.429 33.5944L44.3846 53.0434C44.3079 53.2552 44.1068 53.3963 43.8815 53.3963H38.0734Z" fill="white"/>
</g>
<defs>
<clipPath id="clip0">
<rect width="292.642" height="79.8113" fill="white" transform="translate(0.301758 0.188599)"/>
</clipPath>
</defs>
</svg>
