<svg width="294" height="80" viewBox="0 0 294 80" fill="none" xmlns="http://www.w3.org/2000/svg">
<g clip-path="url(#clip0)">
<rect x="0.830322" y="0.188599" width="292.642" height="79.8113" rx="39.9057" fill="#7ED4C9"/>
<path d="M147.062 28.2088H151.085V50.8114H147.062V28.2088ZM171.559 33.5083C170.729 32.6144 169.92 32.0185 169.132 31.7205C168.366 31.4226 167.589 31.2736 166.802 31.2736C165.631 31.2736 164.567 31.4864 163.609 31.9121C162.673 32.3165 161.864 32.8911 161.183 33.636C160.502 34.3596 159.97 35.2109 159.587 36.19C159.225 37.169 159.044 38.2225 159.044 39.3505C159.044 40.5636 159.225 41.681 159.587 42.7026C159.97 43.7242 160.502 44.6074 161.183 45.3523C161.864 46.0972 162.673 46.6825 163.609 47.1082C164.567 47.5338 165.631 47.7466 166.802 47.7466C167.717 47.7466 168.6 47.5338 169.452 47.1082C170.324 46.6612 171.133 45.9589 171.878 45.0011L175.198 47.3636C174.176 48.7682 172.931 49.7898 171.463 50.4283C169.994 51.0668 168.43 51.386 166.77 51.386C165.025 51.386 163.418 51.1094 161.949 50.556C160.502 49.9814 159.246 49.1833 158.182 48.1617C157.139 47.1188 156.32 45.8737 155.724 44.4265C155.128 42.9793 154.83 41.3724 154.83 39.6059C154.83 37.7968 155.128 36.158 155.724 34.6895C156.32 33.1997 157.139 31.9334 158.182 30.8905C159.246 29.8476 160.502 29.0495 161.949 28.4962C163.418 27.9215 165.025 27.6342 166.77 27.6342C168.302 27.6342 169.718 27.9109 171.016 28.4642C172.335 28.9963 173.559 29.9115 174.687 31.2097L171.559 33.5083ZM177.898 28.2088H192.87V31.8482H181.92V37.4031H192.296V41.0425H181.92V47.172H193.445V50.8114H177.898V28.2088Z" fill="white"/>
<path fill-rule="evenodd" clip-rule="evenodd" d="M71.7373 19.7046L71.876 31.883L61.2539 36.982L61.123 25.4834L71.7373 19.7046Z" fill="white"/>
<path fill-rule="evenodd" clip-rule="evenodd" d="M82.3854 38.8945L71.8702 44.9091L61.3488 38.885L71.8648 33.3612L82.3854 38.8945Z" fill="white"/>
<path fill-rule="evenodd" clip-rule="evenodd" d="M59.4787 38.8945L48.9635 44.9091L38.4421 38.885L48.9581 33.3612L59.4787 38.8945Z" fill="white"/>
<path fill-rule="evenodd" clip-rule="evenodd" d="M48.8453 19.6549L59.7593 25.0602L59.4803 36.8395L49.1754 31.7359L48.8453 19.6549Z" fill="white"/>
<path fill-rule="evenodd" clip-rule="evenodd" d="M72.0346 57.9505L61.1206 52.5452L61.3996 40.7659L71.7045 45.8695L72.0346 57.9505Z" fill="white"/>
<path fill-rule="evenodd" clip-rule="evenodd" d="M49.2221 58.0601L49.0834 45.8817L59.7056 40.7826L59.8365 52.2813L49.2221 58.0601Z" fill="white"/>
</g>
<defs>
<clipPath id="clip0">
<rect width="292.642" height="79.8113" fill="white" transform="translate(0.830322 0.188599)"/>
</clipPath>
</defs>
</svg>
