<svg width="294" height="80" viewBox="0 0 294 80" fill="none" xmlns="http://www.w3.org/2000/svg">
<g clip-path="url(#clip0)">
<rect x="0.830322" y="0.188599" width="292.642" height="79.8113" rx="39.9057" fill="#7ED4C9"/>
<text fill="white" xml:space="preserve" style="white-space: pre" font-family="Avenir" font-size="31.9245" font-weight="800" letter-spacing="0px"><tspan x="144.636" y="50.9315">ICE</tspan></text>
<path fill-rule="evenodd" clip-rule="evenodd" d="M71.7373 19.7046L71.876 31.883L61.2539 36.982L61.123 25.4834L71.7373 19.7046Z" fill="white"/>
<path fill-rule="evenodd" clip-rule="evenodd" d="M82.3854 38.8945L71.8702 44.9091L61.3488 38.885L71.8648 33.3612L82.3854 38.8945Z" fill="white"/>
<path fill-rule="evenodd" clip-rule="evenodd" d="M59.4787 38.8945L48.9635 44.9091L38.4421 38.885L48.9581 33.3612L59.4787 38.8945Z" fill="white"/>
<path fill-rule="evenodd" clip-rule="evenodd" d="M48.8453 19.6549L59.7593 25.0602L59.4803 36.8395L49.1754 31.7359L48.8453 19.6549Z" fill="white"/>
<path fill-rule="evenodd" clip-rule="evenodd" d="M72.0346 57.9505L61.1206 52.5452L61.3996 40.7659L71.7045 45.8695L72.0346 57.9505Z" fill="white"/>
<path fill-rule="evenodd" clip-rule="evenodd" d="M49.2221 58.0601L49.0834 45.8817L59.7056 40.7826L59.8365 52.2813L49.2221 58.0601Z" fill="white"/>
</g>
<defs>
<clipPath id="clip0">
<rect width="292.642" height="79.8113" fill="white" transform="translate(0.830322 0.188599)"/>
</clipPath>
</defs>
</svg>
