<svg width="293" height="81" viewBox="0 0 293 81" fill="none" xmlns="http://www.w3.org/2000/svg">
<g clip-path="url(#clip0)">
<rect x="0.301758" y="0.905884" width="292.642" height="79.8113" rx="39.9057" fill="#9A9DA1"/>
<path d="M101.128 28.9259H106.459L117.409 45.7182H117.473V28.9259H121.496V51.5284H116.388L105.214 34.1934H105.15V51.5284H101.128V28.9259ZM125.323 40.3229C125.323 38.5139 125.621 36.8751 126.217 35.4066C126.813 33.9167 127.633 32.6504 128.676 31.6075C129.74 30.5647 130.995 29.7666 132.443 29.2132C133.911 28.6386 135.518 28.3512 137.263 28.3512C139.03 28.33 140.647 28.596 142.116 29.1493C143.584 29.6814 144.851 30.4689 145.915 31.5118C146.979 32.5546 147.809 33.8103 148.405 35.2789C149.001 36.7474 149.299 38.3862 149.299 40.1952C149.299 41.9617 149.001 43.5686 148.405 45.0158C147.809 46.4631 146.979 47.7081 145.915 48.751C144.851 49.7939 143.584 50.6133 142.116 51.2092C140.647 51.7838 139.03 52.0818 137.263 52.1031C135.518 52.1031 133.911 51.8264 132.443 51.273C130.995 50.6984 129.74 49.9003 128.676 48.8787C127.633 47.8358 126.813 46.5908 126.217 45.1435C125.621 43.6963 125.323 42.0894 125.323 40.3229ZM129.538 40.0675C129.538 41.2807 129.718 42.398 130.08 43.4196C130.463 44.4412 130.995 45.3244 131.676 46.0693C132.358 46.8143 133.166 47.3995 134.103 47.8252C135.06 48.2509 136.125 48.4637 137.295 48.4637C138.466 48.4637 139.53 48.2509 140.488 47.8252C141.445 47.3995 142.265 46.8143 142.946 46.0693C143.627 45.3244 144.148 44.4412 144.51 43.4196C144.893 42.398 145.085 41.2807 145.085 40.0675C145.085 38.9395 144.893 37.886 144.51 36.907C144.148 35.928 143.627 35.0767 142.946 34.353C142.265 33.6081 141.445 33.0335 140.488 32.6291C139.53 32.2035 138.466 31.9906 137.295 31.9906C136.125 31.9906 135.06 32.2035 134.103 32.6291C133.166 33.0335 132.358 33.6081 131.676 34.353C130.995 35.0767 130.463 35.928 130.08 36.907C129.718 37.886 129.538 38.9395 129.538 40.0675ZM153.13 28.9259H160.983C162.069 28.9259 163.112 29.0323 164.112 29.2451C165.134 29.4367 166.038 29.7772 166.826 30.2667C167.613 30.7562 168.241 31.416 168.709 32.246C169.177 33.0761 169.411 34.1296 169.411 35.4066C169.411 37.0453 168.954 38.4181 168.039 39.5248C167.145 40.6315 165.857 41.302 164.176 41.5361L170.178 51.5284H165.325L160.09 41.9511H157.152V51.5284H153.13V28.9259ZM160.281 38.5032C160.856 38.5032 161.43 38.482 162.005 38.4394C162.58 38.3755 163.101 38.2478 163.569 38.0563C164.059 37.8435 164.453 37.5349 164.751 37.1305C165.048 36.7048 165.197 36.1195 165.197 35.3746C165.197 34.7149 165.059 34.1828 164.782 33.7784C164.506 33.374 164.144 33.0761 163.697 32.8845C163.25 32.6717 162.75 32.5333 162.197 32.4695C161.664 32.4057 161.143 32.3737 160.632 32.3737H157.152V38.5032H160.281ZM173.334 28.9259H179.464L185.498 44.7604L191.595 28.9259H197.661V51.5284H193.83V32.7568H193.766L186.902 51.5284H184.093L177.229 32.7568H177.165V51.5284H173.334V28.9259ZM210.105 28.9259H213.584L223.321 51.5284H218.724L216.617 46.3567H206.816L204.773 51.5284H200.272L210.105 28.9259ZM215.212 42.9088L211.733 33.7146L208.189 42.9088H215.212ZM225.833 28.9259H229.856V47.889H239.465V51.5284H225.833V28.9259Z" fill="white"/>
<path fill-rule="evenodd" clip-rule="evenodd" d="M56.1698 59.4341C66.4548 59.4341 74.7924 51.0965 74.7924 40.8115C74.7924 30.5265 66.4548 22.1888 56.1698 22.1888C45.8848 22.1888 37.5471 30.5265 37.5471 40.8115C37.5471 51.0965 45.8848 59.4341 56.1698 59.4341ZM56.1697 51.453C62.0469 51.453 66.8112 46.6886 66.8112 40.8115C66.8112 34.9343 62.0469 30.17 56.1697 30.17C50.2926 30.17 45.5282 34.9343 45.5282 40.8115C45.5282 46.6886 50.2926 51.453 56.1697 51.453Z" fill="white"/>
</g>
<defs>
<clipPath id="clip0">
<rect width="292.642" height="79.8113" fill="white" transform="translate(0.301758 0.905884)"/>
</clipPath>
</defs>
</svg>
