<svg width="293" height="81" viewBox="0 0 293 81" fill="none" xmlns="http://www.w3.org/2000/svg">
<g clip-path="url(#clip0)">
<rect x="0.301758" y="0.905884" width="292.642" height="79.8113" rx="39.9057" fill="#9A9DA1"/>
<text fill="white" xml:space="preserve" style="white-space: pre" font-family="Avenir" font-size="31.9245" font-weight="800" letter-spacing="0px"><tspan x="98.6059" y="51.6485">NORMAL</tspan></text>
<path fill-rule="evenodd" clip-rule="evenodd" d="M56.1698 59.4341C66.4548 59.4341 74.7924 51.0965 74.7924 40.8115C74.7924 30.5265 66.4548 22.1888 56.1698 22.1888C45.8848 22.1888 37.5471 30.5265 37.5471 40.8115C37.5471 51.0965 45.8848 59.4341 56.1698 59.4341ZM56.1697 51.453C62.0469 51.453 66.8112 46.6886 66.8112 40.8115C66.8112 34.9343 62.0469 30.17 56.1697 30.17C50.2926 30.17 45.5282 34.9343 45.5282 40.8115C45.5282 46.6886 50.2926 51.453 56.1697 51.453Z" fill="white"/>
</g>
<defs>
<clipPath id="clip0">
<rect width="292.642" height="79.8113" fill="white" transform="translate(0.301758 0.905884)"/>
</clipPath>
</defs>
</svg>
