<svg width="294" height="81" viewBox="0 0 294 81" fill="none" xmlns="http://www.w3.org/2000/svg">
<g clip-path="url(#clip0)">
<rect x="0.830322" y="0.905884" width="292.642" height="79.8113" rx="39.9057" fill="#B563CE"/>
<text fill="white" xml:space="preserve" style="white-space: pre" font-family="Avenir" font-size="31.9245" font-weight="800" letter-spacing="0px"><tspan x="107.1" y="51.6485">POISON</tspan></text>
<path fill-rule="evenodd" clip-rule="evenodd" d="M49.1021 59.4343C50.9865 59.4343 52.6391 58.1026 53.5654 56.1023C54.4917 58.1026 56.1443 59.4343 58.0287 59.4343C59.7463 59.4343 61.2713 58.3279 62.2292 56.6174C63.1872 58.3279 64.7122 59.4343 66.4298 59.4343C69.3297 59.4343 71.6805 56.2805 71.6805 52.39C71.6805 51.6233 71.5892 50.8852 71.4204 50.1941C75.4501 46.9719 77.9813 42.3165 77.9813 37.1392C77.9813 27.413 69.0482 19.5284 58.0285 19.5284C47.0089 19.5284 38.0757 27.413 38.0757 37.1392C38.0757 42.1295 40.4274 46.6351 44.2061 49.8396C43.977 50.6305 43.8514 51.4905 43.8514 52.39C43.8514 56.2805 46.2022 59.4343 49.1021 59.4343ZM57.7661 46.4292C64.2909 46.4292 69.5803 42.4263 69.5803 37.4884C69.5803 32.5505 64.2909 28.5475 57.7661 28.5475C51.2413 28.5475 45.952 32.5505 45.952 37.4884C45.952 42.4263 51.2413 46.4292 57.7661 46.4292Z" fill="white"/>
</g>
<defs>
<clipPath id="clip0">
<rect width="292.642" height="79.8113" fill="white" transform="translate(0.830322 0.905884)"/>
</clipPath>
</defs>
</svg>
