<svg width="294" height="81" viewBox="0 0 294 81" fill="none" xmlns="http://www.w3.org/2000/svg">
<g clip-path="url(#clip0)">
<rect x="0.830322" y="0.905884" width="292.642" height="79.8113" rx="39.9057" fill="#B563CE"/>
<path d="M109.622 28.9259H117.22C118.305 28.9259 119.348 29.0323 120.348 29.2451C121.37 29.458 122.264 29.8198 123.03 30.3306C123.796 30.8201 124.403 31.4905 124.85 32.3418C125.318 33.1718 125.552 34.2147 125.552 35.4704C125.552 36.8964 125.307 38.0457 124.818 38.9183C124.328 39.7909 123.669 40.4719 122.839 40.9614C122.009 41.4296 121.04 41.7489 119.933 41.9192C118.848 42.0894 117.709 42.1746 116.517 42.1746H113.644V51.5284H109.622V28.9259ZM116.071 38.7267C116.645 38.7267 117.241 38.7054 117.858 38.6629C118.476 38.6203 119.04 38.4926 119.55 38.2798C120.082 38.0669 120.508 37.7477 120.827 37.322C121.168 36.8964 121.338 36.3004 121.338 35.5343C121.338 34.8319 121.189 34.2786 120.891 33.8742C120.593 33.4485 120.21 33.1293 119.742 32.9164C119.274 32.6823 118.752 32.5333 118.178 32.4695C117.603 32.4057 117.05 32.3737 116.517 32.3737H113.644V38.7267H116.071ZM127.925 40.3229C127.925 38.5139 128.223 36.8751 128.819 35.4066C129.415 33.9167 130.234 32.6504 131.277 31.6075C132.341 30.5647 133.597 29.7666 135.044 29.2132C136.513 28.6386 138.12 28.3512 139.865 28.3512C141.631 28.33 143.249 28.596 144.717 29.1493C146.186 29.6814 147.452 30.4689 148.516 31.5118C149.58 32.5546 150.411 33.8103 151.006 35.2789C151.602 36.7474 151.9 38.3862 151.9 40.1952C151.9 41.9617 151.602 43.5686 151.006 45.0158C150.411 46.4631 149.58 47.7081 148.516 48.751C147.452 49.7939 146.186 50.6133 144.717 51.2092C143.249 51.7838 141.631 52.0818 139.865 52.1031C138.12 52.1031 136.513 51.8264 135.044 51.273C133.597 50.6984 132.341 49.9003 131.277 48.8787C130.234 47.8358 129.415 46.5908 128.819 45.1435C128.223 43.6963 127.925 42.0894 127.925 40.3229ZM132.139 40.0675C132.139 41.2807 132.32 42.398 132.682 43.4196C133.065 44.4412 133.597 45.3244 134.278 46.0693C134.959 46.8143 135.768 47.3995 136.704 47.8252C137.662 48.2509 138.726 48.4637 139.897 48.4637C141.067 48.4637 142.131 48.2509 143.089 47.8252C144.047 47.3995 144.866 46.8143 145.547 46.0693C146.228 45.3244 146.75 44.4412 147.112 43.4196C147.495 42.398 147.686 41.2807 147.686 40.0675C147.686 38.9395 147.495 37.886 147.112 36.907C146.75 35.928 146.228 35.0767 145.547 34.353C144.866 33.6081 144.047 33.0335 143.089 32.6291C142.131 32.2035 141.067 31.9906 139.897 31.9906C138.726 31.9906 137.662 32.2035 136.704 32.6291C135.768 33.0335 134.959 33.6081 134.278 34.353C133.597 35.0767 133.065 35.928 132.682 36.907C132.32 37.886 132.139 38.9395 132.139 40.0675ZM155.636 28.9259H159.658V51.5284H155.636V28.9259ZM175.695 33.7784C175.269 33.1612 174.694 32.7143 173.971 32.4376C173.268 32.1396 172.523 31.9906 171.736 31.9906C171.268 31.9906 170.81 32.0438 170.363 32.1503C169.938 32.2567 169.544 32.4269 169.182 32.661C168.841 32.8952 168.565 33.2038 168.352 33.5869C168.139 33.9487 168.033 34.385 168.033 34.8958C168.033 35.662 168.299 36.2472 168.831 36.6516C169.363 37.056 170.023 37.4072 170.81 37.7051C171.598 38.0031 172.46 38.2904 173.396 38.5671C174.332 38.8438 175.194 39.2269 175.982 39.7164C176.769 40.2059 177.429 40.855 177.961 41.6638C178.493 42.4725 178.759 43.5473 178.759 44.8881C178.759 46.1013 178.536 47.1654 178.089 48.0806C177.642 48.9745 177.035 49.7194 176.269 50.3153C175.524 50.9112 174.652 51.3582 173.651 51.6561C172.651 51.9541 171.598 52.1031 170.491 52.1031C169.086 52.1031 167.735 51.869 166.436 51.4007C165.138 50.9325 164.021 50.145 163.084 49.0383L166.117 46.1013C166.607 46.8462 167.245 47.4315 168.033 47.8571C168.841 48.2615 169.693 48.4637 170.587 48.4637C171.055 48.4637 171.523 48.3998 171.991 48.2721C172.46 48.1444 172.885 47.9529 173.268 47.6975C173.651 47.4421 173.96 47.1229 174.194 46.7398C174.428 46.3354 174.545 45.8778 174.545 45.367C174.545 44.537 174.279 43.8985 173.747 43.4515C173.215 43.0046 172.555 42.6321 171.768 42.3342C170.98 42.0149 170.118 41.717 169.182 41.4403C168.246 41.1636 167.384 40.7912 166.596 40.3229C165.809 39.8334 165.149 39.1949 164.617 38.4075C164.085 37.5987 163.819 36.5239 163.819 35.1831C163.819 34.0125 164.053 33.0016 164.521 32.1503C165.011 31.2989 165.638 30.5966 166.405 30.0432C167.192 29.4686 168.086 29.0429 169.086 28.7663C170.087 28.4896 171.108 28.3512 172.151 28.3512C173.343 28.3512 174.492 28.5321 175.599 28.894C176.727 29.2558 177.738 29.8517 178.632 30.6817L175.695 33.7784ZM181.735 40.3229C181.735 38.5139 182.033 36.8751 182.629 35.4066C183.225 33.9167 184.045 32.6504 185.087 31.6075C186.152 30.5647 187.407 29.7666 188.854 29.2132C190.323 28.6386 191.93 28.3512 193.675 28.3512C195.442 28.33 197.059 28.596 198.528 29.1493C199.996 29.6814 201.262 30.4689 202.327 31.5118C203.391 32.5546 204.221 33.8103 204.817 35.2789C205.413 36.7474 205.711 38.3862 205.711 40.1952C205.711 41.9617 205.413 43.5686 204.817 45.0158C204.221 46.4631 203.391 47.7081 202.327 48.751C201.262 49.7939 199.996 50.6133 198.528 51.2092C197.059 51.7838 195.442 52.0818 193.675 52.1031C191.93 52.1031 190.323 51.8264 188.854 51.273C187.407 50.6984 186.152 49.9003 185.087 48.8787C184.045 47.8358 183.225 46.5908 182.629 45.1435C182.033 43.6963 181.735 42.0894 181.735 40.3229ZM185.949 40.0675C185.949 41.2807 186.13 42.398 186.492 43.4196C186.875 44.4412 187.407 45.3244 188.088 46.0693C188.769 46.8143 189.578 47.3995 190.515 47.8252C191.472 48.2509 192.536 48.4637 193.707 48.4637C194.878 48.4637 195.942 48.2509 196.899 47.8252C197.857 47.3995 198.677 46.8143 199.358 46.0693C200.039 45.3244 200.56 44.4412 200.922 43.4196C201.305 42.398 201.497 41.2807 201.497 40.0675C201.497 38.9395 201.305 37.886 200.922 36.907C200.56 35.928 200.039 35.0767 199.358 34.353C198.677 33.6081 197.857 33.0335 196.899 32.6291C195.942 32.2035 194.878 31.9906 193.707 31.9906C192.536 31.9906 191.472 32.2035 190.515 32.6291C189.578 33.0335 188.769 33.6081 188.088 34.353C187.407 35.0767 186.875 35.928 186.492 36.907C186.13 37.886 185.949 38.9395 185.949 40.0675ZM209.542 28.9259H214.873L225.823 45.7182H225.887V28.9259H229.91V51.5284H224.802L213.628 34.1934H213.564V51.5284H209.542V28.9259Z" fill="white"/>
<path fill-rule="evenodd" clip-rule="evenodd" d="M49.1021 59.4343C50.9865 59.4343 52.6391 58.1026 53.5654 56.1023C54.4917 58.1026 56.1443 59.4343 58.0287 59.4343C59.7463 59.4343 61.2713 58.3279 62.2292 56.6174C63.1872 58.3279 64.7122 59.4343 66.4298 59.4343C69.3297 59.4343 71.6805 56.2805 71.6805 52.39C71.6805 51.6233 71.5892 50.8852 71.4204 50.1941C75.4501 46.9719 77.9813 42.3165 77.9813 37.1392C77.9813 27.413 69.0482 19.5284 58.0285 19.5284C47.0089 19.5284 38.0757 27.413 38.0757 37.1392C38.0757 42.1295 40.4274 46.6351 44.2061 49.8396C43.977 50.6305 43.8514 51.4905 43.8514 52.39C43.8514 56.2805 46.2022 59.4343 49.1021 59.4343ZM57.7661 46.4292C64.2909 46.4292 69.5803 42.4263 69.5803 37.4884C69.5803 32.5505 64.2909 28.5475 57.7661 28.5475C51.2413 28.5475 45.952 32.5505 45.952 37.4884C45.952 42.4263 51.2413 46.4292 57.7661 46.4292Z" fill="white"/>
</g>
<defs>
<clipPath id="clip0">
<rect width="292.642" height="79.8113" fill="white" transform="translate(0.830322 0.905884)"/>
</clipPath>
</defs>
</svg>
