<svg width="293" height="81" viewBox="0 0 293 81" fill="none" xmlns="http://www.w3.org/2000/svg">
<g clip-path="url(#clip0)">
<rect x="0.301758" y="0.622681" width="292.642" height="79.8113" rx="39.9057" fill="#F87C7A"/>
<text fill="white" xml:space="preserve" style="white-space: pre" font-family="Avenir" font-size="31.9245" font-weight="800" letter-spacing="0px"><tspan x="102.129" y="51.3653">PSYCHIC</tspan></text>
<path fill-rule="evenodd" clip-rule="evenodd" d="M69.4038 52.8355C69.4038 52.8355 64.7075 56.6022 55.3618 55.0434C48.2713 53.8608 44.4897 46.0447 44.4897 41.8435C44.4897 31.8825 51.8621 29.6157 56.8463 29.6157C61.8305 29.6157 65.0819 34.4751 65.0819 38.2374C65.0819 41.9998 62.4209 45.2906 58.2798 45.2906C54.1387 45.2906 52.9123 42.3833 52.9123 39.7105C52.9123 37.0377 55.0748 36.096 57.0469 36.096C59.0191 36.096 59.6944 37.7798 59.6944 39.2269C59.6944 40.6741 58.5716 41.1923 57.6351 41.1923C56.6985 41.1923 56.6059 40.7198 56.2475 40.2233C55.8891 39.7268 56.7046 37.8473 55.3618 37.8473C54.0189 37.8473 53.7686 40.008 53.7686 40.008C53.7686 40.008 54.2582 44.1786 58.2798 44.1066C62.3015 44.0346 64.2093 40.9256 63.6549 37.8473C63.1004 34.7691 60.1131 31.4981 54.87 32.1591C49.627 32.82 47.4863 38.1176 48.4299 43.7789C49.3735 49.4402 56.1557 52.7204 61.4883 51.5403C66.8209 50.3602 72.132 46.4996 72.132 36.7115C72.132 26.9235 63.6549 21.04 53.5467 22.0096C43.4384 22.9792 37.1637 31.8165 37.5653 42.4347C37.967 53.0529 48.0424 58.8359 56.5621 59.1339C65.0819 59.432 70.3049 54.5001 70.3049 54.5001C70.3049 54.5001 71.4796 53.4527 71.019 52.6347C70.5585 51.8168 69.4038 52.8355 69.4038 52.8355Z" fill="white"/>
</g>
<defs>
<clipPath id="clip0">
<rect width="292.642" height="79.8113" fill="white" transform="translate(0.301758 0.622681)"/>
</clipPath>
</defs>
</svg>
