<svg width="293" height="81" viewBox="0 0 293 81" fill="none" xmlns="http://www.w3.org/2000/svg">
<g clip-path="url(#clip0)">
<rect x="0.301758" y="0.622681" width="292.642" height="79.8113" rx="39.9057" fill="#F87C7A"/>
<path d="M104.651 28.6427H112.249C113.334 28.6427 114.377 28.7491 115.377 28.9619C116.399 29.1747 117.293 29.5366 118.059 30.0474C118.825 30.5369 119.432 31.2073 119.879 32.0586C120.347 32.8886 120.581 33.9315 120.581 35.1872C120.581 36.6132 120.336 37.7624 119.847 38.6351C119.357 39.5077 118.698 40.1887 117.868 40.6782C117.038 41.1464 116.069 41.4657 114.962 41.636C113.877 41.8062 112.738 41.8914 111.547 41.8914H108.673V51.2452H104.651V28.6427ZM111.1 38.4435C111.674 38.4435 112.27 38.4222 112.887 38.3797C113.505 38.3371 114.069 38.2094 114.579 37.9966C115.111 37.7837 115.537 37.4645 115.856 37.0388C116.197 36.6132 116.367 36.0172 116.367 35.2511C116.367 34.5487 116.218 33.9954 115.92 33.591C115.622 33.1653 115.239 32.8461 114.771 32.6332C114.303 32.3991 113.781 32.2501 113.207 32.1863C112.632 32.1224 112.079 32.0905 111.547 32.0905H108.673V38.4435H111.1ZM135.245 33.4952C134.819 32.878 134.245 32.4311 133.521 32.1544C132.819 31.8564 132.074 31.7074 131.286 31.7074C130.818 31.7074 130.361 31.7606 129.914 31.8671C129.488 31.9735 129.094 32.1437 128.732 32.3778C128.392 32.612 128.115 32.9206 127.902 33.3037C127.69 33.6655 127.583 34.1018 127.583 34.6126C127.583 35.3787 127.849 35.964 128.381 36.3684C128.913 36.7728 129.573 37.124 130.361 37.4219C131.148 37.7199 132.01 38.0072 132.946 38.2839C133.883 38.5606 134.745 38.9437 135.532 39.4332C136.32 39.9227 136.98 40.5718 137.512 41.3806C138.044 42.1893 138.31 43.2641 138.31 44.6049C138.31 45.8181 138.086 46.8822 137.639 47.7974C137.192 48.6913 136.586 49.4362 135.82 50.0321C135.075 50.628 134.202 51.075 133.202 51.3729C132.202 51.6709 131.148 51.8199 130.041 51.8199C128.637 51.8199 127.285 51.5858 125.987 51.1175C124.689 50.6493 123.571 49.8618 122.635 48.7551L125.668 45.8181C126.157 46.563 126.796 47.1483 127.583 47.5739C128.392 47.9783 129.243 48.1805 130.137 48.1805C130.605 48.1805 131.074 48.1166 131.542 47.9889C132.01 47.8612 132.436 47.6697 132.819 47.4143C133.202 47.1589 133.51 46.8397 133.745 46.4566C133.979 46.0522 134.096 45.5946 134.096 45.0838C134.096 44.2538 133.83 43.6153 133.298 43.1683C132.766 42.7214 132.106 42.3489 131.318 42.051C130.531 41.7317 129.669 41.4338 128.732 41.1571C127.796 40.8804 126.934 40.508 126.147 40.0397C125.359 39.5502 124.699 38.9117 124.167 38.1243C123.635 37.3155 123.369 36.2407 123.369 34.8999C123.369 33.7293 123.603 32.7184 124.071 31.8671C124.561 31.0157 125.189 30.3134 125.955 29.76C126.742 29.1854 127.636 28.7597 128.637 28.4831C129.637 28.2064 130.659 28.068 131.701 28.068C132.893 28.068 134.043 28.2489 135.149 28.6107C136.277 28.9726 137.288 29.5685 138.182 30.3985L135.245 33.4952ZM148.022 41.5721L139.53 28.6427H144.574L150.129 37.6454L155.748 28.6427H160.536L152.044 41.5721V51.2452H148.022V41.5721ZM178.123 33.9421C177.293 33.0483 176.484 32.4523 175.697 32.1544C174.93 31.8564 174.154 31.7074 173.366 31.7074C172.196 31.7074 171.131 31.9203 170.174 32.3459C169.237 32.7503 168.428 33.3249 167.747 34.0698C167.066 34.7935 166.534 35.6448 166.151 36.6238C165.789 37.6028 165.608 38.6563 165.608 39.7843C165.608 40.9975 165.789 42.1148 166.151 43.1364C166.534 44.158 167.066 45.0412 167.747 45.7861C168.428 46.5311 169.237 47.1163 170.174 47.542C171.131 47.9677 172.196 48.1805 173.366 48.1805C174.281 48.1805 175.165 47.9677 176.016 47.542C176.888 47.0951 177.697 46.3927 178.442 45.435L181.762 47.7974C180.741 49.2021 179.496 50.2237 178.027 50.8621C176.559 51.5006 174.994 51.8199 173.334 51.8199C171.589 51.8199 169.982 51.5432 168.514 50.9898C167.066 50.4152 165.811 49.6171 164.747 48.5955C163.704 47.5526 162.884 46.3076 162.288 44.8603C161.692 43.4131 161.394 41.8062 161.394 40.0397C161.394 38.2307 161.692 36.5919 162.288 35.1234C162.884 33.6335 163.704 32.3672 164.747 31.3243C165.811 30.2815 167.066 29.4834 168.514 28.93C169.982 28.3554 171.589 28.068 173.334 28.068C174.867 28.068 176.282 28.3447 177.58 28.8981C178.9 29.4301 180.123 30.3453 181.251 31.6436L178.123 33.9421ZM184.462 28.6427H188.485V37.6454H199.052V28.6427H203.074V51.2452H199.052V41.2848H188.485V51.2452H184.462V28.6427ZM208.029 28.6427H212.052V51.2452H208.029V28.6427ZM232.526 33.9421C231.695 33.0483 230.887 32.4523 230.099 32.1544C229.333 31.8564 228.556 31.7074 227.769 31.7074C226.598 31.7074 225.534 31.9203 224.576 32.3459C223.64 32.7503 222.831 33.3249 222.15 34.0698C221.469 34.7935 220.937 35.6448 220.554 36.6238C220.192 37.6028 220.011 38.6563 220.011 39.7843C220.011 40.9975 220.192 42.1148 220.554 43.1364C220.937 44.158 221.469 45.0412 222.15 45.7861C222.831 46.5311 223.64 47.1163 224.576 47.542C225.534 47.9677 226.598 48.1805 227.769 48.1805C228.684 48.1805 229.567 47.9677 230.418 47.542C231.291 47.0951 232.1 46.3927 232.845 45.435L236.165 47.7974C235.143 49.2021 233.898 50.2237 232.43 50.8621C230.961 51.5006 229.397 51.8199 227.737 51.8199C225.992 51.8199 224.385 51.5432 222.916 50.9898C221.469 50.4152 220.213 49.6171 219.149 48.5955C218.106 47.5526 217.287 46.3076 216.691 44.8603C216.095 43.4131 215.797 41.8062 215.797 40.0397C215.797 38.2307 216.095 36.5919 216.691 35.1234C217.287 33.6335 218.106 32.3672 219.149 31.3243C220.213 30.2815 221.469 29.4834 222.916 28.93C224.385 28.3554 225.992 28.068 227.737 28.068C229.269 28.068 230.685 28.3447 231.983 28.8981C233.302 29.4301 234.526 30.3453 235.654 31.6436L232.526 33.9421Z" fill="white"/>
<path fill-rule="evenodd" clip-rule="evenodd" d="M69.4038 52.8355C69.4038 52.8355 64.7075 56.6022 55.3618 55.0434C48.2713 53.8608 44.4897 46.0447 44.4897 41.8435C44.4897 31.8825 51.8621 29.6157 56.8463 29.6157C61.8305 29.6157 65.0819 34.4751 65.0819 38.2374C65.0819 41.9998 62.4209 45.2906 58.2798 45.2906C54.1387 45.2906 52.9123 42.3833 52.9123 39.7105C52.9123 37.0377 55.0748 36.096 57.0469 36.096C59.0191 36.096 59.6944 37.7798 59.6944 39.2269C59.6944 40.6741 58.5716 41.1923 57.6351 41.1923C56.6985 41.1923 56.6059 40.7198 56.2475 40.2233C55.8891 39.7268 56.7046 37.8473 55.3618 37.8473C54.0189 37.8473 53.7686 40.008 53.7686 40.008C53.7686 40.008 54.2582 44.1786 58.2798 44.1066C62.3015 44.0346 64.2093 40.9256 63.6549 37.8473C63.1004 34.7691 60.1131 31.4981 54.87 32.1591C49.627 32.82 47.4863 38.1176 48.4299 43.7789C49.3735 49.4402 56.1557 52.7204 61.4883 51.5403C66.8209 50.3602 72.132 46.4996 72.132 36.7115C72.132 26.9235 63.6549 21.04 53.5467 22.0096C43.4384 22.9792 37.1637 31.8165 37.5653 42.4347C37.967 53.0529 48.0424 58.8359 56.5621 59.1339C65.0819 59.432 70.3049 54.5001 70.3049 54.5001C70.3049 54.5001 71.4796 53.4527 71.019 52.6347C70.5585 51.8168 69.4038 52.8355 69.4038 52.8355Z" fill="white"/>
</g>
<defs>
<clipPath id="clip0">
<rect width="292.642" height="79.8113" fill="white" transform="translate(0.301758 0.622681)"/>
</clipPath>
</defs>
</svg>
