<svg width="294" height="81" viewBox="0 0 294 81" fill="none" xmlns="http://www.w3.org/2000/svg">
<g clip-path="url(#clip0)">
<rect x="0.830322" y="0.622681" width="292.642" height="79.8113" rx="39.9057" fill="#CEC18C"/>
<text fill="white" xml:space="preserve" style="white-space: pre" font-family="Avenir" font-size="31.9245" font-weight="800" letter-spacing="0px"><tspan x="124.558" y="51.3653">ROCK</tspan></text>
<path fill-rule="evenodd" clip-rule="evenodd" d="M66.9502 41.2354C66.8722 41.1291 66.8407 40.9956 66.863 40.8657L69.1328 27.6302C69.1728 27.397 69.378 27.2264 69.6147 27.2264C69.8267 27.2264 70.0168 27.3639 70.0806 27.566L75.2193 43.8365C75.2804 44.03 75.2149 44.241 75.055 44.3659L71.7588 46.9395C71.5428 47.1081 71.2302 47.0649 71.0681 46.844L66.9502 41.2354ZM38.0757 49.8956C38.0757 50.1058 38.2108 50.2922 38.4106 50.3575L45.9813 52.8329C46.1256 52.8801 46.2836 52.8571 46.4084 52.7709L64.1952 40.4914C64.3059 40.415 64.3799 40.2962 64.3997 40.1631L66.2348 27.8499C66.2786 27.5562 66.0511 27.2923 65.7542 27.2923H50.4499C50.3052 27.2923 50.1681 27.3568 50.0758 27.4682L38.1875 41.8095C38.1152 41.8967 38.0757 42.0064 38.0757 42.1196V49.8956ZM49.5873 53.5829L58.2295 56.4139C58.3767 56.4621 58.5381 56.4372 58.664 56.3469L68.657 49.1789C68.8704 49.0258 68.9236 48.7309 68.7771 48.513L65.3399 43.398C65.1893 43.174 64.885 43.1156 64.6622 43.268L49.5873 53.5829Z" fill="white"/>
</g>
<defs>
<clipPath id="clip0">
<rect width="292.642" height="79.8113" fill="white" transform="translate(0.830322 0.622681)"/>
</clipPath>
</defs>
</svg>
