<svg width="294" height="81" viewBox="0 0 294 81" fill="none" xmlns="http://www.w3.org/2000/svg">
<g clip-path="url(#clip0)">
<rect x="0.830322" y="0.622681" width="292.642" height="79.8113" rx="39.9057" fill="#CEC18C"/>
<path d="M127.081 28.6427H134.934C136.019 28.6427 137.062 28.7491 138.063 28.9619C139.084 29.1535 139.989 29.494 140.776 29.9835C141.564 30.473 142.191 31.1328 142.66 31.9628C143.128 32.7929 143.362 33.8464 143.362 35.1234C143.362 36.7621 142.904 38.1349 141.989 39.2416C141.095 40.3483 139.808 41.0187 138.126 41.2529L144.128 51.2452H139.276L134.04 41.6679H131.103V51.2452H127.081V28.6427ZM134.232 38.22C134.806 38.22 135.381 38.1987 135.956 38.1562C136.53 38.0923 137.052 37.9646 137.52 37.7731C138.009 37.5603 138.403 37.2517 138.701 36.8473C138.999 36.4216 139.148 35.8363 139.148 35.0914C139.148 34.4317 139.01 33.8996 138.733 33.4952C138.456 33.0908 138.094 32.7929 137.648 32.6013C137.201 32.3885 136.7 32.2501 136.147 32.1863C135.615 32.1224 135.094 32.0905 134.583 32.0905H131.103V38.22H134.232ZM145.976 40.0397C145.976 38.2307 146.274 36.5919 146.87 35.1234C147.466 33.6335 148.285 32.3672 149.328 31.3243C150.392 30.2815 151.648 29.4834 153.095 28.93C154.564 28.3554 156.171 28.068 157.916 28.068C159.682 28.0467 161.3 28.3128 162.768 28.8661C164.237 29.3982 165.503 30.1857 166.567 31.2286C167.632 32.2714 168.462 33.5271 169.058 34.9957C169.653 36.4642 169.951 38.103 169.951 39.912C169.951 41.6785 169.653 43.2854 169.058 44.7326C168.462 46.1799 167.632 47.4249 166.567 48.4678C165.503 49.5107 164.237 50.3301 162.768 50.926C161.3 51.5006 159.682 51.7986 157.916 51.8199C156.171 51.8199 154.564 51.5432 153.095 50.9898C151.648 50.4152 150.392 49.6171 149.328 48.5955C148.285 47.5526 147.466 46.3076 146.87 44.8603C146.274 43.4131 145.976 41.8062 145.976 40.0397ZM150.19 39.7843C150.19 40.9975 150.371 42.1148 150.733 43.1364C151.116 44.158 151.648 45.0412 152.329 45.7861C153.01 46.5311 153.819 47.1163 154.755 47.542C155.713 47.9677 156.777 48.1805 157.948 48.1805C159.118 48.1805 160.183 47.9677 161.14 47.542C162.098 47.1163 162.917 46.5311 163.598 45.7861C164.279 45.0412 164.801 44.158 165.163 43.1364C165.546 42.1148 165.737 40.9975 165.737 39.7843C165.737 38.6563 165.546 37.6028 165.163 36.6238C164.801 35.6448 164.279 34.7935 163.598 34.0698C162.917 33.3249 162.098 32.7503 161.14 32.3459C160.183 31.9203 159.118 31.7074 157.948 31.7074C156.777 31.7074 155.713 31.9203 154.755 32.3459C153.819 32.7503 153.01 33.3249 152.329 34.0698C151.648 34.7935 151.116 35.6448 150.733 36.6238C150.371 37.6028 150.19 38.6563 150.19 39.7843ZM189.298 33.9421C188.468 33.0483 187.659 32.4523 186.872 32.1544C186.105 31.8564 185.329 31.7074 184.541 31.7074C183.371 31.7074 182.306 31.9203 181.349 32.3459C180.412 32.7503 179.604 33.3249 178.922 34.0698C178.241 34.7935 177.709 35.6448 177.326 36.6238C176.964 37.6028 176.784 38.6563 176.784 39.7843C176.784 40.9975 176.964 42.1148 177.326 43.1364C177.709 44.158 178.241 45.0412 178.922 45.7861C179.604 46.5311 180.412 47.1163 181.349 47.542C182.306 47.9677 183.371 48.1805 184.541 48.1805C185.456 48.1805 186.34 47.9677 187.191 47.542C188.064 47.0951 188.872 46.3927 189.617 45.435L192.937 47.7974C191.916 49.2021 190.671 50.2237 189.202 50.8621C187.734 51.5006 186.169 51.8199 184.509 51.8199C182.764 51.8199 181.157 51.5432 179.689 50.9898C178.241 50.4152 176.986 49.6171 175.922 48.5955C174.879 47.5526 174.059 46.3076 173.463 44.8603C172.867 43.4131 172.569 41.8062 172.569 40.0397C172.569 38.2307 172.867 36.5919 173.463 35.1234C174.059 33.6335 174.879 32.3672 175.922 31.3243C176.986 30.2815 178.241 29.4834 179.689 28.93C181.157 28.3554 182.764 28.068 184.509 28.068C186.042 28.068 187.457 28.3447 188.755 28.8981C190.075 29.4301 191.299 30.3453 192.427 31.6436L189.298 33.9421ZM195.637 28.6427H199.66V38.22H199.851L209.205 28.6427H214.632L204.065 39.082L215.335 51.2452H209.684L199.883 40.1355H199.66V51.2452H195.637V28.6427Z" fill="white"/>
<path fill-rule="evenodd" clip-rule="evenodd" d="M66.9502 41.2354C66.8722 41.1291 66.8407 40.9956 66.863 40.8657L69.1328 27.6302C69.1728 27.397 69.378 27.2264 69.6147 27.2264C69.8267 27.2264 70.0168 27.3639 70.0806 27.566L75.2193 43.8365C75.2804 44.03 75.2149 44.241 75.055 44.3659L71.7588 46.9395C71.5428 47.1081 71.2302 47.0649 71.0681 46.844L66.9502 41.2354ZM38.0757 49.8956C38.0757 50.1058 38.2108 50.2922 38.4106 50.3575L45.9813 52.8329C46.1256 52.8801 46.2836 52.8571 46.4084 52.7709L64.1952 40.4914C64.3059 40.415 64.3799 40.2962 64.3997 40.1631L66.2348 27.8499C66.2786 27.5562 66.0511 27.2923 65.7542 27.2923H50.4499C50.3052 27.2923 50.1681 27.3568 50.0758 27.4682L38.1875 41.8095C38.1152 41.8967 38.0757 42.0064 38.0757 42.1196V49.8956ZM49.5873 53.5829L58.2295 56.4139C58.3767 56.4621 58.5381 56.4372 58.664 56.3469L68.657 49.1789C68.8704 49.0258 68.9236 48.7309 68.7771 48.513L65.3399 43.398C65.1893 43.174 64.885 43.1156 64.6622 43.268L49.5873 53.5829Z" fill="white"/>
</g>
<defs>
<clipPath id="clip0">
<rect width="292.642" height="79.8113" fill="white" transform="translate(0.830322 0.622681)"/>
</clipPath>
</defs>
</svg>
