<svg width="293" height="81" viewBox="0 0 293 81" fill="none" xmlns="http://www.w3.org/2000/svg">
<g clip-path="url(#clip0)">
<rect x="0.301758" y="0.320801" width="292.642" height="79.8113" rx="39.9057" fill="#5596A4"/>
<text fill="white" xml:space="preserve" style="white-space: pre" font-family="Avenir" font-size="31.9245" font-weight="800" letter-spacing="0px"><tspan x="123.11" y="51.0636">STEEL</tspan></text>
<path fill-rule="evenodd" clip-rule="evenodd" d="M37.6833 39.4068C37.5021 39.0975 37.502 38.7145 37.6831 38.4052L47.2297 22.0943C47.4075 21.7906 47.7331 21.6039 48.085 21.6039H67.0169C67.3705 21.6039 67.6974 21.7923 67.8746 22.0984L77.3165 38.4093C77.4944 38.7166 77.4943 39.0955 77.3162 39.4027L67.8747 55.6947C67.6974 56.0005 67.3707 56.1888 67.0172 56.1888H48.0847C47.7329 56.1888 47.4075 56.0023 47.2296 55.6988L37.6833 39.4068ZM57.4997 48.2076C62.6422 48.2076 66.811 44.0388 66.811 38.8963C66.811 33.7538 62.6422 29.585 57.4997 29.585C52.3572 29.585 48.1884 33.7538 48.1884 38.8963C48.1884 44.0388 52.3572 48.2076 57.4997 48.2076Z" fill="white"/>
</g>
<defs>
<clipPath id="clip0">
<rect width="292.642" height="79.8113" fill="white" transform="translate(0.301758 0.320801)"/>
</clipPath>
</defs>
</svg>
