<svg width="293" height="81" viewBox="0 0 293 81" fill="none" xmlns="http://www.w3.org/2000/svg">
<g clip-path="url(#clip0)">
<rect x="0.301758" y="0.320801" width="292.642" height="79.8113" rx="39.9057" fill="#5596A4"/>
<path d="M136.71 33.1934C136.285 32.5762 135.71 32.1293 134.986 31.8526C134.284 31.5547 133.539 31.4057 132.752 31.4057C132.283 31.4057 131.826 31.4589 131.379 31.5653C130.953 31.6717 130.56 31.842 130.198 32.0761C129.857 32.3102 129.58 32.6188 129.368 33.0019C129.155 33.3637 129.048 33.8 129.048 34.3108C129.048 35.077 129.314 35.6623 129.847 36.0667C130.379 36.471 131.038 36.8222 131.826 37.1202C132.613 37.4181 133.475 37.7054 134.412 37.9821C135.348 38.2588 136.21 38.6419 136.998 39.1314C137.785 39.6209 138.445 40.27 138.977 41.0788C139.509 41.8876 139.775 42.9623 139.775 44.3032C139.775 45.5163 139.552 46.5805 139.105 47.4956C138.658 48.3895 138.051 49.1344 137.285 49.7303C136.54 50.3263 135.667 50.7732 134.667 51.0712C133.667 51.3691 132.613 51.5181 131.507 51.5181C130.102 51.5181 128.75 51.284 127.452 50.8158C126.154 50.3476 125.037 49.5601 124.1 48.4534L127.133 45.5163C127.622 46.2612 128.261 46.8465 129.048 47.2722C129.857 47.6765 130.708 47.8787 131.602 47.8787C132.071 47.8787 132.539 47.8149 133.007 47.6872C133.475 47.5595 133.901 47.3679 134.284 47.1125C134.667 46.8571 134.976 46.5379 135.21 46.1548C135.444 45.7504 135.561 45.2928 135.561 44.782C135.561 43.952 135.295 43.3135 134.763 42.8666C134.231 42.4196 133.571 42.0472 132.784 41.7492C131.996 41.43 131.134 41.132 130.198 40.8553C129.261 40.5787 128.399 40.2062 127.612 39.738C126.824 39.2485 126.165 38.61 125.632 37.8225C125.1 37.0137 124.834 35.939 124.834 34.5981C124.834 33.4276 125.068 32.4166 125.537 31.5653C126.026 30.714 126.654 30.0116 127.42 29.4583C128.208 28.8836 129.102 28.458 130.102 28.1813C131.102 27.9046 132.124 27.7663 133.167 27.7663C134.359 27.7663 135.508 27.9472 136.615 28.309C137.743 28.6708 138.753 29.2667 139.647 30.0968L136.71 33.1934ZM148.593 31.9803H141.666V28.3409H159.543V31.9803H152.616V50.9435H148.593V31.9803ZM162.296 28.3409H177.268V31.9803H166.318V37.5352H176.694V41.1746H166.318V47.3041H177.843V50.9435H162.296V28.3409ZM181.812 28.3409H196.785V31.9803H185.835V37.5352H196.21V41.1746H185.835V47.3041H197.359V50.9435H181.812V28.3409ZM201.329 28.3409H205.351V47.3041H214.96V50.9435H201.329V28.3409Z" fill="white"/>
<path fill-rule="evenodd" clip-rule="evenodd" d="M37.6833 39.4068C37.5021 39.0975 37.502 38.7145 37.6831 38.4052L47.2297 22.0943C47.4075 21.7906 47.7331 21.6039 48.085 21.6039H67.0169C67.3705 21.6039 67.6974 21.7923 67.8746 22.0984L77.3165 38.4093C77.4944 38.7166 77.4943 39.0955 77.3162 39.4027L67.8747 55.6947C67.6974 56.0005 67.3707 56.1888 67.0172 56.1888H48.0847C47.7329 56.1888 47.4075 56.0023 47.2296 55.6988L37.6833 39.4068ZM57.4997 48.2076C62.6422 48.2076 66.811 44.0388 66.811 38.8963C66.811 33.7538 62.6422 29.585 57.4997 29.585C52.3572 29.585 48.1884 33.7538 48.1884 38.8963C48.1884 44.0388 52.3572 48.2076 57.4997 48.2076Z" fill="white"/>
</g>
<defs>
<clipPath id="clip0">
<rect width="292.642" height="79.8113" fill="white" transform="translate(0.301758 0.320801)"/>
</clipPath>
</defs>
</svg>
