<svg width="294" height="81" viewBox="0 0 294 81" fill="none" xmlns="http://www.w3.org/2000/svg">
<g clip-path="url(#clip0)">
<rect x="0.830322" y="0.320801" width="292.642" height="79.8113" rx="39.9057" fill="#559EDF"/>
<text fill="white" xml:space="preserve" style="white-space: pre" font-family="Avenir" font-size="31.9245" font-weight="800" letter-spacing="0px"><tspan x="115.471" y="51.0636">WATER</tspan></text>
<path fill-rule="evenodd" clip-rule="evenodd" d="M72.0378 47.5372C72.0378 55.2122 65.7698 61.4341 58.0378 61.4341C50.3058 61.4341 44.0378 55.2122 44.0378 47.5372C44.0378 40.0727 57.2805 19.5719 58.0068 18.4532C58.0234 18.4277 58.0523 18.4277 58.0689 18.4532C58.7951 19.5719 72.0378 40.0727 72.0378 47.5372ZM55.7041 56.9788C48.5998 55.43 49.8155 47.5889 49.8155 47.5889C49.8155 47.5889 51.7554 52.3223 56.4632 53.8556C61.1708 55.3888 66.8599 53.1401 66.8599 53.1401C66.8599 53.1401 62.8084 58.5276 55.7041 56.9788Z" fill="white"/>
</g>
<defs>
<clipPath id="clip0">
<rect width="292.642" height="79.8113" fill="white" transform="translate(0.830322 0.320801)"/>
</clipPath>
</defs>
</svg>
