<svg width="294" height="81" viewBox="0 0 294 81" fill="none" xmlns="http://www.w3.org/2000/svg">
<g clip-path="url(#clip0)">
<rect x="0.830322" y="0.320801" width="292.642" height="79.8113" rx="39.9057" fill="#559EDF"/>
<path d="M115.471 28.3409H119.876L124.122 44.6224H124.186L129.262 28.3409H133.221L138.201 44.6224H138.265L142.702 28.3409H146.789L140.212 50.9435H136.381L131.146 33.7362H131.082L125.846 50.9435H122.143L115.471 28.3409ZM155.825 28.3409H159.305L169.042 50.9435H164.445L162.338 45.7717H152.537L150.494 50.9435H145.992L155.825 28.3409ZM160.933 42.3239L157.453 33.1296L153.909 42.3239H160.933ZM173.252 31.9803H166.324V28.3409H184.202V31.9803H177.274V50.9435H173.252V31.9803ZM186.955 28.3409H201.927V31.9803H190.977V37.5352H201.353V41.1746H190.977V47.3041H202.502V50.9435H186.955V28.3409ZM206.471 28.3409H214.324C215.41 28.3409 216.453 28.4473 217.453 28.6602C218.475 28.8517 219.379 29.1922 220.167 29.6817C220.954 30.1713 221.582 30.831 222.05 31.6611C222.518 32.4911 222.752 33.5446 222.752 34.8216C222.752 36.4604 222.295 37.8331 221.38 38.9399C220.486 40.0466 219.198 40.717 217.517 40.9511L223.519 50.9435H218.666L213.43 41.3661H210.493V50.9435H206.471V28.3409ZM213.622 37.9183C214.197 37.9183 214.771 37.897 215.346 37.8544C215.921 37.7906 216.442 37.6629 216.91 37.4713C217.4 37.2585 217.794 36.9499 218.091 36.5455C218.389 36.1199 218.538 35.5346 218.538 34.7897C218.538 34.1299 218.4 33.5978 218.123 33.1934C217.847 32.7891 217.485 32.4911 217.038 32.2996C216.591 32.0867 216.091 31.9484 215.538 31.8845C215.005 31.8207 214.484 31.7888 213.973 31.7888H210.493V37.9183H213.622Z" fill="white"/>
<path fill-rule="evenodd" clip-rule="evenodd" d="M72.0378 47.5372C72.0378 55.2122 65.7698 61.4341 58.0378 61.4341C50.3058 61.4341 44.0378 55.2122 44.0378 47.5372C44.0378 40.0727 57.2805 19.5719 58.0068 18.4532C58.0234 18.4277 58.0523 18.4277 58.0689 18.4532C58.7951 19.5719 72.0378 40.0727 72.0378 47.5372ZM55.7041 56.9788C48.5998 55.43 49.8155 47.5889 49.8155 47.5889C49.8155 47.5889 51.7554 52.3223 56.4632 53.8556C61.1708 55.3888 66.8599 53.1401 66.8599 53.1401C66.8599 53.1401 62.8084 58.5276 55.7041 56.9788Z" fill="white"/>
</g>
<defs>
<clipPath id="clip0">
<rect width="292.642" height="79.8113" fill="white" transform="translate(0.830322 0.320801)"/>
</clipPath>
</defs>
</svg>
