<svg width="81" height="117" viewBox="0 0 81 117" fill="none" xmlns="http://www.w3.org/2000/svg">
<path d="M24.4854 113V100.203H28.6689C30.0576 100.203 31.1006 100.49 31.7979 101.064C32.501 101.639 32.8525 102.488 32.8525 103.613C32.8525 104.211 32.6826 104.741 32.3428 105.204C32.0029 105.661 31.54 106.016 30.9541 106.268C31.6455 106.461 32.1904 106.83 32.5889 107.375C32.9932 107.914 33.1953 108.559 33.1953 109.309C33.1953 110.457 32.8232 111.359 32.0791 112.016C31.335 112.672 30.2832 113 28.9238 113H24.4854ZM26.1729 107.015V111.62H28.959C29.7441 111.62 30.3623 111.418 30.8135 111.014C31.2705 110.604 31.499 110.041 31.499 109.326C31.499 107.785 30.6611 107.015 28.9854 107.015H26.1729ZM26.1729 105.661H28.7217C29.46 105.661 30.0488 105.477 30.4883 105.107C30.9336 104.738 31.1562 104.237 31.1562 103.604C31.1562 102.901 30.9512 102.392 30.541 102.075C30.1309 101.753 29.5068 101.592 28.6689 101.592H26.1729V105.661ZM44.709 100.203V108.904C44.7031 110.111 44.3223 111.099 43.5664 111.866C42.8164 112.634 41.7969 113.064 40.5078 113.158L40.0596 113.176C38.6592 113.176 37.543 112.798 36.7109 112.042C35.8789 111.286 35.457 110.246 35.4453 108.922V100.203H37.1152V108.869C37.1152 109.795 37.3701 110.516 37.8799 111.031C38.3896 111.541 39.1162 111.796 40.0596 111.796C41.0146 111.796 41.7441 111.541 42.248 111.031C42.7578 110.521 43.0127 109.804 43.0127 108.878V100.203H44.709ZM56.8203 111.321C56.3867 111.942 55.7803 112.408 55.001 112.719C54.2275 113.023 53.3252 113.176 52.2939 113.176C51.251 113.176 50.3252 112.933 49.5166 112.446C48.708 111.954 48.0811 111.257 47.6357 110.354C47.1963 109.452 46.9707 108.406 46.959 107.217V106.101C46.959 104.173 47.4072 102.679 48.3037 101.618C49.2061 100.558 50.4717 100.027 52.1006 100.027C53.4365 100.027 54.5117 100.37 55.3262 101.056C56.1406 101.735 56.6387 102.702 56.8203 103.956H55.1328C54.8164 102.263 53.8086 101.416 52.1094 101.416C50.9785 101.416 50.1201 101.814 49.5342 102.611C48.9541 103.402 48.6611 104.551 48.6553 106.057V107.103C48.6553 108.538 48.9834 109.681 49.6396 110.53C50.2959 111.374 51.1836 111.796 52.3027 111.796C52.9355 111.796 53.4893 111.726 53.9639 111.585C54.4385 111.444 54.8311 111.207 55.1416 110.873V107.999H52.1797V106.628H56.8203V111.321Z" fill="#747474"/>
<rect x="0.30188" y="0.49054" width="79.8113" height="79.8113" rx="39.9057" fill="url(#bug-label)"/>
<path fill-rule="evenodd" clip-rule="evenodd" d="M46.4721 19.9672C47.1041 19.0646 48.3481 18.8453 49.2507 19.4772C50.1533 20.1092 50.3726 21.3532 49.7406 22.2558L46.507 26.8739C48.6073 27.5449 50.0382 28.2687 50.0382 28.2687C50.0382 28.2687 46.5405 34.2851 40.608 34.2851C34.6756 34.2851 30.4601 28.6776 30.4601 28.6776C30.4601 28.6776 31.9549 27.7237 34.1707 26.9055L30.6498 22.7095C29.9415 21.8654 30.0516 20.607 30.8957 19.8988C31.7397 19.1905 32.9981 19.3006 33.7064 20.1447L38.2101 25.512C38.2995 25.6186 38.3759 25.7318 38.4394 25.8497C38.9689 25.788 39.5088 25.7534 40.0538 25.7534C40.8185 25.7534 41.5822 25.812 42.3275 25.9112C42.3649 25.8414 42.4068 25.7731 42.4534 25.7066L46.4721 19.9672ZM48.7325 34.5701C50.3157 33.4394 52.7112 30.4883 52.7112 30.4883C52.7112 30.4883 58.8302 35.3373 58.8302 45.619C58.8302 55.9007 48.2514 62.0887 48.2514 62.0887C48.2514 62.0887 43.1971 56.9844 41.9563 50.5138C40.7155 44.0433 43.7917 36.8585 43.7917 36.8585C43.7917 36.8585 47.1494 35.7007 48.7325 34.5701ZM31.6826 34.5701C30.0994 33.4394 27.7039 30.4883 27.7039 30.4883C27.7039 30.4883 21.5848 35.3373 21.5848 45.619C21.5848 55.9007 32.1636 62.0888 32.1636 62.0888C32.1636 62.0888 37.218 56.9844 38.4588 50.5138C39.6996 44.0433 36.6234 36.8585 36.6234 36.8585C36.6234 36.8585 33.2657 35.7007 31.6826 34.5701Z" fill="white"/>
<defs>
<linearGradient id="bug-label" x1="0.30188" y1="0.49054" x2="0.30188" y2="80.3019" gradientUnits="userSpaceOnUse">
<stop stop-color="#92BC2C"/>
<stop offset="1" stop-color="#AFC836"/>
</linearGradient>
</defs>
</svg>
