<svg width="80" height="117" viewBox="0 0 80 117" fill="none" xmlns="http://www.w3.org/2000/svg">
<rect x="0.0187988" y="0.49054" width="79.8113" height="79.8113" rx="39.9057" fill="url(#dark-label)"/>
<path fill-rule="evenodd" clip-rule="evenodd" d="M37.9471 55.3789C38.707 55.4952 39.4853 55.5555 40.2778 55.5555C48.7155 55.5555 55.5555 48.7155 55.5555 40.2778C55.5555 31.8401 48.7155 25 40.2778 25C39.7117 25 39.1527 25.0308 38.6026 25.0908C42.7882 28.2618 45.5555 33.7548 45.5555 40C45.5555 46.5656 42.4969 52.3 37.9471 55.3789ZM40 60C51.0457 60 60 51.0457 60 40C60 28.9543 51.0457 20 40 20C28.9543 20 20 28.9543 20 40C20 51.0457 28.9543 60 40 60Z" fill="white"/>
<path d="M18.4854 113V100.203H22.0977C23.2109 100.203 24.1953 100.449 25.0508 100.941C25.9062 101.434 26.5654 102.134 27.0283 103.042C27.4971 103.95 27.7344 104.993 27.7402 106.171V106.988C27.7402 108.195 27.5059 109.253 27.0371 110.161C26.5742 111.069 25.9092 111.767 25.042 112.253C24.1807 112.739 23.1758 112.988 22.0273 113H18.4854ZM20.1729 101.592V111.62H21.9482C23.249 111.62 24.2598 111.216 24.9805 110.407C25.707 109.599 26.0703 108.447 26.0703 106.953V106.206C26.0703 104.753 25.7275 103.625 25.042 102.822C24.3623 102.014 23.3955 101.604 22.1416 101.592H20.1729ZM37.1709 109.66H31.8096L30.6055 113H28.8652L33.752 100.203H35.2285L40.124 113H38.3926L37.1709 109.66ZM32.3193 108.271H36.6699L34.4902 102.286L32.3193 108.271ZM46.54 107.823H43.5342V113H41.8379V100.203H46.0742C47.5156 100.203 48.623 100.531 49.3965 101.188C50.1758 101.844 50.5654 102.799 50.5654 104.053C50.5654 104.85 50.3486 105.544 49.915 106.136C49.4873 106.728 48.8896 107.17 48.1221 107.463L51.1279 112.895V113H49.3174L46.54 107.823ZM43.5342 106.443H46.127C46.9648 106.443 47.6299 106.227 48.1221 105.793C48.6201 105.359 48.8691 104.779 48.8691 104.053C48.8691 103.262 48.6318 102.655 48.1572 102.233C47.6885 101.812 47.0088 101.598 46.1182 101.592H43.5342V106.443ZM56.1904 107.05L54.626 108.676V113H52.9385V100.203H54.626V106.531L60.3125 100.203H62.3516L57.3154 105.854L62.7471 113H60.7256L56.1904 107.05Z" fill="#747474"/>
<defs>
<linearGradient id="dark-label" x1="0.533298" y1="0.49054" x2="0.533298" y2="79.2729" gradientUnits="userSpaceOnUse">
<stop stop-color="#595761"/>
<stop offset="1" stop-color="#6E7587"/>
</linearGradient>
</defs>
</svg>
