<svg width="81" height="117" viewBox="0 0 81 117" fill="none" xmlns="http://www.w3.org/2000/svg">
<path d="M5.48535 113V100.203H9.09766C10.2109 100.203 11.1953 100.449 12.0508 100.941C12.9062 101.434 13.5654 102.134 14.0283 103.042C14.4971 103.95 14.7344 104.993 14.7402 106.171V106.988C14.7402 108.195 14.5059 109.253 14.0371 110.161C13.5742 111.069 12.9092 111.767 12.042 112.253C11.1807 112.739 10.1758 112.988 9.02734 113H5.48535ZM7.17285 101.592V111.62H8.94824C10.249 111.62 11.2598 111.216 11.9805 110.407C12.707 109.599 13.0703 108.447 13.0703 106.953V106.206C13.0703 104.753 12.7275 103.625 12.042 102.822C11.3623 102.014 10.3955 101.604 9.1416 101.592H7.17285ZM21.9912 107.823H18.9854V113H17.2891V100.203H21.5254C22.9668 100.203 24.0742 100.531 24.8477 101.188C25.627 101.844 26.0166 102.799 26.0166 104.053C26.0166 104.85 25.7998 105.544 25.3662 106.136C24.9385 106.728 24.3408 107.17 23.5732 107.463L26.5791 112.895V113H24.7686L21.9912 107.823ZM18.9854 106.443H21.5781C22.416 106.443 23.0811 106.227 23.5732 105.793C24.0713 105.359 24.3203 104.779 24.3203 104.053C24.3203 103.262 24.083 102.655 23.6084 102.233C23.1396 101.812 22.46 101.598 21.5693 101.592H18.9854V106.443ZM35.4561 109.66H30.0947L28.8906 113H27.1504L32.0371 100.203H33.5137L38.4092 113H36.6777L35.4561 109.66ZM30.6045 108.271H34.9551L32.7754 102.286L30.6045 108.271ZM49.4746 111.321C49.041 111.942 48.4346 112.408 47.6553 112.719C46.8818 113.023 45.9795 113.176 44.9482 113.176C43.9053 113.176 42.9795 112.933 42.1709 112.446C41.3623 111.954 40.7354 111.257 40.29 110.354C39.8506 109.452 39.625 108.406 39.6133 107.217V106.101C39.6133 104.173 40.0615 102.679 40.958 101.618C41.8604 100.558 43.126 100.027 44.7549 100.027C46.0908 100.027 47.166 100.37 47.9805 101.056C48.7949 101.735 49.293 102.702 49.4746 103.956H47.7871C47.4707 102.263 46.4629 101.416 44.7637 101.416C43.6328 101.416 42.7744 101.814 42.1885 102.611C41.6084 103.402 41.3154 104.551 41.3096 106.057V107.103C41.3096 108.538 41.6377 109.681 42.2939 110.53C42.9502 111.374 43.8379 111.796 44.957 111.796C45.5898 111.796 46.1436 111.726 46.6182 111.585C47.0928 111.444 47.4854 111.207 47.7959 110.873V107.999H44.834V106.628H49.4746V111.321ZM62.1396 107.015C62.1396 108.269 61.9287 109.364 61.5068 110.302C61.085 111.233 60.4873 111.945 59.7139 112.438C58.9404 112.93 58.0381 113.176 57.0068 113.176C55.999 113.176 55.1055 112.93 54.3262 112.438C53.5469 111.939 52.9404 111.233 52.5068 110.319C52.0791 109.399 51.8594 108.336 51.8477 107.129V106.206C51.8477 104.976 52.0615 103.889 52.4893 102.945C52.917 102.002 53.5205 101.281 54.2998 100.783C55.085 100.279 55.9814 100.027 56.9893 100.027C58.0146 100.027 58.917 100.276 59.6963 100.774C60.4814 101.267 61.085 101.984 61.5068 102.928C61.9287 103.865 62.1396 104.958 62.1396 106.206V107.015ZM60.4609 106.188C60.4609 104.671 60.1562 103.508 59.5469 102.699C58.9375 101.885 58.085 101.478 56.9893 101.478C55.9229 101.478 55.082 101.885 54.4668 102.699C53.8574 103.508 53.5439 104.633 53.5264 106.074V107.015C53.5264 108.485 53.834 109.643 54.4492 110.486C55.0703 111.324 55.9229 111.743 57.0068 111.743C58.0967 111.743 58.9404 111.348 59.5381 110.557C60.1357 109.76 60.4434 108.62 60.4609 107.138V106.188ZM74.5059 113H72.8096L66.3672 103.139V113H64.6709V100.203H66.3672L72.8271 110.108V100.203H74.5059V113Z" fill="#747474"/>
<rect x="0.73584" y="0.49054" width="79.8113" height="79.8113" rx="39.9057" fill="url(#dragon-lavel)"/>
<path fill-rule="evenodd" clip-rule="evenodd" d="M42.7178 40.3034C43.0062 40.1274 43.2509 39.7589 43.4483 39.3493C46.0457 40.4111 47.8708 42.9197 47.8708 45.8451C47.8708 49.7318 44.6493 52.8825 40.6753 52.8825C39.0441 52.8825 37.5396 52.3516 36.3327 51.4568C35.9368 51.2694 35.6111 51.0893 35.3446 50.942L35.3445 50.9419C34.9311 50.7134 34.66 50.5635 34.4902 50.5869C33.9939 50.6553 34.1381 51.112 34.269 51.5267C34.3579 51.8085 34.4407 52.0709 34.3125 52.1792C34.1783 52.2925 33.7436 51.8782 33.2358 51.3939C32.5444 50.7348 31.7174 49.9462 31.3274 50.183C31.019 50.3704 31.3184 50.8784 31.6848 51.5002L31.712 51.5464C31.8669 51.8093 32.0463 52.077 32.21 52.3212C32.5427 52.8177 32.8108 53.2177 32.6766 53.2854C32.5146 53.3672 31.3851 52.6048 30.4332 51.5464C30.0658 51.1379 29.7099 50.6951 29.3793 50.2836C28.6554 49.383 28.0523 48.6326 27.7138 48.7215C27.3066 48.8284 27.6147 49.6684 28.0673 50.4768C28.279 50.8548 28.528 51.2398 28.7436 51.5731C29.0789 52.0913 29.3333 52.4847 29.241 52.533C29.1165 52.5982 28.0207 51.5296 27.2764 50.183C26.8343 49.3832 26.4631 48.4993 26.1626 47.7837C25.8367 47.0076 25.5939 46.4296 25.4341 46.3714C24.8787 46.1693 24.8787 47.3016 25.1014 48.9361C25.1304 49.1485 25.1734 49.3713 25.2264 49.5982C27.3859 56.5889 34.0226 61.6793 41.8748 61.6793C51.4785 61.6793 59.2638 54.0649 59.2638 44.6721C59.2638 35.7324 52.2115 28.4038 43.2514 27.7174C43.2627 27.2963 43.4825 26.4612 43.4825 26.4612C43.4825 26.4612 45.0643 22.634 45.1479 21.8161C45.1535 21.7619 45.16 21.703 45.167 21.6403L45.1671 21.64C45.2656 20.7564 45.4489 19.1133 44.0354 19.1133C43.2806 19.1133 42.9295 19.6749 42.528 20.3172C42.3739 20.5637 42.2123 20.8222 42.0176 21.0653C40.6153 22.8166 38.2572 25.0035 36.9201 26.1686C34.0939 28.6312 31.3211 30.6551 29.704 31.8355L29.7039 31.8355C28.9684 32.3724 28.472 32.7347 28.3184 32.8845C27.1606 34.0131 23.0094 41.501 23.0094 41.501C23.0094 41.501 21.6669 43.9033 22.1441 44.3905C22.6212 44.8777 23.7719 44.766 23.7719 44.766C23.7719 44.766 39.2304 41.2197 40.6144 40.94C40.987 40.8647 41.2501 40.8212 41.4521 40.7879C42.0003 40.6973 42.0988 40.6811 42.7178 40.3034ZM31.7879 35.746C30.9582 36.5348 29.582 38.4174 29.582 38.4174C29.582 38.4174 32.1396 38.575 33.5482 37.236C34.9569 35.8971 34.6341 33.6152 34.6341 33.6152C34.6341 33.6152 32.6177 34.9573 31.7879 35.746Z" fill="white"/>
<defs>
<linearGradient id="dragon-lavel" x1="1.25034" y1="0.49054" x2="1.25034" y2="79.2729" gradientUnits="userSpaceOnUse">
<stop stop-color="#0C69C8"/>
<stop offset="1" stop-color="#0180C7"/>
</linearGradient>
</defs>
</svg>
