<svg width="81" height="117" viewBox="0 0 81 117" fill="none" xmlns="http://www.w3.org/2000/svg">
<path d="M8.71875 107.085H3.17285V111.62H9.61523V113H1.48535V100.203H9.52734V101.592H3.17285V105.705H8.71875V107.085ZM13.4121 111.62H19.4766V113H11.7158V100.203H13.4121V111.62ZM28.6348 107.085H23.0889V111.62H29.5312V113H21.4014V100.203H29.4434V101.592H23.0889V105.705H28.6348V107.085ZM41.0449 108.939C40.8867 110.293 40.3857 111.339 39.542 112.077C38.7041 112.81 37.5879 113.176 36.1934 113.176C34.6816 113.176 33.4688 112.634 32.5547 111.55C31.6465 110.466 31.1924 109.016 31.1924 107.199V105.969C31.1924 104.779 31.4033 103.733 31.8252 102.831C32.2529 101.929 32.8564 101.237 33.6357 100.757C34.415 100.271 35.3174 100.027 36.3428 100.027C37.7021 100.027 38.792 100.408 39.6123 101.17C40.4326 101.926 40.9102 102.975 41.0449 104.316H39.3486C39.2021 103.297 38.8828 102.559 38.3906 102.102C37.9043 101.645 37.2217 101.416 36.3428 101.416C35.2646 101.416 34.418 101.814 33.8027 102.611C33.1934 103.408 32.8887 104.542 32.8887 106.013V107.252C32.8887 108.641 33.1787 109.745 33.7588 110.565C34.3389 111.386 35.1504 111.796 36.1934 111.796C37.1309 111.796 37.8486 111.585 38.3467 111.163C38.8506 110.735 39.1846 109.994 39.3486 108.939H41.0449ZM51.9346 101.592H47.8213V113H46.1426V101.592H42.0381V100.203H51.9346V101.592ZM58.5264 107.823H55.5205V113H53.8242V100.203H58.0605C59.502 100.203 60.6094 100.531 61.3828 101.188C62.1621 101.844 62.5518 102.799 62.5518 104.053C62.5518 104.85 62.335 105.544 61.9014 106.136C61.4736 106.728 60.876 107.17 60.1084 107.463L63.1143 112.895V113H61.3037L58.5264 107.823ZM55.5205 106.443H58.1133C58.9512 106.443 59.6162 106.227 60.1084 105.793C60.6064 105.359 60.8555 104.779 60.8555 104.053C60.8555 103.262 60.6182 102.655 60.1436 102.233C59.6748 101.812 58.9951 101.598 58.1045 101.592H55.5205V106.443ZM66.7354 113H65.0479V100.203H66.7354V113ZM79.2422 108.939C79.084 110.293 78.583 111.339 77.7393 112.077C76.9014 112.81 75.7852 113.176 74.3906 113.176C72.8789 113.176 71.666 112.634 70.752 111.55C69.8438 110.466 69.3896 109.016 69.3896 107.199V105.969C69.3896 104.779 69.6006 103.733 70.0225 102.831C70.4502 101.929 71.0537 101.237 71.833 100.757C72.6123 100.271 73.5146 100.027 74.54 100.027C75.8994 100.027 76.9893 100.408 77.8096 101.17C78.6299 101.926 79.1074 102.975 79.2422 104.316H77.5459C77.3994 103.297 77.0801 102.559 76.5879 102.102C76.1016 101.645 75.4189 101.416 74.54 101.416C73.4619 101.416 72.6152 101.814 72 102.611C71.3906 103.408 71.0859 104.542 71.0859 106.013V107.252C71.0859 108.641 71.376 109.745 71.9561 110.565C72.5361 111.386 73.3477 111.796 74.3906 111.796C75.3281 111.796 76.0459 111.585 76.5439 111.163C77.0479 110.735 77.3818 109.994 77.5459 108.939H79.2422Z" fill="#747474"/>
<rect x="0.452881" y="0.49054" width="79.8113" height="79.8113" rx="39.9057" fill="url(#electric-label)"/>
<path fill-rule="evenodd" clip-rule="evenodd" d="M32.2794 25.9868C32.0164 25.2268 32.5809 24.4341 33.3852 24.4341H45.9081C46.4211 24.4341 46.8743 24.7682 47.0259 25.2582L53.1912 45.1771C53.4242 45.9299 52.8614 46.6932 52.0734 46.6932H44.4079C44.0196 46.6932 43.739 47.0646 43.8452 47.4381L47.684 60.9516C48.0383 62.1989 46.4025 63.0109 45.6232 61.9746L28.4653 39.1573C27.8854 38.3861 28.4356 37.2839 29.4006 37.2839H35.3672C35.7693 37.2839 36.0516 36.8876 35.9201 36.5076L32.2794 25.9868Z" fill="white"/>
<defs>
<linearGradient id="electric-label" x1="0.96738" y1="0.49054" x2="0.96738" y2="79.2729" gradientUnits="userSpaceOnUse">
<stop stop-color="#EDD53E"/>
<stop offset="1" stop-color="#FBE273"/>
</linearGradient>
</defs>
</svg>
