<svg width="80" height="117" viewBox="0 0 80 117" fill="none" xmlns="http://www.w3.org/2000/svg">
<path d="M24.543 107.349H19.1729V113H17.4854V100.203H25.4131V101.592H19.1729V105.969H24.543V107.349ZM33.0068 109.66H27.6455L26.4414 113H24.7012L29.5879 100.203H31.0645L35.96 113H34.2285L33.0068 109.66ZM28.1553 108.271H32.5059L30.3262 102.286L28.1553 108.271ZM39.4932 113H37.8057V100.203H39.4932V113ZM47.2803 107.823H44.2744V113H42.5781V100.203H46.8145C48.2559 100.203 49.3633 100.531 50.1367 101.188C50.916 101.844 51.3057 102.799 51.3057 104.053C51.3057 104.85 51.0889 105.544 50.6553 106.136C50.2275 106.728 49.6299 107.17 48.8623 107.463L51.8682 112.895V113H50.0576L47.2803 107.823ZM44.2744 106.443H46.8672C47.7051 106.443 48.3701 106.227 48.8623 105.793C49.3604 105.359 49.6094 104.779 49.6094 104.053C49.6094 103.262 49.3721 102.655 48.8975 102.233C48.4287 101.812 47.749 101.598 46.8584 101.592H44.2744V106.443ZM57.1592 106.628L60.499 100.203H62.415L58.0029 108.228V113H56.3154V108.228L51.9033 100.203H53.8369L57.1592 106.628Z" fill="#747474"/>
<rect x="0.169922" y="0.49054" width="79.8113" height="79.8113" rx="39.9057" fill="url(#fairy-label)"/>
<path fill-rule="evenodd" clip-rule="evenodd" d="M28.8226 52.2351L34.3419 50.6348L39.5093 60.0829C39.7541 60.5305 40.3969 60.5305 40.6417 60.0829L45.8091 50.6347L51.3287 52.2351C51.8187 52.3772 52.2721 51.9214 52.1273 51.4322L50.5326 46.0419L59.6925 41.0321C60.1401 40.7873 60.1401 40.1445 59.6925 39.8997L50.4488 34.8441L52.1273 29.1707C52.2721 28.6815 51.8187 28.2257 51.3287 28.3678L45.6539 30.0132L40.6417 20.8489C40.3969 20.4013 39.7541 20.4013 39.5093 20.8489L34.4972 30.0132L28.8226 28.3678C28.3326 28.2257 27.8792 28.6815 28.024 29.1707L29.7024 34.844L20.4585 39.8997C20.0109 40.1445 20.0109 40.7873 20.4585 41.0321L29.6187 46.042L28.024 51.4322C27.8792 51.9214 28.3326 52.3772 28.8226 52.2351ZM33.8635 41.0864L37.5483 43.1017L39.5636 46.7865C39.8084 47.2341 40.4513 47.2341 40.6961 46.7865L42.7114 43.1017L46.3962 41.0864C46.8438 40.8416 46.8438 40.1987 46.3962 39.9539L42.7114 37.9386L40.6961 34.2538C40.4513 33.8062 39.8084 33.8062 39.5636 34.2538L37.5483 37.9386L33.8635 39.9539C33.4159 40.1987 33.4159 40.8416 33.8635 41.0864Z" fill="white"/>
<defs>
<linearGradient id="fairy-label" x1="0.82495" y1="0.49054" x2="0.82495" y2="78.9918" gradientUnits="userSpaceOnUse">
<stop stop-color="#EC8CE5"/>
<stop offset="1" stop-color="#F3A7E7"/>
</linearGradient>
</defs>
</svg>
