<svg width="81" height="117" viewBox="0 0 81 117" fill="none" xmlns="http://www.w3.org/2000/svg">
<rect x="0.886719" y="0.49054" width="79.8113" height="79.8113" rx="39.9057" fill="url(#fighting-label)"/>
<path fill-rule="evenodd" clip-rule="evenodd" d="M27.7216 25.0916C28.2044 23.1847 29.9319 21.7737 31.9889 21.7737C33.5382 21.7737 34.9005 22.5741 35.6849 23.7839C35.8059 23.7739 35.9283 23.7688 36.0519 23.7688C36.3375 23.7688 36.6168 23.796 36.8872 23.848C37.6911 22.9812 38.8398 22.4387 40.1153 22.4387C41.9277 22.4387 43.4844 23.5342 44.1591 25.0991L44.1782 25.0991C44.4912 25.0991 44.7966 25.1318 45.0911 25.1939C45.796 24.7143 46.6473 24.4341 47.5641 24.4341C49.4668 24.4341 51.0875 25.6413 51.7021 27.3316C52.0357 27.4461 52.3511 27.5995 52.6431 27.7864C53.3273 27.3484 54.1406 27.0944 55.0133 27.0944C57.4443 27.0944 59.415 29.0651 59.415 31.4961V44.934C59.415 45.0151 59.4128 45.0959 59.4083 45.1762C59.1425 54.3317 50.9096 61.6793 40.7923 61.6793C30.5073 61.6793 22.1697 54.0861 22.1697 44.7194C22.1697 40.1981 24.1123 36.09 27.2789 33.0497C27.271 37.4576 27.3454 42.0145 27.6886 41.9363C28.6076 41.7269 27.8896 28.0752 27.7216 25.0916Z" fill="white"/>
<path d="M8.54297 107.349H3.17285V113H1.48535V100.203H9.41309V101.592H3.17285V105.969H8.54297V107.349ZM13.2451 113H11.5576V100.203H13.2451V113ZM25.7871 111.321C25.3535 111.942 24.7471 112.408 23.9678 112.719C23.1943 113.023 22.292 113.176 21.2607 113.176C20.2178 113.176 19.292 112.933 18.4834 112.446C17.6748 111.954 17.0479 111.257 16.6025 110.354C16.1631 109.452 15.9375 108.406 15.9258 107.217V106.101C15.9258 104.173 16.374 102.679 17.2705 101.618C18.1729 100.558 19.4385 100.027 21.0674 100.027C22.4033 100.027 23.4785 100.37 24.293 101.056C25.1074 101.735 25.6055 102.702 25.7871 103.956H24.0996C23.7832 102.263 22.7754 101.416 21.0762 101.416C19.9453 101.416 19.0869 101.814 18.501 102.611C17.9209 103.402 17.6279 104.551 17.6221 106.057V107.103C17.6221 108.538 17.9502 109.681 18.6064 110.53C19.2627 111.374 20.1504 111.796 21.2695 111.796C21.9023 111.796 22.4561 111.726 22.9307 111.585C23.4053 111.444 23.7979 111.207 24.1084 110.873V107.999H21.1465V106.628H25.7871V111.321ZM38.4434 113H36.7471V107.085H30.2959V113H28.6084V100.203H30.2959V105.705H36.7471V100.203H38.4434V113ZM50.0186 101.592H45.9053V113H44.2266V101.592H40.1221V100.203H50.0186V101.592ZM53.7275 113H52.04V100.203H53.7275V113ZM66.6562 113H64.96L58.5176 103.139V113H56.8213V100.203H58.5176L64.9775 110.108V100.203H66.6562V113ZM79.1016 111.321C78.668 111.942 78.0615 112.408 77.2822 112.719C76.5088 113.023 75.6064 113.176 74.5752 113.176C73.5322 113.176 72.6064 112.933 71.7979 112.446C70.9893 111.954 70.3623 111.257 69.917 110.354C69.4775 109.452 69.252 108.406 69.2402 107.217V106.101C69.2402 104.173 69.6885 102.679 70.585 101.618C71.4873 100.558 72.7529 100.027 74.3818 100.027C75.7178 100.027 76.793 100.37 77.6074 101.056C78.4219 101.735 78.9199 102.702 79.1016 103.956H77.4141C77.0977 102.263 76.0898 101.416 74.3906 101.416C73.2598 101.416 72.4014 101.814 71.8154 102.611C71.2354 103.402 70.9424 104.551 70.9365 106.057V107.103C70.9365 108.538 71.2646 109.681 71.9209 110.53C72.5771 111.374 73.4648 111.796 74.584 111.796C75.2168 111.796 75.7705 111.726 76.2451 111.585C76.7197 111.444 77.1123 111.207 77.4229 110.873V107.999H74.4609V106.628H79.1016V111.321Z" fill="#747474"/>
<defs>
<linearGradient id="fighting-label" x1="1.40122" y1="0.49054" x2="1.40122" y2="79.2729" gradientUnits="userSpaceOnUse">
<stop stop-color="#CE4265"/>
<stop offset="1" stop-color="#E74347"/>
</linearGradient>
</defs>
</svg>
