<svg width="81" height="117" viewBox="0 0 81 117" fill="none" xmlns="http://www.w3.org/2000/svg">
<rect x="0.886719" y="0.49054" width="79.8113" height="79.8113" rx="39.9057" fill="url(#fighting-label)"/>
<path fill-rule="evenodd" clip-rule="evenodd" d="M27.7216 25.0916C28.2044 23.1847 29.9319 21.7737 31.9889 21.7737C33.5382 21.7737 34.9005 22.5741 35.6849 23.7839C35.8059 23.7739 35.9283 23.7688 36.0519 23.7688C36.3375 23.7688 36.6168 23.796 36.8872 23.848C37.6911 22.9812 38.8398 22.4387 40.1153 22.4387C41.9277 22.4387 43.4844 23.5342 44.1591 25.0991L44.1782 25.0991C44.4912 25.0991 44.7966 25.1318 45.0911 25.1939C45.796 24.7143 46.6473 24.4341 47.5641 24.4341C49.4668 24.4341 51.0875 25.6413 51.7021 27.3316C52.0357 27.4461 52.3511 27.5995 52.6431 27.7864C53.3273 27.3484 54.1406 27.0944 55.0133 27.0944C57.4443 27.0944 59.415 29.0651 59.415 31.4961V44.934C59.415 45.0151 59.4128 45.0959 59.4083 45.1762C59.1425 54.3317 50.9096 61.6793 40.7923 61.6793C30.5073 61.6793 22.1697 54.0861 22.1697 44.7194C22.1697 40.1981 24.1123 36.09 27.2789 33.0497C27.271 37.4576 27.3454 42.0145 27.6886 41.9363C28.6076 41.7269 27.8896 28.0752 27.7216 25.0916Z" fill="white"/>
<text fill="#747474" xml:space="preserve" style="white-space: pre" font-family="Roboto" font-size="18" letter-spacing="0em"><tspan x="0" y="112.652">FIGHTING</tspan></text>
<defs>
<linearGradient id="fighting-label" x1="1.40122" y1="0.49054" x2="1.40122" y2="79.2729" gradientUnits="userSpaceOnUse">
<stop stop-color="#CE4265"/>
<stop offset="1" stop-color="#E74347"/>
</linearGradient>
</defs>
</svg>
