<svg width="81" height="118" viewBox="0 0 81 118" fill="none" xmlns="http://www.w3.org/2000/svg">
<g clip-path="url(#clip0)">
<rect x="0.30188" y="1.24536" width="79.8113" height="79.8113" rx="39.9057" fill="url(#fire-label)"/>
<path fill-rule="evenodd" clip-rule="evenodd" d="M46.8208 52.9631C47.3078 51.1826 46.3626 47.5222 46.3626 47.5222C46.3626 47.5222 45.6771 50.5042 44.6059 51.6062C43.6918 52.5467 42.5718 53.1988 40.9652 53.3699C42.2783 52.7323 43.1814 51.4026 43.1814 49.8656C43.1814 47.7084 41.4024 45.9596 39.2079 45.9596C37.0134 45.9596 35.2343 47.7084 35.2343 49.8656C35.2343 50.4543 35.3668 51.0127 35.6041 51.5133C34.233 50.4198 34.0173 48.668 34.0173 48.668C34.0173 48.668 32.4847 55.0313 36.7078 58.0246C40.931 61.018 49.204 58.4451 49.204 58.4451C49.204 58.4451 37.3648 66.7754 28.5919 57.7089C21.0347 49.8988 26.6195 39.6166 26.6195 39.6166C26.6195 39.6166 26.3783 40.5704 26.3783 41.6777C26.3783 42.785 26.9786 43.6274 26.9786 43.6274C26.9786 43.6274 28.7694 39.8527 30.1631 38.3177C31.4821 36.8649 33.1356 35.6866 34.5637 34.6688C35.663 33.8854 36.6289 33.1971 37.2058 32.552C40.383 28.9994 38.4348 22.5283 38.4348 22.5283C38.4348 22.5283 42.0164 25.6858 43.0163 29.7636C43.3974 31.3181 43.1522 33.0867 42.933 34.6682C42.577 37.2357 42.2894 39.3104 44.8607 39.1757C49.0158 38.9582 45.4052 32.552 45.4052 32.552C45.4052 32.552 54.8307 37.506 54.1265 46.1702C53.4223 54.8345 43.8239 56.8042 43.8239 56.8042C43.8239 56.8042 46.3339 54.7435 46.8208 52.9631Z" fill="white"/>
</g>
<path d="M30.543 108.349H25.1729V114H23.4854V101.203H31.4131V102.592H25.1729V106.969H30.543V108.349ZM35.2451 114H33.5576V101.203H35.2451V114ZM43.0322 108.823H40.0264V114H38.3301V101.203H42.5664C44.0078 101.203 45.1152 101.531 45.8887 102.188C46.668 102.844 47.0576 103.799 47.0576 105.053C47.0576 105.85 46.8408 106.544 46.4072 107.136C45.9795 107.728 45.3818 108.17 44.6143 108.463L47.6201 113.895V114H45.8096L43.0322 108.823ZM40.0264 107.443H42.6191C43.457 107.443 44.1221 107.227 44.6143 106.793C45.1123 106.359 45.3613 105.779 45.3613 105.053C45.3613 104.262 45.124 103.655 44.6494 103.233C44.1807 102.812 43.501 102.598 42.6104 102.592H40.0264V107.443ZM56.6641 108.085H51.1182V112.62H57.5605V114H49.4307V101.203H57.4727V102.592H51.1182V106.705H56.6641V108.085Z" fill="#747474"/>
<defs>
<linearGradient id="fire-label" x1="0.30188" y1="1.24536" x2="0.30188" y2="81.0567" gradientUnits="userSpaceOnUse">
<stop stop-color="#FB9B51"/>
<stop offset="1" stop-color="#FBAE46"/>
</linearGradient>
<clipPath id="clip0">
<rect width="81" height="81" fill="white" transform="translate(0 0.377319)"/>
</clipPath>
</defs>
</svg>
