<svg width="80" height="118" viewBox="0 0 80 118" fill="none" xmlns="http://www.w3.org/2000/svg">
<g clip-path="url(#clip0)">
<rect x="0.0187988" y="1.24536" width="79.8113" height="79.8113" rx="39.9057" fill="url(#flying-label)"/>
<path fill-rule="evenodd" clip-rule="evenodd" d="M32.4052 61.3773C39.2903 61.3773 45.1848 57.5257 47.6182 52.0657C47.648 51.9991 37.8483 54.6291 38.1608 53.6994C38.3003 53.2843 44.3075 51.0754 48.6842 48.499C51.1997 47.0181 52.3581 43.8833 52.3581 43.8833C52.3581 43.8833 48.1201 45.9544 45.9776 46.4798C41.6602 47.5387 37.8597 47.4247 37.8597 47.3144C37.8597 47.0758 44.1703 45.8689 52.9413 40.489C57.067 37.9585 58.1875 33.5997 58.1875 33.5997C58.1875 33.5997 53.6518 36.3192 50.9098 37.217C44.4072 39.3461 38.4733 39.9878 38.4733 39.6997C38.4733 39.0828 43.6954 37.6374 49.232 34.9371C52.1108 33.5331 54.6039 31.6988 57.493 29.659C62.2204 26.3215 63 20.3773 63 20.3773C63 20.3773 58.3374 23.4043 56.0621 24.4095C46.6732 28.5574 38.3828 30.7332 32.4052 31.2042C23.382 31.9153 16 38.2522 16 46.4798C16 54.7075 23.3449 61.3773 32.4052 61.3773Z" fill="white"/>
</g>
<text fill="#747474" xml:space="preserve" style="white-space: pre" font-family="Roboto" font-size="18" letter-spacing="0em"><tspan x="10" y="113.652">FLYING</tspan></text>
<defs>
<linearGradient id="flying-label" x1="0.0187988" y1="1.24536" x2="0.0187988" y2="81.0567" gradientUnits="userSpaceOnUse">
<stop stop-color="#90A7DA"/>
<stop offset="1" stop-color="#A6C2F2"/>
</linearGradient>
<clipPath id="clip0">
<rect width="80" height="81" fill="white" transform="translate(0 0.377319)"/>
</clipPath>
</defs>
</svg>
