<svg width="80" height="118" viewBox="0 0 80 118" fill="none" xmlns="http://www.w3.org/2000/svg">
<g clip-path="url(#clip0)">
<rect x="0.0187988" y="1.24536" width="79.8113" height="79.8113" rx="39.9057" fill="url(#flying-label)"/>
<path fill-rule="evenodd" clip-rule="evenodd" d="M32.4052 61.3773C39.2903 61.3773 45.1848 57.5257 47.6182 52.0657C47.648 51.9991 37.8483 54.6291 38.1608 53.6994C38.3003 53.2843 44.3075 51.0754 48.6842 48.499C51.1997 47.0181 52.3581 43.8833 52.3581 43.8833C52.3581 43.8833 48.1201 45.9544 45.9776 46.4798C41.6602 47.5387 37.8597 47.4247 37.8597 47.3144C37.8597 47.0758 44.1703 45.8689 52.9413 40.489C57.067 37.9585 58.1875 33.5997 58.1875 33.5997C58.1875 33.5997 53.6518 36.3192 50.9098 37.217C44.4072 39.3461 38.4733 39.9878 38.4733 39.6997C38.4733 39.0828 43.6954 37.6374 49.232 34.9371C52.1108 33.5331 54.6039 31.6988 57.493 29.659C62.2204 26.3215 63 20.3773 63 20.3773C63 20.3773 58.3374 23.4043 56.0621 24.4095C46.6732 28.5574 38.3828 30.7332 32.4052 31.2042C23.382 31.9153 16 38.2522 16 46.4798C16 54.7075 23.3449 61.3773 32.4052 61.3773Z" fill="white"/>
</g>
<path d="M18.543 108.349H13.1729V114H11.4854V101.203H19.4131V102.592H13.1729V106.969H18.543V108.349ZM23.1309 112.62H29.1953V114H21.4346V101.203H23.1309V112.62ZM32.9131 107.628L36.2529 101.203H38.1689L33.7568 109.228V114H32.0693V109.228L27.6572 101.203H29.5908L32.9131 107.628ZM41.6318 114H39.9443V101.203H41.6318V114ZM54.5605 114H52.8643L46.4219 104.139V114H44.7256V101.203H46.4219L52.8818 111.108V101.203H54.5605V114ZM67.0059 112.321C66.5723 112.942 65.9658 113.408 65.1865 113.719C64.4131 114.023 63.5107 114.176 62.4795 114.176C61.4365 114.176 60.5107 113.933 59.7021 113.446C58.8936 112.954 58.2666 112.257 57.8213 111.354C57.3818 110.452 57.1562 109.406 57.1445 108.217V107.101C57.1445 105.173 57.5928 103.679 58.4893 102.618C59.3916 101.558 60.6572 101.027 62.2861 101.027C63.6221 101.027 64.6973 101.37 65.5117 102.056C66.3262 102.735 66.8242 103.702 67.0059 104.956H65.3184C65.002 103.263 63.9941 102.416 62.2949 102.416C61.1641 102.416 60.3057 102.814 59.7197 103.611C59.1396 104.402 58.8467 105.551 58.8408 107.057V108.103C58.8408 109.538 59.1689 110.681 59.8252 111.53C60.4814 112.374 61.3691 112.796 62.4883 112.796C63.1211 112.796 63.6748 112.726 64.1494 112.585C64.624 112.444 65.0166 112.207 65.3271 111.873V108.999H62.3652V107.628H67.0059V112.321Z" fill="#747474"/>
<defs>
<linearGradient id="flying-label" x1="0.0187988" y1="1.24536" x2="0.0187988" y2="81.0567" gradientUnits="userSpaceOnUse">
<stop stop-color="#90A7DA"/>
<stop offset="1" stop-color="#A6C2F2"/>
</linearGradient>
<clipPath id="clip0">
<rect width="80" height="81" fill="white" transform="translate(0 0.377319)"/>
</clipPath>
</defs>
</svg>
