<svg width="81" height="118" viewBox="0 0 81 118" fill="none" xmlns="http://www.w3.org/2000/svg">
<g clip-path="url(#clip0)">
<rect x="0.73584" y="1.24536" width="79.8113" height="79.8113" rx="39.9057" fill="url(#ghost-label)"/>
<path fill-rule="evenodd" clip-rule="evenodd" d="M48.6625 59.2492C45.3251 59.42 41.5042 59.42 40.2057 59.2492C30.0771 57.9167 22 50.5113 22 40.5015C22 30.4918 30.2827 22.3773 40.5 22.3773C50.7173 22.3773 59 30.4918 59 40.5015C59 45.157 57.2083 49.4024 54.2637 52.6123C53.4641 53.4839 54.5612 54.0953 55.6759 54.7165C56.7692 55.3257 57.8793 55.9444 57.2341 56.8272C56.5232 57.8 52.669 59.0441 48.6625 59.2492ZM37.8984 38.236C37.8984 39.8 36.6042 41.0679 35.0078 41.0679C33.4114 41.0679 32.1172 39.8 32.1172 38.236C32.1172 37.1871 32.6993 36.2714 33.5642 35.7819C33.614 37.1457 34.7353 38.2359 36.1112 38.2359H37.8984V38.236ZM46.8576 35.7819C46.8079 37.1457 45.6866 38.2359 44.3106 38.2359H42.5234V38.236C42.5234 39.8 43.8176 41.0679 45.4141 41.0679C47.0105 41.0679 48.3047 39.8 48.3047 38.236C48.3047 37.1871 47.7226 36.2714 46.8576 35.7819Z" fill="white"/>
</g>
<text fill="#747474" xml:space="preserve" style="white-space: pre" font-family="Roboto" font-size="18" letter-spacing="0em"><tspan x="11" y="113.652">GHOST</tspan></text>
<defs>
<linearGradient id="ghost-label" x1="1.25034" y1="1.24536" x2="1.25034" y2="80.0277" gradientUnits="userSpaceOnUse">
<stop stop-color="#516AAC"/>
<stop offset="1" stop-color="#7773D4"/>
</linearGradient>
<clipPath id="clip0">
<rect width="81" height="81" fill="white" transform="translate(0 0.377319)"/>
</clipPath>
</defs>
</svg>
