<svg width="81" height="118" viewBox="0 0 81 118" fill="none" xmlns="http://www.w3.org/2000/svg">
<g clip-path="url(#clip0)">
<rect x="0.73584" y="1.24536" width="79.8113" height="79.8113" rx="39.9057" fill="url(#ghost-label)"/>
<path fill-rule="evenodd" clip-rule="evenodd" d="M48.6625 59.2492C45.3251 59.42 41.5042 59.42 40.2057 59.2492C30.0771 57.9167 22 50.5113 22 40.5015C22 30.4918 30.2827 22.3773 40.5 22.3773C50.7173 22.3773 59 30.4918 59 40.5015C59 45.157 57.2083 49.4024 54.2637 52.6123C53.4641 53.4839 54.5612 54.0953 55.6759 54.7165C56.7692 55.3257 57.8793 55.9444 57.2341 56.8272C56.5232 57.8 52.669 59.0441 48.6625 59.2492ZM37.8984 38.236C37.8984 39.8 36.6042 41.0679 35.0078 41.0679C33.4114 41.0679 32.1172 39.8 32.1172 38.236C32.1172 37.1871 32.6993 36.2714 33.5642 35.7819C33.614 37.1457 34.7353 38.2359 36.1112 38.2359H37.8984V38.236ZM46.8576 35.7819C46.8079 37.1457 45.6866 38.2359 44.3106 38.2359H42.5234V38.236C42.5234 39.8 43.8176 41.0679 45.4141 41.0679C47.0105 41.0679 48.3047 39.8 48.3047 38.236C48.3047 37.1871 47.7226 36.2714 46.8576 35.7819Z" fill="white"/>
</g>
<path d="M21.9336 112.321C21.5 112.942 20.8936 113.408 20.1143 113.719C19.3408 114.023 18.4385 114.176 17.4072 114.176C16.3643 114.176 15.4385 113.933 14.6299 113.446C13.8213 112.954 13.1943 112.257 12.749 111.354C12.3096 110.452 12.084 109.406 12.0723 108.217V107.101C12.0723 105.173 12.5205 103.679 13.417 102.618C14.3193 101.558 15.585 101.027 17.2139 101.027C18.5498 101.027 19.625 101.37 20.4395 102.056C21.2539 102.735 21.752 103.702 21.9336 104.956H20.2461C19.9297 103.263 18.9219 102.416 17.2227 102.416C16.0918 102.416 15.2334 102.814 14.6475 103.611C14.0674 104.402 13.7744 105.551 13.7686 107.057V108.103C13.7686 109.538 14.0967 110.681 14.7529 111.53C15.4092 112.374 16.2969 112.796 17.416 112.796C18.0488 112.796 18.6025 112.726 19.0771 112.585C19.5518 112.444 19.9443 112.207 20.2549 111.873V108.999H17.293V107.628H21.9336V112.321ZM34.5898 114H32.8936V108.085H26.4424V114H24.7549V101.203H26.4424V106.705H32.8936V101.203H34.5898V114ZM47.4307 108.015C47.4307 109.269 47.2197 110.364 46.7979 111.302C46.376 112.233 45.7783 112.945 45.0049 113.438C44.2314 113.93 43.3291 114.176 42.2979 114.176C41.29 114.176 40.3965 113.93 39.6172 113.438C38.8379 112.939 38.2314 112.233 37.7979 111.319C37.3701 110.399 37.1504 109.336 37.1387 108.129V107.206C37.1387 105.976 37.3525 104.889 37.7803 103.945C38.208 103.002 38.8115 102.281 39.5908 101.783C40.376 101.279 41.2725 101.027 42.2803 101.027C43.3057 101.027 44.208 101.276 44.9873 101.774C45.7725 102.267 46.376 102.984 46.7979 103.928C47.2197 104.865 47.4307 105.958 47.4307 107.206V108.015ZM45.752 107.188C45.752 105.671 45.4473 104.508 44.8379 103.699C44.2285 102.885 43.376 102.478 42.2803 102.478C41.2139 102.478 40.373 102.885 39.7578 103.699C39.1484 104.508 38.835 105.633 38.8174 107.074V108.015C38.8174 109.485 39.125 110.643 39.7402 111.486C40.3613 112.324 41.2139 112.743 42.2979 112.743C43.3877 112.743 44.2314 112.348 44.8291 111.557C45.4268 110.76 45.7344 109.62 45.752 108.138V107.188ZM53.7324 108.296C52.2852 107.88 51.2305 107.37 50.5684 106.767C49.9121 106.157 49.584 105.407 49.584 104.517C49.584 103.509 49.9854 102.677 50.7881 102.021C51.5967 101.358 52.6455 101.027 53.9346 101.027C54.8135 101.027 55.5957 101.197 56.2812 101.537C56.9727 101.877 57.5059 102.346 57.8809 102.943C58.2617 103.541 58.4521 104.194 58.4521 104.903H56.7559C56.7559 104.13 56.5098 103.523 56.0176 103.084C55.5254 102.639 54.8311 102.416 53.9346 102.416C53.1025 102.416 52.4521 102.601 51.9834 102.97C51.5205 103.333 51.2891 103.84 51.2891 104.49C51.2891 105.012 51.5088 105.454 51.9482 105.817C52.3936 106.175 53.1465 106.503 54.207 106.802C55.2734 107.101 56.1055 107.432 56.7031 107.795C57.3066 108.152 57.752 108.571 58.0391 109.052C58.332 109.532 58.4785 110.098 58.4785 110.748C58.4785 111.785 58.0742 112.617 57.2656 113.244C56.457 113.865 55.376 114.176 54.0225 114.176C53.1436 114.176 52.3232 114.009 51.5615 113.675C50.7998 113.335 50.2109 112.872 49.7949 112.286C49.3848 111.7 49.1797 111.035 49.1797 110.291H50.876C50.876 111.064 51.1602 111.677 51.7285 112.128C52.3027 112.573 53.0674 112.796 54.0225 112.796C54.9131 112.796 55.5957 112.614 56.0703 112.251C56.5449 111.888 56.7822 111.393 56.7822 110.766C56.7822 110.139 56.5625 109.655 56.123 109.315C55.6836 108.97 54.8867 108.63 53.7324 108.296ZM69.4912 102.592H65.3779V114H63.6992V102.592H59.5947V101.203H69.4912V102.592Z" fill="#747474"/>
<defs>
<linearGradient id="ghost-label" x1="1.25034" y1="1.24536" x2="1.25034" y2="80.0277" gradientUnits="userSpaceOnUse">
<stop stop-color="#516AAC"/>
<stop offset="1" stop-color="#7773D4"/>
</linearGradient>
<clipPath id="clip0">
<rect width="81" height="81" fill="white" transform="translate(0 0.377319)"/>
</clipPath>
</defs>
</svg>
