<svg width="81" height="118" viewBox="0 0 81 118" fill="none" xmlns="http://www.w3.org/2000/svg">
<text fill="#747474" xml:space="preserve" style="white-space: pre" font-family="Roboto" font-size="18" letter-spacing="0em"><tspan x="12" y="113.652">GRASS</tspan></text>
<g clip-path="url(#clip0)">
<rect x="0.452881" y="1.24536" width="79.8113" height="79.8113" rx="39.9057" fill="url(#grass-label)"/>
<path fill-rule="evenodd" clip-rule="evenodd" d="M27.0997 56.1432C26.9533 56.0058 26.8085 55.8657 26.6654 55.7229C19.1115 48.1837 19.1115 35.9601 26.6654 28.4209C34.2193 20.8817 58.289 20.3773 58.289 20.3773C58.289 20.3773 61.5744 48.1837 54.0206 55.7229C47.3117 62.4187 36.9009 63.1678 29.3637 57.9701L35.4369 50.5318L45.1453 48.4398L37.2204 47.6491L42.2568 42.531L47.9897 41.2776L43.4565 39.9377L47.9897 31.7756L41.5416 38.9942L39.0515 35.4873L39.9281 41.2776L35.4369 46.3308L33.355 39.9376V48.4398L27.0997 56.1432Z" fill="white"/>
</g>
<defs>
<linearGradient id="grass-label" x1="0.452881" y1="1.24536" x2="0.452881" y2="81.0567" gradientUnits="userSpaceOnUse">
<stop stop-color="#5FBC51"/>
<stop offset="1" stop-color="#5AC178"/>
</linearGradient>
<clipPath id="clip0">
<rect width="81" height="81" fill="white" transform="translate(0 0.377319)"/>
</clipPath>
</defs>
</svg>
