<svg width="81" height="118" viewBox="0 0 81 118" fill="none" xmlns="http://www.w3.org/2000/svg">
<path d="M22.9336 112.321C22.5 112.942 21.8936 113.408 21.1143 113.719C20.3408 114.023 19.4385 114.176 18.4072 114.176C17.3643 114.176 16.4385 113.933 15.6299 113.446C14.8213 112.954 14.1943 112.257 13.749 111.354C13.3096 110.452 13.084 109.406 13.0723 108.217V107.101C13.0723 105.173 13.5205 103.679 14.417 102.618C15.3193 101.558 16.585 101.027 18.2139 101.027C19.5498 101.027 20.625 101.37 21.4395 102.056C22.2539 102.735 22.752 103.702 22.9336 104.956H21.2461C20.9297 103.263 19.9219 102.416 18.2227 102.416C17.0918 102.416 16.2334 102.814 15.6475 103.611C15.0674 104.402 14.7744 105.551 14.7686 107.057V108.103C14.7686 109.538 15.0967 110.681 15.7529 111.53C16.4092 112.374 17.2969 112.796 18.416 112.796C19.0488 112.796 19.6025 112.726 20.0771 112.585C20.5518 112.444 20.9443 112.207 21.2549 111.873V108.999H18.293V107.628H22.9336V112.321ZM30.4482 108.823H27.4424V114H25.7461V101.203H29.9824C31.4238 101.203 32.5312 101.531 33.3047 102.188C34.084 102.844 34.4736 103.799 34.4736 105.053C34.4736 105.85 34.2568 106.544 33.8232 107.136C33.3955 107.728 32.7979 108.17 32.0303 108.463L35.0361 113.895V114H33.2256L30.4482 108.823ZM27.4424 107.443H30.0352C30.873 107.443 31.5381 107.227 32.0303 106.793C32.5283 106.359 32.7773 105.779 32.7773 105.053C32.7773 104.262 32.54 103.655 32.0654 103.233C31.5967 102.812 30.917 102.598 30.0264 102.592H27.4424V107.443ZM43.9131 110.66H38.5518L37.3477 114H35.6074L40.4941 101.203H41.9707L46.8662 114H45.1348L43.9131 110.66ZM39.0615 109.271H43.4121L41.2324 103.286L39.0615 109.271ZM52.3594 108.296C50.9121 107.88 49.8574 107.37 49.1953 106.767C48.5391 106.157 48.2109 105.407 48.2109 104.517C48.2109 103.509 48.6123 102.677 49.415 102.021C50.2236 101.358 51.2725 101.027 52.5615 101.027C53.4404 101.027 54.2227 101.197 54.9082 101.537C55.5996 101.877 56.1328 102.346 56.5078 102.943C56.8887 103.541 57.0791 104.194 57.0791 104.903H55.3828C55.3828 104.13 55.1367 103.523 54.6445 103.084C54.1523 102.639 53.458 102.416 52.5615 102.416C51.7295 102.416 51.0791 102.601 50.6104 102.97C50.1475 103.333 49.916 103.84 49.916 104.49C49.916 105.012 50.1357 105.454 50.5752 105.817C51.0205 106.175 51.7734 106.503 52.834 106.802C53.9004 107.101 54.7324 107.432 55.3301 107.795C55.9336 108.152 56.3789 108.571 56.666 109.052C56.959 109.532 57.1055 110.098 57.1055 110.748C57.1055 111.785 56.7012 112.617 55.8926 113.244C55.084 113.865 54.0029 114.176 52.6494 114.176C51.7705 114.176 50.9502 114.009 50.1885 113.675C49.4268 113.335 48.8379 112.872 48.4219 112.286C48.0117 111.7 47.8066 111.035 47.8066 110.291H49.5029C49.5029 111.064 49.7871 111.677 50.3555 112.128C50.9297 112.573 51.6943 112.796 52.6494 112.796C53.54 112.796 54.2227 112.614 54.6973 112.251C55.1719 111.888 55.4092 111.393 55.4092 110.766C55.4092 110.139 55.1895 109.655 54.75 109.315C54.3105 108.97 53.5137 108.63 52.3594 108.296ZM63.0469 108.296C61.5996 107.88 60.5449 107.37 59.8828 106.767C59.2266 106.157 58.8984 105.407 58.8984 104.517C58.8984 103.509 59.2998 102.677 60.1025 102.021C60.9111 101.358 61.96 101.027 63.249 101.027C64.1279 101.027 64.9102 101.197 65.5957 101.537C66.2871 101.877 66.8203 102.346 67.1953 102.943C67.5762 103.541 67.7666 104.194 67.7666 104.903H66.0703C66.0703 104.13 65.8242 103.523 65.332 103.084C64.8398 102.639 64.1455 102.416 63.249 102.416C62.417 102.416 61.7666 102.601 61.2979 102.97C60.835 103.333 60.6035 103.84 60.6035 104.49C60.6035 105.012 60.8232 105.454 61.2627 105.817C61.708 106.175 62.4609 106.503 63.5215 106.802C64.5879 107.101 65.4199 107.432 66.0176 107.795C66.6211 108.152 67.0664 108.571 67.3535 109.052C67.6465 109.532 67.793 110.098 67.793 110.748C67.793 111.785 67.3887 112.617 66.5801 113.244C65.7715 113.865 64.6904 114.176 63.3369 114.176C62.458 114.176 61.6377 114.009 60.876 113.675C60.1143 113.335 59.5254 112.872 59.1094 112.286C58.6992 111.7 58.4941 111.035 58.4941 110.291H60.1904C60.1904 111.064 60.4746 111.677 61.043 112.128C61.6172 112.573 62.3818 112.796 63.3369 112.796C64.2275 112.796 64.9102 112.614 65.3848 112.251C65.8594 111.888 66.0967 111.393 66.0967 110.766C66.0967 110.139 65.877 109.655 65.4375 109.315C64.998 108.97 64.2012 108.63 63.0469 108.296Z" fill="#747474"/>
<g clip-path="url(#clip0)">
<rect x="0.452881" y="1.24536" width="79.8113" height="79.8113" rx="39.9057" fill="url(#grass-label)"/>
<path fill-rule="evenodd" clip-rule="evenodd" d="M27.0997 56.1432C26.9533 56.0058 26.8085 55.8657 26.6654 55.7229C19.1115 48.1837 19.1115 35.9601 26.6654 28.4209C34.2193 20.8817 58.289 20.3773 58.289 20.3773C58.289 20.3773 61.5744 48.1837 54.0206 55.7229C47.3117 62.4187 36.9009 63.1678 29.3637 57.9701L35.4369 50.5318L45.1453 48.4398L37.2204 47.6491L42.2568 42.531L47.9897 41.2776L43.4565 39.9377L47.9897 31.7756L41.5416 38.9942L39.0515 35.4873L39.9281 41.2776L35.4369 46.3308L33.355 39.9376V48.4398L27.0997 56.1432Z" fill="white"/>
</g>
<defs>
<linearGradient id="grass-label" x1="0.452881" y1="1.24536" x2="0.452881" y2="81.0567" gradientUnits="userSpaceOnUse">
<stop stop-color="#5FBC51"/>
<stop offset="1" stop-color="#5AC178"/>
</linearGradient>
<clipPath id="clip0">
<rect width="81" height="81" fill="white" transform="translate(0 0.377319)"/>
</clipPath>
</defs>
</svg>
