<svg width="80" height="118" viewBox="0 0 80 118" fill="none" xmlns="http://www.w3.org/2000/svg">
<g clip-path="url(#clip0)">
<rect x="0.169922" y="1.24536" width="79.8113" height="79.8113" rx="39.9057" fill="url(#ground-label)"/>
<path fill-rule="evenodd" clip-rule="evenodd" d="M29.0834 54.3389C28.9213 54.3389 28.808 54.1786 28.8621 54.0258L38.9415 25.5453C39.0171 25.3316 39.2192 25.1887 39.4459 25.1887H49.711C49.9387 25.1887 50.1413 25.3327 50.2163 25.5476L60.0065 53.6277C60.1278 53.9755 59.8696 54.3389 59.5013 54.3389H29.0834ZM20.6488 54.4528C20.2753 54.4528 20.0167 54.0798 20.1478 53.7301L27.4327 34.281C27.511 34.0721 27.7107 33.9337 27.9338 33.9337H33.5014C33.8724 33.9337 34.1308 34.3021 34.0044 34.651L26.9601 54.1C26.8834 54.3117 26.6822 54.4528 26.457 54.4528H20.6488Z" fill="white"/>
</g>
<text fill="#747474" xml:space="preserve" style="white-space: pre" font-family="Roboto" font-size="18" letter-spacing="0em"><tspan x="3" y="113.652">GROUND</tspan></text>
<defs>
<linearGradient id="ground-label" x1="0.684421" y1="1.24536" x2="0.684421" y2="80.0277" gradientUnits="userSpaceOnUse">
<stop stop-color="#DC7545"/>
<stop offset="1" stop-color="#D29463"/>
</linearGradient>
<clipPath id="clip0">
<rect width="80" height="81" fill="white" transform="translate(0 0.377319)"/>
</clipPath>
</defs>
</svg>
