<svg width="80" height="118" viewBox="0 0 80 118" fill="none" xmlns="http://www.w3.org/2000/svg">
<g clip-path="url(#clip0)">
<rect x="0.169922" y="1.24536" width="79.8113" height="79.8113" rx="39.9057" fill="url(#ground-label)"/>
<path fill-rule="evenodd" clip-rule="evenodd" d="M29.0834 54.3389C28.9213 54.3389 28.808 54.1786 28.8621 54.0258L38.9415 25.5453C39.0171 25.3316 39.2192 25.1887 39.4459 25.1887H49.711C49.9387 25.1887 50.1413 25.3327 50.2163 25.5476L60.0065 53.6277C60.1278 53.9755 59.8696 54.3389 59.5013 54.3389H29.0834ZM20.6488 54.4528C20.2753 54.4528 20.0167 54.0798 20.1478 53.7301L27.4327 34.281C27.511 34.0721 27.7107 33.9337 27.9338 33.9337H33.5014C33.8724 33.9337 34.1308 34.3021 34.0044 34.651L26.9601 54.1C26.8834 54.3117 26.6822 54.4528 26.457 54.4528H20.6488Z" fill="white"/>
</g>
<path d="M13.9336 112.321C13.5 112.942 12.8936 113.408 12.1143 113.719C11.3408 114.023 10.4385 114.176 9.40723 114.176C8.36426 114.176 7.43848 113.933 6.62988 113.446C5.82129 112.954 5.19434 112.257 4.74902 111.354C4.30957 110.452 4.08398 109.406 4.07227 108.217V107.101C4.07227 105.173 4.52051 103.679 5.41699 102.618C6.31934 101.558 7.58496 101.027 9.21387 101.027C10.5498 101.027 11.625 101.37 12.4395 102.056C13.2539 102.735 13.752 103.702 13.9336 104.956H12.2461C11.9297 103.263 10.9219 102.416 9.22266 102.416C8.0918 102.416 7.2334 102.814 6.64746 103.611C6.06738 104.402 5.77441 105.551 5.76855 107.057V108.103C5.76855 109.538 6.09668 110.681 6.75293 111.53C7.40918 112.374 8.29688 112.796 9.41602 112.796C10.0488 112.796 10.6025 112.726 11.0771 112.585C11.5518 112.444 11.9443 112.207 12.2549 111.873V108.999H9.29297V107.628H13.9336V112.321ZM21.4482 108.823H18.4424V114H16.7461V101.203H20.9824C22.4238 101.203 23.5312 101.531 24.3047 102.188C25.084 102.844 25.4736 103.799 25.4736 105.053C25.4736 105.85 25.2568 106.544 24.8232 107.136C24.3955 107.728 23.7979 108.17 23.0303 108.463L26.0361 113.895V114H24.2256L21.4482 108.823ZM18.4424 107.443H21.0352C21.873 107.443 22.5381 107.227 23.0303 106.793C23.5283 106.359 23.7773 105.779 23.7773 105.053C23.7773 104.262 23.54 103.655 23.0654 103.233C22.5967 102.812 21.917 102.598 21.0264 102.592H18.4424V107.443ZM37.6904 108.015C37.6904 109.269 37.4795 110.364 37.0576 111.302C36.6357 112.233 36.0381 112.945 35.2646 113.438C34.4912 113.93 33.5889 114.176 32.5576 114.176C31.5498 114.176 30.6562 113.93 29.877 113.438C29.0977 112.939 28.4912 112.233 28.0576 111.319C27.6299 110.399 27.4102 109.336 27.3984 108.129V107.206C27.3984 105.976 27.6123 104.889 28.04 103.945C28.4678 103.002 29.0713 102.281 29.8506 101.783C30.6357 101.279 31.5322 101.027 32.54 101.027C33.5654 101.027 34.4678 101.276 35.2471 101.774C36.0322 102.267 36.6357 102.984 37.0576 103.928C37.4795 104.865 37.6904 105.958 37.6904 107.206V108.015ZM36.0117 107.188C36.0117 105.671 35.707 104.508 35.0977 103.699C34.4883 102.885 33.6357 102.478 32.54 102.478C31.4736 102.478 30.6328 102.885 30.0176 103.699C29.4082 104.508 29.0947 105.633 29.0771 107.074V108.015C29.0771 109.485 29.3848 110.643 30 111.486C30.6211 112.324 31.4736 112.743 32.5576 112.743C33.6475 112.743 34.4912 112.348 35.0889 111.557C35.6865 110.76 35.9941 109.62 36.0117 108.138V107.188ZM49.2305 101.203V109.904C49.2246 111.111 48.8438 112.099 48.0879 112.866C47.3379 113.634 46.3184 114.064 45.0293 114.158L44.5811 114.176C43.1807 114.176 42.0645 113.798 41.2324 113.042C40.4004 112.286 39.9785 111.246 39.9668 109.922V101.203H41.6367V109.869C41.6367 110.795 41.8916 111.516 42.4014 112.031C42.9111 112.541 43.6377 112.796 44.5811 112.796C45.5361 112.796 46.2656 112.541 46.7695 112.031C47.2793 111.521 47.5342 110.804 47.5342 109.878V101.203H49.2305ZM61.7285 114H60.0322L53.5898 104.139V114H51.8936V101.203H53.5898L60.0498 111.108V101.203H61.7285V114ZM64.7256 114V101.203H68.3379C69.4512 101.203 70.4355 101.449 71.291 101.941C72.1465 102.434 72.8057 103.134 73.2686 104.042C73.7373 104.95 73.9746 105.993 73.9805 107.171V107.988C73.9805 109.195 73.7461 110.253 73.2773 111.161C72.8145 112.069 72.1494 112.767 71.2822 113.253C70.4209 113.739 69.416 113.988 68.2676 114H64.7256ZM66.4131 102.592V112.62H68.1885C69.4893 112.62 70.5 112.216 71.2207 111.407C71.9473 110.599 72.3105 109.447 72.3105 107.953V107.206C72.3105 105.753 71.9678 104.625 71.2822 103.822C70.6025 103.014 69.6357 102.604 68.3818 102.592H66.4131Z" fill="#747474"/>
<defs>
<linearGradient id="ground-label" x1="0.684421" y1="1.24536" x2="0.684421" y2="80.0277" gradientUnits="userSpaceOnUse">
<stop stop-color="#DC7545"/>
<stop offset="1" stop-color="#D29463"/>
</linearGradient>
<clipPath id="clip0">
<rect width="80" height="81" fill="white" transform="translate(0 0.377319)"/>
</clipPath>
</defs>
</svg>
