<svg width="81" height="118" viewBox="0 0 81 118" fill="none" xmlns="http://www.w3.org/2000/svg">
<g clip-path="url(#clip0)">
<rect x="0.886719" y="1.24536" width="79.8113" height="79.8113" rx="39.9057" fill="url(#ice-label)"/>
<path fill-rule="evenodd" clip-rule="evenodd" d="M51.8406 22.0911L51.9793 34.2695L41.3572 39.3686L41.2262 27.8699L51.8406 22.0911Z" fill="white"/>
<path fill-rule="evenodd" clip-rule="evenodd" d="M62.4889 41.2813L51.9737 47.2959L41.4523 41.2718L51.9683 35.7481L62.4889 41.2813Z" fill="white"/>
<path fill-rule="evenodd" clip-rule="evenodd" d="M39.5822 41.2813L29.067 47.2959L18.5456 41.2718L29.0616 35.7481L39.5822 41.2813Z" fill="white"/>
<path fill-rule="evenodd" clip-rule="evenodd" d="M28.9488 22.0415L39.8628 27.4468L39.5838 39.2261L29.2789 34.1225L28.9488 22.0415Z" fill="white"/>
<path fill-rule="evenodd" clip-rule="evenodd" d="M52.1381 60.3371L41.2241 54.9318L41.5031 43.1525L51.808 48.2561L52.1381 60.3371Z" fill="white"/>
<path fill-rule="evenodd" clip-rule="evenodd" d="M29.3259 60.4467L29.1872 48.2683L39.8093 43.1692L39.9403 54.6679L29.3259 60.4467Z" fill="white"/>
</g>
<text fill="#747474" xml:space="preserve" style="white-space: pre" font-family="Roboto" font-size="18" letter-spacing="0em"><tspan x="27" y="113.652">ICE</tspan></text>
<defs>
<linearGradient id="ice-label" x1="0.886719" y1="1.24536" x2="0.886719" y2="81.0567" gradientUnits="userSpaceOnUse">
<stop stop-color="#70CCBD"/>
<stop offset="1" stop-color="#8CDDD4"/>
</linearGradient>
<clipPath id="clip0">
<rect width="81" height="81" fill="white" transform="translate(0 0.377319)"/>
</clipPath>
</defs>
</svg>
