<svg width="81" height="118" viewBox="0 0 81 118" fill="none" xmlns="http://www.w3.org/2000/svg">
<g clip-path="url(#clip0)">
<rect x="0.886719" y="1.24536" width="79.8113" height="79.8113" rx="39.9057" fill="url(#ice-label)"/>
<path fill-rule="evenodd" clip-rule="evenodd" d="M51.8406 22.0911L51.9793 34.2695L41.3572 39.3686L41.2262 27.8699L51.8406 22.0911Z" fill="white"/>
<path fill-rule="evenodd" clip-rule="evenodd" d="M62.4889 41.2813L51.9737 47.2959L41.4523 41.2718L51.9683 35.7481L62.4889 41.2813Z" fill="white"/>
<path fill-rule="evenodd" clip-rule="evenodd" d="M39.5822 41.2813L29.067 47.2959L18.5456 41.2718L29.0616 35.7481L39.5822 41.2813Z" fill="white"/>
<path fill-rule="evenodd" clip-rule="evenodd" d="M28.9488 22.0415L39.8628 27.4468L39.5838 39.2261L29.2789 34.1225L28.9488 22.0415Z" fill="white"/>
<path fill-rule="evenodd" clip-rule="evenodd" d="M52.1381 60.3371L41.2241 54.9318L41.5031 43.1525L51.808 48.2561L52.1381 60.3371Z" fill="white"/>
<path fill-rule="evenodd" clip-rule="evenodd" d="M29.3259 60.4467L29.1872 48.2683L39.8093 43.1692L39.9403 54.6679L29.3259 60.4467Z" fill="white"/>
</g>
<path d="M30.2959 114H28.6084V101.203H30.2959V114ZM42.8027 109.939C42.6445 111.293 42.1436 112.339 41.2998 113.077C40.4619 113.81 39.3457 114.176 37.9512 114.176C36.4395 114.176 35.2266 113.634 34.3125 112.55C33.4043 111.466 32.9502 110.016 32.9502 108.199V106.969C32.9502 105.779 33.1611 104.733 33.583 103.831C34.0107 102.929 34.6143 102.237 35.3936 101.757C36.1729 101.271 37.0752 101.027 38.1006 101.027C39.46 101.027 40.5498 101.408 41.3701 102.17C42.1904 102.926 42.668 103.975 42.8027 105.316H41.1064C40.96 104.297 40.6406 103.559 40.1484 103.102C39.6621 102.645 38.9795 102.416 38.1006 102.416C37.0225 102.416 36.1758 102.814 35.5605 103.611C34.9512 104.408 34.6465 105.542 34.6465 107.013V108.252C34.6465 109.641 34.9365 110.745 35.5166 111.565C36.0967 112.386 36.9082 112.796 37.9512 112.796C38.8887 112.796 39.6064 112.585 40.1045 112.163C40.6084 111.735 40.9424 110.994 41.1064 109.939H42.8027ZM52.3477 108.085H46.8018V112.62H53.2441V114H45.1143V101.203H53.1562V102.592H46.8018V106.705H52.3477V108.085Z" fill="#747474"/>
<defs>
<linearGradient id="ice-label" x1="0.886719" y1="1.24536" x2="0.886719" y2="81.0567" gradientUnits="userSpaceOnUse">
<stop stop-color="#70CCBD"/>
<stop offset="1" stop-color="#8CDDD4"/>
</linearGradient>
<clipPath id="clip0">
<rect width="81" height="81" fill="white" transform="translate(0 0.377319)"/>
</clipPath>
</defs>
</svg>
