<svg width="81" height="118" viewBox="0 0 81 118" fill="none" xmlns="http://www.w3.org/2000/svg">
<rect x="0.30188" y="1.00018" width="79.8113" height="79.8113" rx="39.9057" fill="url(#normal-label)"/>
<path fill-rule="evenodd" clip-rule="evenodd" d="M40.2075 59.5284C50.4925 59.5284 58.8301 51.1908 58.8301 40.9058C58.8301 30.6208 50.4925 22.2831 40.2075 22.2831C29.9225 22.2831 21.5848 30.6208 21.5848 40.9058C21.5848 51.1908 29.9225 59.5284 40.2075 59.5284ZM40.2075 51.5473C46.0846 51.5473 50.849 46.7829 50.849 40.9058C50.849 35.0286 46.0846 30.2643 40.2075 30.2643C34.3303 30.2643 29.566 35.0286 29.566 40.9058C29.566 46.7829 34.3303 51.5473 40.2075 51.5473Z" fill="white"/>
<path d="M15.3203 114H13.624L7.18164 104.139V114H5.48535V101.203H7.18164L13.6416 111.108V101.203H15.3203V114ZM28.1611 108.015C28.1611 109.269 27.9502 110.364 27.5283 111.302C27.1064 112.233 26.5088 112.945 25.7354 113.438C24.9619 113.93 24.0596 114.176 23.0283 114.176C22.0205 114.176 21.127 113.93 20.3477 113.438C19.5684 112.939 18.9619 112.233 18.5283 111.319C18.1006 110.399 17.8809 109.336 17.8691 108.129V107.206C17.8691 105.976 18.083 104.889 18.5107 103.945C18.9385 103.002 19.542 102.281 20.3213 101.783C21.1064 101.279 22.0029 101.027 23.0107 101.027C24.0361 101.027 24.9385 101.276 25.7178 101.774C26.5029 102.267 27.1064 102.984 27.5283 103.928C27.9502 104.865 28.1611 105.958 28.1611 107.206V108.015ZM26.4824 107.188C26.4824 105.671 26.1777 104.508 25.5684 103.699C24.959 102.885 24.1064 102.478 23.0107 102.478C21.9443 102.478 21.1035 102.885 20.4883 103.699C19.8789 104.508 19.5654 105.633 19.5479 107.074V108.015C19.5479 109.485 19.8555 110.643 20.4707 111.486C21.0918 112.324 21.9443 112.743 23.0283 112.743C24.1182 112.743 24.9619 112.348 25.5596 111.557C26.1572 110.76 26.4648 109.62 26.4824 108.138V107.188ZM35.3857 108.823H32.3799V114H30.6836V101.203H34.9199C36.3613 101.203 37.4688 101.531 38.2422 102.188C39.0215 102.844 39.4111 103.799 39.4111 105.053C39.4111 105.85 39.1943 106.544 38.7607 107.136C38.333 107.728 37.7354 108.17 36.9678 108.463L39.9736 113.895V114H38.1631L35.3857 108.823ZM32.3799 107.443H34.9727C35.8105 107.443 36.4756 107.227 36.9678 106.793C37.4658 106.359 37.7148 105.779 37.7148 105.053C37.7148 104.262 37.4775 103.655 37.0029 103.233C36.5342 102.812 35.8545 102.598 34.9639 102.592H32.3799V107.443ZM43.9639 101.203L48.1475 111.645L52.3311 101.203H54.5195V114H52.832V109.017L52.9902 103.638L48.7891 114H47.4971L43.3047 103.664L43.4717 109.017V114H41.7842V101.203H43.9639ZM64.7236 110.66H59.3623L58.1582 114H56.418L61.3047 101.203H62.7812L67.6768 114H65.9453L64.7236 110.66ZM59.8721 109.271H64.2227L62.043 103.286L59.8721 109.271ZM71.0957 112.62H77.1602V114H69.3994V101.203H71.0957V112.62Z" fill="#747474"/>
<defs>
<linearGradient id="normal-label" x1="0.816379" y1="1.00018" x2="0.816379" y2="79.7825" gradientUnits="userSpaceOnUse">
<stop stop-color="#9298A4"/>
<stop offset="1" stop-color="#A3A49E"/>
</linearGradient>
</defs>
</svg>
