<svg width="81" height="118" viewBox="0 0 81 118" fill="none" xmlns="http://www.w3.org/2000/svg">
<rect x="0.30188" y="1.00018" width="79.8113" height="79.8113" rx="39.9057" fill="url(#normal-label)"/>
<path fill-rule="evenodd" clip-rule="evenodd" d="M40.2075 59.5284C50.4925 59.5284 58.8301 51.1908 58.8301 40.9058C58.8301 30.6208 50.4925 22.2831 40.2075 22.2831C29.9225 22.2831 21.5848 30.6208 21.5848 40.9058C21.5848 51.1908 29.9225 59.5284 40.2075 59.5284ZM40.2075 51.5473C46.0846 51.5473 50.849 46.7829 50.849 40.9058C50.849 35.0286 46.0846 30.2643 40.2075 30.2643C34.3303 30.2643 29.566 35.0286 29.566 40.9058C29.566 46.7829 34.3303 51.5473 40.2075 51.5473Z" fill="white"/>
<text fill="#747474" xml:space="preserve" style="white-space: pre" font-family="Roboto" font-size="18" letter-spacing="0em"><tspan x="4" y="113.652">NORMAL</tspan></text>
<defs>
<linearGradient id="normal-label" x1="0.816379" y1="1.00018" x2="0.816379" y2="79.7825" gradientUnits="userSpaceOnUse">
<stop stop-color="#9298A4"/>
<stop offset="1" stop-color="#A3A49E"/>
</linearGradient>
</defs>
</svg>
