<svg width="80" height="118" viewBox="0 0 80 118" fill="none" xmlns="http://www.w3.org/2000/svg">
<rect x="0.0187988" y="1.00018" width="79.8113" height="79.8113" rx="39.9057" fill="url(#poison-label)"/>
<path fill-rule="evenodd" clip-rule="evenodd" d="M32.3284 62.189C34.2128 62.189 35.8653 60.8573 36.7916 58.8572C37.7179 60.8573 39.3704 62.189 41.2548 62.189C42.9724 62.189 44.4973 61.0826 45.4553 59.372C46.4133 61.0826 47.9383 62.189 49.6559 62.189C52.5558 62.189 54.9066 59.0352 54.9066 55.1447C54.9066 54.378 54.8153 53.64 54.6465 52.949C58.6764 49.7268 61.2077 45.0712 61.2077 39.8939C61.2077 30.1677 52.2745 22.2831 41.2548 22.2831C30.2352 22.2831 21.302 30.1677 21.302 39.8939C21.302 44.8842 23.6537 49.3898 27.4324 52.5943C27.2033 53.3851 27.0777 54.2452 27.0777 55.1447C27.0777 59.0352 29.4285 62.189 32.3284 62.189ZM40.9922 49.1839C47.517 49.1839 52.8064 45.181 52.8064 40.2431C52.8064 35.3052 47.517 31.3022 40.9922 31.3022C34.4674 31.3022 29.178 35.3052 29.178 40.2431C29.178 45.181 34.4674 49.1839 40.9922 49.1839Z" fill="white"/>
<path d="M10.1729 108.99V114H8.48535V101.203H13.2051C14.6055 101.203 15.7012 101.561 16.4922 102.275C17.2891 102.99 17.6875 103.937 17.6875 105.114C17.6875 106.356 17.2979 107.314 16.5186 107.988C15.7451 108.656 14.6348 108.99 13.1875 108.99H10.1729ZM10.1729 107.61H13.2051C14.1074 107.61 14.7988 107.399 15.2793 106.978C15.7598 106.55 16 105.935 16 105.132C16 104.37 15.7598 103.761 15.2793 103.304C14.7988 102.847 14.1396 102.609 13.3018 102.592H10.1729V107.61ZM29.6846 108.015C29.6846 109.269 29.4736 110.364 29.0518 111.302C28.6299 112.233 28.0322 112.945 27.2588 113.438C26.4854 113.93 25.583 114.176 24.5518 114.176C23.5439 114.176 22.6504 113.93 21.8711 113.438C21.0918 112.939 20.4854 112.233 20.0518 111.319C19.624 110.399 19.4043 109.336 19.3926 108.129V107.206C19.3926 105.976 19.6064 104.889 20.0342 103.945C20.4619 103.002 21.0654 102.281 21.8447 101.783C22.6299 101.279 23.5264 101.027 24.5342 101.027C25.5596 101.027 26.4619 101.276 27.2412 101.774C28.0264 102.267 28.6299 102.984 29.0518 103.928C29.4736 104.865 29.6846 105.958 29.6846 107.206V108.015ZM28.0059 107.188C28.0059 105.671 27.7012 104.508 27.0918 103.699C26.4824 102.885 25.6299 102.478 24.5342 102.478C23.4678 102.478 22.627 102.885 22.0117 103.699C21.4023 104.508 21.0889 105.633 21.0713 107.074V108.015C21.0713 109.485 21.3789 110.643 21.9941 111.486C22.6152 112.324 23.4678 112.743 24.5518 112.743C25.6416 112.743 26.4854 112.348 27.083 111.557C27.6807 110.76 27.9883 109.62 28.0059 108.138V107.188ZM34.0264 114H32.3389V101.203H34.0264V114ZM40.8906 108.296C39.4434 107.88 38.3887 107.37 37.7266 106.767C37.0703 106.157 36.7422 105.407 36.7422 104.517C36.7422 103.509 37.1436 102.677 37.9463 102.021C38.7549 101.358 39.8037 101.027 41.0928 101.027C41.9717 101.027 42.7539 101.197 43.4395 101.537C44.1309 101.877 44.6641 102.346 45.0391 102.943C45.4199 103.541 45.6104 104.194 45.6104 104.903H43.9141C43.9141 104.13 43.668 103.523 43.1758 103.084C42.6836 102.639 41.9893 102.416 41.0928 102.416C40.2607 102.416 39.6104 102.601 39.1416 102.97C38.6787 103.333 38.4473 103.84 38.4473 104.49C38.4473 105.012 38.667 105.454 39.1064 105.817C39.5518 106.175 40.3047 106.503 41.3652 106.802C42.4316 107.101 43.2637 107.432 43.8613 107.795C44.4648 108.152 44.9102 108.571 45.1973 109.052C45.4902 109.532 45.6367 110.098 45.6367 110.748C45.6367 111.785 45.2324 112.617 44.4238 113.244C43.6152 113.865 42.5342 114.176 41.1807 114.176C40.3018 114.176 39.4814 114.009 38.7197 113.675C37.958 113.335 37.3691 112.872 36.9531 112.286C36.543 111.7 36.3379 111.035 36.3379 110.291H38.0342C38.0342 111.064 38.3184 111.677 38.8867 112.128C39.4609 112.573 40.2256 112.796 41.1807 112.796C42.0713 112.796 42.7539 112.614 43.2285 112.251C43.7031 111.888 43.9404 111.393 43.9404 110.766C43.9404 110.139 43.7207 109.655 43.2812 109.315C42.8418 108.97 42.0449 108.63 40.8906 108.296ZM57.6514 108.015C57.6514 109.269 57.4404 110.364 57.0186 111.302C56.5967 112.233 55.999 112.945 55.2256 113.438C54.4521 113.93 53.5498 114.176 52.5186 114.176C51.5107 114.176 50.6172 113.93 49.8379 113.438C49.0586 112.939 48.4521 112.233 48.0186 111.319C47.5908 110.399 47.3711 109.336 47.3594 108.129V107.206C47.3594 105.976 47.5732 104.889 48.001 103.945C48.4287 103.002 49.0322 102.281 49.8115 101.783C50.5967 101.279 51.4932 101.027 52.501 101.027C53.5264 101.027 54.4287 101.276 55.208 101.774C55.9932 102.267 56.5967 102.984 57.0186 103.928C57.4404 104.865 57.6514 105.958 57.6514 107.206V108.015ZM55.9727 107.188C55.9727 105.671 55.668 104.508 55.0586 103.699C54.4492 102.885 53.5967 102.478 52.501 102.478C51.4346 102.478 50.5938 102.885 49.9785 103.699C49.3691 104.508 49.0557 105.633 49.0381 107.074V108.015C49.0381 109.485 49.3457 110.643 49.9609 111.486C50.582 112.324 51.4346 112.743 52.5186 112.743C53.6084 112.743 54.4521 112.348 55.0498 111.557C55.6475 110.76 55.9551 109.62 55.9727 108.138V107.188ZM70.0176 114H68.3213L61.8789 104.139V114H60.1826V101.203H61.8789L68.3389 111.108V101.203H70.0176V114Z" fill="#747474"/>
<defs>
<linearGradient id="poison-label" x1="0.0187988" y1="1.00018" x2="0.0187988" y2="80.8115" gradientUnits="userSpaceOnUse">
<stop stop-color="#A864C7"/>
<stop offset="1" stop-color="#C261D4"/>
</linearGradient>
</defs>
</svg>
