<svg width="80" height="118" viewBox="0 0 80 118" fill="none" xmlns="http://www.w3.org/2000/svg">
<rect x="0.0187988" y="1.00018" width="79.8113" height="79.8113" rx="39.9057" fill="url(#poison-label)"/>
<path fill-rule="evenodd" clip-rule="evenodd" d="M32.3284 62.189C34.2128 62.189 35.8653 60.8573 36.7916 58.8572C37.7179 60.8573 39.3704 62.189 41.2548 62.189C42.9724 62.189 44.4973 61.0826 45.4553 59.372C46.4133 61.0826 47.9383 62.189 49.6559 62.189C52.5558 62.189 54.9066 59.0352 54.9066 55.1447C54.9066 54.378 54.8153 53.64 54.6465 52.949C58.6764 49.7268 61.2077 45.0712 61.2077 39.8939C61.2077 30.1677 52.2745 22.2831 41.2548 22.2831C30.2352 22.2831 21.302 30.1677 21.302 39.8939C21.302 44.8842 23.6537 49.3898 27.4324 52.5943C27.2033 53.3851 27.0777 54.2452 27.0777 55.1447C27.0777 59.0352 29.4285 62.189 32.3284 62.189ZM40.9922 49.1839C47.517 49.1839 52.8064 45.181 52.8064 40.2431C52.8064 35.3052 47.517 31.3022 40.9922 31.3022C34.4674 31.3022 29.178 35.3052 29.178 40.2431C29.178 45.181 34.4674 49.1839 40.9922 49.1839Z" fill="white"/>
<text fill="#747474" xml:space="preserve" style="white-space: pre" font-family="Roboto" font-size="18" letter-spacing="0em"><tspan x="7" y="113.652">POISON</tspan></text>
<defs>
<linearGradient id="poison-label" x1="0.0187988" y1="1.00018" x2="0.0187988" y2="80.8115" gradientUnits="userSpaceOnUse">
<stop stop-color="#A864C7"/>
<stop offset="1" stop-color="#C261D4"/>
</linearGradient>
</defs>
</svg>
