<svg width="81" height="118" viewBox="0 0 81 118" fill="none" xmlns="http://www.w3.org/2000/svg">
<rect x="0.73584" y="1.00018" width="79.8113" height="79.8113" rx="39.9057" fill="url(#psychic-label)"/>
<path fill-rule="evenodd" clip-rule="evenodd" d="M55.2056 53.213C55.2056 53.213 50.5092 56.9797 41.1635 55.4209C34.0731 54.2383 30.2914 46.4222 30.2914 42.221C30.2914 32.26 37.6638 29.9932 42.648 29.9932C47.6322 29.9932 50.8837 34.8526 50.8837 38.6149C50.8837 42.3773 48.2227 45.6681 44.0816 45.6681C39.9405 45.6681 38.714 42.7608 38.714 40.088C38.714 37.4152 40.8765 36.4735 42.8487 36.4735C44.8208 36.4735 45.4962 38.1573 45.4962 39.6044C45.4962 41.0516 44.3734 41.5698 43.4368 41.5698C42.5003 41.5698 42.4077 41.0973 42.0493 40.6008C41.6908 40.1043 42.5064 38.2248 41.1635 38.2248C39.8207 38.2248 39.5704 40.3855 39.5704 40.3855C39.5704 40.3855 40.0599 44.5561 44.0816 44.4841C48.1032 44.4121 50.0111 41.3031 49.4566 38.2248C48.9022 35.1466 45.9148 31.8756 40.6718 32.5366C35.4288 33.1975 33.2881 38.4951 34.2317 44.1564C35.1753 49.8177 41.9575 53.0979 47.29 51.9178C52.6226 50.7377 57.9338 46.8771 57.9338 37.0891C57.9338 27.301 49.4566 21.4175 39.3484 22.3871C29.2402 23.3567 22.9654 32.194 23.3671 42.8122C23.7687 53.4304 33.8441 59.2134 42.3639 59.5114C50.8837 59.8095 56.1067 54.8776 56.1067 54.8776C56.1067 54.8776 57.2813 53.8302 56.8208 53.0122C56.3602 52.1943 55.2056 53.213 55.2056 53.213Z" fill="white"/>
<path d="M7.17285 108.99V114H5.48535V101.203H10.2051C11.6055 101.203 12.7012 101.561 13.4922 102.275C14.2891 102.99 14.6875 103.937 14.6875 105.114C14.6875 106.356 14.2979 107.314 13.5186 107.988C12.7451 108.656 11.6348 108.99 10.1875 108.99H7.17285ZM7.17285 107.61H10.2051C11.1074 107.61 11.7988 107.399 12.2793 106.978C12.7598 106.55 13 105.935 13 105.132C13 104.37 12.7598 103.761 12.2793 103.304C11.7988 102.847 11.1396 102.609 10.3018 102.592H7.17285V107.61ZM20.6113 108.296C19.1641 107.88 18.1094 107.37 17.4473 106.767C16.791 106.157 16.4629 105.407 16.4629 104.517C16.4629 103.509 16.8643 102.677 17.667 102.021C18.4756 101.358 19.5244 101.027 20.8135 101.027C21.6924 101.027 22.4746 101.197 23.1602 101.537C23.8516 101.877 24.3848 102.346 24.7598 102.943C25.1406 103.541 25.3311 104.194 25.3311 104.903H23.6348C23.6348 104.13 23.3887 103.523 22.8965 103.084C22.4043 102.639 21.71 102.416 20.8135 102.416C19.9814 102.416 19.3311 102.601 18.8623 102.97C18.3994 103.333 18.168 103.84 18.168 104.49C18.168 105.012 18.3877 105.454 18.8271 105.817C19.2725 106.175 20.0254 106.503 21.0859 106.802C22.1523 107.101 22.9844 107.432 23.582 107.795C24.1855 108.152 24.6309 108.571 24.918 109.052C25.2109 109.532 25.3574 110.098 25.3574 110.748C25.3574 111.785 24.9531 112.617 24.1445 113.244C23.3359 113.865 22.2549 114.176 20.9014 114.176C20.0225 114.176 19.2021 114.009 18.4404 113.675C17.6787 113.335 17.0898 112.872 16.6738 112.286C16.2637 111.7 16.0586 111.035 16.0586 110.291H17.7549C17.7549 111.064 18.0391 111.677 18.6074 112.128C19.1816 112.573 19.9463 112.796 20.9014 112.796C21.792 112.796 22.4746 112.614 22.9492 112.251C23.4238 111.888 23.6611 111.393 23.6611 110.766C23.6611 110.139 23.4414 109.655 23.002 109.315C22.5625 108.97 21.7656 108.63 20.6113 108.296ZM31.4307 107.628L34.7705 101.203H36.6865L32.2744 109.228V114H30.5869V109.228L26.1748 101.203H28.1084L31.4307 107.628ZM47.4883 109.939C47.3301 111.293 46.8291 112.339 45.9854 113.077C45.1475 113.81 44.0312 114.176 42.6367 114.176C41.125 114.176 39.9121 113.634 38.998 112.55C38.0898 111.466 37.6357 110.016 37.6357 108.199V106.969C37.6357 105.779 37.8467 104.733 38.2686 103.831C38.6963 102.929 39.2998 102.237 40.0791 101.757C40.8584 101.271 41.7607 101.027 42.7861 101.027C44.1455 101.027 45.2354 101.408 46.0557 102.17C46.876 102.926 47.3535 103.975 47.4883 105.316H45.792C45.6455 104.297 45.3262 103.559 44.834 103.102C44.3477 102.645 43.665 102.416 42.7861 102.416C41.708 102.416 40.8613 102.814 40.2461 103.611C39.6367 104.408 39.332 105.542 39.332 107.013V108.252C39.332 109.641 39.6221 110.745 40.2021 111.565C40.7822 112.386 41.5938 112.796 42.6367 112.796C43.5742 112.796 44.292 112.585 44.79 112.163C45.2939 111.735 45.6279 110.994 45.792 109.939H47.4883ZM59.6348 114H57.9385V108.085H51.4873V114H49.7998V101.203H51.4873V106.705H57.9385V101.203H59.6348V114ZM64.4424 114H62.7549V101.203H64.4424V114ZM76.9492 109.939C76.791 111.293 76.29 112.339 75.4463 113.077C74.6084 113.81 73.4922 114.176 72.0977 114.176C70.5859 114.176 69.373 113.634 68.459 112.55C67.5508 111.466 67.0967 110.016 67.0967 108.199V106.969C67.0967 105.779 67.3076 104.733 67.7295 103.831C68.1572 102.929 68.7607 102.237 69.54 101.757C70.3193 101.271 71.2217 101.027 72.2471 101.027C73.6064 101.027 74.6963 101.408 75.5166 102.17C76.3369 102.926 76.8145 103.975 76.9492 105.316H75.2529C75.1064 104.297 74.7871 103.559 74.2949 103.102C73.8086 102.645 73.126 102.416 72.2471 102.416C71.1689 102.416 70.3223 102.814 69.707 103.611C69.0977 104.408 68.793 105.542 68.793 107.013V108.252C68.793 109.641 69.083 110.745 69.6631 111.565C70.2432 112.386 71.0547 112.796 72.0977 112.796C73.0352 112.796 73.7529 112.585 74.251 112.163C74.7549 111.735 75.0889 110.994 75.2529 109.939H76.9492Z" fill="#747474"/>
<defs>
<linearGradient id="psychic-label" x1="0.73584" y1="1.00018" x2="0.73584" y2="80.8115" gradientUnits="userSpaceOnUse">
<stop stop-color="#F66F71"/>
<stop offset="1" stop-color="#FE9F92"/>
</linearGradient>
</defs>
</svg>
