<svg width="81" height="118" viewBox="0 0 81 118" fill="none" xmlns="http://www.w3.org/2000/svg">
<rect x="0.73584" y="1.00018" width="79.8113" height="79.8113" rx="39.9057" fill="url(#psychic-label)"/>
<path fill-rule="evenodd" clip-rule="evenodd" d="M55.2056 53.213C55.2056 53.213 50.5092 56.9797 41.1635 55.4209C34.0731 54.2383 30.2914 46.4222 30.2914 42.221C30.2914 32.26 37.6638 29.9932 42.648 29.9932C47.6322 29.9932 50.8837 34.8526 50.8837 38.6149C50.8837 42.3773 48.2227 45.6681 44.0816 45.6681C39.9405 45.6681 38.714 42.7608 38.714 40.088C38.714 37.4152 40.8765 36.4735 42.8487 36.4735C44.8208 36.4735 45.4962 38.1573 45.4962 39.6044C45.4962 41.0516 44.3734 41.5698 43.4368 41.5698C42.5003 41.5698 42.4077 41.0973 42.0493 40.6008C41.6908 40.1043 42.5064 38.2248 41.1635 38.2248C39.8207 38.2248 39.5704 40.3855 39.5704 40.3855C39.5704 40.3855 40.0599 44.5561 44.0816 44.4841C48.1032 44.4121 50.0111 41.3031 49.4566 38.2248C48.9022 35.1466 45.9148 31.8756 40.6718 32.5366C35.4288 33.1975 33.2881 38.4951 34.2317 44.1564C35.1753 49.8177 41.9575 53.0979 47.29 51.9178C52.6226 50.7377 57.9338 46.8771 57.9338 37.0891C57.9338 27.301 49.4566 21.4175 39.3484 22.3871C29.2402 23.3567 22.9654 32.194 23.3671 42.8122C23.7687 53.4304 33.8441 59.2134 42.3639 59.5114C50.8837 59.8095 56.1067 54.8776 56.1067 54.8776C56.1067 54.8776 57.2813 53.8302 56.8208 53.0122C56.3602 52.1943 55.2056 53.213 55.2056 53.213Z" fill="white"/>
<text fill="#747474" xml:space="preserve" style="white-space: pre" font-family="Roboto" font-size="18" letter-spacing="0em"><tspan x="4" y="113.652">PSYCHIC</tspan></text>
<defs>
<linearGradient id="psychic-label" x1="0.73584" y1="1.00018" x2="0.73584" y2="80.8115" gradientUnits="userSpaceOnUse">
<stop stop-color="#F66F71"/>
<stop offset="1" stop-color="#FE9F92"/>
</linearGradient>
</defs>
</svg>
