<svg width="81" height="118" viewBox="0 0 81 118" fill="none" xmlns="http://www.w3.org/2000/svg">
<rect x="0.452881" y="1.00018" width="79.8113" height="79.8113" rx="39.9057" fill="url(#rock-label)"/>
<path fill-rule="evenodd" clip-rule="evenodd" d="M50.6103 41.6128C50.5323 41.5065 50.5008 41.3731 50.5231 41.2431L52.7929 28.0077C52.8329 27.7744 53.0381 27.6039 53.2748 27.6039C53.4868 27.6039 53.6769 27.7413 53.7407 27.9435L58.8794 44.214C58.9405 44.4074 58.875 44.6185 58.7151 44.7433L55.4189 47.3169C55.2029 47.4855 54.8903 47.4423 54.7282 47.2215L50.6103 41.6128ZM21.7358 50.2729C21.7358 50.4831 21.871 50.6695 22.0708 50.7348L29.6415 53.2102C29.7857 53.2573 29.9437 53.2344 30.0686 53.1482L47.8553 40.8687C47.966 40.7923 48.0401 40.6734 48.0599 40.5404L49.895 28.2272C49.9388 27.9335 49.7113 27.6696 49.4144 27.6696H34.11C33.9654 27.6696 33.8282 27.734 33.7359 27.8454L21.8477 42.1868C21.7754 42.274 21.7358 42.3836 21.7358 42.4969V50.2729ZM33.2474 53.9604L41.8896 56.7913C42.0368 56.8395 42.1982 56.8147 42.3241 56.7244L52.3171 49.5563C52.5305 49.4033 52.5837 49.1084 52.4372 48.8904L49 43.7755C48.8494 43.5514 48.5451 43.493 48.3223 43.6455L33.2474 53.9604Z" fill="white"/>
<path d="M23.1787 108.823H20.1729V114H18.4766V101.203H22.7129C24.1543 101.203 25.2617 101.531 26.0352 102.188C26.8145 102.844 27.2041 103.799 27.2041 105.053C27.2041 105.85 26.9873 106.544 26.5537 107.136C26.126 107.728 25.5283 108.17 24.7607 108.463L27.7666 113.895V114H25.9561L23.1787 108.823ZM20.1729 107.443H22.7656C23.6035 107.443 24.2686 107.227 24.7607 106.793C25.2588 106.359 25.5078 105.779 25.5078 105.053C25.5078 104.262 25.2705 103.655 24.7959 103.233C24.3271 102.812 23.6475 102.598 22.7568 102.592H20.1729V107.443ZM39.4209 108.015C39.4209 109.269 39.21 110.364 38.7881 111.302C38.3662 112.233 37.7686 112.945 36.9951 113.438C36.2217 113.93 35.3193 114.176 34.2881 114.176C33.2803 114.176 32.3867 113.93 31.6074 113.438C30.8281 112.939 30.2217 112.233 29.7881 111.319C29.3604 110.399 29.1406 109.336 29.1289 108.129V107.206C29.1289 105.976 29.3428 104.889 29.7705 103.945C30.1982 103.002 30.8018 102.281 31.5811 101.783C32.3662 101.279 33.2627 101.027 34.2705 101.027C35.2959 101.027 36.1982 101.276 36.9775 101.774C37.7627 102.267 38.3662 102.984 38.7881 103.928C39.21 104.865 39.4209 105.958 39.4209 107.206V108.015ZM37.7422 107.188C37.7422 105.671 37.4375 104.508 36.8281 103.699C36.2188 102.885 35.3662 102.478 34.2705 102.478C33.2041 102.478 32.3633 102.885 31.748 103.699C31.1387 104.508 30.8252 105.633 30.8076 107.074V108.015C30.8076 109.485 31.1152 110.643 31.7305 111.486C32.3516 112.324 33.2041 112.743 34.2881 112.743C35.3779 112.743 36.2217 112.348 36.8193 111.557C37.417 110.76 37.7246 109.62 37.7422 108.138V107.188ZM51.3652 109.939C51.207 111.293 50.7061 112.339 49.8623 113.077C49.0244 113.81 47.9082 114.176 46.5137 114.176C45.002 114.176 43.7891 113.634 42.875 112.55C41.9668 111.466 41.5127 110.016 41.5127 108.199V106.969C41.5127 105.779 41.7236 104.733 42.1455 103.831C42.5732 102.929 43.1768 102.237 43.9561 101.757C44.7354 101.271 45.6377 101.027 46.6631 101.027C48.0225 101.027 49.1123 101.408 49.9326 102.17C50.7529 102.926 51.2305 103.975 51.3652 105.316H49.6689C49.5225 104.297 49.2031 103.559 48.7109 103.102C48.2246 102.645 47.542 102.416 46.6631 102.416C45.585 102.416 44.7383 102.814 44.123 103.611C43.5137 104.408 43.209 105.542 43.209 107.013V108.252C43.209 109.641 43.499 110.745 44.0791 111.565C44.6592 112.386 45.4707 112.796 46.5137 112.796C47.4512 112.796 48.1689 112.585 48.667 112.163C49.1709 111.735 49.5049 110.994 49.6689 109.939H51.3652ZM56.9287 108.05L55.3643 109.676V114H53.6768V101.203H55.3643V107.531L61.0508 101.203H63.0898L58.0537 106.854L63.4854 114H61.4639L56.9287 108.05Z" fill="#747474"/>
<defs>
<linearGradient id="rock-label" x1="0.452881" y1="1.00018" x2="0.452881" y2="80.8115" gradientUnits="userSpaceOnUse">
<stop stop-color="#C5B489"/>
<stop offset="1" stop-color="#D7CD90"/>
</linearGradient>
</defs>
</svg>
