<svg width="81" height="118" viewBox="0 0 81 118" fill="none" xmlns="http://www.w3.org/2000/svg">
<rect x="0.452881" y="1.00018" width="79.8113" height="79.8113" rx="39.9057" fill="url(#rock-label)"/>
<path fill-rule="evenodd" clip-rule="evenodd" d="M50.6103 41.6128C50.5323 41.5065 50.5008 41.3731 50.5231 41.2431L52.7929 28.0077C52.8329 27.7744 53.0381 27.6039 53.2748 27.6039C53.4868 27.6039 53.6769 27.7413 53.7407 27.9435L58.8794 44.214C58.9405 44.4074 58.875 44.6185 58.7151 44.7433L55.4189 47.3169C55.2029 47.4855 54.8903 47.4423 54.7282 47.2215L50.6103 41.6128ZM21.7358 50.2729C21.7358 50.4831 21.871 50.6695 22.0708 50.7348L29.6415 53.2102C29.7857 53.2573 29.9437 53.2344 30.0686 53.1482L47.8553 40.8687C47.966 40.7923 48.0401 40.6734 48.0599 40.5404L49.895 28.2272C49.9388 27.9335 49.7113 27.6696 49.4144 27.6696H34.11C33.9654 27.6696 33.8282 27.734 33.7359 27.8454L21.8477 42.1868C21.7754 42.274 21.7358 42.3836 21.7358 42.4969V50.2729ZM33.2474 53.9604L41.8896 56.7913C42.0368 56.8395 42.1982 56.8147 42.3241 56.7244L52.3171 49.5563C52.5305 49.4033 52.5837 49.1084 52.4372 48.8904L49 43.7755C48.8494 43.5514 48.5451 43.493 48.3223 43.6455L33.2474 53.9604Z" fill="white"/>
<text fill="#747474" xml:space="preserve" style="white-space: pre" font-family="Roboto" font-size="18" letter-spacing="0em"><tspan x="17" y="113.652">ROCK</tspan></text>
<defs>
<linearGradient id="rock-label" x1="0.452881" y1="1.00018" x2="0.452881" y2="80.8115" gradientUnits="userSpaceOnUse">
<stop stop-color="#C5B489"/>
<stop offset="1" stop-color="#D7CD90"/>
</linearGradient>
</defs>
</svg>
