<svg width="80" height="118" viewBox="0 0 80 118" fill="none" xmlns="http://www.w3.org/2000/svg">
<rect x="0.169922" y="1.00018" width="79.8113" height="79.8113" rx="39.9057" fill="url(#steel-label)"/>
<path fill-rule="evenodd" clip-rule="evenodd" d="M20.259 42.7465C20.0778 42.4372 20.0777 42.0542 20.2588 41.7448L29.8054 25.434C29.9832 25.1302 30.3087 24.9435 30.6607 24.9435H49.5926C49.9462 24.9435 50.2731 25.132 50.4503 25.4381L59.8922 41.7489C60.07 42.0562 60.0699 42.4352 59.8919 42.7423L50.4503 59.0343C50.2731 59.3402 49.9464 59.5284 49.5929 59.5284H30.6604C30.3086 59.5284 29.9832 59.342 29.8053 59.0384L20.259 42.7465ZM40.0754 51.5473C45.2179 51.5473 49.3867 47.3785 49.3867 42.236C49.3867 37.0935 45.2179 32.9247 40.0754 32.9247C34.9329 32.9247 30.7641 37.0935 30.7641 42.236C30.7641 47.3785 34.9329 51.5473 40.0754 51.5473Z" fill="white"/>
<text fill="#747474" xml:space="preserve" style="white-space: pre" font-family="Roboto" font-size="18" letter-spacing="0em"><tspan x="14" y="113.652">STEEL</tspan></text>
<defs>
<linearGradient id="steel-label" x1="0.169922" y1="1.00018" x2="0.169922" y2="80.8115" gradientUnits="userSpaceOnUse">
<stop stop-color="#52869D"/>
<stop offset="1" stop-color="#58A6AA"/>
</linearGradient>
</defs>
</svg>
