<svg width="80" height="118" viewBox="0 0 80 118" fill="none" xmlns="http://www.w3.org/2000/svg">
<rect x="0.169922" y="1.00018" width="79.8113" height="79.8113" rx="39.9057" fill="url(#steel-label)"/>
<path fill-rule="evenodd" clip-rule="evenodd" d="M20.259 42.7465C20.0778 42.4372 20.0777 42.0542 20.2588 41.7448L29.8054 25.434C29.9832 25.1302 30.3087 24.9435 30.6607 24.9435H49.5926C49.9462 24.9435 50.2731 25.132 50.4503 25.4381L59.8922 41.7489C60.07 42.0562 60.0699 42.4352 59.8919 42.7423L50.4503 59.0343C50.2731 59.3402 49.9464 59.5284 49.5929 59.5284H30.6604C30.3086 59.5284 29.9832 59.342 29.8053 59.0384L20.259 42.7465ZM40.0754 51.5473C45.2179 51.5473 49.3867 47.3785 49.3867 42.236C49.3867 37.0935 45.2179 32.9247 40.0754 32.9247C34.9329 32.9247 30.7641 37.0935 30.7641 42.236C30.7641 47.3785 34.9329 51.5473 40.0754 51.5473Z" fill="white"/>
<path d="M19.2559 108.296C17.8086 107.88 16.7539 107.37 16.0918 106.767C15.4355 106.157 15.1074 105.407 15.1074 104.517C15.1074 103.509 15.5088 102.677 16.3115 102.021C17.1201 101.358 18.1689 101.027 19.458 101.027C20.3369 101.027 21.1191 101.197 21.8047 101.537C22.4961 101.877 23.0293 102.346 23.4043 102.943C23.7852 103.541 23.9756 104.194 23.9756 104.903H22.2793C22.2793 104.13 22.0332 103.523 21.541 103.084C21.0488 102.639 20.3545 102.416 19.458 102.416C18.626 102.416 17.9756 102.601 17.5068 102.97C17.0439 103.333 16.8125 103.84 16.8125 104.49C16.8125 105.012 17.0322 105.454 17.4717 105.817C17.917 106.175 18.6699 106.503 19.7305 106.802C20.7969 107.101 21.6289 107.432 22.2266 107.795C22.8301 108.152 23.2754 108.571 23.5625 109.052C23.8555 109.532 24.002 110.098 24.002 110.748C24.002 111.785 23.5977 112.617 22.7891 113.244C21.9805 113.865 20.8994 114.176 19.5459 114.176C18.667 114.176 17.8467 114.009 17.085 113.675C16.3232 113.335 15.7344 112.872 15.3184 112.286C14.9082 111.7 14.7031 111.035 14.7031 110.291H16.3994C16.3994 111.064 16.6836 111.677 17.252 112.128C17.8262 112.573 18.5908 112.796 19.5459 112.796C20.4365 112.796 21.1191 112.614 21.5938 112.251C22.0684 111.888 22.3057 111.393 22.3057 110.766C22.3057 110.139 22.0859 109.655 21.6465 109.315C21.207 108.97 20.4102 108.63 19.2559 108.296ZM35.0146 102.592H30.9014V114H29.2227V102.592H25.1182V101.203H35.0146V102.592ZM44.1465 108.085H38.6006V112.62H45.043V114H36.9131V101.203H44.9551V102.592H38.6006V106.705H44.1465V108.085ZM54.377 108.085H48.8311V112.62H55.2734V114H47.1436V101.203H55.1855V102.592H48.8311V106.705H54.377V108.085ZM59.0703 112.62H65.1348V114H57.374V101.203H59.0703V112.62Z" fill="#747474"/>
<defs>
<linearGradient id="steel-label" x1="0.169922" y1="1.00018" x2="0.169922" y2="80.8115" gradientUnits="userSpaceOnUse">
<stop stop-color="#52869D"/>
<stop offset="1" stop-color="#58A6AA"/>
</linearGradient>
</defs>
</svg>
