<svg width="81" height="118" viewBox="0 0 81 118" fill="none" xmlns="http://www.w3.org/2000/svg">
<rect x="0.886719" y="1.00018" width="79.8113" height="79.8113" rx="39.9057" fill="url(#water-label)"/>
<path fill-rule="evenodd" clip-rule="evenodd" d="M55 48.858C55 56.533 48.732 62.7548 41 62.7548C33.268 62.7548 27 56.533 27 48.858C27 41.3934 40.2427 20.8927 40.969 19.774C40.9856 19.7484 41.0145 19.7484 41.031 19.774C41.7573 20.8927 55 41.3934 55 48.858ZM38.6662 58.2996C31.562 56.7508 32.7777 48.9096 32.7777 48.9096C32.7777 48.9096 34.7176 53.643 39.4253 55.1763C44.1329 56.7095 49.8221 54.4608 49.8221 54.4608C49.8221 54.4608 45.7705 59.8483 38.6662 58.2996Z" fill="white"/>
<path d="M15.2451 109.966L15.4912 111.653L15.8516 110.133L18.3828 101.203H19.8066L22.2764 110.133L22.6279 111.68L22.9004 109.957L24.8867 101.203H26.583L23.4805 114H21.9424L19.3057 104.675L19.1035 103.699L18.9014 104.675L16.168 114H14.6299L11.5361 101.203H13.2236L15.2451 109.966ZM35.1436 110.66H29.7822L28.5781 114H26.8379L31.7246 101.203H33.2012L38.0967 114H36.3652L35.1436 110.66ZM30.292 109.271H34.6426L32.4629 103.286L30.292 109.271ZM47.5186 102.592H43.4053V114H41.7266V102.592H37.6221V101.203H47.5186V102.592ZM56.6504 108.085H51.1045V112.62H57.5469V114H49.417V101.203H57.459V102.592H51.1045V106.705H56.6504V108.085ZM64.3408 108.823H61.335V114H59.6387V101.203H63.875C65.3164 101.203 66.4238 101.531 67.1973 102.188C67.9766 102.844 68.3662 103.799 68.3662 105.053C68.3662 105.85 68.1494 106.544 67.7158 107.136C67.2881 107.728 66.6904 108.17 65.9229 108.463L68.9287 113.895V114H67.1182L64.3408 108.823ZM61.335 107.443H63.9277C64.7656 107.443 65.4307 107.227 65.9229 106.793C66.4209 106.359 66.6699 105.779 66.6699 105.053C66.6699 104.262 66.4326 103.655 65.958 103.233C65.4893 102.812 64.8096 102.598 63.9189 102.592H61.335V107.443Z" fill="#747474"/>
<defs>
<linearGradient id="water-label" x1="0.886719" y1="1.00018" x2="0.886719" y2="80.8115" gradientUnits="userSpaceOnUse">
<stop stop-color="#4A90DD"/>
<stop offset="1" stop-color="#6CBDE4"/>
</linearGradient>
</defs>
</svg>
