<svg width="81" height="118" viewBox="0 0 81 118" fill="none" xmlns="http://www.w3.org/2000/svg">
<rect x="0.886719" y="1.00018" width="79.8113" height="79.8113" rx="39.9057" fill="url(#water-label)"/>
<path fill-rule="evenodd" clip-rule="evenodd" d="M55 48.858C55 56.533 48.732 62.7548 41 62.7548C33.268 62.7548 27 56.533 27 48.858C27 41.3934 40.2427 20.8927 40.969 19.774C40.9856 19.7484 41.0145 19.7484 41.031 19.774C41.7573 20.8927 55 41.3934 55 48.858ZM38.6662 58.2996C31.562 56.7508 32.7777 48.9096 32.7777 48.9096C32.7777 48.9096 34.7176 53.643 39.4253 55.1763C44.1329 56.7095 49.8221 54.4608 49.8221 54.4608C49.8221 54.4608 45.7705 59.8483 38.6662 58.2996Z" fill="white"/>
<text fill="#747474" xml:space="preserve" style="white-space: pre" font-family="Roboto" font-size="18" letter-spacing="0em"><tspan x="11" y="113.652">WATER</tspan></text>
<defs>
<linearGradient id="water-label" x1="0.886719" y1="1.00018" x2="0.886719" y2="80.8115" gradientUnits="userSpaceOnUse">
<stop stop-color="#4A90DD"/>
<stop offset="1" stop-color="#6CBDE4"/>
</linearGradient>
</defs>
</svg>
