<svg width="107" height="127" viewBox="0 0 107 127" fill="none" xmlns="http://www.w3.org/2000/svg">
<path d="M36.4854 123V110.203H40.6689C42.0576 110.203 43.1006 110.49 43.7979 111.064C44.501 111.639 44.8525 112.488 44.8525 113.613C44.8525 114.211 44.6826 114.741 44.3428 115.204C44.0029 115.661 43.54 116.016 42.9541 116.268C43.6455 116.461 44.1904 116.83 44.5889 117.375C44.9932 117.914 45.1953 118.559 45.1953 119.309C45.1953 120.457 44.8232 121.359 44.0791 122.016C43.335 122.672 42.2832 123 40.9238 123H36.4854ZM38.1729 117.015V121.62H40.959C41.7441 121.62 42.3623 121.418 42.8135 121.014C43.2705 120.604 43.499 120.041 43.499 119.326C43.499 117.785 42.6611 117.015 40.9854 117.015H38.1729ZM38.1729 115.661H40.7217C41.46 115.661 42.0488 115.477 42.4883 115.107C42.9336 114.738 43.1562 114.237 43.1562 113.604C43.1562 112.901 42.9512 112.392 42.541 112.075C42.1309 111.753 41.5068 111.592 40.6689 111.592H38.1729V115.661ZM56.709 110.203V118.904C56.7031 120.111 56.3223 121.099 55.5664 121.866C54.8164 122.634 53.7969 123.064 52.5078 123.158L52.0596 123.176C50.6592 123.176 49.543 122.798 48.7109 122.042C47.8789 121.286 47.457 120.246 47.4453 118.922V110.203H49.1152V118.869C49.1152 119.795 49.3701 120.516 49.8799 121.031C50.3896 121.541 51.1162 121.796 52.0596 121.796C53.0146 121.796 53.7441 121.541 54.248 121.031C54.7578 120.521 55.0127 119.804 55.0127 118.878V110.203H56.709ZM68.8203 121.321C68.3867 121.942 67.7803 122.408 67.001 122.719C66.2275 123.023 65.3252 123.176 64.2939 123.176C63.251 123.176 62.3252 122.933 61.5166 122.446C60.708 121.954 60.0811 121.257 59.6357 120.354C59.1963 119.452 58.9707 118.406 58.959 117.217V116.101C58.959 114.173 59.4072 112.679 60.3037 111.618C61.2061 110.558 62.4717 110.027 64.1006 110.027C65.4365 110.027 66.5117 110.37 67.3262 111.056C68.1406 111.735 68.6387 112.702 68.8203 113.956H67.1328C66.8164 112.263 65.8086 111.416 64.1094 111.416C62.9785 111.416 62.1201 111.814 61.5342 112.611C60.9541 113.402 60.6611 114.551 60.6553 116.057V117.103C60.6553 118.538 60.9834 119.681 61.6396 120.53C62.2959 121.374 63.1836 121.796 64.3027 121.796C64.9355 121.796 65.4893 121.726 65.9639 121.585C66.4385 121.444 66.8311 121.207 67.1416 120.873V117.999H64.1797V116.628H68.8203V121.321Z" fill="#747474"/>
<rect x="13.3019" y="13.3019" width="79.8113" height="79.8113" rx="39.9057" fill="url(#paint0_linear)"/>
<path fill-rule="evenodd" clip-rule="evenodd" d="M59.4721 32.7785C60.1041 31.8759 61.3481 31.6566 62.2507 32.2886C63.1533 32.9206 63.3726 34.1646 62.7406 35.0672L59.507 39.6852C61.6073 40.3563 63.0382 41.08 63.0382 41.08C63.0382 41.08 59.5405 47.0964 53.608 47.0964C47.6756 47.0964 43.4601 41.489 43.4601 41.489C43.4601 41.489 44.9549 40.5351 47.1707 39.7169L43.6498 35.5208C42.9415 34.6768 43.0516 33.4184 43.8957 32.7101C44.7397 32.0019 45.9981 32.112 46.7064 32.956L51.2101 38.3233C51.2995 38.4299 51.3759 38.5431 51.4394 38.661C51.9689 38.5994 52.5088 38.5648 53.0538 38.5648C53.8185 38.5648 54.5822 38.6233 55.3275 38.7226C55.3649 38.6528 55.4068 38.5844 55.4534 38.5179L59.4721 32.7785ZM61.7325 47.3814C63.3157 46.2508 65.7112 43.2997 65.7112 43.2997C65.7112 43.2997 71.8302 48.1486 71.8302 58.4303C71.8302 68.712 61.2514 74.9001 61.2514 74.9001C61.2514 74.9001 56.1971 69.7957 54.9563 63.3252C53.7155 56.8546 56.7917 49.6698 56.7917 49.6698C56.7917 49.6698 60.1494 48.5121 61.7325 47.3814ZM44.6826 47.3814C43.0994 46.2508 40.7039 43.2997 40.7039 43.2997C40.7039 43.2997 34.5848 48.1487 34.5848 58.4303C34.5848 68.712 45.1636 74.9001 45.1636 74.9001C45.1636 74.9001 50.218 69.7957 51.4588 63.3252C52.6996 56.8546 49.6234 49.6698 49.6234 49.6698C49.6234 49.6698 46.2657 48.5121 44.6826 47.3814Z" fill="white"/>
<defs>
<linearGradient id="paint0_linear" x1="13.3019" y1="13.3019" x2="13.3019" y2="93.1132" gradientUnits="userSpaceOnUse">
<stop stop-color="#92BC2C"/>
<stop offset="1" stop-color="#AFC836"/>
</linearGradient>
</defs>
</svg>
