<svg width="108" height="127" viewBox="0 0 108 127" fill="none" xmlns="http://www.w3.org/2000/svg">
<rect x="14.0188" y="13.3019" width="79.8113" height="79.8113" rx="39.9057" fill="url(#paint0_linear)"/>
<path fill-rule="evenodd" clip-rule="evenodd" d="M51.9471 68.1902C52.707 68.3066 53.4853 68.3669 54.2778 68.3669C62.7155 68.3669 69.5555 61.5268 69.5555 53.0892C69.5555 44.6514 62.7155 37.8113 54.2778 37.8113C53.7117 37.8113 53.1527 37.8421 52.6026 37.9021C56.7882 41.0731 59.5555 46.5662 59.5555 52.8113C59.5555 59.377 56.4969 65.1113 51.9471 68.1902ZM54 72.8113C65.0457 72.8113 74 63.857 74 52.8113C74 41.7656 65.0457 32.8113 54 32.8113C42.9543 32.8113 34 41.7656 34 52.8113C34 63.857 42.9543 72.8113 54 72.8113Z" fill="white"/>
<path d="M32.4854 123V110.203H36.0977C37.2109 110.203 38.1953 110.449 39.0508 110.941C39.9062 111.434 40.5654 112.134 41.0283 113.042C41.4971 113.95 41.7344 114.993 41.7402 116.171V116.988C41.7402 118.195 41.5059 119.253 41.0371 120.161C40.5742 121.069 39.9092 121.767 39.042 122.253C38.1807 122.739 37.1758 122.988 36.0273 123H32.4854ZM34.1729 111.592V121.62H35.9482C37.249 121.62 38.2598 121.216 38.9805 120.407C39.707 119.599 40.0703 118.447 40.0703 116.953V116.206C40.0703 114.753 39.7275 113.625 39.042 112.822C38.3623 112.014 37.3955 111.604 36.1416 111.592H34.1729ZM51.1709 119.66H45.8096L44.6055 123H42.8652L47.752 110.203H49.2285L54.124 123H52.3926L51.1709 119.66ZM46.3193 118.271H50.6699L48.4902 112.286L46.3193 118.271ZM60.54 117.823H57.5342V123H55.8379V110.203H60.0742C61.5156 110.203 62.623 110.531 63.3965 111.188C64.1758 111.844 64.5654 112.799 64.5654 114.053C64.5654 114.85 64.3486 115.544 63.915 116.136C63.4873 116.728 62.8896 117.17 62.1221 117.463L65.1279 122.895V123H63.3174L60.54 117.823ZM57.5342 116.443H60.127C60.9648 116.443 61.6299 116.227 62.1221 115.793C62.6201 115.359 62.8691 114.779 62.8691 114.053C62.8691 113.262 62.6318 112.655 62.1572 112.233C61.6885 111.812 61.0088 111.598 60.1182 111.592H57.5342V116.443ZM70.1904 117.05L68.626 118.676V123H66.9385V110.203H68.626V116.531L74.3125 110.203H76.3516L71.3154 115.854L76.7471 123H74.7256L70.1904 117.05Z" fill="#747474"/>
<defs>
<linearGradient id="paint0_linear" x1="14.5333" y1="13.3019" x2="14.5333" y2="92.0842" gradientUnits="userSpaceOnUse">
<stop stop-color="#595761"/>
<stop offset="1" stop-color="#6E7587"/>
</linearGradient>
</defs>
</svg>
