<svg width="107" height="127" viewBox="0 0 107 127" fill="none" xmlns="http://www.w3.org/2000/svg">
<path d="M18.4854 123V110.203H22.0977C23.2109 110.203 24.1953 110.449 25.0508 110.941C25.9062 111.434 26.5654 112.134 27.0283 113.042C27.4971 113.95 27.7344 114.993 27.7402 116.171V116.988C27.7402 118.195 27.5059 119.253 27.0371 120.161C26.5742 121.069 25.9092 121.767 25.042 122.253C24.1807 122.739 23.1758 122.988 22.0273 123H18.4854ZM20.1729 111.592V121.62H21.9482C23.249 121.62 24.2598 121.216 24.9805 120.407C25.707 119.599 26.0703 118.447 26.0703 116.953V116.206C26.0703 114.753 25.7275 113.625 25.042 112.822C24.3623 112.014 23.3955 111.604 22.1416 111.592H20.1729ZM34.9912 117.823H31.9854V123H30.2891V110.203H34.5254C35.9668 110.203 37.0742 110.531 37.8477 111.188C38.627 111.844 39.0166 112.799 39.0166 114.053C39.0166 114.85 38.7998 115.544 38.3662 116.136C37.9385 116.728 37.3408 117.17 36.5732 117.463L39.5791 122.895V123H37.7686L34.9912 117.823ZM31.9854 116.443H34.5781C35.416 116.443 36.0811 116.227 36.5732 115.793C37.0713 115.359 37.3203 114.779 37.3203 114.053C37.3203 113.262 37.083 112.655 36.6084 112.233C36.1396 111.812 35.46 111.598 34.5693 111.592H31.9854V116.443ZM48.4561 119.66H43.0947L41.8906 123H40.1504L45.0371 110.203H46.5137L51.4092 123H49.6777L48.4561 119.66ZM43.6045 118.271H47.9551L45.7754 112.286L43.6045 118.271ZM62.4746 121.321C62.041 121.942 61.4346 122.408 60.6553 122.719C59.8818 123.023 58.9795 123.176 57.9482 123.176C56.9053 123.176 55.9795 122.933 55.1709 122.446C54.3623 121.954 53.7354 121.257 53.29 120.354C52.8506 119.452 52.625 118.406 52.6133 117.217V116.101C52.6133 114.173 53.0615 112.679 53.958 111.618C54.8604 110.558 56.126 110.027 57.7549 110.027C59.0908 110.027 60.166 110.37 60.9805 111.056C61.7949 111.735 62.293 112.702 62.4746 113.956H60.7871C60.4707 112.263 59.4629 111.416 57.7637 111.416C56.6328 111.416 55.7744 111.814 55.1885 112.611C54.6084 113.402 54.3154 114.551 54.3096 116.057V117.103C54.3096 118.538 54.6377 119.681 55.2939 120.53C55.9502 121.374 56.8379 121.796 57.957 121.796C58.5898 121.796 59.1436 121.726 59.6182 121.585C60.0928 121.444 60.4854 121.207 60.7959 120.873V117.999H57.834V116.628H62.4746V121.321ZM75.1396 117.015C75.1396 118.269 74.9287 119.364 74.5068 120.302C74.085 121.233 73.4873 121.945 72.7139 122.438C71.9404 122.93 71.0381 123.176 70.0068 123.176C68.999 123.176 68.1055 122.93 67.3262 122.438C66.5469 121.939 65.9404 121.233 65.5068 120.319C65.0791 119.399 64.8594 118.336 64.8477 117.129V116.206C64.8477 114.976 65.0615 113.889 65.4893 112.945C65.917 112.002 66.5205 111.281 67.2998 110.783C68.085 110.279 68.9814 110.027 69.9893 110.027C71.0146 110.027 71.917 110.276 72.6963 110.774C73.4814 111.267 74.085 111.984 74.5068 112.928C74.9287 113.865 75.1396 114.958 75.1396 116.206V117.015ZM73.4609 116.188C73.4609 114.671 73.1562 113.508 72.5469 112.699C71.9375 111.885 71.085 111.478 69.9893 111.478C68.9229 111.478 68.082 111.885 67.4668 112.699C66.8574 113.508 66.5439 114.633 66.5264 116.074V117.015C66.5264 118.485 66.834 119.643 67.4492 120.486C68.0703 121.324 68.9229 121.743 70.0068 121.743C71.0967 121.743 71.9404 121.348 72.5381 120.557C73.1357 119.76 73.4434 118.62 73.4609 117.138V116.188ZM87.5059 123H85.8096L79.3672 113.139V123H77.6709V110.203H79.3672L85.8271 120.108V110.203H87.5059V123Z" fill="#747474"/>
<rect x="13.7358" y="13.3019" width="79.8113" height="79.8113" rx="39.9057" fill="url(#paint0_linear)"/>
<path fill-rule="evenodd" clip-rule="evenodd" d="M55.7178 53.1147C56.0062 52.9388 56.2509 52.5702 56.4483 52.1606C59.0457 53.2225 60.8708 55.731 60.8708 58.6564C60.8708 62.5431 57.6493 65.6939 53.6753 65.6939C52.0441 65.6939 50.5396 65.163 49.3327 64.2682C48.9368 64.0807 48.6111 63.9007 48.3446 63.7533L48.3445 63.7533C47.9311 63.5247 47.66 63.3748 47.4902 63.3982C46.9939 63.4667 47.1381 63.9233 47.269 64.338C47.3579 64.6198 47.4407 64.8823 47.3125 64.9905C47.1783 65.1039 46.7436 64.6895 46.2358 64.2052C45.5444 63.5461 44.7174 62.7575 44.3274 62.9944C44.019 63.1817 44.3184 63.6898 44.6848 64.3116L44.712 64.3577C44.8669 64.6207 45.0463 64.8883 45.21 65.1326C45.5427 65.629 45.8108 66.029 45.6766 66.0967C45.5146 66.1786 44.3851 65.4162 43.4332 64.3577C43.0658 63.9492 42.7099 63.5064 42.3793 63.095C41.6554 62.1943 41.0523 61.4439 40.7138 61.5328C40.3066 61.6398 40.6147 62.4798 41.0673 63.2881C41.279 63.6662 41.528 64.0511 41.7436 64.3844C42.0789 64.9027 42.3333 65.2961 42.241 65.3444C42.1165 65.4095 41.0207 64.341 40.2764 62.9944C39.8343 62.1945 39.4631 61.3106 39.1626 60.595C38.8367 59.819 38.5939 59.2409 38.4341 59.1827C37.8787 58.9806 37.8787 60.113 38.1014 61.7475C38.1304 61.9599 38.1734 62.1827 38.2264 62.4095C40.3859 69.4003 47.0226 74.4906 54.8748 74.4906C64.4785 74.4906 72.2638 66.8762 72.2638 57.4834C72.2638 48.5438 65.2115 41.2151 56.2514 40.5288C56.2627 40.1076 56.4825 39.2726 56.4825 39.2726C56.4825 39.2726 58.0643 35.4453 58.1479 34.6275C58.1535 34.5733 58.16 34.5144 58.167 34.4517L58.1671 34.4514C58.2656 33.5677 58.4489 31.9247 57.0354 31.9247C56.2806 31.9247 55.9295 32.4862 55.528 33.1285C55.3739 33.3751 55.2123 33.6335 55.0176 33.8767C53.6153 35.6279 51.2572 37.8148 49.9201 38.9799C47.0939 41.4426 44.3211 43.4664 42.704 44.6468L42.7039 44.6468C41.9684 45.1837 41.472 45.5461 41.3184 45.6958C40.1606 46.8245 36.0094 54.3123 36.0094 54.3123C36.0094 54.3123 34.6669 56.7146 35.1441 57.2018C35.6212 57.689 36.7719 57.5774 36.7719 57.5774C36.7719 57.5774 52.2304 54.031 53.6144 53.7513C53.987 53.676 54.2501 53.6326 54.4521 53.5992C55.0003 53.5086 55.0988 53.4924 55.7178 53.1147ZM44.7879 48.5574C43.9582 49.3461 42.582 51.2288 42.582 51.2288C42.582 51.2288 45.1396 51.3863 46.5482 50.0474C47.9569 48.7084 47.6341 46.4265 47.6341 46.4265C47.6341 46.4265 45.6177 47.7687 44.7879 48.5574Z" fill="white"/>
<defs>
<linearGradient id="paint0_linear" x1="14.2503" y1="13.3019" x2="14.2503" y2="92.0842" gradientUnits="userSpaceOnUse">
<stop stop-color="#0C69C8"/>
<stop offset="1" stop-color="#0180C7"/>
</linearGradient>
</defs>
</svg>
