<svg width="107" height="127" viewBox="0 0 107 127" fill="none" xmlns="http://www.w3.org/2000/svg">
<path d="M21.7188 117.085H16.1729V121.62H22.6152V123H14.4854V110.203H22.5273V111.592H16.1729V115.705H21.7188V117.085ZM26.4121 121.62H32.4766V123H24.7158V110.203H26.4121V121.62ZM41.6348 117.085H36.0889V121.62H42.5312V123H34.4014V110.203H42.4434V111.592H36.0889V115.705H41.6348V117.085ZM54.0449 118.939C53.8867 120.293 53.3857 121.339 52.542 122.077C51.7041 122.81 50.5879 123.176 49.1934 123.176C47.6816 123.176 46.4688 122.634 45.5547 121.55C44.6465 120.466 44.1924 119.016 44.1924 117.199V115.969C44.1924 114.779 44.4033 113.733 44.8252 112.831C45.2529 111.929 45.8564 111.237 46.6357 110.757C47.415 110.271 48.3174 110.027 49.3428 110.027C50.7021 110.027 51.792 110.408 52.6123 111.17C53.4326 111.926 53.9102 112.975 54.0449 114.316H52.3486C52.2021 113.297 51.8828 112.559 51.3906 112.102C50.9043 111.645 50.2217 111.416 49.3428 111.416C48.2646 111.416 47.418 111.814 46.8027 112.611C46.1934 113.408 45.8887 114.542 45.8887 116.013V117.252C45.8887 118.641 46.1787 119.745 46.7588 120.565C47.3389 121.386 48.1504 121.796 49.1934 121.796C50.1309 121.796 50.8486 121.585 51.3467 121.163C51.8506 120.735 52.1846 119.994 52.3486 118.939H54.0449ZM64.9346 111.592H60.8213V123H59.1426V111.592H55.0381V110.203H64.9346V111.592ZM71.5264 117.823H68.5205V123H66.8242V110.203H71.0605C72.502 110.203 73.6094 110.531 74.3828 111.188C75.1621 111.844 75.5518 112.799 75.5518 114.053C75.5518 114.85 75.335 115.544 74.9014 116.136C74.4736 116.728 73.876 117.17 73.1084 117.463L76.1143 122.895V123H74.3037L71.5264 117.823ZM68.5205 116.443H71.1133C71.9512 116.443 72.6162 116.227 73.1084 115.793C73.6064 115.359 73.8555 114.779 73.8555 114.053C73.8555 113.262 73.6182 112.655 73.1436 112.233C72.6748 111.812 71.9951 111.598 71.1045 111.592H68.5205V116.443ZM79.7354 123H78.0479V110.203H79.7354V123ZM92.2422 118.939C92.084 120.293 91.583 121.339 90.7393 122.077C89.9014 122.81 88.7852 123.176 87.3906 123.176C85.8789 123.176 84.666 122.634 83.752 121.55C82.8438 120.466 82.3896 119.016 82.3896 117.199V115.969C82.3896 114.779 82.6006 113.733 83.0225 112.831C83.4502 111.929 84.0537 111.237 84.833 110.757C85.6123 110.271 86.5146 110.027 87.54 110.027C88.8994 110.027 89.9893 110.408 90.8096 111.17C91.6299 111.926 92.1074 112.975 92.2422 114.316H90.5459C90.3994 113.297 90.0801 112.559 89.5879 112.102C89.1016 111.645 88.4189 111.416 87.54 111.416C86.4619 111.416 85.6152 111.814 85 112.611C84.3906 113.408 84.0859 114.542 84.0859 116.013V117.252C84.0859 118.641 84.376 119.745 84.9561 120.565C85.5361 121.386 86.3477 121.796 87.3906 121.796C88.3281 121.796 89.0459 121.585 89.5439 121.163C90.0479 120.735 90.3818 119.994 90.5459 118.939H92.2422Z" fill="#747474"/>
<rect x="13.4529" y="13.3019" width="79.8113" height="79.8113" rx="39.9057" fill="url(#paint0_linear)"/>
<path fill-rule="evenodd" clip-rule="evenodd" d="M45.2794 38.7982C45.0164 38.0381 45.5809 37.2454 46.3852 37.2454H58.9081C59.4211 37.2454 59.8743 37.5795 60.0259 38.0696L66.1912 57.9884C66.4242 58.7413 65.8614 59.5045 65.0734 59.5045H57.4079C57.0196 59.5045 56.739 59.8759 56.8452 60.2495L60.684 73.763C61.0383 75.0102 59.4025 75.8223 58.6232 74.786L41.4653 51.9686C40.8854 51.1975 41.4356 50.0953 42.4006 50.0953H48.3672C48.7693 50.0953 49.0516 49.6989 48.9201 49.3189L45.2794 38.7982Z" fill="white"/>
<defs>
<linearGradient id="paint0_linear" x1="13.9674" y1="13.3019" x2="13.9674" y2="92.0842" gradientUnits="userSpaceOnUse">
<stop stop-color="#EDD53E"/>
<stop offset="1" stop-color="#FBE273"/>
</linearGradient>
</defs>
</svg>
