<svg width="108" height="127" viewBox="0 0 108 127" fill="none" xmlns="http://www.w3.org/2000/svg">
<path d="M39.543 117.349H34.1729V123H32.4854V110.203H40.4131V111.592H34.1729V115.969H39.543V117.349ZM48.0068 119.66H42.6455L41.4414 123H39.7012L44.5879 110.203H46.0645L50.96 123H49.2285L48.0068 119.66ZM43.1553 118.271H47.5059L45.3262 112.286L43.1553 118.271ZM54.4932 123H52.8057V110.203H54.4932V123ZM62.2803 117.823H59.2744V123H57.5781V110.203H61.8145C63.2559 110.203 64.3633 110.531 65.1367 111.188C65.916 111.844 66.3057 112.799 66.3057 114.053C66.3057 114.85 66.0889 115.544 65.6553 116.136C65.2275 116.728 64.6299 117.17 63.8623 117.463L66.8682 122.895V123H65.0576L62.2803 117.823ZM59.2744 116.443H61.8672C62.7051 116.443 63.3701 116.227 63.8623 115.793C64.3604 115.359 64.6094 114.779 64.6094 114.053C64.6094 113.262 64.3721 112.655 63.8975 112.233C63.4287 111.812 62.749 111.598 61.8584 111.592H59.2744V116.443ZM72.1592 116.628L75.499 110.203H77.415L73.0029 118.228V123H71.3154V118.228L66.9033 110.203H68.8369L72.1592 116.628Z" fill="#747474"/>
<rect x="14.1699" y="13.3019" width="79.8113" height="79.8113" rx="39.9057" fill="url(#paint0_linear)"/>
<path fill-rule="evenodd" clip-rule="evenodd" d="M42.8226 65.0465L48.3419 63.4461L53.5093 72.8942C53.7541 73.3418 54.3969 73.3418 54.6417 72.8942L59.8091 63.446L65.3287 65.0465C65.8187 65.1886 66.2721 64.7328 66.1273 64.2435L64.5326 58.8532L73.6925 53.8435C74.1401 53.5987 74.1401 52.9558 73.6925 52.711L64.4488 47.6555L66.1273 41.9821C66.2721 41.4929 65.8187 41.037 65.3287 41.1791L59.6539 42.8246L54.6417 33.6602C54.3969 33.2126 53.7541 33.2126 53.5093 33.6602L48.4972 42.8245L42.8226 41.1791C42.3326 41.037 41.8792 41.4929 42.024 41.9821L43.7024 47.6553L34.4585 52.711C34.0109 52.9558 34.0109 53.5987 34.4585 53.8435L43.6187 58.8533L42.024 64.2435C41.8792 64.7328 42.3326 65.1886 42.8226 65.0465ZM47.8635 53.8977L51.5483 55.913L53.5636 59.5979C53.8084 60.0455 54.4513 60.0455 54.6961 59.5979L56.7114 55.913L60.3962 53.8977C60.8438 53.6529 60.8438 53.0101 60.3962 52.7653L56.7114 50.75L54.6961 47.0651C54.4513 46.6175 53.8084 46.6175 53.5636 47.0651L51.5483 50.75L47.8635 52.7653C47.4159 53.0101 47.4159 53.6529 47.8635 53.8977Z" fill="white"/>
<defs>
<linearGradient id="paint0_linear" x1="14.825" y1="13.3019" x2="14.825" y2="91.8031" gradientUnits="userSpaceOnUse">
<stop stop-color="#EC8CE5"/>
<stop offset="1" stop-color="#F3A7E7"/>
</linearGradient>
</defs>
</svg>
