<svg width="107" height="127" viewBox="0 0 107 127" fill="none" xmlns="http://www.w3.org/2000/svg">
<rect x="13.8867" y="13.3019" width="79.8113" height="79.8113" rx="39.9057" fill="url(#paint0_linear)"/>
<path fill-rule="evenodd" clip-rule="evenodd" d="M40.7216 37.9029C41.2044 35.996 42.9319 34.585 44.9889 34.585C46.5382 34.585 47.9005 35.3854 48.6849 36.5952C48.8059 36.5852 48.9283 36.5801 49.0519 36.5801C49.3375 36.5801 49.6168 36.6074 49.8872 36.6593C50.6911 35.7925 51.8398 35.2501 53.1153 35.2501C54.9277 35.2501 56.4844 36.3455 57.1591 37.9105L57.1782 37.9104C57.4912 37.9104 57.7966 37.9431 58.0911 38.0052C58.796 37.5257 59.6473 37.2454 60.5641 37.2454C62.4668 37.2454 64.0875 38.4527 64.7021 40.143C65.0357 40.2574 65.3511 40.4108 65.6431 40.5977C66.3273 40.1597 67.1406 39.9058 68.0133 39.9058C70.4443 39.9058 72.415 41.8765 72.415 44.3075V57.7453C72.415 57.8264 72.4128 57.9072 72.4083 57.9876C72.1425 67.1431 63.9096 74.4906 53.7923 74.4906C43.5073 74.4906 35.1697 66.8974 35.1697 57.5307C35.1697 53.0094 37.1123 48.9014 40.2789 45.8611C40.271 50.2689 40.3454 54.8259 40.6886 54.7477C41.6076 54.5382 40.8896 40.8865 40.7216 37.9029Z" fill="white"/>
<path d="M21.543 117.349H16.1729V123H14.4854V110.203H22.4131V111.592H16.1729V115.969H21.543V117.349ZM26.2451 123H24.5576V110.203H26.2451V123ZM38.7871 121.321C38.3535 121.942 37.7471 122.408 36.9678 122.719C36.1943 123.023 35.292 123.176 34.2607 123.176C33.2178 123.176 32.292 122.933 31.4834 122.446C30.6748 121.954 30.0479 121.257 29.6025 120.354C29.1631 119.452 28.9375 118.406 28.9258 117.217V116.101C28.9258 114.173 29.374 112.679 30.2705 111.618C31.1729 110.558 32.4385 110.027 34.0674 110.027C35.4033 110.027 36.4785 110.37 37.293 111.056C38.1074 111.735 38.6055 112.702 38.7871 113.956H37.0996C36.7832 112.263 35.7754 111.416 34.0762 111.416C32.9453 111.416 32.0869 111.814 31.501 112.611C30.9209 113.402 30.6279 114.551 30.6221 116.057V117.103C30.6221 118.538 30.9502 119.681 31.6064 120.53C32.2627 121.374 33.1504 121.796 34.2695 121.796C34.9023 121.796 35.4561 121.726 35.9307 121.585C36.4053 121.444 36.7979 121.207 37.1084 120.873V117.999H34.1465V116.628H38.7871V121.321ZM51.4434 123H49.7471V117.085H43.2959V123H41.6084V110.203H43.2959V115.705H49.7471V110.203H51.4434V123ZM63.0186 111.592H58.9053V123H57.2266V111.592H53.1221V110.203H63.0186V111.592ZM66.7275 123H65.04V110.203H66.7275V123ZM79.6562 123H77.96L71.5176 113.139V123H69.8213V110.203H71.5176L77.9775 120.108V110.203H79.6562V123ZM92.1016 121.321C91.668 121.942 91.0615 122.408 90.2822 122.719C89.5088 123.023 88.6064 123.176 87.5752 123.176C86.5322 123.176 85.6064 122.933 84.7979 122.446C83.9893 121.954 83.3623 121.257 82.917 120.354C82.4775 119.452 82.252 118.406 82.2402 117.217V116.101C82.2402 114.173 82.6885 112.679 83.585 111.618C84.4873 110.558 85.7529 110.027 87.3818 110.027C88.7178 110.027 89.793 110.37 90.6074 111.056C91.4219 111.735 91.9199 112.702 92.1016 113.956H90.4141C90.0977 112.263 89.0898 111.416 87.3906 111.416C86.2598 111.416 85.4014 111.814 84.8154 112.611C84.2354 113.402 83.9424 114.551 83.9365 116.057V117.103C83.9365 118.538 84.2646 119.681 84.9209 120.53C85.5771 121.374 86.4648 121.796 87.584 121.796C88.2168 121.796 88.7705 121.726 89.2451 121.585C89.7197 121.444 90.1123 121.207 90.4229 120.873V117.999H87.4609V116.628H92.1016V121.321Z" fill="#747474"/>
<defs>
<linearGradient id="paint0_linear" x1="14.4012" y1="13.3019" x2="14.4012" y2="92.0842" gradientUnits="userSpaceOnUse">
<stop stop-color="#CE4265"/>
<stop offset="1" stop-color="#E74347"/>
</linearGradient>
</defs>
</svg>
