<svg width="107" height="128" viewBox="0 0 107 128" fill="none" xmlns="http://www.w3.org/2000/svg">
<rect x="13.3019" y="13.6794" width="79.8113" height="79.8113" rx="39.9057" fill="url(#paint0_linear)"/>
<path fill-rule="evenodd" clip-rule="evenodd" d="M59.8208 65.3971C60.3078 63.6166 59.3626 59.9563 59.3626 59.9563C59.3626 59.9563 58.6771 62.9382 57.6059 64.0403C56.6918 64.9807 55.5718 65.6328 53.9652 65.8039C55.2783 65.1663 56.1814 63.8367 56.1814 62.2996C56.1814 60.1424 54.4024 58.3936 52.2079 58.3936C50.0134 58.3936 48.2343 60.1424 48.2343 62.2996C48.2343 62.8884 48.3668 63.4467 48.6041 63.9473C47.233 62.8538 47.0173 61.102 47.0173 61.102C47.0173 61.102 45.4847 67.4653 49.7078 70.4587C53.931 73.452 62.204 70.8791 62.204 70.8791C62.204 70.8791 50.3648 79.2094 41.5919 70.1429C34.0347 62.3328 39.6195 52.0506 39.6195 52.0506C39.6195 52.0506 39.3783 53.0044 39.3783 54.1117C39.3783 55.219 39.9786 56.0614 39.9786 56.0614C39.9786 56.0614 41.7694 52.2868 43.1631 50.7517C44.4821 49.2989 46.1356 48.1206 47.5637 47.1028C48.663 46.3194 49.6289 45.6311 50.2058 44.986C53.383 41.4334 51.4348 34.9623 51.4348 34.9623C51.4348 34.9623 55.0164 38.1198 56.0163 42.1976C56.3974 43.7521 56.1522 45.5207 55.933 47.1023C55.577 49.6698 55.2894 51.7444 57.8607 51.6098C62.0158 51.3922 58.4052 44.986 58.4052 44.986C58.4052 44.986 67.8307 49.94 67.1265 58.6043C66.4223 67.2685 56.8239 69.2383 56.8239 69.2383C56.8239 69.2383 59.3339 67.1776 59.8208 65.3971Z" fill="white"/>
<path d="M43.543 118.349H38.1729V124H36.4854V111.203H44.4131V112.592H38.1729V116.969H43.543V118.349ZM48.2451 124H46.5576V111.203H48.2451V124ZM56.0322 118.823H53.0264V124H51.3301V111.203H55.5664C57.0078 111.203 58.1152 111.531 58.8887 112.188C59.668 112.844 60.0576 113.799 60.0576 115.053C60.0576 115.85 59.8408 116.544 59.4072 117.136C58.9795 117.728 58.3818 118.17 57.6143 118.463L60.6201 123.895V124H58.8096L56.0322 118.823ZM53.0264 117.443H55.6191C56.457 117.443 57.1221 117.227 57.6143 116.793C58.1123 116.359 58.3613 115.779 58.3613 115.053C58.3613 114.262 58.124 113.655 57.6494 113.233C57.1807 112.812 56.501 112.598 55.6104 112.592H53.0264V117.443ZM69.6641 118.085H64.1182V122.62H70.5605V124H62.4307V111.203H70.4727V112.592H64.1182V116.705H69.6641V118.085Z" fill="#747474"/>
<defs>
<linearGradient id="paint0_linear" x1="13.3019" y1="13.6794" x2="13.3019" y2="93.4907" gradientUnits="userSpaceOnUse">
<stop stop-color="#FB9B51"/>
<stop offset="1" stop-color="#FBAE46"/>
</linearGradient>
</defs>
</svg>
