<svg width="108" height="128" viewBox="0 0 108 128" fill="none" xmlns="http://www.w3.org/2000/svg">
<rect x="14.0186" y="13.6794" width="79.8113" height="79.8113" rx="39.9057" fill="url(#paint0_linear)"/>
<path fill-rule="evenodd" clip-rule="evenodd" d="M46.4052 73.8113C53.2903 73.8113 59.1848 69.9597 61.6182 64.4998C61.648 64.4331 51.8483 67.0632 52.1608 66.1334C52.3004 65.7183 58.3076 63.5094 62.6842 60.933C65.1997 59.4522 66.3581 56.3174 66.3581 56.3174C66.3581 56.3174 62.1201 58.3885 59.9776 58.9138C55.6602 59.9727 51.8597 59.8587 51.8597 59.7484C51.8597 59.5098 58.1703 58.3029 66.9413 52.923C71.067 50.3925 72.1875 46.0338 72.1875 46.0338C72.1875 46.0338 67.6518 48.7532 64.9098 49.651C58.4072 51.7802 52.4733 52.4218 52.4733 52.1337C52.4733 51.5168 57.6954 50.0715 63.232 47.3711C66.1108 45.9671 68.6039 44.1329 71.493 42.093C76.2204 38.7555 77 32.8113 77 32.8113C77 32.8113 72.3374 35.8383 70.0621 36.8435C60.6732 40.9914 52.3828 43.1672 46.4052 43.6383C37.382 44.3493 30 50.6863 30 58.9138C30 67.1415 37.3449 73.8113 46.4052 73.8113Z" fill="white"/>
<path d="M32.543 118.349H27.1729V124H25.4854V111.203H33.4131V112.592H27.1729V116.969H32.543V118.349ZM37.1309 122.62H43.1953V124H35.4346V111.203H37.1309V122.62ZM46.9131 117.628L50.2529 111.203H52.1689L47.7568 119.228V124H46.0693V119.228L41.6572 111.203H43.5908L46.9131 117.628ZM55.6318 124H53.9443V111.203H55.6318V124ZM68.5605 124H66.8643L60.4219 114.139V124H58.7256V111.203H60.4219L66.8818 121.108V111.203H68.5605V124ZM81.0059 122.321C80.5723 122.942 79.9658 123.408 79.1865 123.719C78.4131 124.023 77.5107 124.176 76.4795 124.176C75.4365 124.176 74.5107 123.933 73.7021 123.446C72.8936 122.954 72.2666 122.257 71.8213 121.354C71.3818 120.452 71.1562 119.406 71.1445 118.217V117.101C71.1445 115.173 71.5928 113.679 72.4893 112.618C73.3916 111.558 74.6572 111.027 76.2861 111.027C77.6221 111.027 78.6973 111.37 79.5117 112.056C80.3262 112.735 80.8242 113.702 81.0059 114.956H79.3184C79.002 113.263 77.9941 112.416 76.2949 112.416C75.1641 112.416 74.3057 112.814 73.7197 113.611C73.1396 114.402 72.8467 115.551 72.8408 117.057V118.103C72.8408 119.538 73.1689 120.681 73.8252 121.53C74.4814 122.374 75.3691 122.796 76.4883 122.796C77.1211 122.796 77.6748 122.726 78.1494 122.585C78.624 122.444 79.0166 122.207 79.3271 121.873V118.999H76.3652V117.628H81.0059V122.321Z" fill="#747474"/>
<defs>
<linearGradient id="paint0_linear" x1="14.0186" y1="13.6794" x2="14.0186" y2="93.4907" gradientUnits="userSpaceOnUse">
<stop stop-color="#90A7DA"/>
<stop offset="1" stop-color="#A6C2F2"/>
</linearGradient>
</defs>
</svg>
