<svg width="107" height="128" viewBox="0 0 107 128" fill="none" xmlns="http://www.w3.org/2000/svg">
<rect x="13.7358" y="13.6794" width="79.8113" height="79.8113" rx="39.9057" fill="url(#paint0_linear)"/>
<path fill-rule="evenodd" clip-rule="evenodd" d="M61.6625 71.6832C58.3251 71.854 54.5042 71.854 53.2057 71.6832C43.0771 70.3507 35 62.9453 35 52.9356C35 42.9258 43.2827 34.8113 53.5 34.8113C63.7173 34.8113 72 42.9258 72 52.9356C72 57.591 70.2083 61.8364 67.2637 65.0463C66.4641 65.9179 67.5612 66.5293 68.6759 67.1505C69.7692 67.7598 70.8793 68.3784 70.2341 69.2612C69.5232 70.234 65.669 71.4781 61.6625 71.6832ZM50.8984 50.67C50.8984 52.234 49.6042 53.5019 48.0078 53.5019C46.4114 53.5019 45.1172 52.234 45.1172 50.67C45.1172 49.6211 45.6993 48.7054 46.5642 48.216C46.614 49.5797 47.7353 50.67 49.1112 50.67H50.8984V50.67ZM59.8576 48.216C59.8078 49.5797 58.6866 50.67 57.3106 50.67H55.5234V50.67C55.5234 52.234 56.8176 53.5019 58.4141 53.5019C60.0105 53.5019 61.3047 52.234 61.3047 50.67C61.3047 49.6211 60.7226 48.7054 59.8576 48.216Z" fill="white"/>
<path d="M34.9336 122.321C34.5 122.942 33.8936 123.408 33.1143 123.719C32.3408 124.023 31.4385 124.176 30.4072 124.176C29.3643 124.176 28.4385 123.933 27.6299 123.446C26.8213 122.954 26.1943 122.257 25.749 121.354C25.3096 120.452 25.084 119.406 25.0723 118.217V117.101C25.0723 115.173 25.5205 113.679 26.417 112.618C27.3193 111.558 28.585 111.027 30.2139 111.027C31.5498 111.027 32.625 111.37 33.4395 112.056C34.2539 112.735 34.752 113.702 34.9336 114.956H33.2461C32.9297 113.263 31.9219 112.416 30.2227 112.416C29.0918 112.416 28.2334 112.814 27.6475 113.611C27.0674 114.402 26.7744 115.551 26.7686 117.057V118.103C26.7686 119.538 27.0967 120.681 27.7529 121.53C28.4092 122.374 29.2969 122.796 30.416 122.796C31.0488 122.796 31.6025 122.726 32.0771 122.585C32.5518 122.444 32.9443 122.207 33.2549 121.873V118.999H30.293V117.628H34.9336V122.321ZM47.5898 124H45.8936V118.085H39.4424V124H37.7549V111.203H39.4424V116.705H45.8936V111.203H47.5898V124ZM60.4307 118.015C60.4307 119.269 60.2197 120.364 59.7979 121.302C59.376 122.233 58.7783 122.945 58.0049 123.438C57.2314 123.93 56.3291 124.176 55.2979 124.176C54.29 124.176 53.3965 123.93 52.6172 123.438C51.8379 122.939 51.2314 122.233 50.7979 121.319C50.3701 120.399 50.1504 119.336 50.1387 118.129V117.206C50.1387 115.976 50.3525 114.889 50.7803 113.945C51.208 113.002 51.8115 112.281 52.5908 111.783C53.376 111.279 54.2725 111.027 55.2803 111.027C56.3057 111.027 57.208 111.276 57.9873 111.774C58.7725 112.267 59.376 112.984 59.7979 113.928C60.2197 114.865 60.4307 115.958 60.4307 117.206V118.015ZM58.752 117.188C58.752 115.671 58.4473 114.508 57.8379 113.699C57.2285 112.885 56.376 112.478 55.2803 112.478C54.2139 112.478 53.373 112.885 52.7578 113.699C52.1484 114.508 51.835 115.633 51.8174 117.074V118.015C51.8174 119.485 52.125 120.643 52.7402 121.486C53.3613 122.324 54.2139 122.743 55.2979 122.743C56.3877 122.743 57.2314 122.348 57.8291 121.557C58.4268 120.76 58.7344 119.62 58.752 118.138V117.188ZM66.7324 118.296C65.2852 117.88 64.2305 117.37 63.5684 116.767C62.9121 116.157 62.584 115.407 62.584 114.517C62.584 113.509 62.9854 112.677 63.7881 112.021C64.5967 111.358 65.6455 111.027 66.9346 111.027C67.8135 111.027 68.5957 111.197 69.2812 111.537C69.9727 111.877 70.5059 112.346 70.8809 112.943C71.2617 113.541 71.4521 114.194 71.4521 114.903H69.7559C69.7559 114.13 69.5098 113.523 69.0176 113.084C68.5254 112.639 67.8311 112.416 66.9346 112.416C66.1025 112.416 65.4521 112.601 64.9834 112.97C64.5205 113.333 64.2891 113.84 64.2891 114.49C64.2891 115.012 64.5088 115.454 64.9482 115.817C65.3936 116.175 66.1465 116.503 67.207 116.802C68.2734 117.101 69.1055 117.432 69.7031 117.795C70.3066 118.152 70.752 118.571 71.0391 119.052C71.332 119.532 71.4785 120.098 71.4785 120.748C71.4785 121.785 71.0742 122.617 70.2656 123.244C69.457 123.865 68.376 124.176 67.0225 124.176C66.1436 124.176 65.3232 124.009 64.5615 123.675C63.7998 123.335 63.2109 122.872 62.7949 122.286C62.3848 121.7 62.1797 121.035 62.1797 120.291H63.876C63.876 121.064 64.1602 121.677 64.7285 122.128C65.3027 122.573 66.0674 122.796 67.0225 122.796C67.9131 122.796 68.5957 122.614 69.0703 122.251C69.5449 121.888 69.7822 121.393 69.7822 120.766C69.7822 120.139 69.5625 119.655 69.123 119.315C68.6836 118.97 67.8867 118.63 66.7324 118.296ZM82.4912 112.592H78.3779V124H76.6992V112.592H72.5947V111.203H82.4912V112.592Z" fill="#747474"/>
<defs>
<linearGradient id="paint0_linear" x1="14.2503" y1="13.6794" x2="14.2503" y2="92.4617" gradientUnits="userSpaceOnUse">
<stop stop-color="#516AAC"/>
<stop offset="1" stop-color="#7773D4"/>
</linearGradient>
</defs>
</svg>
