<svg width="107" height="128" viewBox="0 0 107 128" fill="none" xmlns="http://www.w3.org/2000/svg">
<path d="M35.9336 122.321C35.5 122.942 34.8936 123.408 34.1143 123.719C33.3408 124.023 32.4385 124.176 31.4072 124.176C30.3643 124.176 29.4385 123.933 28.6299 123.446C27.8213 122.954 27.1943 122.257 26.749 121.354C26.3096 120.452 26.084 119.406 26.0723 118.217V117.101C26.0723 115.173 26.5205 113.679 27.417 112.618C28.3193 111.558 29.585 111.027 31.2139 111.027C32.5498 111.027 33.625 111.37 34.4395 112.056C35.2539 112.735 35.752 113.702 35.9336 114.956H34.2461C33.9297 113.263 32.9219 112.416 31.2227 112.416C30.0918 112.416 29.2334 112.814 28.6475 113.611C28.0674 114.402 27.7744 115.551 27.7686 117.057V118.103C27.7686 119.538 28.0967 120.681 28.7529 121.53C29.4092 122.374 30.2969 122.796 31.416 122.796C32.0488 122.796 32.6025 122.726 33.0771 122.585C33.5518 122.444 33.9443 122.207 34.2549 121.873V118.999H31.293V117.628H35.9336V122.321ZM43.4482 118.823H40.4424V124H38.7461V111.203H42.9824C44.4238 111.203 45.5312 111.531 46.3047 112.188C47.084 112.844 47.4736 113.799 47.4736 115.053C47.4736 115.85 47.2568 116.544 46.8232 117.136C46.3955 117.728 45.7979 118.17 45.0303 118.463L48.0361 123.895V124H46.2256L43.4482 118.823ZM40.4424 117.443H43.0352C43.873 117.443 44.5381 117.227 45.0303 116.793C45.5283 116.359 45.7773 115.779 45.7773 115.053C45.7773 114.262 45.54 113.655 45.0654 113.233C44.5967 112.812 43.917 112.598 43.0264 112.592H40.4424V117.443ZM56.9131 120.66H51.5518L50.3477 124H48.6074L53.4941 111.203H54.9707L59.8662 124H58.1348L56.9131 120.66ZM52.0615 119.271H56.4121L54.2324 113.286L52.0615 119.271ZM65.3594 118.296C63.9121 117.88 62.8574 117.37 62.1953 116.767C61.5391 116.157 61.2109 115.407 61.2109 114.517C61.2109 113.509 61.6123 112.677 62.415 112.021C63.2236 111.358 64.2725 111.027 65.5615 111.027C66.4404 111.027 67.2227 111.197 67.9082 111.537C68.5996 111.877 69.1328 112.346 69.5078 112.943C69.8887 113.541 70.0791 114.194 70.0791 114.903H68.3828C68.3828 114.13 68.1367 113.523 67.6445 113.084C67.1523 112.639 66.458 112.416 65.5615 112.416C64.7295 112.416 64.0791 112.601 63.6104 112.97C63.1475 113.333 62.916 113.84 62.916 114.49C62.916 115.012 63.1357 115.454 63.5752 115.817C64.0205 116.175 64.7734 116.503 65.834 116.802C66.9004 117.101 67.7324 117.432 68.3301 117.795C68.9336 118.152 69.3789 118.571 69.666 119.052C69.959 119.532 70.1055 120.098 70.1055 120.748C70.1055 121.785 69.7012 122.617 68.8926 123.244C68.084 123.865 67.0029 124.176 65.6494 124.176C64.7705 124.176 63.9502 124.009 63.1885 123.675C62.4268 123.335 61.8379 122.872 61.4219 122.286C61.0117 121.7 60.8066 121.035 60.8066 120.291H62.5029C62.5029 121.064 62.7871 121.677 63.3555 122.128C63.9297 122.573 64.6943 122.796 65.6494 122.796C66.54 122.796 67.2227 122.614 67.6973 122.251C68.1719 121.888 68.4092 121.393 68.4092 120.766C68.4092 120.139 68.1895 119.655 67.75 119.315C67.3105 118.97 66.5137 118.63 65.3594 118.296ZM76.0469 118.296C74.5996 117.88 73.5449 117.37 72.8828 116.767C72.2266 116.157 71.8984 115.407 71.8984 114.517C71.8984 113.509 72.2998 112.677 73.1025 112.021C73.9111 111.358 74.96 111.027 76.249 111.027C77.1279 111.027 77.9102 111.197 78.5957 111.537C79.2871 111.877 79.8203 112.346 80.1953 112.943C80.5762 113.541 80.7666 114.194 80.7666 114.903H79.0703C79.0703 114.13 78.8242 113.523 78.332 113.084C77.8398 112.639 77.1455 112.416 76.249 112.416C75.417 112.416 74.7666 112.601 74.2979 112.97C73.835 113.333 73.6035 113.84 73.6035 114.49C73.6035 115.012 73.8232 115.454 74.2627 115.817C74.708 116.175 75.4609 116.503 76.5215 116.802C77.5879 117.101 78.4199 117.432 79.0176 117.795C79.6211 118.152 80.0664 118.571 80.3535 119.052C80.6465 119.532 80.793 120.098 80.793 120.748C80.793 121.785 80.3887 122.617 79.5801 123.244C78.7715 123.865 77.6904 124.176 76.3369 124.176C75.458 124.176 74.6377 124.009 73.876 123.675C73.1143 123.335 72.5254 122.872 72.1094 122.286C71.6992 121.7 71.4941 121.035 71.4941 120.291H73.1904C73.1904 121.064 73.4746 121.677 74.043 122.128C74.6172 122.573 75.3818 122.796 76.3369 122.796C77.2275 122.796 77.9102 122.614 78.3848 122.251C78.8594 121.888 79.0967 121.393 79.0967 120.766C79.0967 120.139 78.877 119.655 78.4375 119.315C77.998 118.97 77.2012 118.63 76.0469 118.296Z" fill="#747474"/>
<rect x="13.302" y="13.6794" width="79.8113" height="79.8113" rx="39.9057" fill="url(#paint0_linear)"/>
<path fill-rule="evenodd" clip-rule="evenodd" d="M39.9488 68.5772C39.8024 68.4398 39.6576 68.2997 39.5146 68.1569C31.9606 60.6177 31.9606 48.3942 39.5146 40.855C47.0684 33.3157 71.1381 32.8113 71.1381 32.8113C71.1381 32.8113 74.4236 60.6177 66.8697 68.1569C60.1608 74.8527 49.75 75.6018 42.2129 70.4042L48.286 62.9658L57.9945 60.8738L50.0695 60.0831L55.1059 54.965L60.8389 53.7116L56.3056 52.3717L60.8389 44.2096L54.3907 51.4282L51.9007 47.9213L52.7772 53.7116L48.286 58.7648L46.2041 52.3716V60.8738L39.9488 68.5772Z" fill="white"/>
<defs>
<linearGradient id="paint0_linear" x1="13.302" y1="13.6794" x2="13.302" y2="93.4907" gradientUnits="userSpaceOnUse">
<stop stop-color="#5FBC51"/>
<stop offset="1" stop-color="#5AC178"/>
</linearGradient>
</defs>
</svg>
