<svg width="108" height="128" viewBox="0 0 108 128" fill="none" xmlns="http://www.w3.org/2000/svg">
<rect x="14.1699" y="13.6794" width="79.8113" height="79.8113" rx="39.9057" fill="url(#paint0_linear)"/>
<path fill-rule="evenodd" clip-rule="evenodd" d="M43.0834 66.7729C42.9213 66.7729 42.808 66.6126 42.8621 66.4598L52.9415 37.9793C53.0171 37.7656 53.2192 37.6227 53.4459 37.6227H63.711C63.9387 37.6227 64.1413 37.7667 64.2163 37.9817L74.0065 66.0617C74.1278 66.4095 73.8696 66.7729 73.5013 66.7729H43.0834ZM34.6488 66.8868C34.2753 66.8868 34.0167 66.5138 34.1478 66.1641L41.4327 46.7151C41.511 46.5061 41.7107 46.3677 41.9338 46.3677H47.5014C47.8724 46.3677 48.1308 46.7361 48.0044 47.085L40.9601 66.534C40.8834 66.7458 40.6822 66.8868 40.457 66.8868H34.6488Z" fill="white"/>
<path d="M28.9336 122.321C28.5 122.942 27.8936 123.408 27.1143 123.719C26.3408 124.023 25.4385 124.176 24.4072 124.176C23.3643 124.176 22.4385 123.933 21.6299 123.446C20.8213 122.954 20.1943 122.257 19.749 121.354C19.3096 120.452 19.084 119.406 19.0723 118.217V117.101C19.0723 115.173 19.5205 113.679 20.417 112.618C21.3193 111.558 22.585 111.027 24.2139 111.027C25.5498 111.027 26.625 111.37 27.4395 112.056C28.2539 112.735 28.752 113.702 28.9336 114.956H27.2461C26.9297 113.263 25.9219 112.416 24.2227 112.416C23.0918 112.416 22.2334 112.814 21.6475 113.611C21.0674 114.402 20.7744 115.551 20.7686 117.057V118.103C20.7686 119.538 21.0967 120.681 21.7529 121.53C22.4092 122.374 23.2969 122.796 24.416 122.796C25.0488 122.796 25.6025 122.726 26.0771 122.585C26.5518 122.444 26.9443 122.207 27.2549 121.873V118.999H24.293V117.628H28.9336V122.321ZM36.4482 118.823H33.4424V124H31.7461V111.203H35.9824C37.4238 111.203 38.5312 111.531 39.3047 112.188C40.084 112.844 40.4736 113.799 40.4736 115.053C40.4736 115.85 40.2568 116.544 39.8232 117.136C39.3955 117.728 38.7979 118.17 38.0303 118.463L41.0361 123.895V124H39.2256L36.4482 118.823ZM33.4424 117.443H36.0352C36.873 117.443 37.5381 117.227 38.0303 116.793C38.5283 116.359 38.7773 115.779 38.7773 115.053C38.7773 114.262 38.54 113.655 38.0654 113.233C37.5967 112.812 36.917 112.598 36.0264 112.592H33.4424V117.443ZM52.6904 118.015C52.6904 119.269 52.4795 120.364 52.0576 121.302C51.6357 122.233 51.0381 122.945 50.2646 123.438C49.4912 123.93 48.5889 124.176 47.5576 124.176C46.5498 124.176 45.6562 123.93 44.877 123.438C44.0977 122.939 43.4912 122.233 43.0576 121.319C42.6299 120.399 42.4102 119.336 42.3984 118.129V117.206C42.3984 115.976 42.6123 114.889 43.04 113.945C43.4678 113.002 44.0713 112.281 44.8506 111.783C45.6357 111.279 46.5322 111.027 47.54 111.027C48.5654 111.027 49.4678 111.276 50.2471 111.774C51.0322 112.267 51.6357 112.984 52.0576 113.928C52.4795 114.865 52.6904 115.958 52.6904 117.206V118.015ZM51.0117 117.188C51.0117 115.671 50.707 114.508 50.0977 113.699C49.4883 112.885 48.6357 112.478 47.54 112.478C46.4736 112.478 45.6328 112.885 45.0176 113.699C44.4082 114.508 44.0947 115.633 44.0771 117.074V118.015C44.0771 119.485 44.3848 120.643 45 121.486C45.6211 122.324 46.4736 122.743 47.5576 122.743C48.6475 122.743 49.4912 122.348 50.0889 121.557C50.6865 120.76 50.9941 119.62 51.0117 118.138V117.188ZM64.2305 111.203V119.904C64.2246 121.111 63.8438 122.099 63.0879 122.866C62.3379 123.634 61.3184 124.064 60.0293 124.158L59.5811 124.176C58.1807 124.176 57.0645 123.798 56.2324 123.042C55.4004 122.286 54.9785 121.246 54.9668 119.922V111.203H56.6367V119.869C56.6367 120.795 56.8916 121.516 57.4014 122.031C57.9111 122.541 58.6377 122.796 59.5811 122.796C60.5361 122.796 61.2656 122.541 61.7695 122.031C62.2793 121.521 62.5342 120.804 62.5342 119.878V111.203H64.2305ZM76.7285 124H75.0322L68.5898 114.139V124H66.8936V111.203H68.5898L75.0498 121.108V111.203H76.7285V124ZM79.7256 124V111.203H83.3379C84.4512 111.203 85.4355 111.449 86.291 111.941C87.1465 112.434 87.8057 113.134 88.2686 114.042C88.7373 114.95 88.9746 115.993 88.9805 117.171V117.988C88.9805 119.195 88.7461 120.253 88.2773 121.161C87.8145 122.069 87.1494 122.767 86.2822 123.253C85.4209 123.739 84.416 123.988 83.2676 124H79.7256ZM81.4131 112.592V122.62H83.1885C84.4893 122.62 85.5 122.216 86.2207 121.407C86.9473 120.599 87.3105 119.447 87.3105 117.953V117.206C87.3105 115.753 86.9678 114.625 86.2822 113.822C85.6025 113.014 84.6357 112.604 83.3818 112.592H81.4131Z" fill="#747474"/>
<defs>
<linearGradient id="paint0_linear" x1="14.6844" y1="13.6794" x2="14.6844" y2="92.4617" gradientUnits="userSpaceOnUse">
<stop stop-color="#DC7545"/>
<stop offset="1" stop-color="#D29463"/>
</linearGradient>
</defs>
</svg>
