<svg width="107" height="128" viewBox="0 0 107 128" fill="none" xmlns="http://www.w3.org/2000/svg">
<rect x="13.8867" y="13.6794" width="79.8113" height="79.8113" rx="39.9057" fill="url(#paint0_linear)"/>
<path fill-rule="evenodd" clip-rule="evenodd" d="M64.8406 34.5251L64.9793 46.7035L54.3572 51.8026L54.2262 40.3039L64.8406 34.5251Z" fill="white"/>
<path fill-rule="evenodd" clip-rule="evenodd" d="M75.4889 53.7154L64.9737 59.7299L54.4523 53.7058L64.9683 48.1821L75.4889 53.7154Z" fill="white"/>
<path fill-rule="evenodd" clip-rule="evenodd" d="M52.5822 53.7154L42.067 59.7299L31.5456 53.7058L42.0616 48.1821L52.5822 53.7154Z" fill="white"/>
<path fill-rule="evenodd" clip-rule="evenodd" d="M41.9488 34.4755L52.8628 39.8808L52.5838 51.6601L42.2789 46.5565L41.9488 34.4755Z" fill="white"/>
<path fill-rule="evenodd" clip-rule="evenodd" d="M65.1381 72.7712L54.2241 67.3659L54.5031 55.5865L64.808 60.6902L65.1381 72.7712Z" fill="white"/>
<path fill-rule="evenodd" clip-rule="evenodd" d="M42.3259 72.8807L42.1872 60.7023L52.8093 55.6032L52.9403 67.1019L42.3259 72.8807Z" fill="white"/>
<path d="M43.2959 124H41.6084V111.203H43.2959V124ZM55.8027 119.939C55.6445 121.293 55.1436 122.339 54.2998 123.077C53.4619 123.81 52.3457 124.176 50.9512 124.176C49.4395 124.176 48.2266 123.634 47.3125 122.55C46.4043 121.466 45.9502 120.016 45.9502 118.199V116.969C45.9502 115.779 46.1611 114.733 46.583 113.831C47.0107 112.929 47.6143 112.237 48.3936 111.757C49.1729 111.271 50.0752 111.027 51.1006 111.027C52.46 111.027 53.5498 111.408 54.3701 112.17C55.1904 112.926 55.668 113.975 55.8027 115.316H54.1064C53.96 114.297 53.6406 113.559 53.1484 113.102C52.6621 112.645 51.9795 112.416 51.1006 112.416C50.0225 112.416 49.1758 112.814 48.5605 113.611C47.9512 114.408 47.6465 115.542 47.6465 117.013V118.252C47.6465 119.641 47.9365 120.745 48.5166 121.565C49.0967 122.386 49.9082 122.796 50.9512 122.796C51.8887 122.796 52.6064 122.585 53.1045 122.163C53.6084 121.735 53.9424 120.994 54.1064 119.939H55.8027ZM65.3477 118.085H59.8018V122.62H66.2441V124H58.1143V111.203H66.1562V112.592H59.8018V116.705H65.3477V118.085Z" fill="#747474"/>
<defs>
<linearGradient id="paint0_linear" x1="13.8867" y1="13.6794" x2="13.8867" y2="93.4907" gradientUnits="userSpaceOnUse">
<stop stop-color="#70CCBD"/>
<stop offset="1" stop-color="#8CDDD4"/>
</linearGradient>
</defs>
</svg>
