<svg width="107" height="128" viewBox="0 0 107 128" fill="none" xmlns="http://www.w3.org/2000/svg">
<rect width="7.62" height="72.9837" rx="3.81" transform="matrix(-0.707107 -0.707107 -0.707107 0.707107 81.9954 30.3882)" fill="url(#paint0_linear)"/>
<path fill-rule="evenodd" clip-rule="evenodd" d="M52.9057 13.3019C30.8664 13.3019 13 31.1683 13 53.2075C13 75.2468 30.8664 93.1132 52.9057 93.1132C74.9449 93.1132 92.8113 75.2468 92.8113 53.2075C92.8113 31.1683 74.9449 13.3019 52.9057 13.3019ZM53 86C71.2254 86 86 71.2254 86 53C86 34.7746 71.2254 20 53 20C34.7746 20 20 34.7746 20 53C20 71.2254 34.7746 86 53 86Z" fill="url(#paint1_linear)"/>
<path d="M48.3203 123.245H46.624L40.1816 113.384V123.245H38.4854V110.448H40.1816L46.6416 120.354V110.448H48.3203V123.245ZM51.3877 124.344H49.9902L55.334 110.448H56.7227L51.3877 124.344ZM65.8018 119.905H60.4404L59.2363 123.245H57.4961L62.3828 110.448H63.8594L68.7549 123.245H67.0234L65.8018 119.905ZM60.9502 118.517H65.3008L63.1211 112.531L60.9502 118.517Z" fill="#747474"/>
<defs>
<linearGradient id="paint0_linear" x1="0.0491219" y1="0" x2="0.0491219" y2="72.0427" gradientUnits="userSpaceOnUse">
<stop stop-color="#9298A4"/>
<stop offset="1" stop-color="#A3A49E"/>
</linearGradient>
<linearGradient id="paint1_linear" x1="13.5145" y1="13.3019" x2="13.5145" y2="92.0842" gradientUnits="userSpaceOnUse">
<stop stop-color="#9298A4"/>
<stop offset="1" stop-color="#A3A49E"/>
</linearGradient>
</defs>
</svg>
