<svg width="107" height="128" viewBox="0 0 107 128" fill="none" xmlns="http://www.w3.org/2000/svg">
<rect x="13.3019" y="14.0567" width="79.8113" height="79.8113" rx="39.9057" fill="url(#paint0_linear)"/>
<path fill-rule="evenodd" clip-rule="evenodd" d="M53.2075 72.5849C63.4925 72.5849 71.8301 64.2473 71.8301 53.9623C71.8301 43.6773 63.4925 35.3397 53.2075 35.3397C42.9225 35.3397 34.5848 43.6773 34.5848 53.9623C34.5848 64.2473 42.9225 72.5849 53.2075 72.5849ZM53.2075 64.6038C59.0846 64.6038 63.849 59.8394 63.849 53.9623C63.849 48.0851 59.0846 43.3208 53.2075 43.3208C47.3303 43.3208 42.566 48.0851 42.566 53.9623C42.566 59.8394 47.3303 64.6038 53.2075 64.6038Z" fill="white"/>
<path d="M29.3203 124H27.624L21.1816 114.139V124H19.4854V111.203H21.1816L27.6416 121.108V111.203H29.3203V124ZM42.1611 118.015C42.1611 119.269 41.9502 120.364 41.5283 121.302C41.1064 122.233 40.5088 122.945 39.7354 123.438C38.9619 123.93 38.0596 124.176 37.0283 124.176C36.0205 124.176 35.127 123.93 34.3477 123.438C33.5684 122.939 32.9619 122.233 32.5283 121.319C32.1006 120.399 31.8809 119.336 31.8691 118.129V117.206C31.8691 115.976 32.083 114.889 32.5107 113.945C32.9385 113.002 33.542 112.281 34.3213 111.783C35.1064 111.279 36.0029 111.027 37.0107 111.027C38.0361 111.027 38.9385 111.276 39.7178 111.774C40.5029 112.267 41.1064 112.984 41.5283 113.928C41.9502 114.865 42.1611 115.958 42.1611 117.206V118.015ZM40.4824 117.188C40.4824 115.671 40.1777 114.508 39.5684 113.699C38.959 112.885 38.1064 112.478 37.0107 112.478C35.9443 112.478 35.1035 112.885 34.4883 113.699C33.8789 114.508 33.5654 115.633 33.5479 117.074V118.015C33.5479 119.485 33.8555 120.643 34.4707 121.486C35.0918 122.324 35.9443 122.743 37.0283 122.743C38.1182 122.743 38.9619 122.348 39.5596 121.557C40.1572 120.76 40.4648 119.62 40.4824 118.138V117.188ZM49.3857 118.823H46.3799V124H44.6836V111.203H48.9199C50.3613 111.203 51.4688 111.531 52.2422 112.188C53.0215 112.844 53.4111 113.799 53.4111 115.053C53.4111 115.85 53.1943 116.544 52.7607 117.136C52.333 117.728 51.7354 118.17 50.9678 118.463L53.9736 123.895V124H52.1631L49.3857 118.823ZM46.3799 117.443H48.9727C49.8105 117.443 50.4756 117.227 50.9678 116.793C51.4658 116.359 51.7148 115.779 51.7148 115.053C51.7148 114.262 51.4775 113.655 51.0029 113.233C50.5342 112.812 49.8545 112.598 48.9639 112.592H46.3799V117.443ZM57.9639 111.203L62.1475 121.645L66.3311 111.203H68.5195V124H66.832V119.017L66.9902 113.638L62.7891 124H61.4971L57.3047 113.664L57.4717 119.017V124H55.7842V111.203H57.9639ZM78.7236 120.66H73.3623L72.1582 124H70.418L75.3047 111.203H76.7812L81.6768 124H79.9453L78.7236 120.66ZM73.8721 119.271H78.2227L76.043 113.286L73.8721 119.271ZM85.0957 122.62H91.1602V124H83.3994V111.203H85.0957V122.62Z" fill="#747474"/>
<defs>
<linearGradient id="paint0_linear" x1="13.8164" y1="14.0567" x2="13.8164" y2="92.839" gradientUnits="userSpaceOnUse">
<stop stop-color="#9298A4"/>
<stop offset="1" stop-color="#A3A49E"/>
</linearGradient>
</defs>
</svg>
