<svg width="108" height="128" viewBox="0 0 108 128" fill="none" xmlns="http://www.w3.org/2000/svg">
<rect x="14.0188" y="14.0567" width="79.8113" height="79.8113" rx="39.9057" fill="url(#paint0_linear)"/>
<path fill-rule="evenodd" clip-rule="evenodd" d="M46.3284 75.2455C48.2128 75.2455 49.8653 73.9139 50.7916 71.9138C51.7179 73.9139 53.3704 75.2455 55.2548 75.2455C56.9724 75.2455 58.4973 74.1391 59.4553 72.4286C60.4133 74.1391 61.9383 75.2455 63.6559 75.2455C66.5558 75.2455 68.9066 72.0917 68.9066 68.2012C68.9066 67.4345 68.8153 66.6965 68.6465 66.0055C72.6764 62.7833 75.2077 58.1278 75.2077 52.9504C75.2077 43.2243 66.2745 35.3397 55.2548 35.3397C44.2352 35.3397 35.302 43.2243 35.302 52.9504C35.302 57.9408 37.6537 62.4463 41.4324 65.6508C41.2033 66.4416 41.0777 67.3017 41.0777 68.2012C41.0777 72.0917 43.4285 75.2455 46.3284 75.2455ZM54.9922 62.2404C61.517 62.2404 66.8064 58.2375 66.8064 53.2996C66.8064 48.3617 61.517 44.3587 54.9922 44.3587C48.4674 44.3587 43.178 48.3617 43.178 53.2996C43.178 58.2375 48.4674 62.2404 54.9922 62.2404Z" fill="white"/>
<path d="M24.1729 118.99V124H22.4854V111.203H27.2051C28.6055 111.203 29.7012 111.561 30.4922 112.275C31.2891 112.99 31.6875 113.937 31.6875 115.114C31.6875 116.356 31.2979 117.314 30.5186 117.988C29.7451 118.656 28.6348 118.99 27.1875 118.99H24.1729ZM24.1729 117.61H27.2051C28.1074 117.61 28.7988 117.399 29.2793 116.978C29.7598 116.55 30 115.935 30 115.132C30 114.37 29.7598 113.761 29.2793 113.304C28.7988 112.847 28.1396 112.609 27.3018 112.592H24.1729V117.61ZM43.6846 118.015C43.6846 119.269 43.4736 120.364 43.0518 121.302C42.6299 122.233 42.0322 122.945 41.2588 123.438C40.4854 123.93 39.583 124.176 38.5518 124.176C37.5439 124.176 36.6504 123.93 35.8711 123.438C35.0918 122.939 34.4854 122.233 34.0518 121.319C33.624 120.399 33.4043 119.336 33.3926 118.129V117.206C33.3926 115.976 33.6064 114.889 34.0342 113.945C34.4619 113.002 35.0654 112.281 35.8447 111.783C36.6299 111.279 37.5264 111.027 38.5342 111.027C39.5596 111.027 40.4619 111.276 41.2412 111.774C42.0264 112.267 42.6299 112.984 43.0518 113.928C43.4736 114.865 43.6846 115.958 43.6846 117.206V118.015ZM42.0059 117.188C42.0059 115.671 41.7012 114.508 41.0918 113.699C40.4824 112.885 39.6299 112.478 38.5342 112.478C37.4678 112.478 36.627 112.885 36.0117 113.699C35.4023 114.508 35.0889 115.633 35.0713 117.074V118.015C35.0713 119.485 35.3789 120.643 35.9941 121.486C36.6152 122.324 37.4678 122.743 38.5518 122.743C39.6416 122.743 40.4854 122.348 41.083 121.557C41.6807 120.76 41.9883 119.62 42.0059 118.138V117.188ZM48.0264 124H46.3389V111.203H48.0264V124ZM54.8906 118.296C53.4434 117.88 52.3887 117.37 51.7266 116.767C51.0703 116.157 50.7422 115.407 50.7422 114.517C50.7422 113.509 51.1436 112.677 51.9463 112.021C52.7549 111.358 53.8037 111.027 55.0928 111.027C55.9717 111.027 56.7539 111.197 57.4395 111.537C58.1309 111.877 58.6641 112.346 59.0391 112.943C59.4199 113.541 59.6104 114.194 59.6104 114.903H57.9141C57.9141 114.13 57.668 113.523 57.1758 113.084C56.6836 112.639 55.9893 112.416 55.0928 112.416C54.2607 112.416 53.6104 112.601 53.1416 112.97C52.6787 113.333 52.4473 113.84 52.4473 114.49C52.4473 115.012 52.667 115.454 53.1064 115.817C53.5518 116.175 54.3047 116.503 55.3652 116.802C56.4316 117.101 57.2637 117.432 57.8613 117.795C58.4648 118.152 58.9102 118.571 59.1973 119.052C59.4902 119.532 59.6367 120.098 59.6367 120.748C59.6367 121.785 59.2324 122.617 58.4238 123.244C57.6152 123.865 56.5342 124.176 55.1807 124.176C54.3018 124.176 53.4814 124.009 52.7197 123.675C51.958 123.335 51.3691 122.872 50.9531 122.286C50.543 121.7 50.3379 121.035 50.3379 120.291H52.0342C52.0342 121.064 52.3184 121.677 52.8867 122.128C53.4609 122.573 54.2256 122.796 55.1807 122.796C56.0713 122.796 56.7539 122.614 57.2285 122.251C57.7031 121.888 57.9404 121.393 57.9404 120.766C57.9404 120.139 57.7207 119.655 57.2812 119.315C56.8418 118.97 56.0449 118.63 54.8906 118.296ZM71.6514 118.015C71.6514 119.269 71.4404 120.364 71.0186 121.302C70.5967 122.233 69.999 122.945 69.2256 123.438C68.4521 123.93 67.5498 124.176 66.5186 124.176C65.5107 124.176 64.6172 123.93 63.8379 123.438C63.0586 122.939 62.4521 122.233 62.0186 121.319C61.5908 120.399 61.3711 119.336 61.3594 118.129V117.206C61.3594 115.976 61.5732 114.889 62.001 113.945C62.4287 113.002 63.0322 112.281 63.8115 111.783C64.5967 111.279 65.4932 111.027 66.501 111.027C67.5264 111.027 68.4287 111.276 69.208 111.774C69.9932 112.267 70.5967 112.984 71.0186 113.928C71.4404 114.865 71.6514 115.958 71.6514 117.206V118.015ZM69.9727 117.188C69.9727 115.671 69.668 114.508 69.0586 113.699C68.4492 112.885 67.5967 112.478 66.501 112.478C65.4346 112.478 64.5938 112.885 63.9785 113.699C63.3691 114.508 63.0557 115.633 63.0381 117.074V118.015C63.0381 119.485 63.3457 120.643 63.9609 121.486C64.582 122.324 65.4346 122.743 66.5186 122.743C67.6084 122.743 68.4521 122.348 69.0498 121.557C69.6475 120.76 69.9551 119.62 69.9727 118.138V117.188ZM84.0176 124H82.3213L75.8789 114.139V124H74.1826V111.203H75.8789L82.3389 121.108V111.203H84.0176V124Z" fill="#747474"/>
<defs>
<linearGradient id="paint0_linear" x1="14.0188" y1="14.0567" x2="14.0188" y2="93.868" gradientUnits="userSpaceOnUse">
<stop stop-color="#A864C7"/>
<stop offset="1" stop-color="#C261D4"/>
</linearGradient>
</defs>
</svg>
