<svg width="107" height="128" viewBox="0 0 107 128" fill="none" xmlns="http://www.w3.org/2000/svg">
<rect x="13.7358" y="14.0567" width="79.8113" height="79.8113" rx="39.9057" fill="url(#paint0_linear)"/>
<path fill-rule="evenodd" clip-rule="evenodd" d="M68.2056 66.2695C68.2056 66.2695 63.5092 70.0362 54.1635 68.4775C47.0731 67.2948 43.2914 59.4787 43.2914 55.2775C43.2914 45.3165 50.6638 43.0497 55.648 43.0497C60.6322 43.0497 63.8837 47.9091 63.8837 51.6714C63.8837 55.4338 61.2227 58.7246 57.0816 58.7246C52.9405 58.7246 51.714 55.8173 51.714 53.1445C51.714 50.4717 53.8765 49.53 55.8487 49.53C57.8208 49.53 58.4962 51.2138 58.4962 52.6609C58.4962 54.1081 57.3734 54.6263 56.4368 54.6263C55.5003 54.6263 55.4077 54.1538 55.0492 53.6573C54.6908 53.1608 55.5064 51.2813 54.1635 51.2813C52.8207 51.2813 52.5704 53.442 52.5704 53.442C52.5704 53.442 53.0599 57.6127 57.0816 57.5407C61.1032 57.4687 63.0111 54.3596 62.4566 51.2813C61.9022 48.2031 58.9148 44.9321 53.6718 45.5931C48.4288 46.2541 46.2881 51.5516 47.2317 57.2129C48.1753 62.8742 54.9575 66.1545 60.2901 64.9743C65.6226 63.7942 70.9338 59.9336 70.9338 50.1456C70.9338 40.3575 62.4566 34.474 52.3484 35.4436C42.2402 36.4133 35.9654 45.2505 36.3671 55.8687C36.7687 66.4869 46.8441 72.2699 55.3639 72.568C63.8837 72.866 69.1067 67.9342 69.1067 67.9342C69.1067 67.9342 70.2813 66.8867 69.8208 66.0687C69.3602 65.2508 68.2056 66.2695 68.2056 66.2695Z" fill="white"/>
<path d="M20.1729 118.99V124H18.4854V111.203H23.2051C24.6055 111.203 25.7012 111.561 26.4922 112.275C27.2891 112.99 27.6875 113.937 27.6875 115.114C27.6875 116.356 27.2979 117.314 26.5186 117.988C25.7451 118.656 24.6348 118.99 23.1875 118.99H20.1729ZM20.1729 117.61H23.2051C24.1074 117.61 24.7988 117.399 25.2793 116.978C25.7598 116.55 26 115.935 26 115.132C26 114.37 25.7598 113.761 25.2793 113.304C24.7988 112.847 24.1396 112.609 23.3018 112.592H20.1729V117.61ZM33.6113 118.296C32.1641 117.88 31.1094 117.37 30.4473 116.767C29.791 116.157 29.4629 115.407 29.4629 114.517C29.4629 113.509 29.8643 112.677 30.667 112.021C31.4756 111.358 32.5244 111.027 33.8135 111.027C34.6924 111.027 35.4746 111.197 36.1602 111.537C36.8516 111.877 37.3848 112.346 37.7598 112.943C38.1406 113.541 38.3311 114.194 38.3311 114.903H36.6348C36.6348 114.13 36.3887 113.523 35.8965 113.084C35.4043 112.639 34.71 112.416 33.8135 112.416C32.9814 112.416 32.3311 112.601 31.8623 112.97C31.3994 113.333 31.168 113.84 31.168 114.49C31.168 115.012 31.3877 115.454 31.8271 115.817C32.2725 116.175 33.0254 116.503 34.0859 116.802C35.1523 117.101 35.9844 117.432 36.582 117.795C37.1855 118.152 37.6309 118.571 37.918 119.052C38.2109 119.532 38.3574 120.098 38.3574 120.748C38.3574 121.785 37.9531 122.617 37.1445 123.244C36.3359 123.865 35.2549 124.176 33.9014 124.176C33.0225 124.176 32.2021 124.009 31.4404 123.675C30.6787 123.335 30.0898 122.872 29.6738 122.286C29.2637 121.7 29.0586 121.035 29.0586 120.291H30.7549C30.7549 121.064 31.0391 121.677 31.6074 122.128C32.1816 122.573 32.9463 122.796 33.9014 122.796C34.792 122.796 35.4746 122.614 35.9492 122.251C36.4238 121.888 36.6611 121.393 36.6611 120.766C36.6611 120.139 36.4414 119.655 36.002 119.315C35.5625 118.97 34.7656 118.63 33.6113 118.296ZM44.4307 117.628L47.7705 111.203H49.6865L45.2744 119.228V124H43.5869V119.228L39.1748 111.203H41.1084L44.4307 117.628ZM60.4883 119.939C60.3301 121.293 59.8291 122.339 58.9854 123.077C58.1475 123.81 57.0312 124.176 55.6367 124.176C54.125 124.176 52.9121 123.634 51.998 122.55C51.0898 121.466 50.6357 120.016 50.6357 118.199V116.969C50.6357 115.779 50.8467 114.733 51.2686 113.831C51.6963 112.929 52.2998 112.237 53.0791 111.757C53.8584 111.271 54.7607 111.027 55.7861 111.027C57.1455 111.027 58.2354 111.408 59.0557 112.17C59.876 112.926 60.3535 113.975 60.4883 115.316H58.792C58.6455 114.297 58.3262 113.559 57.834 113.102C57.3477 112.645 56.665 112.416 55.7861 112.416C54.708 112.416 53.8613 112.814 53.2461 113.611C52.6367 114.408 52.332 115.542 52.332 117.013V118.252C52.332 119.641 52.6221 120.745 53.2021 121.565C53.7822 122.386 54.5938 122.796 55.6367 122.796C56.5742 122.796 57.292 122.585 57.79 122.163C58.2939 121.735 58.6279 120.994 58.792 119.939H60.4883ZM72.6348 124H70.9385V118.085H64.4873V124H62.7998V111.203H64.4873V116.705H70.9385V111.203H72.6348V124ZM77.4424 124H75.7549V111.203H77.4424V124ZM89.9492 119.939C89.791 121.293 89.29 122.339 88.4463 123.077C87.6084 123.81 86.4922 124.176 85.0977 124.176C83.5859 124.176 82.373 123.634 81.459 122.55C80.5508 121.466 80.0967 120.016 80.0967 118.199V116.969C80.0967 115.779 80.3076 114.733 80.7295 113.831C81.1572 112.929 81.7607 112.237 82.54 111.757C83.3193 111.271 84.2217 111.027 85.2471 111.027C86.6064 111.027 87.6963 111.408 88.5166 112.17C89.3369 112.926 89.8145 113.975 89.9492 115.316H88.2529C88.1064 114.297 87.7871 113.559 87.2949 113.102C86.8086 112.645 86.126 112.416 85.2471 112.416C84.1689 112.416 83.3223 112.814 82.707 113.611C82.0977 114.408 81.793 115.542 81.793 117.013V118.252C81.793 119.641 82.083 120.745 82.6631 121.565C83.2432 122.386 84.0547 122.796 85.0977 122.796C86.0352 122.796 86.7529 122.585 87.251 122.163C87.7549 121.735 88.0889 120.994 88.2529 119.939H89.9492Z" fill="#747474"/>
<defs>
<linearGradient id="paint0_linear" x1="13.7358" y1="14.0567" x2="13.7358" y2="93.868" gradientUnits="userSpaceOnUse">
<stop stop-color="#F66F71"/>
<stop offset="1" stop-color="#FE9F92"/>
</linearGradient>
</defs>
</svg>
