<svg width="107" height="128" viewBox="0 0 107 128" fill="none" xmlns="http://www.w3.org/2000/svg">
<rect x="13.4529" y="14.0567" width="79.8113" height="79.8113" rx="39.9057" fill="url(#paint0_linear)"/>
<path fill-rule="evenodd" clip-rule="evenodd" d="M63.6103 54.6693C63.5323 54.563 63.5008 54.4296 63.5231 54.2996L65.7929 41.0642C65.8329 40.8309 66.0381 40.6604 66.2748 40.6604C66.4868 40.6604 66.6769 40.7978 66.7407 41L71.8794 57.2705C71.9405 57.4639 71.875 57.675 71.7151 57.7999L68.4189 60.3734C68.2029 60.542 67.8903 60.4989 67.7282 60.278L63.6103 54.6693ZM34.7358 63.3294C34.7358 63.5396 34.871 63.726 35.0708 63.7913L42.6415 66.2667C42.7857 66.3138 42.9437 66.2909 43.0686 66.2047L60.8553 53.9252C60.966 53.8488 61.0401 53.7299 61.0599 53.5969L62.895 41.2837C62.9388 40.99 62.7113 40.7261 62.4144 40.7261H47.11C46.9654 40.7261 46.8282 40.7906 46.7359 40.9019L34.8477 55.2433C34.7754 55.3305 34.7358 55.4402 34.7358 55.5534V63.3294ZM46.2474 67.0169L54.8896 69.8478C55.0368 69.896 55.1982 69.8712 55.3241 69.7809L65.3171 62.6128C65.5305 62.4598 65.5837 62.1649 65.4372 61.9469L62 56.832C61.8494 56.6079 61.5451 56.5495 61.3223 56.702L46.2474 67.0169Z" fill="white"/>
<path d="M36.1787 118.823H33.1729V124H31.4766V111.203H35.7129C37.1543 111.203 38.2617 111.531 39.0352 112.188C39.8145 112.844 40.2041 113.799 40.2041 115.053C40.2041 115.85 39.9873 116.544 39.5537 117.136C39.126 117.728 38.5283 118.17 37.7607 118.463L40.7666 123.895V124H38.9561L36.1787 118.823ZM33.1729 117.443H35.7656C36.6035 117.443 37.2686 117.227 37.7607 116.793C38.2588 116.359 38.5078 115.779 38.5078 115.053C38.5078 114.262 38.2705 113.655 37.7959 113.233C37.3271 112.812 36.6475 112.598 35.7568 112.592H33.1729V117.443ZM52.4209 118.015C52.4209 119.269 52.21 120.364 51.7881 121.302C51.3662 122.233 50.7686 122.945 49.9951 123.438C49.2217 123.93 48.3193 124.176 47.2881 124.176C46.2803 124.176 45.3867 123.93 44.6074 123.438C43.8281 122.939 43.2217 122.233 42.7881 121.319C42.3604 120.399 42.1406 119.336 42.1289 118.129V117.206C42.1289 115.976 42.3428 114.889 42.7705 113.945C43.1982 113.002 43.8018 112.281 44.5811 111.783C45.3662 111.279 46.2627 111.027 47.2705 111.027C48.2959 111.027 49.1982 111.276 49.9775 111.774C50.7627 112.267 51.3662 112.984 51.7881 113.928C52.21 114.865 52.4209 115.958 52.4209 117.206V118.015ZM50.7422 117.188C50.7422 115.671 50.4375 114.508 49.8281 113.699C49.2188 112.885 48.3662 112.478 47.2705 112.478C46.2041 112.478 45.3633 112.885 44.748 113.699C44.1387 114.508 43.8252 115.633 43.8076 117.074V118.015C43.8076 119.485 44.1152 120.643 44.7305 121.486C45.3516 122.324 46.2041 122.743 47.2881 122.743C48.3779 122.743 49.2217 122.348 49.8193 121.557C50.417 120.76 50.7246 119.62 50.7422 118.138V117.188ZM64.3652 119.939C64.207 121.293 63.7061 122.339 62.8623 123.077C62.0244 123.81 60.9082 124.176 59.5137 124.176C58.002 124.176 56.7891 123.634 55.875 122.55C54.9668 121.466 54.5127 120.016 54.5127 118.199V116.969C54.5127 115.779 54.7236 114.733 55.1455 113.831C55.5732 112.929 56.1768 112.237 56.9561 111.757C57.7354 111.271 58.6377 111.027 59.6631 111.027C61.0225 111.027 62.1123 111.408 62.9326 112.17C63.7529 112.926 64.2305 113.975 64.3652 115.316H62.6689C62.5225 114.297 62.2031 113.559 61.7109 113.102C61.2246 112.645 60.542 112.416 59.6631 112.416C58.585 112.416 57.7383 112.814 57.123 113.611C56.5137 114.408 56.209 115.542 56.209 117.013V118.252C56.209 119.641 56.499 120.745 57.0791 121.565C57.6592 122.386 58.4707 122.796 59.5137 122.796C60.4512 122.796 61.1689 122.585 61.667 122.163C62.1709 121.735 62.5049 120.994 62.6689 119.939H64.3652ZM69.9287 118.05L68.3643 119.676V124H66.6768V111.203H68.3643V117.531L74.0508 111.203H76.0898L71.0537 116.854L76.4854 124H74.4639L69.9287 118.05Z" fill="#747474"/>
<defs>
<linearGradient id="paint0_linear" x1="13.4529" y1="14.0567" x2="13.4529" y2="93.868" gradientUnits="userSpaceOnUse">
<stop stop-color="#C5B489"/>
<stop offset="1" stop-color="#D7CD90"/>
</linearGradient>
</defs>
</svg>
