<svg width="108" height="128" viewBox="0 0 108 128" fill="none" xmlns="http://www.w3.org/2000/svg">
<rect x="14.1699" y="14.0567" width="79.8113" height="79.8113" rx="39.9057" fill="url(#paint0_linear)"/>
<path fill-rule="evenodd" clip-rule="evenodd" d="M34.259 55.803C34.0778 55.4937 34.0777 55.1107 34.2588 54.8013L43.8054 38.4905C43.9832 38.1867 44.3087 38.0001 44.6607 38.0001H63.5926C63.9462 38.0001 64.2731 38.1885 64.4503 38.4946L73.8922 54.8055C74.07 55.1127 74.0699 55.4917 73.8919 55.7989L64.4503 72.0908C64.2731 72.3967 63.9464 72.585 63.5929 72.585H44.6604C44.3086 72.585 43.9832 72.3985 43.8053 72.095L34.259 55.803ZM54.0754 64.6038C59.2179 64.6038 63.3867 60.435 63.3867 55.2925C63.3867 50.15 59.2179 45.9812 54.0754 45.9812C48.9329 45.9812 44.7641 50.15 44.7641 55.2925C44.7641 60.435 48.9329 64.6038 54.0754 64.6038Z" fill="white"/>
<path d="M33.2559 118.296C31.8086 117.88 30.7539 117.37 30.0918 116.767C29.4355 116.157 29.1074 115.407 29.1074 114.517C29.1074 113.509 29.5088 112.677 30.3115 112.021C31.1201 111.358 32.1689 111.027 33.458 111.027C34.3369 111.027 35.1191 111.197 35.8047 111.537C36.4961 111.877 37.0293 112.346 37.4043 112.943C37.7852 113.541 37.9756 114.194 37.9756 114.903H36.2793C36.2793 114.13 36.0332 113.523 35.541 113.084C35.0488 112.639 34.3545 112.416 33.458 112.416C32.626 112.416 31.9756 112.601 31.5068 112.97C31.0439 113.333 30.8125 113.84 30.8125 114.49C30.8125 115.012 31.0322 115.454 31.4717 115.817C31.917 116.175 32.6699 116.503 33.7305 116.802C34.7969 117.101 35.6289 117.432 36.2266 117.795C36.8301 118.152 37.2754 118.571 37.5625 119.052C37.8555 119.532 38.002 120.098 38.002 120.748C38.002 121.785 37.5977 122.617 36.7891 123.244C35.9805 123.865 34.8994 124.176 33.5459 124.176C32.667 124.176 31.8467 124.009 31.085 123.675C30.3232 123.335 29.7344 122.872 29.3184 122.286C28.9082 121.7 28.7031 121.035 28.7031 120.291H30.3994C30.3994 121.064 30.6836 121.677 31.252 122.128C31.8262 122.573 32.5908 122.796 33.5459 122.796C34.4365 122.796 35.1191 122.614 35.5938 122.251C36.0684 121.888 36.3057 121.393 36.3057 120.766C36.3057 120.139 36.0859 119.655 35.6465 119.315C35.207 118.97 34.4102 118.63 33.2559 118.296ZM49.0146 112.592H44.9014V124H43.2227V112.592H39.1182V111.203H49.0146V112.592ZM58.1465 118.085H52.6006V122.62H59.043V124H50.9131V111.203H58.9551V112.592H52.6006V116.705H58.1465V118.085ZM68.377 118.085H62.8311V122.62H69.2734V124H61.1436V111.203H69.1855V112.592H62.8311V116.705H68.377V118.085ZM73.0703 122.62H79.1348V124H71.374V111.203H73.0703V122.62Z" fill="#747474"/>
<defs>
<linearGradient id="paint0_linear" x1="14.1699" y1="14.0567" x2="14.1699" y2="93.868" gradientUnits="userSpaceOnUse">
<stop stop-color="#52869D"/>
<stop offset="1" stop-color="#58A6AA"/>
</linearGradient>
</defs>
</svg>
