<svg width="107" height="128" viewBox="0 0 107 128" fill="none" xmlns="http://www.w3.org/2000/svg">
<rect x="13.3018" y="14.0567" width="79.8113" height="79.8113" rx="39.9057" fill="url(#paint0_linear)"/>
<path fill-rule="evenodd" clip-rule="evenodd" d="M67.415 61.9145C67.415 69.5895 61.147 75.8113 53.415 75.8113C45.683 75.8113 39.415 69.5895 39.415 61.9145C39.415 54.45 52.6577 33.9492 53.384 32.8305C53.4006 32.805 53.4295 32.805 53.4461 32.8305C54.1723 33.9492 67.415 54.45 67.415 61.9145ZM51.0813 71.3561C43.977 69.8073 45.1927 61.9661 45.1927 61.9661C45.1927 61.9661 47.1326 66.6996 51.8403 68.2328C56.548 69.766 62.2371 67.5173 62.2371 67.5173C62.2371 67.5173 58.1856 72.9048 51.0813 71.3561Z" fill="white"/>
<path d="M27.2451 119.966L27.4912 121.653L27.8516 120.133L30.3828 111.203H31.8066L34.2764 120.133L34.6279 121.68L34.9004 119.957L36.8867 111.203H38.583L35.4805 124H33.9424L31.3057 114.675L31.1035 113.699L30.9014 114.675L28.168 124H26.6299L23.5361 111.203H25.2236L27.2451 119.966ZM47.1436 120.66H41.7822L40.5781 124H38.8379L43.7246 111.203H45.2012L50.0967 124H48.3652L47.1436 120.66ZM42.292 119.271H46.6426L44.4629 113.286L42.292 119.271ZM59.5186 112.592H55.4053V124H53.7266V112.592H49.6221V111.203H59.5186V112.592ZM68.6504 118.085H63.1045V122.62H69.5469V124H61.417V111.203H69.459V112.592H63.1045V116.705H68.6504V118.085ZM76.3408 118.823H73.335V124H71.6387V111.203H75.875C77.3164 111.203 78.4238 111.531 79.1973 112.188C79.9766 112.844 80.3662 113.799 80.3662 115.053C80.3662 115.85 80.1494 116.544 79.7158 117.136C79.2881 117.728 78.6904 118.17 77.9229 118.463L80.9287 123.895V124H79.1182L76.3408 118.823ZM73.335 117.443H75.9277C76.7656 117.443 77.4307 117.227 77.9229 116.793C78.4209 116.359 78.6699 115.779 78.6699 115.053C78.6699 114.262 78.4326 113.655 77.958 113.233C77.4893 112.812 76.8096 112.598 75.9189 112.592H73.335V117.443Z" fill="#747474"/>
<defs>
<linearGradient id="paint0_linear" x1="13.3018" y1="14.0567" x2="13.3018" y2="93.868" gradientUnits="userSpaceOnUse">
<stop stop-color="#4A90DD"/>
<stop offset="1" stop-color="#6CBDE4"/>
</linearGradient>
</defs>
</svg>
