<svg width="81" height="81" viewBox="0 0 81 81" fill="none" xmlns="http://www.w3.org/2000/svg">
<defs>
<linearGradient id="bug" x1="0.30188" y1="0.49054" x2="0.30188" y2="80.3019" gradientUnits="userSpaceOnUse">
<stop stop-color="#92BC2C"/>
<stop offset="1" stop-color="#AFC836"/>
</linearGradient>
</defs>
<rect x="0.30188" y="0.49054" width="79.8113" height="79.8113" rx="39.9057" fill="url(#bug)"/>
<path fill-rule="evenodd" clip-rule="evenodd" d="M46.4721 19.9672C47.1041 19.0646 48.3481 18.8453 49.2507 19.4772C50.1533 20.1092 50.3726 21.3532 49.7406 22.2558L46.507 26.8739C48.6073 27.5449 50.0382 28.2687 50.0382 28.2687C50.0382 28.2687 46.5405 34.2851 40.608 34.2851C34.6756 34.2851 30.4601 28.6776 30.4601 28.6776C30.4601 28.6776 31.9549 27.7237 34.1707 26.9055L30.6498 22.7095C29.9415 21.8654 30.0516 20.607 30.8957 19.8988C31.7397 19.1905 32.9981 19.3006 33.7064 20.1447L38.2101 25.512C38.2995 25.6186 38.3759 25.7318 38.4394 25.8497C38.9689 25.788 39.5088 25.7534 40.0538 25.7534C40.8185 25.7534 41.5822 25.812 42.3275 25.9112C42.3649 25.8414 42.4068 25.7731 42.4534 25.7066L46.4721 19.9672ZM48.7325 34.5701C50.3157 33.4394 52.7112 30.4883 52.7112 30.4883C52.7112 30.4883 58.8302 35.3373 58.8302 45.619C58.8302 55.9007 48.2514 62.0887 48.2514 62.0887C48.2514 62.0887 43.1971 56.9844 41.9563 50.5138C40.7155 44.0433 43.7917 36.8585 43.7917 36.8585C43.7917 36.8585 47.1494 35.7007 48.7325 34.5701ZM31.6826 34.5701C30.0994 33.4394 27.7039 30.4883 27.7039 30.4883C27.7039 30.4883 21.5848 35.3373 21.5848 45.619C21.5848 55.9007 32.1636 62.0888 32.1636 62.0888C32.1636 62.0888 37.218 56.9844 38.4588 50.5138C39.6996 44.0433 36.6234 36.8585 36.6234 36.8585C36.6234 36.8585 33.2657 35.7007 31.6826 34.5701Z" fill="white"/>
</svg>
