<svg width="81" height="81" viewBox="0 0 81 81" fill="none" xmlns="http://www.w3.org/2000/svg">
<defs>
<linearGradient id="dragon" x1="1.25046" y1="0.49054" x2="1.25046" y2="79.2729" gradientUnits="userSpaceOnUse">
<stop stop-color="#0C69C8"/>
<stop offset="1" stop-color="#0180C7"/>
</linearGradient>
</defs>
<rect x="0.735962" y="0.49054" width="79.8113" height="79.8113" rx="39.9057" fill="url(#dragon)"/>
<path fill-rule="evenodd" clip-rule="evenodd" d="M42.7178 40.3034C43.0062 40.1274 43.2509 39.7589 43.4483 39.3493C46.0457 40.4111 47.8708 42.9197 47.8708 45.8451C47.8708 49.7318 44.6493 52.8825 40.6753 52.8825C39.0441 52.8825 37.5396 52.3516 36.3327 51.4568C35.9368 51.2694 35.6111 51.0893 35.3446 50.942L35.3445 50.9419C34.9311 50.7134 34.66 50.5635 34.4902 50.5869C33.9939 50.6553 34.1381 51.112 34.269 51.5267C34.3579 51.8085 34.4407 52.0709 34.3125 52.1792C34.1783 52.2925 33.7436 51.8782 33.2358 51.3939C32.5444 50.7348 31.7174 49.9462 31.3274 50.183C31.019 50.3704 31.3184 50.8784 31.6848 51.5002L31.712 51.5464C31.8669 51.8093 32.0463 52.077 32.21 52.3212C32.5427 52.8177 32.8108 53.2177 32.6766 53.2854C32.5146 53.3672 31.3851 52.6048 30.4332 51.5464C30.0658 51.1379 29.7099 50.6951 29.3793 50.2836C28.6554 49.383 28.0523 48.6326 27.7138 48.7215C27.3066 48.8284 27.6147 49.6684 28.0673 50.4768C28.279 50.8548 28.528 51.2398 28.7436 51.5731C29.0789 52.0913 29.3333 52.4847 29.241 52.533C29.1165 52.5982 28.0207 51.5296 27.2764 50.183C26.8343 49.3832 26.4631 48.4993 26.1626 47.7837C25.8367 47.0076 25.5939 46.4296 25.4341 46.3714C24.8787 46.1693 24.8787 47.3016 25.1014 48.9361C25.1304 49.1485 25.1734 49.3713 25.2264 49.5982C27.3859 56.5889 34.0226 61.6793 41.8748 61.6793C51.4785 61.6793 59.2638 54.0649 59.2638 44.6721C59.2638 35.7324 52.2115 28.4038 43.2514 27.7174C43.2627 27.2963 43.4825 26.4612 43.4825 26.4612C43.4825 26.4612 45.0643 22.634 45.1479 21.8161C45.1535 21.7619 45.16 21.703 45.167 21.6403L45.1671 21.64C45.2656 20.7564 45.4489 19.1133 44.0354 19.1133C43.2806 19.1133 42.9295 19.6749 42.528 20.3172C42.3739 20.5637 42.2123 20.8222 42.0176 21.0653C40.6153 22.8166 38.2572 25.0035 36.9201 26.1686C34.0939 28.6312 31.3211 30.6551 29.704 31.8355L29.7039 31.8355C28.9684 32.3724 28.472 32.7347 28.3184 32.8845C27.1606 34.0131 23.0094 41.501 23.0094 41.501C23.0094 41.501 21.6669 43.9033 22.1441 44.3905C22.6212 44.8777 23.7719 44.766 23.7719 44.766C23.7719 44.766 39.2304 41.2197 40.6144 40.94C40.987 40.8647 41.2501 40.8212 41.4521 40.7879C42.0003 40.6973 42.0988 40.6811 42.7178 40.3034ZM31.7879 35.746C30.9582 36.5348 29.582 38.4174 29.582 38.4174C29.582 38.4174 32.1396 38.575 33.5482 37.236C34.9569 35.8971 34.6341 33.6152 34.6341 33.6152C34.6341 33.6152 32.6177 34.9573 31.7879 35.746Z" fill="white"/>
</svg>
