<svg width="81" height="81" viewBox="0 0 81 81" fill="none" xmlns="http://www.w3.org/2000/svg">
<defs>
<linearGradient id="electric" x1="0.96738" y1="0.49054" x2="0.96738" y2="79.2729" gradientUnits="userSpaceOnUse">
<stop stop-color="#EDD53E"/>
<stop offset="1" stop-color="#FBE273"/>
</linearGradient>
</defs>
<rect x="0.452881" y="0.49054" width="79.8113" height="79.8113" rx="39.9057" fill="url(#electric)"/>
<path fill-rule="evenodd" clip-rule="evenodd" d="M32.2794 25.9868C32.0164 25.2268 32.5809 24.4341 33.3852 24.4341H45.9081C46.4211 24.4341 46.8743 24.7682 47.0259 25.2582L53.1912 45.1771C53.4242 45.9299 52.8614 46.6932 52.0734 46.6932H44.4079C44.0196 46.6932 43.739 47.0646 43.8452 47.4381L47.684 60.9516C48.0383 62.1989 46.4025 63.0109 45.6232 61.9746L28.4653 39.1573C27.8854 38.3861 28.4356 37.2839 29.4006 37.2839H35.3672C35.7693 37.2839 36.0516 36.8876 35.9201 36.5076L32.2794 25.9868Z" fill="white"/>
</svg>
