<svg width="80" height="81" viewBox="0 0 80 81" fill="none" xmlns="http://www.w3.org/2000/svg">
<defs>
<linearGradient id="fairy" x1="0.824828" y1="0.49054" x2="0.824828" y2="78.9918" gradientUnits="userSpaceOnUse">
<stop stop-color="#EC8CE5"/>
<stop offset="1" stop-color="#F3A7E7"/>
</linearGradient>
</defs>
<rect x="0.1698" y="0.49054" width="79.8113" height="79.8113" rx="39.9057" fill="url(#fairy)"/>
<path fill-rule="evenodd" clip-rule="evenodd" d="M28.8224 52.2351L34.3418 50.6348L39.5092 60.0829C39.754 60.5305 40.3968 60.5305 40.6416 60.0829L45.809 50.6347L51.3286 52.2351C51.8186 52.3772 52.272 51.9214 52.1272 51.4322L50.5324 46.0419L59.6924 41.0321C60.14 40.7873 60.14 40.1445 59.6924 39.8997L50.4487 34.8441L52.1272 29.1707C52.272 28.6815 51.8186 28.2257 51.3286 28.3678L45.6538 30.0132L40.6416 20.8489C40.3968 20.4013 39.754 20.4013 39.5092 20.8489L34.497 30.0132L28.8224 28.3678C28.3324 28.2257 27.8791 28.6815 28.0238 29.1707L29.7023 34.844L20.4584 39.8997C20.0108 40.1445 20.0108 40.7873 20.4584 41.0321L29.6186 46.042L28.0238 51.4322C27.8791 51.9214 28.3324 52.3772 28.8224 52.2351ZM33.8633 41.0864L37.5482 43.1017L39.5635 46.7865C39.8083 47.2341 40.4512 47.2341 40.696 46.7865L42.7113 43.1017L46.3961 41.0864C46.8437 40.8416 46.8437 40.1987 46.3961 39.9539L42.7113 37.9386L40.696 34.2538C40.4512 33.8062 39.8083 33.8062 39.5635 34.2538L37.5482 37.9386L33.8633 39.9539C33.4157 40.1987 33.4157 40.8416 33.8633 41.0864Z" fill="white"/>
</svg>
