<svg width="81" height="81" viewBox="0 0 81 81" fill="none" xmlns="http://www.w3.org/2000/svg">
<defs>
<linearGradient id="fight" x1="1.40122" y1="0.49054" x2="1.40122" y2="79.2729" gradientUnits="userSpaceOnUse">
<stop stop-color="#CE4265"/>
<stop offset="1" stop-color="#E74347"/>
</linearGradient>
</defs>
<rect x="0.886719" y="0.49054" width="79.8113" height="79.8113" rx="39.9057" fill="url(#fight)"/>
<path fill-rule="evenodd" clip-rule="evenodd" d="M27.7217 25.0916C28.2046 23.1847 29.932 21.7737 31.989 21.7737C33.5383 21.7737 34.9006 22.5741 35.685 23.7839C35.806 23.7739 35.9284 23.7688 36.052 23.7688C36.3376 23.7688 36.6169 23.796 36.8873 23.848C37.6912 22.9812 38.84 22.4387 40.1154 22.4387C41.9279 22.4387 43.4845 23.5342 44.1593 25.0991L44.1784 25.0991C44.4914 25.0991 44.7967 25.1318 45.0912 25.1939C45.7961 24.7143 46.6474 24.4341 47.5642 24.4341C49.4669 24.4341 51.0877 25.6413 51.7022 27.3316C52.0358 27.4461 52.3513 27.5995 52.6432 27.7864C53.3274 27.3484 54.1407 27.0944 55.0134 27.0944C57.4444 27.0944 59.4151 29.0651 59.4151 31.4961V44.934C59.4151 45.0151 59.4129 45.0959 59.4085 45.1762C59.1426 54.3317 50.9097 61.6793 40.7924 61.6793C30.5074 61.6793 22.1698 54.0861 22.1698 44.7194C22.1698 40.1981 24.1124 36.09 27.279 33.0497C27.2711 37.4576 27.3456 42.0145 27.6888 41.9363C28.6077 41.7269 27.8898 28.0752 27.7217 25.0916Z" fill="white"/>
</svg>
