<svg width="81" height="81" viewBox="0 0 81 81" fill="none" xmlns="http://www.w3.org/2000/svg">
<defs>
<linearGradient id="fire" x1="0.30188" y1="0.868042" x2="0.30188" y2="80.6794" gradientUnits="userSpaceOnUse">
<stop stop-color="#FB9B51"/>
<stop offset="1" stop-color="#FBAE46"/>
</linearGradient>
</defs>
<rect x="0.30188" y="0.868042" width="79.8113" height="79.8113" rx="39.9057" fill="url(#fire)"/>
<path fill-rule="evenodd" clip-rule="evenodd" d="M46.8208 52.5858C47.3078 50.8053 46.3626 47.1449 46.3626 47.1449C46.3626 47.1449 45.6771 50.1269 44.6059 51.2289C43.6918 52.1693 42.5718 52.8215 40.9652 52.9925C42.2783 52.355 43.1814 51.0253 43.1814 49.4883C43.1814 47.331 41.4024 45.5822 39.2079 45.5822C37.0134 45.5822 35.2343 47.331 35.2343 49.4883C35.2343 50.077 35.3668 50.6353 35.6041 51.136C34.233 50.0424 34.0173 48.2906 34.0173 48.2906C34.0173 48.2906 32.4847 54.654 36.7078 57.6473C40.931 60.6407 49.204 58.0678 49.204 58.0678C49.204 58.0678 37.3648 66.3981 28.5919 57.3316C21.0347 49.5215 26.6195 39.2392 26.6195 39.2392C26.6195 39.2392 26.3783 40.1931 26.3783 41.3004C26.3783 42.4076 26.9786 43.2501 26.9786 43.2501C26.9786 43.2501 28.7694 39.4754 30.1631 37.9403C31.4821 36.4875 33.1356 35.3092 34.5637 34.2915C35.663 33.5081 36.6289 32.8198 37.2058 32.1747C40.383 28.622 38.4348 22.151 38.4348 22.151C38.4348 22.151 42.0164 25.3084 43.0163 29.3863C43.3974 30.9407 43.1522 32.7093 42.933 34.2909C42.577 36.8584 42.2894 38.933 44.8607 38.7984C49.0158 38.5809 45.4052 32.1747 45.4052 32.1747C45.4052 32.1747 54.8307 37.1286 54.1265 45.7929C53.4223 54.4572 43.8239 56.4269 43.8239 56.4269C43.8239 56.4269 46.3339 54.3662 46.8208 52.5858Z" fill="white"/>
</svg>
