<svg width="80" height="81" viewBox="0 0 80 81" fill="none" xmlns="http://www.w3.org/2000/svg">
<defs>
<linearGradient id="flying" x1="0.0187988" y1="0.868042" x2="0.0187988" y2="80.6794" gradientUnits="userSpaceOnUse">
<stop stop-color="#90A7DA"/>
<stop offset="1" stop-color="#A6C2F2"/>
</linearGradient>
</defs>
<rect x="0.0187988" y="0.868042" width="79.8113" height="79.8113" rx="39.9057" fill="url(#flying)"/>
<path fill-rule="evenodd" clip-rule="evenodd" d="M32.4052 61C39.2903 61 45.1848 57.1484 47.6182 51.6884C47.648 51.6218 37.8483 54.2518 38.1608 53.3221C38.3003 52.907 44.3075 50.6981 48.6842 48.1217C51.1997 46.6408 52.3581 43.506 52.3581 43.506C52.3581 43.506 48.1201 45.5771 45.9776 46.1025C41.6602 47.1614 37.8597 47.0474 37.8597 46.937C37.8597 46.6985 44.1703 45.4916 52.9413 40.1117C57.067 37.5812 58.1875 33.2224 58.1875 33.2224C58.1875 33.2224 53.6518 35.9419 50.9098 36.8397C44.4072 38.9688 38.4733 39.6104 38.4733 39.3223C38.4733 38.7055 43.6954 37.2601 49.232 34.5598C52.1108 33.1558 54.6039 31.3215 57.493 29.2816C62.2204 25.9441 63 20 63 20C63 20 58.3374 23.027 56.0621 24.0322C46.6732 28.1801 38.3828 30.3559 32.4052 30.8269C23.382 31.538 16 37.8749 16 46.1025C16 54.3302 23.3449 61 32.4052 61Z" fill="white"/>
</svg>
