<svg width="81" height="81" viewBox="0 0 81 81" fill="none" xmlns="http://www.w3.org/2000/svg">
<defs>
<linearGradient id="ghost" x1="1.25046" y1="0.868042" x2="1.25046" y2="79.6504" gradientUnits="userSpaceOnUse">
<stop stop-color="#516AAC"/>
<stop offset="1" stop-color="#7773D4"/>
</linearGradient>
</defs>
<rect x="0.735962" y="0.868042" width="79.8113" height="79.8113" rx="39.9057" fill="url(#ghost)"/>
<path fill-rule="evenodd" clip-rule="evenodd" d="M48.6625 58.8719C45.3251 59.0427 41.5042 59.0427 40.2057 58.8719C30.0771 57.5394 22 50.1339 22 40.1242C22 30.1145 30.2827 22 40.5 22C50.7173 22 59 30.1145 59 40.1242C59 44.7796 57.2083 49.0251 54.2637 52.235C53.4641 53.1066 54.5612 53.718 55.6759 54.3392C56.7692 54.9484 57.8793 55.5671 57.2341 56.4499C56.5232 57.4227 52.669 58.6668 48.6625 58.8719ZM37.8984 37.8587C37.8984 39.4227 36.6042 40.6906 35.0078 40.6906C33.4114 40.6906 32.1172 39.4227 32.1172 37.8587C32.1172 36.8098 32.6993 35.8941 33.5642 35.4046C33.614 36.7683 34.7353 37.8586 36.1112 37.8586H37.8984V37.8587ZM46.8576 35.4046C46.8079 36.7683 45.6866 37.8586 44.3106 37.8586H42.5234V37.8587C42.5234 39.4227 43.8176 40.6906 45.4141 40.6906C47.0105 40.6906 48.3047 39.4227 48.3047 37.8587C48.3047 36.8098 47.7226 35.8941 46.8576 35.4046Z" fill="white"/>
</svg>
