<svg width="81" height="81" viewBox="0 0 81 81" fill="none" xmlns="http://www.w3.org/2000/svg">
<defs>
<linearGradient id="grass" x1="0.452881" y1="0.868042" x2="0.452881" y2="80.6794" gradientUnits="userSpaceOnUse">
<stop stop-color="#5FBC51"/>
<stop offset="1" stop-color="#5AC178"/>
</linearGradient>
</defs>
<rect x="0.452881" y="0.868042" width="79.8113" height="79.8113" rx="39.9057" fill="url(#grass)"/>
<path fill-rule="evenodd" clip-rule="evenodd" d="M27.0997 55.7659C26.9533 55.6285 26.8085 55.4884 26.6654 55.3455C19.1115 47.8064 19.1115 35.5828 26.6654 28.0436C34.2193 20.5044 58.289 20 58.289 20C58.289 20 61.5744 47.8064 54.0206 55.3455C47.3117 62.0414 36.9009 62.7905 29.3637 57.5928L35.4369 50.1545L45.1453 48.0625L37.2204 47.2718L42.2568 42.1537L47.9897 40.9003L43.4565 39.5603L47.9897 31.3983L41.5416 38.6169L39.0515 35.1099L39.9281 40.9003L35.4369 45.9535L33.355 39.5603V48.0625L27.0997 55.7659Z" fill="white"/>
</svg>
