<svg width="80" height="81" viewBox="0 0 80 81" fill="none" xmlns="http://www.w3.org/2000/svg">
<defs>
<linearGradient id="ground" x1="0.684299" y1="0.868042" x2="0.684299" y2="79.6504" gradientUnits="userSpaceOnUse">
<stop stop-color="#DC7545"/>
<stop offset="1" stop-color="#D29463"/>
</linearGradient>
</defs>
<rect x="0.1698" y="0.868042" width="79.8113" height="79.8113" rx="39.9057" fill="url(#ground)"/>
<path fill-rule="evenodd" clip-rule="evenodd" d="M29.0834 53.9616C28.9213 53.9616 28.808 53.8013 28.8621 53.6485L38.9415 25.168C39.0171 24.9543 39.2192 24.8114 39.4459 24.8114H49.711C49.9387 24.8114 50.1413 24.9554 50.2163 25.1703L60.0065 53.2504C60.1278 53.5981 59.8696 53.9616 59.5013 53.9616H29.0834ZM20.6488 54.0755C20.2753 54.0755 20.0167 53.7025 20.1478 53.3527L27.4327 33.9037C27.511 33.6948 27.7107 33.5563 27.9338 33.5563H33.5014C33.8724 33.5563 34.1308 33.9248 34.0044 34.2736L26.9601 53.7226C26.8834 53.9344 26.6822 54.0755 26.457 54.0755H20.6488Z" fill="white"/>
</svg>
