<svg width="81" height="81" viewBox="0 0 81 81" fill="none" xmlns="http://www.w3.org/2000/svg">
<defs>
<linearGradient id="normal" x1="0.816379" y1="0.245361" x2="0.816379" y2="79.0277" gradientUnits="userSpaceOnUse">
<stop stop-color="#9298A4"/>
<stop offset="1" stop-color="#A3A49E"/>
</linearGradient>
</defs>
<rect x="0.30188" y="0.245361" width="79.8113" height="79.8113" rx="39.9057" fill="url(#normal)"/>
<path fill-rule="evenodd" clip-rule="evenodd" d="M40.2075 58.7736C50.4925 58.7736 58.8301 50.436 58.8301 40.151C58.8301 29.866 50.4925 21.5283 40.2075 21.5283C29.9225 21.5283 21.5848 29.866 21.5848 40.151C21.5848 50.436 29.9225 58.7736 40.2075 58.7736ZM40.2075 50.7925C46.0846 50.7925 50.849 46.0281 50.849 40.1509C50.849 34.2738 46.0846 29.5094 40.2075 29.5094C34.3303 29.5094 29.566 34.2738 29.566 40.1509C29.566 46.0281 34.3303 50.7925 40.2075 50.7925Z" fill="white"/>
</svg>
