<svg width="80" height="81" viewBox="0 0 80 81" fill="none" xmlns="http://www.w3.org/2000/svg">
<defs>
<linearGradient id="poison" x1="0.0187988" y1="0.245361" x2="0.0187988" y2="80.0567" gradientUnits="userSpaceOnUse">
<stop stop-color="#A864C7"/>
<stop offset="1" stop-color="#C261D4"/>
</linearGradient>
</defs>
<rect x="0.0187988" y="0.245361" width="79.8113" height="79.8113" rx="39.9057" fill="url(#poison)"/>
<path fill-rule="evenodd" clip-rule="evenodd" d="M32.3284 61.4342C34.2128 61.4342 35.8653 60.1025 36.7916 58.1024C37.7179 60.1025 39.3704 61.4342 41.2548 61.4342C42.9724 61.4342 44.4973 60.3278 45.4553 58.6172C46.4133 60.3278 47.9383 61.4342 49.6559 61.4342C52.5558 61.4342 54.9066 58.2803 54.9066 54.3899C54.9066 53.6232 54.8153 52.8851 54.6465 52.1942C58.6764 48.972 61.2077 44.3164 61.2077 39.1391C61.2077 29.4129 52.2745 21.5283 41.2548 21.5283C30.2352 21.5283 21.302 29.4129 21.302 39.1391C21.302 44.1294 23.6537 48.635 27.4324 51.8395C27.2033 52.6303 27.0777 53.4904 27.0777 54.3899C27.0777 58.2803 29.4285 61.4342 32.3284 61.4342ZM40.9922 48.4291C47.517 48.4291 52.8064 44.4261 52.8064 39.4882C52.8064 34.5504 47.517 30.5474 40.9922 30.5474C34.4674 30.5474 29.178 34.5504 29.178 39.4882C29.178 44.4261 34.4674 48.4291 40.9922 48.4291Z" fill="white"/>
</svg>
