<svg width="81" height="81" viewBox="0 0 81 81" fill="none" xmlns="http://www.w3.org/2000/svg">
<defs>
<linearGradient id="psychic" x1="0.735962" y1="0.245361" x2="0.735962" y2="80.0567" gradientUnits="userSpaceOnUse">
<stop stop-color="#F66F71"/>
<stop offset="1" stop-color="#FE9F92"/>
</linearGradient>
</defs>
<rect x="0.735962" y="0.245361" width="79.8113" height="79.8113" rx="39.9057" fill="url(#psychic)"/>
<path fill-rule="evenodd" clip-rule="evenodd" d="M55.2057 52.4582C55.2057 52.4582 50.5093 56.2249 41.1637 54.6661C34.0732 53.4835 30.2915 45.6674 30.2915 41.4661C30.2915 31.5052 37.6639 29.2384 42.6482 29.2384C47.6324 29.2384 50.8838 34.0977 50.8838 37.8601C50.8838 41.6225 48.2228 44.9132 44.0817 44.9132C39.9406 44.9132 38.7141 42.006 38.7141 39.3332C38.7141 36.6604 40.8766 35.7187 42.8488 35.7187C44.821 35.7187 45.4963 37.4024 45.4963 38.8496C45.4963 40.2967 44.3735 40.815 43.4369 40.815C42.5004 40.815 42.4078 40.3425 42.0494 39.846C41.691 39.3494 42.5065 37.47 41.1637 37.47C39.8208 37.47 39.5705 39.6306 39.5705 39.6306C39.5705 39.6306 40.06 43.8013 44.0817 43.7293C48.1034 43.6573 50.0112 40.5482 49.4568 37.47C48.9023 34.3918 45.9149 31.1208 40.6719 31.7818C35.4289 32.4427 33.2882 37.7403 34.2318 43.4016C35.1754 49.0629 41.9576 52.3431 47.2902 51.163C52.6228 49.9829 57.9339 46.1223 57.9339 36.3342C57.9339 26.5462 49.4568 20.6626 39.3485 21.6323C29.2403 22.6019 22.9656 31.4392 23.3672 42.0574C23.7688 52.6756 33.8443 58.4585 42.364 58.7566C50.8838 59.0547 56.1068 54.1228 56.1068 54.1228C56.1068 54.1228 57.2814 53.0754 56.8209 52.2574C56.3604 51.4395 55.2057 52.4582 55.2057 52.4582Z" fill="white"/>
</svg>
