<svg width="81" height="81" viewBox="0 0 81 81" fill="none" xmlns="http://www.w3.org/2000/svg">
<defs>
<linearGradient id="rock" x1="0.452881" y1="0.245361" x2="0.452881" y2="80.0567" gradientUnits="userSpaceOnUse">
<stop stop-color="#C5B489"/>
<stop offset="1" stop-color="#D7CD90"/>
</linearGradient>
</defs>
<rect x="0.452881" y="0.245361" width="79.8113" height="79.8113" rx="39.9057" fill="url(#rock)"/>
<path fill-rule="evenodd" clip-rule="evenodd" d="M50.6103 40.858C50.5323 40.7517 50.5008 40.6182 50.5231 40.4883L52.7929 27.2529C52.8329 27.0196 53.0381 26.8491 53.2748 26.8491C53.4868 26.8491 53.6769 26.9865 53.7407 27.1886L58.8794 43.4591C58.9405 43.6526 58.875 43.8637 58.7151 43.9885L55.4189 46.5621C55.2029 46.7307 54.8903 46.6875 54.7282 46.4666L50.6103 40.858ZM21.7358 49.5181C21.7358 49.7283 21.871 49.9146 22.0708 49.98L29.6415 52.4553C29.7857 52.5025 29.9437 52.4796 30.0686 52.3934L47.8553 40.1138C47.966 40.0374 48.0401 39.9186 48.0599 39.7856L49.895 27.4723C49.9388 27.1787 49.7113 26.9148 49.4144 26.9148H34.11C33.9654 26.9148 33.8282 26.9792 33.7359 27.0906L21.8477 41.432C21.7754 41.5191 21.7358 41.6288 21.7358 41.7421V49.5181ZM33.2474 53.2055L41.8896 56.0365C42.0368 56.0847 42.1982 56.0598 42.3241 55.9695L52.3171 48.8015C52.5305 48.6484 52.5837 48.3536 52.4372 48.1356L49 43.0206C48.8494 42.7966 48.5451 42.7382 48.3223 42.8906L33.2474 53.2055Z" fill="white"/>
</svg>
