<svg width="80" height="81" viewBox="0 0 80 81" fill="none" xmlns="http://www.w3.org/2000/svg">
<defs>
<linearGradient id="steel" x1="0.1698" y1="0.245361" x2="0.1698" y2="80.0567" gradientUnits="userSpaceOnUse">
<stop stop-color="#52869D"/>
<stop offset="1" stop-color="#58A6AA"/>
</linearGradient>
</defs>
<rect x="0.1698" y="0.245361" width="79.8113" height="79.8113" rx="39.9057" fill="url(#steel)"/>
<path fill-rule="evenodd" clip-rule="evenodd" d="M20.2589 41.9916C20.0777 41.6824 20.0776 41.2994 20.2587 40.99L29.8053 24.6792C29.9831 24.3754 30.3086 24.1887 30.6606 24.1887H49.5924C49.9461 24.1887 50.273 24.3772 50.4501 24.6833L59.892 40.9941C60.0699 41.3014 60.0698 41.6803 59.8918 41.9875L50.4502 58.2795C50.273 58.5853 49.9462 58.7736 49.5928 58.7736H30.6603C30.3085 58.7736 29.983 58.5871 29.8052 58.2836L20.2589 41.9916ZM40.0753 50.7925C45.2178 50.7925 49.3866 46.6237 49.3866 41.4812C49.3866 36.3387 45.2178 32.1698 40.0753 32.1698C34.9328 32.1698 30.7639 36.3387 30.7639 41.4812C30.7639 46.6237 34.9328 50.7925 40.0753 50.7925Z" fill="white"/>
</svg>
