<svg width="320" height="107" viewBox="0 0 320 107" fill="none" xmlns="http://www.w3.org/2000/svg">
<g clip-path="url(#clip0)">
<rect x="13.3018" y="13.3019" width="292.642" height="79.8113" rx="39.9057" fill="#9DC130"/>
<path d="M150.464 41.3221H159.275C160.126 41.3221 160.967 41.4285 161.797 41.6414C162.627 41.8329 163.361 42.1628 164 42.631C164.66 43.078 165.192 43.6632 165.596 44.3869C166 45.1105 166.203 45.9831 166.203 47.0047C166.203 48.2817 165.841 49.3352 165.117 50.1652C164.394 50.9952 163.447 51.5912 162.276 51.953V52.0168C162.978 52.102 163.627 52.3042 164.223 52.6234C164.841 52.9214 165.362 53.3151 165.788 53.8046C166.213 54.2728 166.543 54.8262 166.777 55.4647C167.033 56.0819 167.16 56.7523 167.16 57.4759C167.16 58.7103 166.916 59.7426 166.426 60.5726C165.937 61.3814 165.288 62.0411 164.479 62.5519C163.691 63.0414 162.776 63.3926 161.733 63.6054C160.712 63.8183 159.669 63.9247 158.605 63.9247H150.464V41.3221ZM154.486 50.5164H158.158C159.499 50.5164 160.499 50.261 161.159 49.7502C161.84 49.2181 162.18 48.5264 162.18 47.6751C162.18 46.6961 161.829 45.9725 161.127 45.5042C160.446 45.0147 159.339 44.77 157.807 44.77H154.486V50.5164ZM154.486 60.4768H158.19C158.7 60.4768 159.243 60.4449 159.818 60.3811C160.414 60.3172 160.956 60.1682 161.446 59.9341C161.935 59.7 162.34 59.3701 162.659 58.9445C162.978 58.4975 163.138 57.9016 163.138 57.1567C163.138 55.9648 162.744 55.1348 161.957 54.6666C161.191 54.1983 159.988 53.9642 158.349 53.9642H154.486V60.4768ZM189.266 55.6243C189.266 56.9864 189.032 58.2208 188.564 59.3276C188.096 60.413 187.457 61.3388 186.648 62.105C185.84 62.8712 184.882 63.4671 183.775 63.8928C182.668 64.2971 181.466 64.4993 180.168 64.4993C178.869 64.4993 177.667 64.2971 176.56 63.8928C175.453 63.4671 174.485 62.8712 173.655 62.105C172.846 61.3388 172.208 60.413 171.74 59.3276C171.293 58.2208 171.069 56.9864 171.069 55.6243V41.3221H175.092V55.4966C175.092 56.05 175.177 56.6352 175.347 57.2525C175.517 57.8484 175.794 58.4017 176.177 58.9125C176.581 59.4233 177.103 59.849 177.741 60.1895C178.401 60.5088 179.21 60.6684 180.168 60.6684C181.125 60.6684 181.924 60.5088 182.562 60.1895C183.222 59.849 183.743 59.4233 184.126 58.9125C184.531 58.4017 184.818 57.8484 184.988 57.2525C185.159 56.6352 185.244 56.05 185.244 55.4966V41.3221H189.266V55.6243ZM214.285 62.2646C211.497 63.7544 208.379 64.4993 204.931 64.4993C203.186 64.4993 201.579 64.2226 200.11 63.6693C198.663 63.0946 197.407 62.2965 196.343 61.2749C195.3 60.2321 194.481 58.987 193.885 57.5398C193.289 56.0925 192.991 54.4857 192.991 52.7192C192.991 50.9101 193.289 49.2713 193.885 47.8028C194.481 46.313 195.3 45.0466 196.343 44.0038C197.407 42.9609 198.663 42.1628 200.11 41.6094C201.579 41.0348 203.186 40.7475 204.931 40.7475C206.655 40.7475 208.272 40.9603 209.783 41.386C211.294 41.7903 212.646 42.5246 213.838 43.5888L210.869 46.5897C210.145 45.8873 209.262 45.3446 208.219 44.9615C207.198 44.5784 206.112 44.3869 204.963 44.3869C203.792 44.3869 202.728 44.5997 201.77 45.0254C200.834 45.4297 200.025 46.0044 199.344 46.7493C198.663 47.4729 198.131 48.3242 197.748 49.3032C197.386 50.2823 197.205 51.3358 197.205 52.4638C197.205 53.6769 197.386 54.7943 197.748 55.8159C198.131 56.8374 198.663 57.7207 199.344 58.4656C200.025 59.2105 200.834 59.7958 201.77 60.2214C202.728 60.6471 203.792 60.8599 204.963 60.8599C205.984 60.8599 206.942 60.7642 207.836 60.5726C208.751 60.3811 209.56 60.0831 210.262 59.6787V54.3473H205.633V50.7079H214.285V62.2646Z" fill="white"/>
<path fill-rule="evenodd" clip-rule="evenodd" d="M75.4342 32.7785C76.0662 31.8759 77.3102 31.6565 78.2128 32.2885C79.1154 32.9205 79.3347 34.1645 78.7027 35.0671L75.4691 39.6852C77.5693 40.3562 79.0003 41.08 79.0003 41.08C79.0003 41.08 75.5026 47.0964 69.5701 47.0964C63.6376 47.0964 59.4222 41.4889 59.4222 41.4889C59.4222 41.4889 60.9169 40.535 63.1328 39.7168L59.6118 35.5208C58.9036 34.6767 59.0137 33.4183 59.8578 32.7101C60.7018 32.0018 61.9602 32.1119 62.6685 32.956L67.1722 38.3233C67.2616 38.4299 67.338 38.5431 67.4015 38.6609C67.931 38.5993 68.4709 38.5647 69.0159 38.5647C69.7806 38.5647 70.5443 38.6233 71.2896 38.7225C71.3269 38.6527 71.3689 38.5844 71.4154 38.5179L75.4342 32.7785ZM60.6448 47.3814C59.0617 46.2507 56.6662 43.2996 56.6662 43.2996C56.6662 43.2996 50.5471 48.1486 50.5471 58.4303C50.5471 68.712 61.1259 74.9 61.1259 74.9C61.1259 74.9 66.1803 69.7956 67.4211 63.3251C68.6619 56.8546 65.5857 49.6698 65.5857 49.6698C65.5857 49.6698 62.228 48.512 60.6448 47.3814ZM77.6946 47.3814C79.2777 46.2507 81.6733 43.2996 81.6733 43.2996C81.6733 43.2996 87.7923 48.1486 87.7923 58.4303C87.7923 68.712 77.2135 74.9001 77.2135 74.9001C77.2135 74.9001 72.1591 69.7957 70.9183 63.3251C69.6775 56.8546 72.7538 49.6698 72.7538 49.6698C72.7538 49.6698 76.1114 48.512 77.6946 47.3814Z" fill="white"/>
</g>
<defs>
<clipPath id="clip0">
<rect width="292.642" height="79.8113" fill="white" transform="translate(13.3018 13.3019)"/>
</clipPath>
</defs>
</svg>
