<svg width="320" height="107" viewBox="0 0 320 107" fill="none" xmlns="http://www.w3.org/2000/svg">
<g clip-path="url(#clip0)">
<rect x="13.8303" y="13.3019" width="292.642" height="79.8113" rx="39.9057" fill="#5F606D"/>
<path d="M140.673 41.3221H149.58C151.07 41.3221 152.506 41.5562 153.89 42.0245C155.273 42.4714 156.497 43.1631 157.561 44.0996C158.625 45.036 159.476 46.2172 160.115 47.6432C160.753 49.0479 161.073 50.7079 161.073 52.6234C161.073 54.5602 160.7 56.2415 159.955 57.6675C159.232 59.0722 158.285 60.2427 157.114 61.1792C155.965 62.0943 154.677 62.786 153.251 63.2543C151.846 63.7012 150.463 63.9247 149.101 63.9247H140.673V41.3221ZM147.696 60.2853C148.952 60.2853 150.133 60.1469 151.24 59.8703C152.368 59.5723 153.347 59.1254 154.177 58.5294C155.007 57.9122 155.656 57.1248 156.124 56.167C156.614 55.188 156.859 54.0068 156.859 52.6234C156.859 51.2613 156.646 50.0907 156.22 49.1117C155.794 48.1327 155.199 47.3452 154.432 46.7493C153.687 46.1321 152.794 45.6851 151.751 45.4085C150.729 45.1105 149.601 44.9615 148.367 44.9615H144.695V60.2853H147.696ZM172.208 41.3221H175.687L185.424 63.9247H180.827L178.72 58.7529H168.919L166.876 63.9247H162.375L172.208 41.3221ZM177.315 55.3051L173.836 46.1108L170.292 55.3051H177.315ZM187.936 41.3221H195.79C196.875 41.3221 197.918 41.4285 198.918 41.6414C199.94 41.8329 200.844 42.1734 201.632 42.6629C202.419 43.1525 203.047 43.8122 203.515 44.6423C203.984 45.4723 204.218 46.5258 204.218 47.8028C204.218 49.4416 203.76 50.8143 202.845 51.9211C201.951 53.0278 200.663 53.6982 198.982 53.9323L204.984 63.9247H200.131L194.896 54.3473H191.959V63.9247H187.936V41.3221ZM195.087 50.8995C195.662 50.8995 196.236 50.8782 196.811 50.8356C197.386 50.7718 197.907 50.6441 198.375 50.4525C198.865 50.2397 199.259 49.9311 199.557 49.5267C199.855 49.1011 200.004 48.5158 200.004 47.7709C200.004 47.1111 199.865 46.579 199.589 46.1746C199.312 45.7703 198.95 45.4723 198.503 45.2808C198.056 45.0679 197.556 44.9296 197.003 44.8657C196.471 44.8019 195.949 44.77 195.438 44.77H191.959V50.8995H195.087ZM208.045 41.3221H212.067V50.8995H212.259L221.613 41.3221H227.04L216.473 51.7614L227.742 63.9247H222.092L212.291 52.8149H212.067V63.9247H208.045V41.3221Z" fill="white"/>
<path fill-rule="evenodd" clip-rule="evenodd" d="M57.6389 67.1595C58.3418 67.2671 59.0617 67.3229 59.7948 67.3229C67.5996 67.3229 73.9267 60.9958 73.9267 53.191C73.9267 45.3861 67.5996 39.059 59.7948 39.059C59.2712 39.059 58.7541 39.0875 58.2453 39.143C62.1169 42.0762 64.6767 47.1573 64.6767 52.934C64.6767 59.0072 61.8474 64.3115 57.6389 67.1595ZM59.5378 71.434C69.7551 71.434 78.0378 63.1513 78.0378 52.934C78.0378 42.7167 69.7551 34.434 59.5378 34.434C49.3206 34.434 41.0378 42.7167 41.0378 52.934C41.0378 63.1513 49.3206 71.434 59.5378 71.434Z" fill="white"/>
</g>
<defs>
<clipPath id="clip0">
<rect width="292.642" height="79.8113" fill="white" transform="translate(13.8303 13.3019)"/>
</clipPath>
</defs>
</svg>
