<svg width="320" height="107" viewBox="0 0 320 107" fill="none" xmlns="http://www.w3.org/2000/svg">
<g clip-path="url(#clip0)">
<rect x="13.3018" y="13.6794" width="292.642" height="79.8113" rx="39.9057" fill="#0773C7"/>
<path d="M112.647 41.6994H121.554C123.044 41.6994 124.48 41.9335 125.864 42.4018C127.247 42.8487 128.471 43.5404 129.535 44.4769C130.599 45.4133 131.451 46.5945 132.089 48.0205C132.728 49.4252 133.047 51.0852 133.047 53.0007C133.047 54.9375 132.674 56.6188 131.929 58.0448C131.206 59.4495 130.259 60.62 129.088 61.5565C127.939 62.4717 126.651 63.1634 125.225 63.6316C123.821 64.0785 122.437 64.302 121.075 64.302H112.647V41.6994ZM119.67 60.6626C120.926 60.6626 122.107 60.5243 123.214 60.2476C124.342 59.9496 125.321 59.5027 126.151 58.9068C126.981 58.2895 127.63 57.5021 128.099 56.5443C128.588 55.5653 128.833 54.3841 128.833 53.0007C128.833 51.6386 128.62 50.468 128.194 49.489C127.769 48.51 127.173 47.7225 126.407 47.1266C125.662 46.5094 124.768 46.0625 123.725 45.7858C122.703 45.4878 121.575 45.3388 120.341 45.3388H116.67V60.6626H119.67ZM136.871 41.6994H144.724C145.81 41.6994 146.853 41.8059 147.853 42.0187C148.875 42.2102 149.779 42.5508 150.567 43.0403C151.354 43.5298 151.982 44.1895 152.45 45.0196C152.918 45.8496 153.153 46.9031 153.153 48.1801C153.153 49.8189 152.695 51.1917 151.78 52.2984C150.886 53.4051 149.598 54.0755 147.917 54.3096L153.919 64.302H149.066L143.831 54.7246H140.894V64.302H136.871V41.6994ZM144.022 51.2768C144.597 51.2768 145.171 51.2555 145.746 51.2129C146.321 51.1491 146.842 51.0214 147.31 50.8299C147.8 50.617 148.194 50.3084 148.492 49.904C148.79 49.4784 148.939 48.8931 148.939 48.1482C148.939 47.4884 148.8 46.9563 148.523 46.552C148.247 46.1476 147.885 45.8496 147.438 45.6581C146.991 45.4452 146.491 45.3069 145.938 45.2431C145.406 45.1792 144.884 45.1473 144.373 45.1473H140.894V51.2768H144.022ZM164.29 41.6994H167.77L177.507 64.302H172.91L170.803 59.1302H161.002L158.959 64.302H154.458L164.29 41.6994ZM169.398 55.6824L165.919 46.4881L162.375 55.6824H169.398ZM200.1 62.6419C197.311 64.1317 194.194 64.8766 190.746 64.8766C189 64.8766 187.394 64.6 185.925 64.0466C184.478 63.472 183.222 62.6739 182.158 61.6523C181.115 60.6094 180.296 59.3643 179.7 57.9171C179.104 56.4699 178.806 54.863 178.806 53.0965C178.806 51.2874 179.104 49.6486 179.7 48.1801C180.296 46.6903 181.115 45.424 182.158 44.3811C183.222 43.3382 184.478 42.5401 185.925 41.9868C187.394 41.4121 189 41.1248 190.746 41.1248C192.47 41.1248 194.087 41.3376 195.598 41.7633C197.109 42.1677 198.461 42.9019 199.653 43.9661L196.684 46.967C195.96 46.2646 195.077 45.7219 194.034 45.3388C193.012 44.9557 191.927 44.7642 190.778 44.7642C189.607 44.7642 188.543 44.977 187.585 45.4027C186.649 45.8071 185.84 46.3817 185.159 47.1266C184.478 47.8502 183.946 48.7015 183.563 49.6806C183.201 50.6596 183.02 51.7131 183.02 52.8411C183.02 54.0542 183.201 55.1716 183.563 56.1932C183.946 57.2148 184.478 58.098 185.159 58.8429C185.84 59.5878 186.649 60.1731 187.585 60.5988C188.543 61.0244 189.607 61.2372 190.778 61.2372C191.799 61.2372 192.757 61.1415 193.651 60.9499C194.566 60.7584 195.375 60.4604 196.077 60.056V54.7246H191.448V51.0852H200.1V62.6419ZM203.653 53.0965C203.653 51.2874 203.951 49.6486 204.547 48.1801C205.143 46.6903 205.963 45.424 207.005 44.3811C208.07 43.3382 209.325 42.5401 210.773 41.9868C212.241 41.4121 213.848 41.1248 215.593 41.1248C217.36 41.1035 218.977 41.3695 220.446 41.9229C221.914 42.455 223.181 43.2425 224.245 44.2853C225.309 45.3282 226.139 46.5839 226.735 48.0524C227.331 49.5209 227.629 51.1597 227.629 52.9688C227.629 54.7353 227.331 56.3422 226.735 57.7894C226.139 59.2366 225.309 60.4817 224.245 61.5246C223.181 62.5674 221.914 63.3868 220.446 63.9828C218.977 64.5574 217.36 64.8554 215.593 64.8766C213.848 64.8766 212.241 64.6 210.773 64.0466C209.325 63.472 208.07 62.6739 207.005 61.6523C205.963 60.6094 205.143 59.3643 204.547 57.9171C203.951 56.4699 203.653 54.863 203.653 53.0965ZM207.867 52.8411C207.867 54.0542 208.048 55.1716 208.41 56.1932C208.793 57.2148 209.325 58.098 210.006 58.8429C210.687 59.5878 211.496 60.1731 212.433 60.5988C213.39 61.0244 214.455 61.2372 215.625 61.2372C216.796 61.2372 217.86 61.0244 218.818 60.5988C219.775 60.1731 220.595 59.5878 221.276 58.8429C221.957 58.098 222.478 57.2148 222.84 56.1932C223.223 55.1716 223.415 54.0542 223.415 52.8411C223.415 51.7131 223.223 50.6596 222.84 49.6806C222.478 48.7015 221.957 47.8502 221.276 47.1266C220.595 46.3817 219.775 45.8071 218.818 45.4027C217.86 44.977 216.796 44.7642 215.625 44.7642C214.455 44.7642 213.39 44.977 212.433 45.4027C211.496 45.8071 210.687 46.3817 210.006 47.1266C209.325 47.8502 208.793 48.7015 208.41 49.6806C208.048 50.6596 207.867 51.7131 207.867 52.8411ZM231.46 41.6994H236.791L247.741 58.4917H247.805V41.6994H251.828V64.302H246.72L235.546 46.967H235.482V64.302H231.46V41.6994Z" fill="white"/>
<path fill-rule="evenodd" clip-rule="evenodd" d="M71.2461 50.8317C71.5345 50.6557 71.7793 50.2872 71.9767 49.8775C74.574 50.9394 76.399 53.4479 76.399 56.3733C76.399 60.26 73.1775 63.4108 69.2036 63.4108C67.5723 63.4108 66.0679 62.8799 64.8609 61.9851C64.4651 61.7977 64.1395 61.6176 63.873 61.4703L63.8729 61.4702L63.8728 61.4702C63.4594 61.2416 63.1883 61.0917 63.0185 61.1151C62.5222 61.1836 62.6663 61.6402 62.7972 62.0549C62.8862 62.3367 62.969 62.5992 62.8408 62.7074C62.7066 62.8208 62.2719 62.4064 61.764 61.9221C61.0727 61.263 60.2457 60.4744 59.8557 60.7113C59.5473 60.8986 59.8467 61.4066 60.2131 62.0285L60.2403 62.0746C60.3951 62.3375 60.5745 62.6051 60.7382 62.8493L60.7383 62.8495C61.071 63.3459 61.3391 63.7459 61.2049 63.8136C61.0428 63.8955 59.9134 63.1331 58.9615 62.0746C58.5941 61.6661 58.2382 61.2233 57.9076 60.8119C57.1837 59.9112 56.5806 59.1608 56.2421 59.2497C55.8349 59.3567 56.1429 60.1967 56.5956 61.005C56.8072 61.3831 57.0563 61.768 57.2719 62.1013L57.2719 62.1013C57.6072 62.6196 57.8616 63.013 57.7693 63.0613C57.6448 63.1264 56.5489 62.0578 55.8047 60.7113C55.3626 59.9114 54.9914 59.0275 54.6909 58.3119C54.365 57.5359 54.1222 56.9578 53.9623 56.8996C53.4069 56.6975 53.4069 57.8299 53.6297 59.4644C53.6586 59.6768 53.7017 59.8996 53.7547 60.1265C55.9142 67.1172 62.5509 72.2076 70.4031 72.2076C80.0068 72.2076 87.7921 64.5932 87.7921 55.2004C87.7921 46.2608 80.7399 38.9321 71.7797 38.2458C71.791 37.8246 72.0108 36.9895 72.0108 36.9895C72.0108 36.9895 73.5927 33.1623 73.6762 32.3444C73.6818 32.2902 73.6884 32.2314 73.6953 32.1687L73.6954 32.1683C73.794 31.2847 73.9772 29.6417 72.5638 29.6417C71.8089 29.6417 71.4578 30.2032 71.0564 30.8455C70.9022 31.092 70.7407 31.3505 70.546 31.5936C69.1436 33.3449 66.7855 35.5318 65.4484 36.6969C62.6222 39.1595 59.8494 41.1834 58.2323 42.3638L58.2323 42.3638C57.4967 42.9007 57.0003 43.263 56.8467 43.4128C55.6889 44.5414 51.5377 52.0293 51.5377 52.0293C51.5377 52.0293 50.1952 54.4316 50.6724 54.9188C51.1496 55.406 52.3002 55.2943 52.3002 55.2943C52.3002 55.2943 67.7587 51.748 69.1428 51.4683C69.5154 51.393 69.7784 51.3495 69.9804 51.3162C70.5286 51.2256 70.6271 51.2094 71.2461 50.8317ZM60.3162 46.2744C59.4865 47.0631 58.1103 48.9458 58.1103 48.9458C58.1103 48.9458 60.6679 49.1033 62.0765 47.7643C63.4852 46.4254 63.1624 44.1435 63.1624 44.1435C63.1624 44.1435 61.146 45.4856 60.3162 46.2744Z" fill="white"/>
</g>
<defs>
<clipPath id="clip0">
<rect width="292.642" height="79.8113" fill="white" transform="translate(13.3018 13.6794)"/>
</clipPath>
</defs>
</svg>
