<svg width="320" height="107" viewBox="0 0 320 107" fill="none" xmlns="http://www.w3.org/2000/svg">
<g clip-path="url(#clip0)">
<rect x="13.8303" y="13.6794" width="292.642" height="79.8113" rx="39.9057" fill="#EDD53F"/>
<path d="M111.975 41.6994H126.948V45.3388H115.998V50.8937H126.373V54.5331H115.998V60.6626H127.522V64.302H111.975V41.6994ZM131.491 41.6994H135.514V60.6626H145.123V64.302H131.491V41.6994ZM148.046 41.6994H163.019V45.3388H152.069V50.8937H162.444V54.5331H152.069V60.6626H163.593V64.302H148.046V41.6994ZM183.078 46.9989C182.248 46.105 181.439 45.5091 180.651 45.2111C179.885 44.9132 179.108 44.7642 178.321 44.7642C177.15 44.7642 176.086 44.977 175.129 45.4027C174.192 45.8071 173.383 46.3817 172.702 47.1266C172.021 47.8502 171.489 48.7015 171.106 49.6806C170.744 50.6596 170.563 51.7131 170.563 52.8411C170.563 54.0542 170.744 55.1716 171.106 56.1932C171.489 57.2148 172.021 58.098 172.702 58.8429C173.383 59.5878 174.192 60.1731 175.129 60.5988C176.086 61.0244 177.15 61.2372 178.321 61.2372C179.236 61.2372 180.119 61.0244 180.971 60.5988C181.843 60.1518 182.652 59.4495 183.397 58.4917L186.717 60.8542C185.696 62.2588 184.45 63.2804 182.982 63.9189C181.513 64.5574 179.949 64.8766 178.289 64.8766C176.544 64.8766 174.937 64.6 173.468 64.0466C172.021 63.472 170.766 62.6739 169.701 61.6523C168.658 60.6094 167.839 59.3643 167.243 57.9171C166.647 56.4699 166.349 54.863 166.349 53.0965C166.349 51.2874 166.647 49.6486 167.243 48.1801C167.839 46.6903 168.658 45.424 169.701 44.3811C170.766 43.3382 172.021 42.5401 173.468 41.9868C174.937 41.4121 176.544 41.1248 178.289 41.1248C179.821 41.1248 181.237 41.4015 182.535 41.9548C183.855 42.4869 185.078 43.4021 186.206 44.7003L183.078 46.9989ZM194.046 45.3388H187.118V41.6994H204.996V45.3388H198.069V64.302H194.046V45.3388ZM207.749 41.6994H215.602C216.688 41.6994 217.73 41.8059 218.731 42.0187C219.752 42.2102 220.657 42.5508 221.444 43.0403C222.232 43.5298 222.86 44.1895 223.328 45.0196C223.796 45.8496 224.03 46.9031 224.03 48.1801C224.03 49.8189 223.573 51.1917 222.657 52.2984C221.764 53.4051 220.476 54.0755 218.795 54.3096L224.796 64.302H219.944L214.708 54.7246H211.771V64.302H207.749V41.6994ZM214.9 51.2768C215.474 51.2768 216.049 51.2555 216.624 51.2129C217.198 51.1491 217.72 51.0214 218.188 50.8299C218.677 50.617 219.071 50.3084 219.369 49.904C219.667 49.4784 219.816 48.8931 219.816 48.1482C219.816 47.4884 219.678 46.9563 219.401 46.552C219.124 46.1476 218.763 45.8496 218.316 45.6581C217.869 45.4452 217.369 45.3069 216.815 45.2431C216.283 45.1792 215.762 45.1473 215.251 45.1473H211.771V51.2768H214.9ZM227.762 41.6994H231.784V64.302H227.762V41.6994ZM252.258 46.9989C251.428 46.105 250.619 45.5091 249.832 45.2111C249.065 44.9132 248.289 44.7642 247.501 44.7642C246.331 44.7642 245.266 44.977 244.309 45.4027C243.372 45.8071 242.564 46.3817 241.882 47.1266C241.201 47.8502 240.669 48.7015 240.286 49.6806C239.924 50.6596 239.744 51.7131 239.744 52.8411C239.744 54.0542 239.924 55.1716 240.286 56.1932C240.669 57.2148 241.201 58.098 241.882 58.8429C242.564 59.5878 243.372 60.1731 244.309 60.5988C245.266 61.0244 246.331 61.2372 247.501 61.2372C248.416 61.2372 249.3 61.0244 250.151 60.5988C251.024 60.1518 251.832 59.4495 252.577 58.4917L255.897 60.8542C254.876 62.2588 253.631 63.2804 252.162 63.9189C250.694 64.5574 249.129 64.8766 247.469 64.8766C245.724 64.8766 244.117 64.6 242.649 64.0466C241.201 63.472 239.946 62.6739 238.882 61.6523C237.839 60.6094 237.019 59.3643 236.423 57.9171C235.827 56.4699 235.529 54.863 235.529 53.0965C235.529 51.2874 235.827 49.6486 236.423 48.1801C237.019 46.6903 237.839 45.424 238.882 44.3811C239.946 43.3382 241.201 42.5401 242.649 41.9868C244.117 41.4121 245.724 41.1248 247.469 41.1248C249.002 41.1248 250.417 41.4015 251.715 41.9548C253.035 42.4869 254.259 43.4021 255.387 44.7003L252.258 46.9989Z" fill="white"/>
<path fill-rule="evenodd" clip-rule="evenodd" d="M52.2606 37.9868C51.9976 37.2267 52.5621 36.434 53.3664 36.434H65.8893C66.4023 36.434 66.8555 36.7681 67.0071 37.2582L73.1724 57.177C73.4054 57.9299 72.8426 58.6931 72.0546 58.6931H64.3891C64.0008 58.6931 63.7202 59.0645 63.8264 59.4381L67.6652 72.9516C68.0195 74.1988 66.3837 75.0109 65.6044 73.9746L48.4465 51.1572C47.8666 50.3861 48.4169 49.2839 49.3818 49.2839H55.3484C55.7505 49.2839 56.0328 48.8875 55.9013 48.5075L52.2606 37.9868Z" fill="white"/>
</g>
<defs>
<clipPath id="clip0">
<rect width="292.642" height="79.8113" fill="white" transform="translate(13.8303 13.6794)"/>
</clipPath>
</defs>
</svg>
