<svg width="320" height="108" viewBox="0 0 320 108" fill="none" xmlns="http://www.w3.org/2000/svg">
<g clip-path="url(#clip0)">
<rect x="13.3018" y="14.0567" width="292.642" height="79.8113" rx="39.9057" fill="#EF97E6"/>
<path d="M140.986 42.0768H155.576V45.7162H145.009V51.6541H154.969V55.2935H145.009V64.6793H140.986V42.0768ZM164.883 42.0768H168.363L178.1 64.6793H173.502L171.395 59.5075H161.595L159.551 64.6793H155.05L164.883 42.0768ZM169.991 56.0597L166.511 46.8654L162.967 56.0597H169.991ZM180.516 42.0768H184.538V64.6793H180.516V42.0768ZM189.497 42.0768H197.35C198.435 42.0768 199.478 42.1832 200.479 42.396C201.5 42.5875 202.405 42.9281 203.192 43.4176C203.98 43.9071 204.608 44.5669 205.076 45.3969C205.544 46.2269 205.778 47.2805 205.778 48.5574C205.778 50.1962 205.321 51.569 204.405 52.6757C203.511 53.7824 202.224 54.4528 200.543 54.6869L206.544 64.6793H201.692L196.456 55.102H193.519V64.6793H189.497V42.0768ZM196.648 51.6541C197.222 51.6541 197.797 51.6328 198.372 51.5903C198.946 51.5264 199.468 51.3987 199.936 51.2072C200.425 50.9943 200.819 50.6857 201.117 50.2814C201.415 49.8557 201.564 49.2704 201.564 48.5255C201.564 47.8657 201.426 47.3337 201.149 46.9293C200.872 46.5249 200.511 46.2269 200.064 46.0354C199.617 45.8226 199.117 45.6842 198.563 45.6204C198.031 45.5565 197.51 45.5246 196.999 45.5246H193.519V51.6541H196.648ZM213.944 55.0062L205.452 42.0768H210.496L216.051 51.0795L221.669 42.0768H226.458L217.966 55.0062V64.6793H213.944V55.0062Z" fill="white"/>
<path fill-rule="evenodd" clip-rule="evenodd" d="M59.2469 64.4013L64.7662 62.8009L69.9336 72.249C70.1784 72.6966 70.8213 72.6966 71.0661 72.249L76.2334 62.8008L81.7531 64.4013C82.2431 64.5434 82.6964 64.0876 82.5517 63.5983L80.9569 58.208L90.1168 53.1983C90.5644 52.9535 90.5644 52.3106 90.1168 52.0658L80.8731 47.0103L82.5517 41.3369C82.6964 40.8477 82.2431 40.3918 81.7531 40.5339L76.0782 42.1794L71.0661 33.015C70.8213 32.5674 70.1784 32.5674 69.9336 33.015L64.9215 42.1793L59.2469 40.5339C58.7569 40.3918 58.3035 40.8477 58.4483 41.3369L60.1268 47.0101L50.8828 52.0658C50.4352 52.3106 50.4352 52.9535 50.8828 53.1983L60.043 58.2081L58.4483 63.5983C58.3035 64.0876 58.7569 64.5434 59.2469 64.4013ZM64.2877 53.2525L67.9726 55.2678L69.9879 58.9526C70.2327 59.4002 70.8756 59.4002 71.1204 58.9526L73.1357 55.2678L76.8205 53.2525C77.2681 53.0077 77.2681 52.3648 76.8205 52.12L73.1357 50.1047L71.1204 46.4199C70.8756 45.9723 70.2327 45.9723 69.9879 46.4199L67.9726 50.1047L64.2877 52.12C63.8401 52.3648 63.8401 53.0077 64.2877 53.2525Z" fill="white"/>
</g>
<defs>
<clipPath id="clip0">
<rect width="292.642" height="79.8113" fill="white" transform="translate(13.3018 14.0567)"/>
</clipPath>
</defs>
</svg>
