<svg width="320" height="108" viewBox="0 0 320 108" fill="none" xmlns="http://www.w3.org/2000/svg">
<g clip-path="url(#clip0)">
<rect x="13.8303" y="14.0567" width="292.642" height="79.8113" rx="39.9057" fill="#D94256"/>
<path d="M108.686 42.0768H123.275V45.7162H112.708V51.6541H122.669V55.2935H112.708V64.6793H108.686V42.0768ZM126.922 42.0768H130.944V64.6793H126.922V42.0768ZM155.983 63.0192C153.195 64.5091 150.077 65.254 146.63 65.254C144.884 65.254 143.277 64.9773 141.809 64.4239C140.362 63.8493 139.106 63.0512 138.042 62.0296C136.999 60.9867 136.18 59.7417 135.584 58.2944C134.988 56.8472 134.69 55.2403 134.69 53.4738C134.69 51.6648 134.988 50.026 135.584 48.5574C136.18 47.0676 136.999 45.8013 138.042 44.7584C139.106 43.7155 140.362 42.9174 141.809 42.3641C143.277 41.7894 144.884 41.5021 146.63 41.5021C148.353 41.5021 149.971 41.7149 151.482 42.1406C152.993 42.545 154.345 43.2792 155.536 44.3434L152.567 47.3443C151.844 46.642 150.961 46.0992 149.918 45.7162C148.896 45.3331 147.811 45.1415 146.661 45.1415C145.491 45.1415 144.427 45.3543 143.469 45.78C142.533 46.1844 141.724 46.759 141.043 47.5039C140.362 48.2275 139.83 49.0789 139.447 50.0579C139.085 51.0369 138.904 52.0904 138.904 53.2184C138.904 54.4315 139.085 55.5489 139.447 56.5705C139.83 57.5921 140.362 58.4753 141.043 59.2202C141.724 59.9651 142.533 60.5504 143.469 60.9761C144.427 61.4017 145.491 61.6146 146.661 61.6146C147.683 61.6146 148.641 61.5188 149.535 61.3272C150.45 61.1357 151.259 60.8377 151.961 60.4334V55.102H147.332V51.4626H155.983V63.0192ZM160.75 42.0768H164.773V51.0795H175.34V42.0768H179.362V64.6793H175.34V54.7189H164.773V64.6793H160.75V42.0768ZM189.042 45.7162H182.115V42.0768H199.992V45.7162H193.065V64.6793H189.042V45.7162ZM202.649 42.0768H206.672V64.6793H202.649V42.0768ZM211.63 42.0768H216.961L227.912 58.8691H227.975V42.0768H231.998V64.6793H226.89L215.716 47.3443H215.653V64.6793H211.63V42.0768ZM257.119 63.0192C254.331 64.5091 251.213 65.254 247.765 65.254C246.02 65.254 244.413 64.9773 242.945 64.4239C241.498 63.8493 240.242 63.0512 239.178 62.0296C238.135 60.9867 237.315 59.7417 236.72 58.2944C236.124 56.8472 235.826 55.2403 235.826 53.4738C235.826 51.6648 236.124 50.026 236.72 48.5574C237.315 47.0676 238.135 45.8013 239.178 44.7584C240.242 43.7155 241.498 42.9174 242.945 42.3641C244.413 41.7894 246.02 41.5021 247.765 41.5021C249.489 41.5021 251.107 41.7149 252.618 42.1406C254.129 42.545 255.481 43.2792 256.672 44.3434L253.703 47.3443C252.98 46.642 252.097 46.0992 251.054 45.7162C250.032 45.3331 248.947 45.1415 247.797 45.1415C246.627 45.1415 245.563 45.3543 244.605 45.78C243.668 46.1844 242.86 46.759 242.179 47.5039C241.498 48.2275 240.966 49.0789 240.582 50.0579C240.221 51.0369 240.04 52.0904 240.04 53.2184C240.04 54.4315 240.221 55.5489 240.582 56.5705C240.966 57.5921 241.498 58.4753 242.179 59.2202C242.86 59.9651 243.668 60.5504 244.605 60.9761C245.563 61.4017 246.627 61.6146 247.797 61.6146C248.819 61.6146 249.777 61.5188 250.671 61.3272C251.586 61.1357 252.394 60.8377 253.097 60.4334V55.102H248.468V51.4626H257.119V63.0192Z" fill="white"/>
<path fill-rule="evenodd" clip-rule="evenodd" d="M53.6277 35.997C54.1105 34.0902 55.838 32.6793 57.8949 32.6793C59.4442 32.6793 60.8066 33.4797 61.591 34.6897C61.712 34.6797 61.8343 34.6746 61.9579 34.6746C62.2434 34.6746 62.5227 34.7018 62.7931 34.7537C63.597 33.8868 64.7458 33.3443 66.0213 33.3443C67.8338 33.3443 69.3904 34.4398 70.0651 36.0047L70.0843 36.0047C70.3973 36.0047 70.7026 36.0373 70.9971 36.0995C71.702 35.6199 72.5533 35.3396 73.4701 35.3396C75.3728 35.3396 76.9935 36.5469 77.6081 38.2372C77.9417 38.3517 78.2571 38.5051 78.5491 38.692C79.2333 38.254 80.0466 38 80.9193 38C83.3503 38 85.321 39.9707 85.321 42.4017V55.8395C85.321 55.9207 85.3188 56.0014 85.3143 56.0818C85.0485 65.2373 76.8156 72.5849 66.6983 72.5849C56.4133 72.5849 48.0757 64.9916 48.0757 55.625C48.0757 51.1037 50.0183 46.9956 53.185 43.9552C53.177 48.3662 53.2514 52.9278 53.5947 52.8495C54.5137 52.6399 53.7956 38.981 53.6277 35.997Z" fill="white"/>
</g>
<defs>
<clipPath id="clip0">
<rect width="292.642" height="79.8113" fill="white" transform="translate(13.8303 14.0567)"/>
</clipPath>
</defs>
</svg>
