<svg width="320" height="107" viewBox="0 0 320 107" fill="none" xmlns="http://www.w3.org/2000/svg">
<g clip-path="url(#clip0)">
<rect x="13.3018" y="13.7548" width="292.642" height="79.8113" rx="39.9057" fill="#F8A54F"/>
<path d="M151.337 41.7748H165.926V45.4141H155.359V51.3521H165.32V54.9915H155.359V64.3773H151.337V41.7748ZM169.573 41.7748H173.595V64.3773H169.573V41.7748ZM178.554 41.7748H186.407C187.493 41.7748 188.535 41.8812 189.536 42.094C190.557 42.2855 191.462 42.6261 192.249 43.1156C193.037 43.6051 193.665 44.2649 194.133 45.0949C194.601 45.9249 194.835 46.9785 194.835 48.2554C194.835 49.8942 194.378 51.267 193.462 52.3737C192.569 53.4804 191.281 54.1508 189.6 54.3849L195.601 64.3773H190.749L185.513 54.8H182.576V64.3773H178.554V41.7748ZM185.705 51.3521C186.279 51.3521 186.854 51.3308 187.429 51.2883C188.003 51.2244 188.525 51.0967 188.993 50.9052C189.483 50.6923 189.876 50.3837 190.174 49.9794C190.472 49.5537 190.621 48.9684 190.621 48.2235C190.621 47.5637 190.483 47.0317 190.206 46.6273C189.93 46.2229 189.568 45.9249 189.121 45.7334C188.674 45.5206 188.174 45.3822 187.62 45.3184C187.088 45.2545 186.567 45.2226 186.056 45.2226H182.576V51.3521H185.705ZM198.662 41.7748H213.635V45.4141H202.685V50.969H213.06V54.6084H202.685V60.7379H214.21V64.3773H198.662V41.7748Z" fill="white"/>
<path fill-rule="evenodd" clip-rule="evenodd" d="M73.1227 62.8121C73.6097 61.0316 72.6645 57.3712 72.6645 57.3712C72.6645 57.3712 71.979 60.3532 70.9078 61.4552C69.9936 62.3957 68.8736 63.0478 67.2668 63.2189C68.5799 62.5814 69.4831 61.2517 69.4831 59.7146C69.4831 57.5573 67.7041 55.8086 65.5096 55.8086C63.315 55.8086 61.536 57.5573 61.536 59.7146C61.536 60.3032 61.6685 60.8615 61.9057 61.362C60.5349 60.2685 60.3192 58.517 60.3192 58.517C60.3192 58.517 58.7866 64.8803 63.0097 67.8736C67.2329 70.867 75.5058 68.2941 75.5058 68.2941C75.5058 68.2941 63.6667 76.6244 54.8938 67.5579C47.3366 59.7478 52.9213 49.4656 52.9213 49.4656C52.9213 49.4656 52.6801 50.4194 52.6801 51.5267C52.6801 52.634 53.2805 53.4764 53.2805 53.4764C53.2805 53.4764 55.0713 49.7017 56.465 48.1667C57.784 46.7139 59.4374 45.5355 60.8655 44.5178C61.9649 43.7344 62.9307 43.0461 63.5076 42.401C66.6848 38.8484 64.7367 32.3773 64.7367 32.3773C64.7367 32.3773 68.3183 35.5348 69.3182 39.6126C69.6993 41.1671 69.4541 42.9357 69.2349 44.5172C68.8789 47.0847 68.5913 49.1594 71.1626 49.0247C75.3177 48.8072 71.707 42.401 71.707 42.401C71.707 42.401 81.1326 47.355 80.4284 56.0192C79.7242 64.6835 70.1258 66.6532 70.1258 66.6532C70.1258 66.6532 72.6357 64.5925 73.1227 62.8121Z" fill="white"/>
</g>
<defs>
<clipPath id="clip0">
<rect width="292.642" height="79.8113" fill="white" transform="translate(13.3018 13.7548)"/>
</clipPath>
</defs>
</svg>
