<svg width="320" height="107" viewBox="0 0 320 107" fill="none" xmlns="http://www.w3.org/2000/svg">
<g clip-path="url(#clip0)">
<rect x="13.8303" y="13.7548" width="292.642" height="79.8113" rx="39.9057" fill="#9BB4E8"/>
<path d="M129.995 41.7748H144.584V45.4141H134.017V51.3521H143.978V54.9915H134.017V64.3773H129.995V41.7748ZM148.327 41.7748H152.349V60.7379H161.958V64.3773H148.327V41.7748ZM166.85 54.7042L158.358 41.7748H163.402L168.957 50.7775L174.576 41.7748H179.365L170.873 54.7042V64.3773H166.85V54.7042ZM181.34 41.7748H185.363V64.3773H181.34V41.7748ZM190.321 41.7748H195.653L206.603 58.5671H206.666V41.7748H210.689V64.3773H205.581L194.407 47.0423H194.344V64.3773H190.321V41.7748ZM235.81 62.7172C233.022 64.2071 229.904 64.952 226.456 64.952C224.711 64.952 223.104 64.6753 221.636 64.1219C220.189 63.5473 218.933 62.7492 217.869 61.7276C216.826 60.6847 216.006 59.4397 215.411 57.9924C214.815 56.5452 214.517 54.9383 214.517 53.1718C214.517 51.3628 214.815 49.724 215.411 48.2554C216.006 46.7656 216.826 45.4993 217.869 44.4564C218.933 43.4135 220.189 42.6154 221.636 42.0621C223.104 41.4874 224.711 41.2001 226.456 41.2001C228.18 41.2001 229.798 41.4129 231.309 41.8386C232.82 42.243 234.172 42.9772 235.363 44.0414L232.394 47.0423C231.671 46.34 230.788 45.7972 229.745 45.4141C228.723 45.0311 227.638 44.8395 226.488 44.8395C225.318 44.8395 224.254 45.0523 223.296 45.478C222.359 45.8824 221.551 46.457 220.87 47.2019C220.189 47.9255 219.657 48.7769 219.273 49.7559C218.912 50.7349 218.731 51.7884 218.731 52.9164C218.731 54.1295 218.912 55.2469 219.273 56.2685C219.657 57.2901 220.189 58.1733 220.87 58.9182C221.551 59.6631 222.359 60.2484 223.296 60.6741C224.254 61.0997 225.318 61.3126 226.488 61.3126C227.51 61.3126 228.468 61.2168 229.362 61.0252C230.277 60.8337 231.085 60.5357 231.788 60.1314V54.8H227.159V51.1606H235.81V62.7172Z" fill="white"/>
<path fill-rule="evenodd" clip-rule="evenodd" d="M70.4431 73.434C77.3281 73.434 83.2226 69.5824 85.6561 64.1224C85.6858 64.0558 75.8862 66.6858 76.1987 65.7561C76.3382 65.3409 82.3454 63.1321 86.722 60.5556C89.2375 59.0748 90.3959 55.94 90.3959 55.94C90.3959 55.94 86.1579 58.0111 84.0155 58.5365C79.6981 59.5953 75.8976 59.4813 75.8976 59.371C75.8976 59.1324 82.2082 57.9255 90.9792 52.5457C95.1048 50.0152 96.2254 45.6564 96.2254 45.6564C96.2254 45.6564 91.6896 48.3758 88.9476 49.2737C82.4451 51.4028 76.5111 52.0444 76.5111 51.7563C76.5111 51.1395 81.7332 49.6941 87.2698 46.9937C90.1486 45.5898 92.6417 43.7555 95.5308 41.7156C100.258 38.3781 101.038 32.434 101.038 32.434C101.038 32.434 96.3753 35.4609 94.0999 36.4661C84.711 40.614 76.4206 42.7898 70.4431 43.2609C61.4198 43.972 54.0378 50.3089 54.0378 58.5365C54.0378 66.7641 61.3827 73.434 70.4431 73.434Z" fill="white"/>
</g>
<defs>
<clipPath id="clip0">
<rect width="292.642" height="79.8113" fill="white" transform="translate(13.8303 13.7548)"/>
</clipPath>
</defs>
</svg>
