<svg width="320" height="107" viewBox="0 0 320 107" fill="none" xmlns="http://www.w3.org/2000/svg">
<g clip-path="url(#clip0)">
<rect x="13.3018" y="13.4718" width="292.642" height="79.8113" rx="39.9057" fill="#6970C5"/>
<path d="M148.955 62.4343C146.167 63.9241 143.049 64.669 139.601 64.669C137.856 64.669 136.249 64.3923 134.78 63.839C133.333 63.2643 132.077 62.4662 131.013 61.4446C129.97 60.4018 129.151 59.1567 128.555 57.7095C127.959 56.2622 127.661 54.6553 127.661 52.8889C127.661 51.0798 127.959 49.441 128.555 47.9725C129.151 46.4827 129.97 45.2163 131.013 44.1735C132.077 43.1306 133.333 42.3325 134.78 41.7791C136.249 41.2045 137.856 40.9172 139.601 40.9172C141.325 40.9172 142.942 41.13 144.453 41.5556C145.965 41.96 147.316 42.6943 148.508 43.7584L145.539 46.7593C144.815 46.057 143.932 45.5143 142.889 45.1312C141.868 44.7481 140.782 44.5565 139.633 44.5565C138.462 44.5565 137.398 44.7694 136.44 45.195C135.504 45.5994 134.695 46.1741 134.014 46.919C133.333 47.6426 132.801 48.4939 132.418 49.4729C132.056 50.4519 131.875 51.5055 131.875 52.6335C131.875 53.8466 132.056 54.9639 132.418 55.9855C132.801 57.0071 133.333 57.8904 134.014 58.6353C134.695 59.3802 135.504 59.9655 136.44 60.3911C137.398 60.8168 138.462 61.0296 139.633 61.0296C140.654 61.0296 141.612 60.9338 142.506 60.7423C143.421 60.5507 144.23 60.2528 144.932 59.8484V54.517H140.303V50.8776H148.955V62.4343ZM153.722 41.4918H157.744V50.4945H168.311V41.4918H172.334V64.0944H168.311V54.1339H157.744V64.0944H153.722V41.4918ZM176.171 52.8889C176.171 51.0798 176.469 49.441 177.065 47.9725C177.661 46.4827 178.481 45.2163 179.524 44.1735C180.588 43.1306 181.843 42.3325 183.291 41.7791C184.759 41.2045 186.366 40.9172 188.111 40.9172C189.878 40.8959 191.495 41.1619 192.964 41.7153C194.432 42.2473 195.699 43.0348 196.763 44.0777C197.827 45.1205 198.657 46.3762 199.253 47.8448C199.849 49.3133 200.147 50.9521 200.147 52.7612C200.147 54.5276 199.849 56.1345 199.253 57.5818C198.657 59.029 197.827 60.2741 196.763 61.3169C195.699 62.3598 194.432 63.1792 192.964 63.7751C191.495 64.3498 189.878 64.6477 188.111 64.669C186.366 64.669 184.759 64.3923 183.291 63.839C181.843 63.2643 180.588 62.4662 179.524 61.4446C178.481 60.4018 177.661 59.1567 177.065 57.7095C176.469 56.2622 176.171 54.6553 176.171 52.8889ZM180.386 52.6335C180.386 53.8466 180.566 54.9639 180.928 55.9855C181.311 57.0071 181.843 57.8904 182.524 58.6353C183.206 59.3802 184.014 59.9655 184.951 60.3911C185.908 60.8168 186.973 61.0296 188.143 61.0296C189.314 61.0296 190.378 60.8168 191.336 60.3911C192.293 59.9655 193.113 59.3802 193.794 58.6353C194.475 57.8904 194.996 57.0071 195.358 55.9855C195.741 54.9639 195.933 53.8466 195.933 52.6335C195.933 51.5055 195.741 50.4519 195.358 49.4729C194.996 48.4939 194.475 47.6426 193.794 46.919C193.113 46.1741 192.293 45.5994 191.336 45.195C190.378 44.7694 189.314 44.5565 188.143 44.5565C186.973 44.5565 185.908 44.7694 184.951 45.195C184.014 45.5994 183.206 46.1741 182.524 46.919C181.843 47.6426 181.311 48.4939 180.928 49.4729C180.566 50.4519 180.386 51.5055 180.386 52.6335ZM215.056 46.3443C214.63 45.7271 214.056 45.2802 213.332 45.0035C212.63 44.7055 211.885 44.5565 211.097 44.5565C210.629 44.5565 210.171 44.6098 209.724 44.7162C209.299 44.8226 208.905 44.9929 208.543 45.227C208.203 45.4611 207.926 45.7697 207.713 46.1528C207.5 46.5146 207.394 46.9509 207.394 47.4617C207.394 48.2279 207.66 48.8132 208.192 49.2175C208.724 49.6219 209.384 49.9731 210.171 50.271C210.959 50.569 211.821 50.8563 212.757 51.133C213.694 51.4097 214.556 51.7928 215.343 52.2823C216.131 52.7718 216.79 53.4209 217.322 54.2297C217.855 55.0384 218.121 56.1132 218.121 57.4541C218.121 58.6672 217.897 59.7313 217.45 60.6465C217.003 61.5404 216.397 62.2853 215.63 62.8812C214.886 63.4772 214.013 63.9241 213.013 64.2221C212.012 64.52 210.959 64.669 209.852 64.669C208.447 64.669 207.096 64.4349 205.798 63.9667C204.499 63.4984 203.382 62.711 202.446 61.6042L205.478 58.6672C205.968 59.4121 206.606 59.9974 207.394 60.423C208.203 60.8274 209.054 61.0296 209.948 61.0296C210.416 61.0296 210.884 60.9658 211.353 60.8381C211.821 60.7104 212.246 60.5188 212.63 60.2634C213.013 60.008 213.321 59.6888 213.555 59.3057C213.789 58.9013 213.907 58.4437 213.907 57.9329C213.907 57.1029 213.64 56.4644 213.108 56.0175C212.576 55.5705 211.917 55.1981 211.129 54.9001C210.342 54.5809 209.48 54.2829 208.543 54.0062C207.607 53.7295 206.745 53.3571 205.957 52.8889C205.17 52.3993 204.51 51.7609 203.978 50.9734C203.446 50.1646 203.18 49.0898 203.18 47.749C203.18 46.5784 203.414 45.5675 203.882 44.7162C204.372 43.8649 205 43.1625 205.766 42.6092C206.553 42.0345 207.447 41.6089 208.447 41.3322C209.448 41.0555 210.469 40.9172 211.512 40.9172C212.704 40.9172 213.853 41.0981 214.96 41.4599C216.088 41.8217 217.099 42.4176 217.993 43.2476L215.056 46.3443ZM226.939 45.1312H220.011V41.4918H237.889V45.1312H230.961V64.0944H226.939V45.1312Z" fill="white"/>
<path fill-rule="evenodd" clip-rule="evenodd" d="M76.7001 71.306C73.3627 71.4768 69.5418 71.4768 68.2433 71.306C58.1147 69.9734 50.0376 62.568 50.0376 52.5583C50.0376 42.5486 58.3203 34.4341 68.5376 34.4341C78.7549 34.4341 87.0376 42.5486 87.0376 52.5583C87.0376 57.2137 85.2459 61.4592 82.3013 64.6691C81.5017 65.5407 82.5988 66.152 83.7135 66.7732C84.8068 67.3825 85.9169 68.0012 85.2717 68.884C84.5608 69.8567 80.7066 71.1009 76.7001 71.306ZM65.936 50.2928C65.936 51.8567 64.6418 53.1246 63.0454 53.1246C61.449 53.1246 60.1548 51.8567 60.1548 50.2928C60.1548 49.2438 60.7369 48.3282 61.6018 47.8387C61.6516 49.2024 62.7729 50.2927 64.1488 50.2927H65.936V50.2928ZM74.8952 47.8387C74.8454 49.2024 73.7242 50.2927 72.3482 50.2927H70.561V50.2928C70.561 51.8567 71.8552 53.1246 73.4517 53.1246C75.0481 53.1246 76.3423 51.8567 76.3423 50.2928C76.3423 49.2438 75.7602 48.3282 74.8952 47.8387Z" fill="white"/>
</g>
<defs>
<clipPath id="clip0">
<rect width="292.642" height="79.8113" fill="white" transform="translate(13.3018 13.4718)"/>
</clipPath>
</defs>
</svg>
