<svg width="320" height="107" viewBox="0 0 320 107" fill="none" xmlns="http://www.w3.org/2000/svg">
<g clip-path="url(#clip0)">
<rect x="13.8303" y="13.4718" width="292.642" height="79.8113" rx="39.9057" fill="#5DBE62"/>
<path d="M153.037 62.4343C150.249 63.9241 147.131 64.669 143.683 64.669C141.938 64.669 140.331 64.3923 138.863 63.839C137.416 63.2643 136.16 62.4662 135.096 61.4446C134.053 60.4018 133.233 59.1567 132.637 57.7095C132.042 56.2622 131.744 54.6553 131.744 52.8889C131.744 51.0798 132.042 49.441 132.637 47.9725C133.233 46.4827 134.053 45.2163 135.096 44.1735C136.16 43.1306 137.416 42.3325 138.863 41.7791C140.331 41.2045 141.938 40.9172 143.683 40.9172C145.407 40.9172 147.025 41.13 148.536 41.5556C150.047 41.96 151.398 42.6943 152.59 43.7584L149.621 46.7593C148.898 46.057 148.014 45.5143 146.972 45.1312C145.95 44.7481 144.865 44.5565 143.715 44.5565C142.545 44.5565 141.481 44.7694 140.523 45.195C139.586 45.5994 138.778 46.1741 138.097 46.919C137.416 47.6426 136.883 48.4939 136.5 49.4729C136.139 50.4519 135.958 51.5055 135.958 52.6335C135.958 53.8466 136.139 54.9639 136.5 55.9855C136.883 57.0071 137.416 57.8904 138.097 58.6353C138.778 59.3802 139.586 59.9655 140.523 60.3911C141.481 60.8168 142.545 61.0296 143.715 61.0296C144.737 61.0296 145.695 60.9338 146.589 60.7423C147.504 60.5507 148.312 60.2528 149.015 59.8484V54.517H144.386V50.8776H153.037V62.4343ZM157.804 41.4918H165.658C166.743 41.4918 167.786 41.5982 168.786 41.811C169.808 42.0026 170.712 42.3431 171.5 42.8326C172.287 43.3221 172.915 43.9819 173.383 44.8119C173.852 45.642 174.086 46.6955 174.086 47.9725C174.086 49.6113 173.628 50.984 172.713 52.0907C171.819 53.1975 170.531 53.8679 168.85 54.102L174.852 64.0944H169.999L164.764 54.517H161.827V64.0944H157.804V41.4918ZM164.955 51.0692C165.53 51.0692 166.105 51.0479 166.679 51.0053C167.254 50.9415 167.775 50.8138 168.244 50.6222C168.733 50.4094 169.127 50.1008 169.425 49.6964C169.723 49.2707 169.872 48.6855 169.872 47.9405C169.872 47.2808 169.733 46.7487 169.457 46.3443C169.18 45.9399 168.818 45.642 168.371 45.4504C167.924 45.2376 167.424 45.0993 166.871 45.0354C166.339 44.9716 165.817 44.9396 165.306 44.9396H161.827V51.0692H164.955ZM185.224 41.4918H188.703L198.44 64.0944H193.843L191.736 58.9226H181.935L179.892 64.0944H175.391L185.224 41.4918ZM190.332 55.4747L186.852 46.2805L183.308 55.4747H190.332ZM212.03 46.3443C211.604 45.7271 211.03 45.2802 210.306 45.0035C209.604 44.7055 208.859 44.5565 208.071 44.5565C207.603 44.5565 207.146 44.6098 206.699 44.7162C206.273 44.8226 205.879 44.9929 205.517 45.227C205.177 45.4611 204.9 45.7697 204.687 46.1528C204.475 46.5146 204.368 46.9509 204.368 47.4617C204.368 48.2279 204.634 48.8132 205.166 49.2175C205.698 49.6219 206.358 49.9731 207.146 50.271C207.933 50.569 208.795 50.8563 209.731 51.133C210.668 51.4097 211.53 51.7928 212.317 52.2823C213.105 52.7718 213.765 53.4209 214.297 54.2297C214.829 55.0384 215.095 56.1132 215.095 57.4541C215.095 58.6672 214.871 59.7313 214.424 60.6465C213.977 61.5404 213.371 62.2853 212.605 62.8812C211.86 63.4772 210.987 63.9241 209.987 64.2221C208.987 64.52 207.933 64.669 206.826 64.669C205.422 64.669 204.07 64.4349 202.772 63.9667C201.474 63.4984 200.356 62.711 199.42 61.6042L202.453 58.6672C202.942 59.4121 203.581 59.9974 204.368 60.423C205.177 60.8274 206.028 61.0296 206.922 61.0296C207.39 61.0296 207.859 60.9658 208.327 60.8381C208.795 60.7104 209.221 60.5188 209.604 60.2634C209.987 60.008 210.295 59.6888 210.53 59.3057C210.764 58.9013 210.881 58.4437 210.881 57.9329C210.881 57.1029 210.615 56.4644 210.083 56.0175C209.551 55.5705 208.891 55.1981 208.103 54.9001C207.316 54.5809 206.454 54.2829 205.517 54.0062C204.581 53.7295 203.719 53.3571 202.932 52.8889C202.144 52.3993 201.484 51.7609 200.952 50.9734C200.42 50.1646 200.154 49.0898 200.154 47.749C200.154 46.5784 200.388 45.5675 200.856 44.7162C201.346 43.8649 201.974 43.1625 202.74 42.6092C203.527 42.0345 204.421 41.6089 205.422 41.3322C206.422 41.0555 207.444 40.9172 208.486 40.9172C209.678 40.9172 210.828 41.0981 211.934 41.4599C213.062 41.8217 214.073 42.4176 214.967 43.2476L212.03 46.3443ZM230.362 46.3443C229.936 45.7271 229.361 45.2802 228.638 45.0035C227.935 44.7055 227.191 44.5565 226.403 44.5565C225.935 44.5565 225.477 44.6098 225.03 44.7162C224.605 44.8226 224.211 44.9929 223.849 45.227C223.509 45.4611 223.232 45.7697 223.019 46.1528C222.806 46.5146 222.7 46.9509 222.7 47.4617C222.7 48.2279 222.966 48.8132 223.498 49.2175C224.03 49.6219 224.69 49.9731 225.477 50.271C226.265 50.569 227.127 50.8563 228.063 51.133C229 51.4097 229.862 51.7928 230.649 52.2823C231.436 52.7718 232.096 53.4209 232.628 54.2297C233.16 55.0384 233.426 56.1132 233.426 57.4541C233.426 58.6672 233.203 59.7313 232.756 60.6465C232.309 61.5404 231.703 62.2853 230.936 62.8812C230.191 63.4772 229.319 63.9241 228.319 64.2221C227.318 64.52 226.265 64.669 225.158 64.669C223.753 64.669 222.402 64.4349 221.104 63.9667C219.805 63.4984 218.688 62.711 217.752 61.6042L220.784 58.6672C221.274 59.4121 221.912 59.9974 222.7 60.423C223.509 60.8274 224.36 61.0296 225.254 61.0296C225.722 61.0296 226.19 60.9658 226.658 60.8381C227.127 60.7104 227.552 60.5188 227.935 60.2634C228.319 60.008 228.627 59.6888 228.861 59.3057C229.095 58.9013 229.212 58.4437 229.212 57.9329C229.212 57.1029 228.946 56.4644 228.414 56.0175C227.882 55.5705 227.222 55.1981 226.435 54.9001C225.648 54.5809 224.786 54.2829 223.849 54.0062C222.913 53.7295 222.051 53.3571 221.263 52.8889C220.476 52.3993 219.816 51.7609 219.284 50.9734C218.752 50.1646 218.486 49.0898 218.486 47.749C218.486 46.5784 218.72 45.5675 219.188 44.7162C219.678 43.8649 220.305 43.1625 221.072 42.6092C221.859 42.0345 222.753 41.6089 223.753 41.3322C224.754 41.0555 225.775 40.9172 226.818 40.9172C228.01 40.9172 229.159 41.0981 230.266 41.4599C231.394 41.8217 232.405 42.4176 233.299 43.2476L230.362 46.3443Z" fill="white"/>
<path fill-rule="evenodd" clip-rule="evenodd" d="M56.1375 68.2C55.9911 68.0625 55.8464 67.9225 55.7033 67.7796C48.1494 60.2404 48.1494 48.0169 55.7033 40.4777C63.2571 32.9384 87.3268 32.4341 87.3268 32.4341C87.3268 32.4341 90.6123 60.2404 83.0584 67.7796C76.3495 74.4755 65.9387 75.2245 58.4016 70.0269L64.4747 62.5886L74.1832 60.4966L66.2582 59.7059L71.2946 54.5878L77.0276 53.3343L72.4943 51.9944L77.0276 43.8324L70.5794 51.051L68.0894 47.544L68.9659 53.3343L64.4747 58.3876L62.3928 51.9943V60.4966L56.1375 68.2Z" fill="white"/>
</g>
<defs>
<clipPath id="clip0">
<rect width="292.642" height="79.8113" fill="white" transform="translate(13.8303 13.4718)"/>
</clipPath>
</defs>
</svg>
