<svg width="320" height="108" viewBox="0 0 320 108" fill="none" xmlns="http://www.w3.org/2000/svg">
<g clip-path="url(#clip0)">
<rect x="13.3018" y="14.1886" width="292.642" height="79.8113" rx="39.9057" fill="#D78555"/>
<path d="M132.728 63.1513C129.939 64.6411 126.822 65.386 123.374 65.386C121.628 65.386 120.022 65.1094 118.553 64.556C117.106 63.9814 115.85 63.1833 114.786 62.1617C113.743 61.1188 112.924 59.8737 112.328 58.4265C111.732 56.9793 111.434 55.3724 111.434 53.6059C111.434 51.7968 111.732 50.158 112.328 48.6895C112.924 47.1997 113.743 45.9334 114.786 44.8905C115.85 43.8476 117.106 43.0495 118.553 42.4962C120.022 41.9215 121.628 41.6342 123.374 41.6342C125.098 41.6342 126.715 41.847 128.226 42.2727C129.737 42.6771 131.089 43.4113 132.281 44.4755L129.312 47.4764C128.588 46.774 127.705 46.2313 126.662 45.8482C125.64 45.4651 124.555 45.2736 123.406 45.2736C122.235 45.2736 121.171 45.4864 120.213 45.9121C119.277 46.3165 118.468 46.8911 117.787 47.636C117.106 48.3596 116.574 49.2109 116.191 50.19C115.829 51.169 115.648 52.2225 115.648 53.3505C115.648 54.5636 115.829 55.681 116.191 56.7026C116.574 57.7242 117.106 58.6074 117.787 59.3523C118.468 60.0972 119.277 60.6825 120.213 61.1082C121.171 61.5338 122.235 61.7466 123.406 61.7466C124.427 61.7466 125.385 61.6509 126.279 61.4593C127.194 61.2678 128.003 60.9698 128.705 60.5654V55.234H124.076V51.5946H132.728V63.1513ZM137.495 42.2088H145.348C146.433 42.2088 147.476 42.3153 148.477 42.5281C149.498 42.7196 150.403 43.0602 151.19 43.5497C151.978 44.0392 152.605 44.6989 153.074 45.529C153.542 46.359 153.776 47.4125 153.776 48.6895C153.776 50.3283 153.318 51.7011 152.403 52.8078C151.509 53.9145 150.222 54.5849 148.54 54.819L154.542 64.8114H149.69L144.454 55.234H141.517V64.8114H137.495V42.2088ZM144.646 51.7862C145.22 51.7862 145.795 51.7649 146.37 51.7223C146.944 51.6585 147.466 51.5308 147.934 51.3393C148.423 51.1264 148.817 50.8178 149.115 50.4134C149.413 49.9878 149.562 49.4025 149.562 48.6576C149.562 47.9978 149.424 47.4657 149.147 47.0614C148.87 46.657 148.509 46.359 148.062 46.1675C147.615 45.9546 147.114 45.8163 146.561 45.7525C146.029 45.6886 145.508 45.6567 144.997 45.6567H141.517V51.7862H144.646ZM156.39 53.6059C156.39 51.7968 156.688 50.158 157.284 48.6895C157.88 47.1997 158.699 45.9334 159.742 44.8905C160.806 43.8476 162.062 43.0495 163.509 42.4962C164.978 41.9215 166.585 41.6342 168.33 41.6342C170.096 41.6129 171.714 41.8789 173.182 42.4323C174.651 42.9644 175.917 43.7519 176.981 44.7947C178.046 45.8376 178.876 47.0933 179.472 48.5618C180.067 50.0303 180.365 51.6691 180.365 53.4782C180.365 55.2447 180.067 56.8516 179.472 58.2988C178.876 59.746 178.046 60.9911 176.981 62.034C175.917 63.0768 174.651 63.8962 173.182 64.4922C171.714 65.0668 170.096 65.3648 168.33 65.386C166.585 65.386 164.978 65.1094 163.509 64.556C162.062 63.9814 160.806 63.1833 159.742 62.1617C158.699 61.1188 157.88 59.8737 157.284 58.4265C156.688 56.9793 156.39 55.3724 156.39 53.6059ZM160.604 53.3505C160.604 54.5636 160.785 55.681 161.147 56.7026C161.53 57.7242 162.062 58.6074 162.743 59.3523C163.424 60.0972 164.233 60.6825 165.169 61.1082C166.127 61.5338 167.191 61.7466 168.362 61.7466C169.532 61.7466 170.597 61.5338 171.554 61.1082C172.512 60.6825 173.331 60.0972 174.012 59.3523C174.694 58.6074 175.215 57.7242 175.577 56.7026C175.96 55.681 176.151 54.5636 176.151 53.3505C176.151 52.2225 175.96 51.169 175.577 50.19C175.215 49.2109 174.694 48.3596 174.012 47.636C173.331 46.8911 172.512 46.3165 171.554 45.9121C170.597 45.4864 169.532 45.2736 168.362 45.2736C167.191 45.2736 166.127 45.4864 165.169 45.9121C164.233 46.3165 163.424 46.8911 162.743 47.636C162.062 48.3596 161.53 49.2109 161.147 50.19C160.785 51.169 160.604 52.2225 160.604 53.3505ZM202.298 56.511C202.298 57.8731 202.064 59.1076 201.596 60.2143C201.127 61.2997 200.489 62.2255 199.68 62.9917C198.871 63.7579 197.914 64.3538 196.807 64.7795C195.7 65.1839 194.498 65.386 193.199 65.386C191.901 65.386 190.699 65.1839 189.592 64.7795C188.485 64.3538 187.517 63.7579 186.687 62.9917C185.878 62.2255 185.24 61.2997 184.771 60.2143C184.324 59.1076 184.101 57.8731 184.101 56.511V42.2088H188.123V56.3833C188.123 56.9367 188.208 57.522 188.379 58.1392C188.549 58.7351 188.826 59.2885 189.209 59.7993C189.613 60.31 190.135 60.7357 190.773 61.0762C191.433 61.3955 192.242 61.5551 193.199 61.5551C194.157 61.5551 194.955 61.3955 195.594 61.0762C196.253 60.7357 196.775 60.31 197.158 59.7993C197.562 59.2885 197.85 58.7351 198.02 58.1392C198.19 57.522 198.275 56.9367 198.275 56.3833V42.2088H202.298V56.511ZM207.236 42.2088H212.567L223.517 59.0011H223.581V42.2088H227.604V64.8114H222.496L211.322 47.4764H211.258V64.8114H207.236V42.2088ZM232.645 42.2088H241.552C243.041 42.2088 244.478 42.4429 245.861 42.9112C247.245 43.3581 248.469 44.0498 249.533 44.9863C250.597 45.9227 251.448 47.1039 252.087 48.5299C252.725 49.9346 253.044 51.5946 253.044 53.5101C253.044 55.4469 252.672 57.1282 251.927 58.5542C251.203 59.9589 250.256 61.1294 249.086 62.0659C247.936 62.9811 246.649 63.6728 245.223 64.141C243.818 64.5879 242.435 64.8114 241.073 64.8114H232.645V42.2088ZM239.668 61.172C240.924 61.172 242.105 61.0337 243.212 60.757C244.34 60.459 245.319 60.0121 246.149 59.4162C246.979 58.7989 247.628 58.0115 248.096 57.0537C248.586 56.0747 248.83 54.8935 248.83 53.5101C248.83 52.148 248.618 50.9774 248.192 49.9984C247.766 49.0194 247.17 48.2319 246.404 47.636C245.659 47.0188 244.765 46.5719 243.722 46.2952C242.701 45.9972 241.573 45.8482 240.338 45.8482H236.667V61.172H239.668Z" fill="white"/>
<path fill-rule="evenodd" clip-rule="evenodd" d="M59.508 67.2824C59.3459 67.2824 59.2326 67.1221 59.2867 66.9693L69.366 38.4888C69.4417 38.2751 69.6437 38.1322 69.8704 38.1322H80.1356C80.3632 38.1322 80.5659 38.2762 80.6408 38.4911L90.4311 66.5712C90.5523 66.919 90.2941 67.2824 89.9258 67.2824H59.508ZM51.0734 67.3963C50.6999 67.3963 50.4413 67.0233 50.5723 66.6735L57.8573 47.2245C57.9356 47.0156 58.1353 46.8771 58.3584 46.8771H63.9259C64.2969 46.8771 64.5554 47.2456 64.429 47.5944L57.3846 67.0434C57.3079 67.2552 57.1068 67.3963 56.8815 67.3963H51.0734Z" fill="white"/>
</g>
<defs>
<clipPath id="clip0">
<rect width="292.642" height="79.8113" fill="white" transform="translate(13.3018 14.1886)"/>
</clipPath>
</defs>
</svg>
