<svg width="320" height="108" viewBox="0 0 320 108" fill="none" xmlns="http://www.w3.org/2000/svg">
<g clip-path="url(#clip0)">
<rect x="13.8303" y="14.1886" width="292.642" height="79.8113" rx="39.9057" fill="#7ED4C9"/>
<path d="M160.062 42.2088H164.085V64.8114H160.062V42.2088ZM184.559 47.5083C183.729 46.6144 182.92 46.0185 182.132 45.7205C181.366 45.4226 180.589 45.2736 179.802 45.2736C178.631 45.2736 177.567 45.4864 176.609 45.9121C175.673 46.3165 174.864 46.8911 174.183 47.636C173.502 48.3596 172.97 49.2109 172.587 50.19C172.225 51.169 172.044 52.2225 172.044 53.3505C172.044 54.5636 172.225 55.681 172.587 56.7026C172.97 57.7242 173.502 58.6074 174.183 59.3523C174.864 60.0972 175.673 60.6825 176.609 61.1082C177.567 61.5338 178.631 61.7466 179.802 61.7466C180.717 61.7466 181.6 61.5338 182.452 61.1082C183.324 60.6612 184.133 59.9589 184.878 59.0011L188.198 61.3636C187.176 62.7682 185.931 63.7898 184.463 64.4283C182.994 65.0668 181.43 65.386 179.77 65.386C178.025 65.386 176.418 65.1094 174.949 64.556C173.502 63.9814 172.246 63.1833 171.182 62.1617C170.139 61.1188 169.32 59.8737 168.724 58.4265C168.128 56.9793 167.83 55.3724 167.83 53.6059C167.83 51.7968 168.128 50.158 168.724 48.6895C169.32 47.1997 170.139 45.9334 171.182 44.8905C172.246 43.8476 173.502 43.0495 174.949 42.4962C176.418 41.9215 178.025 41.6342 179.77 41.6342C181.302 41.6342 182.718 41.9109 184.016 42.4642C185.335 42.9963 186.559 43.9115 187.687 45.2097L184.559 47.5083ZM190.898 42.2088H205.87V45.8482H194.92V51.4031H205.296V55.0425H194.92V61.172H206.445V64.8114H190.898V42.2088Z" fill="white"/>
<path fill-rule="evenodd" clip-rule="evenodd" d="M84.7373 33.7046L84.876 45.883L74.2539 50.982L74.123 39.4834L84.7373 33.7046Z" fill="white"/>
<path fill-rule="evenodd" clip-rule="evenodd" d="M95.3854 52.8945L84.8702 58.9091L74.3488 52.885L84.8648 47.3612L95.3854 52.8945Z" fill="white"/>
<path fill-rule="evenodd" clip-rule="evenodd" d="M72.4787 52.8945L61.9635 58.9091L51.4421 52.885L61.9581 47.3612L72.4787 52.8945Z" fill="white"/>
<path fill-rule="evenodd" clip-rule="evenodd" d="M61.8453 33.6549L72.7593 39.0602L72.4803 50.8395L62.1754 45.7359L61.8453 33.6549Z" fill="white"/>
<path fill-rule="evenodd" clip-rule="evenodd" d="M85.0346 71.9505L74.1206 66.5452L74.3996 54.7659L84.7045 59.8695L85.0346 71.9505Z" fill="white"/>
<path fill-rule="evenodd" clip-rule="evenodd" d="M62.2221 72.0601L62.0834 59.8817L72.7056 54.7826L72.8365 66.2813L62.2221 72.0601Z" fill="white"/>
</g>
<defs>
<clipPath id="clip0">
<rect width="292.642" height="79.8113" fill="white" transform="translate(13.8303 14.1886)"/>
</clipPath>
</defs>
</svg>
