<svg width="320" height="108" viewBox="0 0 320 108" fill="none" xmlns="http://www.w3.org/2000/svg">
<g clip-path="url(#clip0)">
<rect x="13.3018" y="13.9059" width="292.642" height="79.8113" rx="39.9057" fill="#9A9DA1"/>
<path d="M114.128 41.9259H119.459L130.409 58.7182H130.473V41.9259H134.496V64.5284H129.388L118.214 47.1934H118.15V64.5284H114.128V41.9259ZM138.323 53.3229C138.323 51.5139 138.621 49.8751 139.217 48.4066C139.813 46.9167 140.633 45.6504 141.676 44.6075C142.74 43.5647 143.995 42.7666 145.443 42.2132C146.911 41.6386 148.518 41.3512 150.263 41.3512C152.03 41.33 153.647 41.596 155.116 42.1493C156.584 42.6814 157.851 43.4689 158.915 44.5118C159.979 45.5546 160.809 46.8103 161.405 48.2789C162.001 49.7474 162.299 51.3862 162.299 53.1952C162.299 54.9617 162.001 56.5686 161.405 58.0158C160.809 59.4631 159.979 60.7081 158.915 61.751C157.851 62.7939 156.584 63.6133 155.116 64.2092C153.647 64.7838 152.03 65.0818 150.263 65.1031C148.518 65.1031 146.911 64.8264 145.443 64.273C143.995 63.6984 142.74 62.9003 141.676 61.8787C140.633 60.8358 139.813 59.5908 139.217 58.1435C138.621 56.6963 138.323 55.0894 138.323 53.3229ZM142.538 53.0675C142.538 54.2807 142.718 55.398 143.08 56.4196C143.463 57.4412 143.995 58.3244 144.676 59.0693C145.358 59.8143 146.166 60.3995 147.103 60.8252C148.06 61.2509 149.125 61.4637 150.295 61.4637C151.466 61.4637 152.53 61.2509 153.488 60.8252C154.445 60.3995 155.265 59.8143 155.946 59.0693C156.627 58.3244 157.148 57.4412 157.51 56.4196C157.893 55.398 158.085 54.2807 158.085 53.0675C158.085 51.9395 157.893 50.886 157.51 49.907C157.148 48.928 156.627 48.0767 155.946 47.353C155.265 46.6081 154.445 46.0335 153.488 45.6291C152.53 45.2035 151.466 44.9906 150.295 44.9906C149.125 44.9906 148.06 45.2035 147.103 45.6291C146.166 46.0335 145.358 46.6081 144.676 47.353C143.995 48.0767 143.463 48.928 143.08 49.907C142.718 50.886 142.538 51.9395 142.538 53.0675ZM166.13 41.9259H173.983C175.069 41.9259 176.112 42.0323 177.112 42.2451C178.134 42.4367 179.038 42.7772 179.826 43.2667C180.613 43.7562 181.241 44.416 181.709 45.246C182.177 46.0761 182.411 47.1296 182.411 48.4066C182.411 50.0453 181.954 51.4181 181.039 52.5248C180.145 53.6315 178.857 54.302 177.176 54.5361L183.178 64.5284H178.325L173.09 54.9511H170.152V64.5284H166.13V41.9259ZM173.281 51.5032C173.856 51.5032 174.43 51.482 175.005 51.4394C175.58 51.3755 176.101 51.2478 176.569 51.0563C177.059 50.8435 177.453 50.5349 177.751 50.1305C178.048 49.7048 178.197 49.1195 178.197 48.3746C178.197 47.7149 178.059 47.1828 177.782 46.7784C177.506 46.374 177.144 46.0761 176.697 45.8845C176.25 45.6717 175.75 45.5333 175.197 45.4695C174.664 45.4057 174.143 45.3737 173.632 45.3737H170.152V51.5032H173.281ZM186.334 41.9259H192.464L198.498 57.7604L204.595 41.9259H210.661V64.5284H206.83V45.7568H206.766L199.902 64.5284H197.093L190.229 45.7568H190.165V64.5284H186.334V41.9259ZM223.105 41.9259H226.584L236.321 64.5284H231.724L229.617 59.3567H219.816L217.773 64.5284H213.272L223.105 41.9259ZM228.212 55.9088L224.733 46.7146L221.189 55.9088H228.212ZM238.833 41.9259H242.856V60.889H252.465V64.5284H238.833V41.9259Z" fill="white"/>
<path fill-rule="evenodd" clip-rule="evenodd" d="M69.1698 72.4341C79.4548 72.4341 87.7924 64.0965 87.7924 53.8115C87.7924 43.5265 79.4548 35.1888 69.1698 35.1888C58.8848 35.1888 50.5471 43.5265 50.5471 53.8115C50.5471 64.0965 58.8848 72.4341 69.1698 72.4341ZM69.1697 64.453C75.0469 64.453 79.8112 59.6886 79.8112 53.8115C79.8112 47.9343 75.0469 43.17 69.1697 43.17C63.2926 43.17 58.5282 47.9343 58.5282 53.8115C58.5282 59.6886 63.2926 64.453 69.1697 64.453Z" fill="white"/>
</g>
<defs>
<clipPath id="clip0">
<rect width="292.642" height="79.8113" fill="white" transform="translate(13.3018 13.9059)"/>
</clipPath>
</defs>
</svg>
