<svg width="320" height="108" viewBox="0 0 320 108" fill="none" xmlns="http://www.w3.org/2000/svg">
<g clip-path="url(#clip0)">
<rect x="13.8303" y="13.9059" width="292.642" height="79.8113" rx="39.9057" fill="#B563CE"/>
<path d="M122.622 41.9259H130.22C131.305 41.9259 132.348 42.0323 133.348 42.2451C134.37 42.458 135.264 42.8198 136.03 43.3306C136.796 43.8201 137.403 44.4905 137.85 45.3418C138.318 46.1718 138.552 47.2147 138.552 48.4704C138.552 49.8964 138.307 51.0457 137.818 51.9183C137.328 52.7909 136.669 53.4719 135.839 53.9614C135.009 54.4296 134.04 54.7489 132.933 54.9192C131.848 55.0894 130.709 55.1746 129.517 55.1746H126.644V64.5284H122.622V41.9259ZM129.071 51.7267C129.645 51.7267 130.241 51.7054 130.858 51.6629C131.476 51.6203 132.04 51.4926 132.55 51.2798C133.082 51.0669 133.508 50.7477 133.827 50.322C134.168 49.8964 134.338 49.3004 134.338 48.5343C134.338 47.8319 134.189 47.2786 133.891 46.8742C133.593 46.4485 133.21 46.1293 132.742 45.9164C132.274 45.6823 131.752 45.5333 131.178 45.4695C130.603 45.4057 130.05 45.3737 129.517 45.3737H126.644V51.7267H129.071ZM140.925 53.3229C140.925 51.5139 141.223 49.8751 141.819 48.4066C142.415 46.9167 143.234 45.6504 144.277 44.6075C145.341 43.5647 146.597 42.7666 148.044 42.2132C149.513 41.6386 151.12 41.3512 152.865 41.3512C154.631 41.33 156.249 41.596 157.717 42.1493C159.186 42.6814 160.452 43.4689 161.516 44.5118C162.58 45.5546 163.411 46.8103 164.006 48.2789C164.602 49.7474 164.9 51.3862 164.9 53.1952C164.9 54.9617 164.602 56.5686 164.006 58.0158C163.411 59.4631 162.58 60.7081 161.516 61.751C160.452 62.7939 159.186 63.6133 157.717 64.2092C156.249 64.7838 154.631 65.0818 152.865 65.1031C151.12 65.1031 149.513 64.8264 148.044 64.273C146.597 63.6984 145.341 62.9003 144.277 61.8787C143.234 60.8358 142.415 59.5908 141.819 58.1435C141.223 56.6963 140.925 55.0894 140.925 53.3229ZM145.139 53.0675C145.139 54.2807 145.32 55.398 145.682 56.4196C146.065 57.4412 146.597 58.3244 147.278 59.0693C147.959 59.8143 148.768 60.3995 149.704 60.8252C150.662 61.2509 151.726 61.4637 152.897 61.4637C154.067 61.4637 155.131 61.2509 156.089 60.8252C157.047 60.3995 157.866 59.8143 158.547 59.0693C159.228 58.3244 159.75 57.4412 160.112 56.4196C160.495 55.398 160.686 54.2807 160.686 53.0675C160.686 51.9395 160.495 50.886 160.112 49.907C159.75 48.928 159.228 48.0767 158.547 47.353C157.866 46.6081 157.047 46.0335 156.089 45.6291C155.131 45.2035 154.067 44.9906 152.897 44.9906C151.726 44.9906 150.662 45.2035 149.704 45.6291C148.768 46.0335 147.959 46.6081 147.278 47.353C146.597 48.0767 146.065 48.928 145.682 49.907C145.32 50.886 145.139 51.9395 145.139 53.0675ZM168.636 41.9259H172.658V64.5284H168.636V41.9259ZM188.695 46.7784C188.269 46.1612 187.694 45.7143 186.971 45.4376C186.268 45.1396 185.523 44.9906 184.736 44.9906C184.268 44.9906 183.81 45.0438 183.363 45.1503C182.938 45.2567 182.544 45.4269 182.182 45.661C181.841 45.8952 181.565 46.2038 181.352 46.5869C181.139 46.9487 181.033 47.385 181.033 47.8958C181.033 48.662 181.299 49.2472 181.831 49.6516C182.363 50.056 183.023 50.4072 183.81 50.7051C184.598 51.0031 185.46 51.2904 186.396 51.5671C187.332 51.8438 188.194 52.2269 188.982 52.7164C189.769 53.2059 190.429 53.855 190.961 54.6638C191.493 55.4725 191.759 56.5473 191.759 57.8881C191.759 59.1013 191.536 60.1654 191.089 61.0806C190.642 61.9745 190.035 62.7194 189.269 63.3153C188.524 63.9112 187.652 64.3582 186.651 64.6561C185.651 64.9541 184.598 65.1031 183.491 65.1031C182.086 65.1031 180.735 64.869 179.436 64.4007C178.138 63.9325 177.021 63.145 176.084 62.0383L179.117 59.1013C179.607 59.8462 180.245 60.4315 181.033 60.8571C181.841 61.2615 182.693 61.4637 183.587 61.4637C184.055 61.4637 184.523 61.3998 184.991 61.2721C185.46 61.1444 185.885 60.9529 186.268 60.6975C186.651 60.4421 186.96 60.1229 187.194 59.7398C187.428 59.3354 187.545 58.8778 187.545 58.367C187.545 57.537 187.279 56.8985 186.747 56.4515C186.215 56.0046 185.555 55.6321 184.768 55.3342C183.98 55.0149 183.118 54.717 182.182 54.4403C181.246 54.1636 180.384 53.7912 179.596 53.3229C178.809 52.8334 178.149 52.1949 177.617 51.4075C177.085 50.5987 176.819 49.5239 176.819 48.1831C176.819 47.0125 177.053 46.0016 177.521 45.1503C178.011 44.2989 178.638 43.5966 179.405 43.0432C180.192 42.4686 181.086 42.0429 182.086 41.7663C183.087 41.4896 184.108 41.3512 185.151 41.3512C186.343 41.3512 187.492 41.5321 188.599 41.894C189.727 42.2558 190.738 42.8517 191.632 43.6817L188.695 46.7784ZM194.735 53.3229C194.735 51.5139 195.033 49.8751 195.629 48.4066C196.225 46.9167 197.045 45.6504 198.087 44.6075C199.152 43.5647 200.407 42.7666 201.854 42.2132C203.323 41.6386 204.93 41.3512 206.675 41.3512C208.442 41.33 210.059 41.596 211.528 42.1493C212.996 42.6814 214.262 43.4689 215.327 44.5118C216.391 45.5546 217.221 46.8103 217.817 48.2789C218.413 49.7474 218.711 51.3862 218.711 53.1952C218.711 54.9617 218.413 56.5686 217.817 58.0158C217.221 59.4631 216.391 60.7081 215.327 61.751C214.262 62.7939 212.996 63.6133 211.528 64.2092C210.059 64.7838 208.442 65.0818 206.675 65.1031C204.93 65.1031 203.323 64.8264 201.854 64.273C200.407 63.6984 199.152 62.9003 198.087 61.8787C197.045 60.8358 196.225 59.5908 195.629 58.1435C195.033 56.6963 194.735 55.0894 194.735 53.3229ZM198.949 53.0675C198.949 54.2807 199.13 55.398 199.492 56.4196C199.875 57.4412 200.407 58.3244 201.088 59.0693C201.769 59.8143 202.578 60.3995 203.515 60.8252C204.472 61.2509 205.536 61.4637 206.707 61.4637C207.878 61.4637 208.942 61.2509 209.899 60.8252C210.857 60.3995 211.677 59.8143 212.358 59.0693C213.039 58.3244 213.56 57.4412 213.922 56.4196C214.305 55.398 214.497 54.2807 214.497 53.0675C214.497 51.9395 214.305 50.886 213.922 49.907C213.56 48.928 213.039 48.0767 212.358 47.353C211.677 46.6081 210.857 46.0335 209.899 45.6291C208.942 45.2035 207.878 44.9906 206.707 44.9906C205.536 44.9906 204.472 45.2035 203.515 45.6291C202.578 46.0335 201.769 46.6081 201.088 47.353C200.407 48.0767 199.875 48.928 199.492 49.907C199.13 50.886 198.949 51.9395 198.949 53.0675ZM222.542 41.9259H227.873L238.823 58.7182H238.887V41.9259H242.91V64.5284H237.802L226.628 47.1934H226.564V64.5284H222.542V41.9259Z" fill="white"/>
<path fill-rule="evenodd" clip-rule="evenodd" d="M62.1021 72.4343C63.9865 72.4343 65.6391 71.1026 66.5654 69.1023C67.4917 71.1026 69.1443 72.4343 71.0287 72.4343C72.7463 72.4343 74.2713 71.3279 75.2292 69.6174C76.1872 71.3279 77.7122 72.4343 79.4298 72.4343C82.3297 72.4343 84.6805 69.2805 84.6805 65.39C84.6805 64.6233 84.5892 63.8852 84.4204 63.1941C88.4501 59.9719 90.9813 55.3165 90.9813 50.1392C90.9813 40.413 82.0482 32.5284 71.0285 32.5284C60.0089 32.5284 51.0757 40.413 51.0757 50.1392C51.0757 55.1295 53.4274 59.6351 57.2061 62.8396C56.977 63.6305 56.8514 64.4905 56.8514 65.39C56.8514 69.2805 59.2022 72.4343 62.1021 72.4343ZM70.7661 59.4292C77.2909 59.4292 82.5803 55.4263 82.5803 50.4884C82.5803 45.5505 77.2909 41.5475 70.7661 41.5475C64.2413 41.5475 58.952 45.5505 58.952 50.4884C58.952 55.4263 64.2413 59.4292 70.7661 59.4292Z" fill="white"/>
</g>
<defs>
<clipPath id="clip0">
<rect width="292.642" height="79.8113" fill="white" transform="translate(13.8303 13.9059)"/>
</clipPath>
</defs>
</svg>
