<svg width="320" height="107" viewBox="0 0 320 107" fill="none" xmlns="http://www.w3.org/2000/svg">
<g clip-path="url(#clip0)">
<rect x="13.3018" y="13.6227" width="292.642" height="79.8113" rx="39.9057" fill="#F87C7A"/>
<path d="M117.651 41.6427H125.249C126.334 41.6427 127.377 41.7491 128.377 41.9619C129.399 42.1747 130.293 42.5366 131.059 43.0474C131.825 43.5369 132.432 44.2073 132.879 45.0586C133.347 45.8886 133.581 46.9315 133.581 48.1872C133.581 49.6132 133.336 50.7624 132.847 51.6351C132.357 52.5077 131.698 53.1887 130.868 53.6782C130.038 54.1464 129.069 54.4657 127.962 54.636C126.877 54.8062 125.738 54.8914 124.547 54.8914H121.673V64.2452H117.651V41.6427ZM124.1 51.4435C124.674 51.4435 125.27 51.4222 125.887 51.3797C126.505 51.3371 127.069 51.2094 127.579 50.9966C128.111 50.7837 128.537 50.4645 128.856 50.0388C129.197 49.6132 129.367 49.0172 129.367 48.2511C129.367 47.5487 129.218 46.9954 128.92 46.591C128.622 46.1653 128.239 45.8461 127.771 45.6332C127.303 45.3991 126.781 45.2501 126.207 45.1863C125.632 45.1224 125.079 45.0905 124.547 45.0905H121.673V51.4435H124.1ZM148.245 46.4952C147.819 45.878 147.245 45.4311 146.521 45.1544C145.819 44.8564 145.074 44.7074 144.286 44.7074C143.818 44.7074 143.361 44.7606 142.914 44.8671C142.488 44.9735 142.094 45.1437 141.732 45.3778C141.392 45.612 141.115 45.9206 140.902 46.3037C140.69 46.6655 140.583 47.1018 140.583 47.6126C140.583 48.3787 140.849 48.964 141.381 49.3684C141.913 49.7728 142.573 50.124 143.361 50.4219C144.148 50.7199 145.01 51.0072 145.946 51.2839C146.883 51.5606 147.745 51.9437 148.532 52.4332C149.32 52.9227 149.98 53.5718 150.512 54.3806C151.044 55.1893 151.31 56.2641 151.31 57.6049C151.31 58.8181 151.086 59.8822 150.639 60.7974C150.192 61.6913 149.586 62.4362 148.82 63.0321C148.075 63.628 147.202 64.075 146.202 64.3729C145.202 64.6709 144.148 64.8199 143.041 64.8199C141.637 64.8199 140.285 64.5858 138.987 64.1175C137.689 63.6493 136.571 62.8618 135.635 61.7551L138.668 58.8181C139.157 59.563 139.796 60.1483 140.583 60.5739C141.392 60.9783 142.243 61.1805 143.137 61.1805C143.605 61.1805 144.074 61.1166 144.542 60.9889C145.01 60.8612 145.436 60.6697 145.819 60.4143C146.202 60.1589 146.51 59.8397 146.745 59.4566C146.979 59.0522 147.096 58.5946 147.096 58.0838C147.096 57.2538 146.83 56.6153 146.298 56.1683C145.766 55.7214 145.106 55.3489 144.318 55.051C143.531 54.7317 142.669 54.4338 141.732 54.1571C140.796 53.8804 139.934 53.508 139.147 53.0397C138.359 52.5502 137.699 51.9117 137.167 51.1243C136.635 50.3155 136.369 49.2407 136.369 47.8999C136.369 46.7293 136.603 45.7184 137.071 44.8671C137.561 44.0157 138.189 43.3134 138.955 42.76C139.742 42.1854 140.636 41.7597 141.637 41.4831C142.637 41.2064 143.659 41.068 144.701 41.068C145.893 41.068 147.043 41.2489 148.149 41.6107C149.277 41.9726 150.288 42.5685 151.182 43.3985L148.245 46.4952ZM161.022 54.5721L152.53 41.6427H157.574L163.129 50.6454L168.748 41.6427H173.536L165.044 54.5721V64.2452H161.022V54.5721ZM191.123 46.9421C190.293 46.0483 189.484 45.4523 188.697 45.1544C187.93 44.8564 187.154 44.7074 186.366 44.7074C185.196 44.7074 184.131 44.9203 183.174 45.3459C182.237 45.7503 181.428 46.3249 180.747 47.0698C180.066 47.7935 179.534 48.6448 179.151 49.6238C178.789 50.6028 178.608 51.6563 178.608 52.7843C178.608 53.9975 178.789 55.1148 179.151 56.1364C179.534 57.158 180.066 58.0412 180.747 58.7861C181.428 59.5311 182.237 60.1163 183.174 60.542C184.131 60.9677 185.196 61.1805 186.366 61.1805C187.281 61.1805 188.165 60.9677 189.016 60.542C189.888 60.0951 190.697 59.3927 191.442 58.435L194.762 60.7974C193.741 62.2021 192.496 63.2237 191.027 63.8621C189.559 64.5006 187.994 64.8199 186.334 64.8199C184.589 64.8199 182.982 64.5432 181.514 63.9898C180.066 63.4152 178.811 62.6171 177.747 61.5955C176.704 60.5526 175.884 59.3076 175.288 57.8603C174.692 56.4131 174.394 54.8062 174.394 53.0397C174.394 51.2307 174.692 49.5919 175.288 48.1234C175.884 46.6335 176.704 45.3672 177.747 44.3243C178.811 43.2815 180.066 42.4834 181.514 41.93C182.982 41.3554 184.589 41.068 186.334 41.068C187.867 41.068 189.282 41.3447 190.58 41.8981C191.9 42.4301 193.123 43.3453 194.251 44.6436L191.123 46.9421ZM197.462 41.6427H201.485V50.6454H212.052V41.6427H216.074V64.2452H212.052V54.2848H201.485V64.2452H197.462V41.6427ZM221.029 41.6427H225.052V64.2452H221.029V41.6427ZM245.526 46.9421C244.695 46.0483 243.887 45.4523 243.099 45.1544C242.333 44.8564 241.556 44.7074 240.769 44.7074C239.598 44.7074 238.534 44.9203 237.576 45.3459C236.64 45.7503 235.831 46.3249 235.15 47.0698C234.469 47.7935 233.937 48.6448 233.554 49.6238C233.192 50.6028 233.011 51.6563 233.011 52.7843C233.011 53.9975 233.192 55.1148 233.554 56.1364C233.937 57.158 234.469 58.0412 235.15 58.7861C235.831 59.5311 236.64 60.1163 237.576 60.542C238.534 60.9677 239.598 61.1805 240.769 61.1805C241.684 61.1805 242.567 60.9677 243.418 60.542C244.291 60.0951 245.1 59.3927 245.845 58.435L249.165 60.7974C248.143 62.2021 246.898 63.2237 245.43 63.8621C243.961 64.5006 242.397 64.8199 240.737 64.8199C238.992 64.8199 237.385 64.5432 235.916 63.9898C234.469 63.4152 233.213 62.6171 232.149 61.5955C231.106 60.5526 230.287 59.3076 229.691 57.8603C229.095 56.4131 228.797 54.8062 228.797 53.0397C228.797 51.2307 229.095 49.5919 229.691 48.1234C230.287 46.6335 231.106 45.3672 232.149 44.3243C233.213 43.2815 234.469 42.4834 235.916 41.93C237.385 41.3554 238.992 41.068 240.737 41.068C242.269 41.068 243.685 41.3447 244.983 41.8981C246.302 42.4301 247.526 43.3453 248.654 44.6436L245.526 46.9421Z" fill="white"/>
<path fill-rule="evenodd" clip-rule="evenodd" d="M82.4038 65.8355C82.4038 65.8355 77.7075 69.6022 68.3618 68.0434C61.2713 66.8608 57.4897 59.0447 57.4897 54.8435C57.4897 44.8825 64.8621 42.6157 69.8463 42.6157C74.8305 42.6157 78.0819 47.4751 78.0819 51.2374C78.0819 54.9998 75.4209 58.2906 71.2798 58.2906C67.1387 58.2906 65.9123 55.3833 65.9123 52.7105C65.9123 50.0377 68.0748 49.096 70.0469 49.096C72.0191 49.096 72.6944 50.7798 72.6944 52.2269C72.6944 53.6741 71.5716 54.1923 70.6351 54.1923C69.6985 54.1923 69.6059 53.7198 69.2475 53.2233C68.8891 52.7268 69.7046 50.8473 68.3618 50.8473C67.0189 50.8473 66.7686 53.008 66.7686 53.008C66.7686 53.008 67.2582 57.1786 71.2798 57.1066C75.3015 57.0346 77.2093 53.9256 76.6549 50.8473C76.1004 47.7691 73.1131 44.4981 67.87 45.1591C62.627 45.82 60.4863 51.1176 61.4299 56.7789C62.3735 62.4402 69.1557 65.7204 74.4883 64.5403C79.8209 63.3602 85.132 59.4996 85.132 49.7115C85.132 39.9235 76.6549 34.04 66.5467 35.0096C56.4384 35.9792 50.1637 44.8165 50.5653 55.4347C50.967 66.0529 61.0424 71.8359 69.5621 72.1339C78.0819 72.432 83.3049 67.5001 83.3049 67.5001C83.3049 67.5001 84.4796 66.4527 84.019 65.6347C83.5585 64.8168 82.4038 65.8355 82.4038 65.8355Z" fill="white"/>
</g>
<defs>
<clipPath id="clip0">
<rect width="292.642" height="79.8113" fill="white" transform="translate(13.3018 13.6227)"/>
</clipPath>
</defs>
</svg>
