<svg width="320" height="107" viewBox="0 0 320 107" fill="none" xmlns="http://www.w3.org/2000/svg">
<g clip-path="url(#clip0)">
<rect x="13.8303" y="13.6227" width="292.642" height="79.8113" rx="39.9057" fill="#CEC18C"/>
<path d="M140.081 41.6427H147.934C149.019 41.6427 150.062 41.7491 151.063 41.9619C152.084 42.1535 152.989 42.494 153.776 42.9835C154.564 43.473 155.191 44.1328 155.66 44.9628C156.128 45.7929 156.362 46.8464 156.362 48.1234C156.362 49.7621 155.904 51.1349 154.989 52.2416C154.095 53.3483 152.808 54.0187 151.126 54.2529L157.128 64.2452H152.276L147.04 54.6679H144.103V64.2452H140.081V41.6427ZM147.232 51.22C147.806 51.22 148.381 51.1987 148.956 51.1562C149.53 51.0923 150.052 50.9646 150.52 50.7731C151.009 50.5603 151.403 50.2517 151.701 49.8473C151.999 49.4216 152.148 48.8363 152.148 48.0914C152.148 47.4317 152.01 46.8996 151.733 46.4952C151.456 46.0908 151.094 45.7929 150.648 45.6013C150.201 45.3885 149.7 45.2501 149.147 45.1863C148.615 45.1224 148.094 45.0905 147.583 45.0905H144.103V51.22H147.232ZM158.976 53.0397C158.976 51.2307 159.274 49.5919 159.87 48.1234C160.466 46.6335 161.285 45.3672 162.328 44.3243C163.392 43.2815 164.648 42.4834 166.095 41.93C167.564 41.3554 169.171 41.068 170.916 41.068C172.682 41.0467 174.3 41.3128 175.768 41.8661C177.237 42.3982 178.503 43.1857 179.567 44.2286C180.632 45.2714 181.462 46.5271 182.058 47.9957C182.653 49.4642 182.951 51.103 182.951 52.912C182.951 54.6785 182.653 56.2854 182.058 57.7326C181.462 59.1799 180.632 60.4249 179.567 61.4678C178.503 62.5107 177.237 63.3301 175.768 63.926C174.3 64.5006 172.682 64.7986 170.916 64.8199C169.171 64.8199 167.564 64.5432 166.095 63.9898C164.648 63.4152 163.392 62.6171 162.328 61.5955C161.285 60.5526 160.466 59.3076 159.87 57.8603C159.274 56.4131 158.976 54.8062 158.976 53.0397ZM163.19 52.7843C163.19 53.9975 163.371 55.1148 163.733 56.1364C164.116 57.158 164.648 58.0412 165.329 58.7861C166.01 59.5311 166.819 60.1163 167.755 60.542C168.713 60.9677 169.777 61.1805 170.948 61.1805C172.118 61.1805 173.183 60.9677 174.14 60.542C175.098 60.1163 175.917 59.5311 176.598 58.7861C177.279 58.0412 177.801 57.158 178.163 56.1364C178.546 55.1148 178.737 53.9975 178.737 52.7843C178.737 51.6563 178.546 50.6028 178.163 49.6238C177.801 48.6448 177.279 47.7935 176.598 47.0698C175.917 46.3249 175.098 45.7503 174.14 45.3459C173.183 44.9203 172.118 44.7074 170.948 44.7074C169.777 44.7074 168.713 44.9203 167.755 45.3459C166.819 45.7503 166.01 46.3249 165.329 47.0698C164.648 47.7935 164.116 48.6448 163.733 49.6238C163.371 50.6028 163.19 51.6563 163.19 52.7843ZM202.298 46.9421C201.468 46.0483 200.659 45.4523 199.872 45.1544C199.105 44.8564 198.329 44.7074 197.541 44.7074C196.371 44.7074 195.306 44.9203 194.349 45.3459C193.412 45.7503 192.604 46.3249 191.922 47.0698C191.241 47.7935 190.709 48.6448 190.326 49.6238C189.964 50.6028 189.784 51.6563 189.784 52.7843C189.784 53.9975 189.964 55.1148 190.326 56.1364C190.709 57.158 191.241 58.0412 191.922 58.7861C192.604 59.5311 193.412 60.1163 194.349 60.542C195.306 60.9677 196.371 61.1805 197.541 61.1805C198.456 61.1805 199.34 60.9677 200.191 60.542C201.064 60.0951 201.872 59.3927 202.617 58.435L205.937 60.7974C204.916 62.2021 203.671 63.2237 202.202 63.8621C200.734 64.5006 199.169 64.8199 197.509 64.8199C195.764 64.8199 194.157 64.5432 192.689 63.9898C191.241 63.4152 189.986 62.6171 188.922 61.5955C187.879 60.5526 187.059 59.3076 186.463 57.8603C185.867 56.4131 185.569 54.8062 185.569 53.0397C185.569 51.2307 185.867 49.5919 186.463 48.1234C187.059 46.6335 187.879 45.3672 188.922 44.3243C189.986 43.2815 191.241 42.4834 192.689 41.93C194.157 41.3554 195.764 41.068 197.509 41.068C199.042 41.068 200.457 41.3447 201.755 41.8981C203.075 42.4301 204.299 43.3453 205.427 44.6436L202.298 46.9421ZM208.637 41.6427H212.66V51.22H212.851L222.205 41.6427H227.632L217.065 52.082L228.335 64.2452H222.684L212.883 53.1355H212.66V64.2452H208.637V41.6427Z" fill="white"/>
<path fill-rule="evenodd" clip-rule="evenodd" d="M79.9502 54.2354C79.8722 54.1291 79.8407 53.9956 79.863 53.8657L82.1328 40.6302C82.1728 40.397 82.378 40.2264 82.6147 40.2264C82.8267 40.2264 83.0168 40.3639 83.0806 40.566L88.2193 56.8365C88.2804 57.03 88.2149 57.241 88.055 57.3659L84.7588 59.9395C84.5428 60.1081 84.2302 60.0649 84.0681 59.844L79.9502 54.2354ZM51.0757 62.8956C51.0757 63.1058 51.2108 63.2922 51.4106 63.3575L58.9813 65.8329C59.1256 65.8801 59.2836 65.8571 59.4084 65.7709L77.1952 53.4914C77.3059 53.415 77.3799 53.2962 77.3997 53.1631L79.2348 40.8499C79.2786 40.5562 79.0511 40.2923 78.7542 40.2923H63.4499C63.3052 40.2923 63.1681 40.3568 63.0758 40.4682L51.1875 54.8095C51.1152 54.8967 51.0757 55.0064 51.0757 55.1196V62.8956ZM62.5873 66.5829L71.2295 69.4139C71.3767 69.4621 71.5381 69.4372 71.664 69.3469L81.657 62.1789C81.8704 62.0258 81.9236 61.7309 81.7771 61.513L78.3399 56.398C78.1893 56.174 77.885 56.1156 77.6622 56.268L62.5873 66.5829Z" fill="white"/>
</g>
<defs>
<clipPath id="clip0">
<rect width="292.642" height="79.8113" fill="white" transform="translate(13.8303 13.6227)"/>
</clipPath>
</defs>
</svg>
