<svg width="320" height="107" viewBox="0 0 320 107" fill="none" xmlns="http://www.w3.org/2000/svg">
<g clip-path="url(#clip0)">
<rect x="13.3018" y="13.3208" width="292.642" height="79.8113" rx="39.9057" fill="#5596A4"/>
<path d="M149.71 46.1934C149.285 45.5762 148.71 45.1293 147.986 44.8526C147.284 44.5547 146.539 44.4057 145.752 44.4057C145.283 44.4057 144.826 44.4589 144.379 44.5653C143.953 44.6717 143.56 44.842 143.198 45.0761C142.857 45.3102 142.58 45.6188 142.368 46.0019C142.155 46.3637 142.048 46.8 142.048 47.3108C142.048 48.077 142.314 48.6623 142.847 49.0667C143.379 49.471 144.038 49.8222 144.826 50.1202C145.613 50.4181 146.475 50.7054 147.412 50.9821C148.348 51.2588 149.21 51.6419 149.998 52.1314C150.785 52.6209 151.445 53.27 151.977 54.0788C152.509 54.8876 152.775 55.9623 152.775 57.3032C152.775 58.5163 152.552 59.5805 152.105 60.4956C151.658 61.3895 151.051 62.1344 150.285 62.7303C149.54 63.3263 148.667 63.7732 147.667 64.0712C146.667 64.3691 145.613 64.5181 144.507 64.5181C143.102 64.5181 141.75 64.284 140.452 63.8158C139.154 63.3476 138.037 62.5601 137.1 61.4534L140.133 58.5163C140.622 59.2612 141.261 59.8465 142.048 60.2722C142.857 60.6765 143.708 60.8787 144.602 60.8787C145.071 60.8787 145.539 60.8149 146.007 60.6872C146.475 60.5595 146.901 60.3679 147.284 60.1125C147.667 59.8571 147.976 59.5379 148.21 59.1548C148.444 58.7504 148.561 58.2928 148.561 57.782C148.561 56.952 148.295 56.3135 147.763 55.8666C147.231 55.4196 146.571 55.0472 145.784 54.7492C144.996 54.43 144.134 54.132 143.198 53.8553C142.261 53.5787 141.399 53.2062 140.612 52.738C139.824 52.2485 139.165 51.61 138.632 50.8225C138.1 50.0137 137.834 48.939 137.834 47.5981C137.834 46.4276 138.068 45.4166 138.537 44.5653C139.026 43.714 139.654 43.0116 140.42 42.4583C141.208 41.8836 142.102 41.458 143.102 41.1813C144.102 40.9046 145.124 40.7663 146.167 40.7663C147.359 40.7663 148.508 40.9472 149.615 41.309C150.743 41.6708 151.753 42.2667 152.647 43.0968L149.71 46.1934ZM161.593 44.9803H154.666V41.3409H172.543V44.9803H165.616V63.9435H161.593V44.9803ZM175.296 41.3409H190.268V44.9803H179.318V50.5352H189.694V54.1746H179.318V60.3041H190.843V63.9435H175.296V41.3409ZM194.812 41.3409H209.785V44.9803H198.835V50.5352H209.21V54.1746H198.835V60.3041H210.359V63.9435H194.812V41.3409ZM214.329 41.3409H218.351V60.3041H227.96V63.9435H214.329V41.3409Z" fill="white"/>
<path fill-rule="evenodd" clip-rule="evenodd" d="M50.6833 52.4068C50.5021 52.0975 50.502 51.7145 50.6831 51.4052L60.2297 35.0943C60.4075 34.7906 60.7331 34.6039 61.085 34.6039H80.0169C80.3705 34.6039 80.6974 34.7923 80.8746 35.0984L90.3165 51.4093C90.4944 51.7166 90.4943 52.0955 90.3162 52.4027L80.8747 68.6947C80.6974 69.0005 80.3707 69.1888 80.0172 69.1888H61.0847C60.7329 69.1888 60.4075 69.0023 60.2296 68.6988L50.6833 52.4068ZM70.4997 61.2076C75.6422 61.2076 79.811 57.0388 79.811 51.8963C79.811 46.7538 75.6422 42.585 70.4997 42.585C65.3572 42.585 61.1884 46.7538 61.1884 51.8963C61.1884 57.0388 65.3572 61.2076 70.4997 61.2076Z" fill="white"/>
</g>
<defs>
<clipPath id="clip0">
<rect width="292.642" height="79.8113" fill="white" transform="translate(13.3018 13.3208)"/>
</clipPath>
</defs>
</svg>
