<svg width="320" height="107" viewBox="0 0 320 107" fill="none" xmlns="http://www.w3.org/2000/svg">
<g clip-path="url(#clip0)">
<rect x="13.8303" y="13.3208" width="292.642" height="79.8113" rx="39.9057" fill="#559EDF"/>
<path d="M128.471 41.3409H132.876L137.122 57.6224H137.186L142.262 41.3409H146.221L151.201 57.6224H151.265L155.702 41.3409H159.789L153.212 63.9435H149.381L144.146 46.7362H144.082L138.846 63.9435H135.143L128.471 41.3409ZM168.825 41.3409H172.305L182.042 63.9435H177.445L175.338 58.7717H165.537L163.494 63.9435H158.992L168.825 41.3409ZM173.933 55.3239L170.453 46.1296L166.909 55.3239H173.933ZM186.252 44.9803H179.324V41.3409H197.202V44.9803H190.274V63.9435H186.252V44.9803ZM199.955 41.3409H214.927V44.9803H203.977V50.5352H214.353V54.1746H203.977V60.3041H215.502V63.9435H199.955V41.3409ZM219.471 41.3409H227.324C228.41 41.3409 229.453 41.4473 230.453 41.6602C231.475 41.8517 232.379 42.1922 233.167 42.6817C233.954 43.1713 234.582 43.831 235.05 44.6611C235.518 45.4911 235.752 46.5446 235.752 47.8216C235.752 49.4604 235.295 50.8331 234.38 51.9399C233.486 53.0466 232.198 53.717 230.517 53.9511L236.519 63.9435H231.666L226.43 54.3661H223.493V63.9435H219.471V41.3409ZM226.622 50.9183C227.197 50.9183 227.771 50.897 228.346 50.8544C228.921 50.7906 229.442 50.6629 229.91 50.4713C230.4 50.2585 230.794 49.9499 231.091 49.5455C231.389 49.1199 231.538 48.5346 231.538 47.7897C231.538 47.1299 231.4 46.5978 231.123 46.1934C230.847 45.7891 230.485 45.4911 230.038 45.2996C229.591 45.0867 229.091 44.9484 228.538 44.8845C228.005 44.8207 227.484 44.7888 226.973 44.7888H223.493V50.9183H226.622Z" fill="white"/>
<path fill-rule="evenodd" clip-rule="evenodd" d="M85.0378 60.5372C85.0378 68.2122 78.7698 74.4341 71.0378 74.4341C63.3058 74.4341 57.0378 68.2122 57.0378 60.5372C57.0378 53.0727 70.2805 32.5719 71.0068 31.4532C71.0234 31.4277 71.0523 31.4277 71.0689 31.4532C71.7951 32.5719 85.0378 53.0727 85.0378 60.5372ZM68.7041 69.9788C61.5998 68.43 62.8155 60.5889 62.8155 60.5889C62.8155 60.5889 64.7554 65.3223 69.4632 66.8556C74.1708 68.3888 79.8599 66.1401 79.8599 66.1401C79.8599 66.1401 75.8084 71.5276 68.7041 69.9788Z" fill="white"/>
</g>
<defs>
<clipPath id="clip0">
<rect width="292.642" height="79.8113" fill="white" transform="translate(13.8303 13.3208)"/>
</clipPath>
</defs>
</svg>
